<svg width="1076" height="145" viewBox="0 0 1076 145" fill="none" xmlns="http://www.w3.org/2000/svg">
<path d="M96.8 118.2L97.7471 117.879L97.5171 117.2H96.8V118.2ZM44.4 118.2V117.2H43.6829L43.4529 117.879L44.4 118.2ZM36 143V144H36.7171L36.9471 143.321L36 143ZM0.2 143L-0.74034 142.66L-1.22527 144H0.2V143ZM51 2.6V1.6H50.2984L50.0597 2.25976L51 2.6ZM90.6 2.6L91.5403 2.25976L91.3016 1.6H90.6V2.6ZM141.4 143V144H142.825L142.34 142.66L141.4 143ZM105.2 143L104.253 143.321L104.483 144H105.2L105.2 143ZM88 91.8V92.8H89.3943L88.9472 91.4794L88 91.8ZM70.6 40.4L71.5472 40.0794L70.5945 37.2651L69.6517 40.0827L70.6 40.4ZM53.4 91.8L52.4517 91.4827L52.0109 92.8H53.4V91.8ZM96.8 117.2L44.4 117.2V119.2L96.8 119.2V117.2ZM43.4529 117.879L35.0529 142.679L36.9471 143.321L45.3471 118.521L43.4529 117.879ZM36 142H0.2L0.2 144H36V142ZM1.14034 143.34L51.9403 2.94023L50.0597 2.25976L-0.74034 142.66L1.14034 143.34ZM51 3.6H90.6V1.6H51V3.6ZM89.6597 2.94023L140.46 143.34L142.34 142.66L91.5403 2.25976L89.6597 2.94023ZM141.4 142H105.2L105.2 144H141.4V142ZM106.147 142.679L97.7471 117.879L95.8529 118.521L104.253 143.321L106.147 142.679ZM88.9472 91.4794L71.5472 40.0794L69.6528 40.7206L87.0528 92.1206L88.9472 91.4794ZM69.6517 40.0827L52.4517 91.4827L54.3483 92.1173L71.5483 40.7173L69.6517 40.0827ZM53.4 92.8L88 92.8V90.8L53.4 90.8V92.8ZM241.861 71L241.577 70.0412L241.653 71.978L241.861 71ZM261.461 83.2L260.669 83.8105L260.675 83.8186L261.461 83.2ZM256.461 132.8L257.102 133.567L257.104 133.566L256.461 132.8ZM156.861 143H155.861V144H156.861V143ZM156.861 2.6V1.6H155.861V2.6H156.861ZM253.461 12.4L252.828 13.1745L252.835 13.1796L253.461 12.4ZM259.061 59.6L258.282 58.973L258.277 58.9788L258.273 58.9847L259.061 59.6ZM191.061 59.4H190.061V60.4H191.061V59.4ZM226.261 55.8L226.894 56.574L226.898 56.571L226.261 55.8ZM226.261 33.8L225.607 34.5568L225.616 34.564L225.624 34.571L226.261 33.8ZM191.061 30V29H190.061V30H191.061ZM229.461 111.6L230.098 112.371L230.101 112.368L229.461 111.6ZM229.261 88.6L228.602 89.3526L228.61 89.3592L228.618 89.3657L229.261 88.6ZM191.061 84.4V83.4H190.061V84.4H191.061ZM191.061 115.4H190.061V116.4H191.061V115.4ZM241.653 71.978C249.561 73.6635 255.885 77.6042 260.669 83.8105L262.253 82.5895C257.17 75.9958 250.427 71.8032 242.069 70.022L241.653 71.978ZM260.675 83.8186C265.467 89.9052 267.861 96.8862 267.861 104.8H269.861C269.861 96.4471 267.322 89.0282 262.247 82.5814L260.675 83.8186ZM267.861 104.8C267.861 116.267 263.837 125.309 255.818 132.034L257.104 133.566C265.618 126.425 269.861 116.8 269.861 104.8H267.861ZM255.82 132.033C247.924 138.634 236.782 142 222.261 142V144C237.073 144 248.731 140.566 257.102 133.567L255.82 132.033ZM222.261 142H156.861V144H222.261V142ZM157.861 143L157.861 2.6H155.861L155.861 143H157.861ZM156.861 3.6L220.061 3.6V1.6L156.861 1.6V3.6ZM220.061 3.6C234.184 3.6 245.064 6.83394 252.828 13.1745L254.093 11.6255C245.857 4.89938 234.471 1.6 220.061 1.6V3.6ZM252.835 13.1796C260.712 19.5077 264.661 28.0775 264.661 39H266.661C266.661 27.5225 262.476 18.359 254.087 11.6204L252.835 13.1796ZM264.661 39C264.661 47.0809 262.514 53.7144 258.282 58.973L259.84 60.227C264.407 54.5522 266.661 47.4524 266.661 39H264.661ZM258.273 58.9847C254.145 64.2734 248.595 67.9619 241.577 70.0412L242.145 71.9588C249.527 69.7714 255.444 65.86 259.849 60.2153L258.273 58.9847ZM191.061 60.4H213.461V58.4H191.061V60.4ZM213.461 60.4C219.185 60.4 223.714 59.1757 226.894 56.574L225.628 55.026C222.941 57.2242 218.937 58.4 213.461 58.4V60.4ZM226.898 56.571C230.242 53.8082 231.861 49.8303 231.861 44.8H229.861C229.861 49.3697 228.413 52.7251 225.624 55.029L226.898 56.571ZM231.861 44.8C231.861 39.7697 230.242 35.7918 226.898 33.029L225.624 34.571C228.413 36.8749 229.861 40.2303 229.861 44.8H231.861ZM226.915 33.0432C223.733 30.2959 219.196 29 213.461 29V31C218.926 31 222.922 32.2375 225.607 34.5568L226.915 33.0432ZM213.461 29H191.061V31H213.461V29ZM190.061 30V59.4H192.061V30H190.061ZM216.261 116.4C222.127 116.4 226.787 115.106 230.098 112.371L228.824 110.829C226.001 113.161 221.862 114.4 216.261 114.4V116.4ZM230.101 112.368C233.572 109.476 235.261 105.37 235.261 100.2H233.261C233.261 104.897 231.75 108.391 228.821 110.832L230.101 112.368ZM235.261 100.2C235.261 95.0154 233.495 90.851 229.904 87.8343L228.618 89.3657C231.693 91.949 233.261 95.5179 233.261 100.2H235.261ZM229.919 87.8474C226.482 84.8396 221.751 83.4 215.861 83.4V85.4C221.437 85.4 225.64 86.7604 228.602 89.3526L229.919 87.8474ZM215.861 83.4H191.061V85.4H215.861V83.4ZM190.061 84.4V115.4H192.061V84.4H190.061ZM191.061 116.4H216.261V114.4H191.061V116.4ZM318.697 135.2L318.208 136.072L318.212 136.075L318.697 135.2ZM292.497 109.6L291.631 110.101L291.635 110.107L291.638 110.113L292.497 109.6ZM292.497 35.4L291.638 34.887L291.634 34.8948L292.497 35.4ZM318.697 9.8L318.212 8.92533L318.208 8.92786L318.697 9.8ZM391.297 9.8L390.808 10.6722L390.812 10.6747L391.297 9.8ZM417.297 35.4L416.429 35.8973L416.434 35.9052L417.297 35.4ZM417.297 109.6L418.16 110.105L418.163 110.101L417.297 109.6ZM391.297 135.2L391.786 136.072L391.786 136.072L391.297 135.2ZM381.897 102L381.157 101.327L381.151 101.334L381.897 102ZM381.897 42.8L381.151 43.466L381.157 43.473L381.164 43.4799L381.897 42.8ZM327.897 42.6L327.164 41.92L327.157 41.9273L327.897 42.6ZM327.897 102.2L327.151 102.866L327.157 102.873L327.164 102.88L327.897 102.2ZM355.097 143.4C342.059 143.4 330.093 140.373 319.182 134.325L318.212 136.075C329.434 142.294 341.735 145.4 355.097 145.4V143.4ZM319.186 134.328C308.408 128.281 299.801 119.873 293.355 109.087L291.638 110.113C298.26 121.194 307.119 129.852 318.208 136.072L319.186 134.328ZM293.363 109.099C287.057 98.1961 283.897 85.971 283.897 72.4H281.897C281.897 86.2956 285.137 98.8705 291.631 110.101L293.363 109.099ZM283.897 72.4C283.897 58.8288 287.057 46.6725 293.36 35.9052L291.634 34.8948C285.137 45.9942 281.897 58.5045 281.897 72.4H283.897ZM293.355 35.9129C299.801 25.127 308.408 16.7186 319.186 10.6721L318.208 8.92786C307.119 15.1481 298.26 23.8063 291.638 34.887L293.355 35.9129ZM319.182 10.6747C330.093 4.62715 342.059 1.6 355.097 1.6V-0.400002C341.735 -0.400002 329.434 2.70618 318.212 8.92534L319.182 10.6747ZM355.097 1.6C368.135 1.6 380.032 4.62712 390.808 10.6721L391.786 8.92786C380.695 2.7062 368.459 -0.400002 355.097 -0.400002V1.6ZM390.812 10.6747C401.72 16.7199 410.254 25.123 416.429 35.8973L418.164 34.9027C411.807 23.8103 403.007 15.1468 391.782 8.92534L390.812 10.6747ZM416.434 35.9052C422.737 46.6725 425.897 58.8288 425.897 72.4H427.897C427.897 58.5045 424.657 45.9942 418.16 34.8948L416.434 35.9052ZM425.897 72.4C425.897 85.971 422.737 98.1961 416.431 109.099L418.163 110.101C424.657 98.8705 427.897 86.2956 427.897 72.4H425.897ZM416.434 109.095C410.123 119.877 401.584 128.282 390.808 134.328L391.786 136.072C402.876 129.851 411.671 121.19 418.16 110.105L416.434 109.095ZM390.808 134.328C380.032 140.373 368.135 143.4 355.097 143.4V145.4C368.459 145.4 380.695 142.294 391.786 136.072L390.808 134.328ZM355.097 114.2C366.544 114.2 375.763 110.372 382.643 102.666L381.151 101.334C374.698 108.562 366.05 112.2 355.097 112.2V114.2ZM382.636 102.673C389.638 94.9848 393.097 84.8595 393.097 72.4H391.097C391.097 84.4738 387.755 94.0819 381.158 101.327L382.636 102.673ZM393.097 72.4C393.097 59.8112 389.64 49.68 382.63 42.1201L381.164 43.4799C387.753 50.5866 391.097 60.1888 391.097 72.4H393.097ZM382.643 42.134C375.763 34.4282 366.544 30.6 355.097 30.6V32.6C366.05 32.6 374.698 36.2384 381.151 43.466L382.643 42.134ZM355.097 30.6C343.526 30.6 334.179 34.3545 327.164 41.9201L328.63 43.2799C335.215 36.1788 344.001 32.6 355.097 32.6V30.6ZM327.157 41.9273C320.282 49.4897 316.897 59.6862 316.897 72.4H318.897C318.897 60.0471 322.178 50.377 328.637 43.2727L327.157 41.9273ZM316.897 72.4C316.897 84.9846 320.284 95.1751 327.151 102.866L328.643 101.534C322.176 94.2915 318.897 84.6154 318.897 72.4H316.897ZM327.164 102.88C334.179 110.446 343.526 114.2 355.097 114.2V112.2C344.001 112.2 335.215 108.621 328.63 101.52L327.164 102.88ZM479.523 2.6H480.523V1.6H479.523V2.6ZM485.723 106L484.984 106.674L484.984 106.674L485.723 106ZM522.323 106L523.052 106.685L523.052 106.685L522.323 106ZM528.723 2.6V1.6H527.723V2.6H528.723ZM562.923 2.6H563.923V1.6H562.923V2.6ZM554.923 118.2L555.775 118.724L555.775 118.724L554.923 118.2ZM533.323 137.8L532.887 136.9L532.882 136.903L533.323 137.8ZM473.523 138L473.071 138.892L473.079 138.896L473.087 138.9L473.523 138ZM452.923 118.4L452.057 118.899L452.06 118.905L452.923 118.4ZM445.323 2.6V1.6H444.323V2.6H445.323ZM478.523 2.6V86.6H480.523V2.6H478.523ZM478.523 86.6C478.523 95.1564 480.63 101.897 484.984 106.674L486.462 105.326C482.551 101.036 480.523 94.8436 480.523 86.6H478.523ZM484.984 106.674C489.361 111.473 495.733 113.8 503.923 113.8V111.8C496.114 111.8 490.353 109.593 486.462 105.326L484.984 106.674ZM503.923 113.8C512.116 113.8 518.546 111.473 523.052 106.685L521.595 105.315C517.568 109.594 511.731 111.8 503.923 111.8V113.8ZM523.052 106.685C527.546 101.91 529.723 95.164 529.723 86.6H527.723C527.723 94.836 525.634 101.024 521.595 105.315L523.052 106.685ZM529.723 86.6V2.6H527.723V86.6H529.723ZM528.723 3.6H562.923V1.6H528.723V3.6ZM561.923 2.6V86.4H563.923V2.6H561.923ZM561.923 86.4C561.923 98.7911 559.288 109.2 554.072 117.676L555.775 118.724C561.226 109.867 563.923 99.0756 563.923 86.4H561.923ZM554.072 117.676C548.837 126.182 541.78 132.584 532.887 136.9L533.76 138.7C543 134.216 550.343 127.551 555.775 118.724L554.072 117.676ZM532.882 136.903C524.1 141.228 514.254 143.4 503.323 143.4V145.4C514.526 145.4 524.68 143.172 533.765 138.697L532.882 136.903ZM503.323 143.4C492.388 143.4 482.607 141.293 473.96 137.1L473.087 138.9C482.04 143.241 492.126 145.4 503.323 145.4V143.4ZM473.976 137.108C465.486 132.798 458.76 126.402 453.787 117.895L452.06 118.905C457.22 127.731 464.227 134.402 473.071 138.892L473.976 137.108ZM453.79 117.901C448.829 109.285 446.323 98.7989 446.323 86.4H444.323C444.323 99.0678 446.884 109.915 452.057 118.899L453.79 117.901ZM446.323 86.4V2.6H444.323V86.4H446.323ZM445.323 3.6H479.523V1.6H445.323V3.6ZM687.939 2.6H688.939V1.6H687.939V2.6ZM687.939 30V31H688.939V30H687.939ZM650.739 30V29H649.739V30H650.739ZM650.739 143V144H651.739V143H650.739ZM616.539 143L615.539 143V144L616.539 144V143ZM616.539 30H617.539V29H616.539V30ZM579.339 30H578.339V31H579.339V30ZM579.339 2.6V1.6H578.339V2.6H579.339ZM686.939 2.6V30H688.939V2.6H686.939ZM687.939 29L650.739 29V31L687.939 31V29ZM649.739 30V143H651.739V30H649.739ZM650.739 142H616.539V144H650.739V142ZM617.539 143V30H615.539V143L617.539 143ZM616.539 29H579.339V31H616.539V29ZM580.339 30V2.6H578.339V30H580.339ZM579.339 3.6L687.939 3.6V1.6L579.339 1.6V3.6ZM906.486 2.6H907.486V1.6H906.486V2.6ZM906.486 143V144H907.486V143H906.486ZM872.286 143H871.286V144H872.286V143ZM872.286 58.8H873.286L871.349 58.4506L872.286 58.8ZM840.886 143V144H841.58L841.823 143.349L840.886 143ZM813.286 143L812.349 143.351L812.593 144H813.286V143ZM781.686 58.6L782.622 58.2494L780.686 58.6H781.686ZM781.686 143V144H782.686V143H781.686ZM747.486 143H746.486V144H747.486V143ZM747.486 2.6V1.6H746.486V2.6H747.486ZM787.886 2.6L788.813 2.22433L788.56 1.6H787.886V2.6ZM827.286 99.8L826.359 100.176L827.291 102.474L828.214 100.172L827.286 99.8ZM866.286 2.6V1.6H865.61L865.358 2.22762L866.286 2.6ZM905.486 2.6V143H907.486V2.6H905.486ZM906.486 142H872.286V144H906.486V142ZM873.286 143V58.8H871.286V143H873.286ZM871.349 58.4506L839.949 142.651L841.823 143.349L873.223 59.1494L871.349 58.4506ZM840.886 142H813.286V144H840.886V142ZM814.222 142.649L782.622 58.2494L780.749 58.9506L812.349 143.351L814.222 142.649ZM780.686 58.6V143H782.686V58.6H780.686ZM781.686 142H747.486V144H781.686V142ZM748.486 143V2.6L746.486 2.6V143H748.486ZM747.486 3.6L787.886 3.6V1.6L747.486 1.6V3.6ZM786.959 2.97566L826.359 100.176L828.213 99.4243L788.813 2.22433L786.959 2.97566ZM828.214 100.172L867.214 2.97237L865.358 2.22762L826.358 99.4276L828.214 100.172ZM866.286 3.6H906.486V1.6H866.286V3.6ZM965.28 30V29H964.28V30H965.28ZM965.28 58.4H964.28V59.4H965.28V58.4ZM1011.08 58.4H1012.08V57.4H1011.08V58.4ZM1011.08 84.8V85.8H1012.08V84.8H1011.08ZM965.28 84.8V83.8H964.28V84.8H965.28ZM965.28 115.6H964.28V116.6H965.28V115.6ZM1017.08 115.6H1018.08V114.6H1017.08V115.6ZM1017.08 143V144H1018.08V143H1017.08ZM931.08 143H930.08V144H931.08V143ZM931.08 2.6V1.6H930.08V2.6H931.08ZM1017.08 2.6H1018.08V1.6H1017.08V2.6ZM1017.08 30V31H1018.08V30H1017.08ZM964.28 30V58.4H966.28V30H964.28ZM965.28 59.4L1011.08 59.4V57.4L965.28 57.4V59.4ZM1010.08 58.4V84.8H1012.08V58.4H1010.08ZM1011.08 83.8L965.28 83.8V85.8L1011.08 85.8V83.8ZM964.28 84.8V115.6H966.28V84.8H964.28ZM965.28 116.6L1017.08 116.6V114.6L965.28 114.6V116.6ZM1016.08 115.6V143H1018.08V115.6H1016.08ZM1017.08 142L931.08 142V144L1017.08 144V142ZM932.08 143V2.6H930.08V143H932.08ZM931.08 3.6L1017.08 3.6V1.6L931.08 1.6V3.6ZM1016.08 2.6V30H1018.08V2.6H1016.08ZM1017.08 29L965.28 29V31L1017.08 31V29ZM1040.48 139.4L1039.79 140.12L1039.8 140.132L1039.82 140.145L1040.48 139.4ZM1040.48 112.8L1039.8 112.068L1039.79 112.074L1039.79 112.08L1040.48 112.8ZM1069.68 112.8L1068.99 113.52L1068.99 113.526L1069 113.532L1069.68 112.8ZM1069.68 139.4L1070.36 140.133L1070.36 140.132L1069.68 139.4ZM1055.28 143.6C1049.49 143.6 1044.81 141.932 1041.15 138.655L1039.82 140.145C1043.89 143.801 1049.08 145.6 1055.28 145.6V143.6ZM1041.18 138.68C1037.64 135.269 1035.88 131.129 1035.88 126.2H1033.88C1033.88 131.671 1035.86 136.331 1039.79 140.12L1041.18 138.68ZM1035.88 126.2C1035.88 121.13 1037.65 116.925 1041.18 113.52L1039.79 112.08C1035.85 115.875 1033.88 120.604 1033.88 126.2H1035.88ZM1041.16 113.532C1044.82 110.128 1049.5 108.4 1055.28 108.4V106.4C1049.07 106.4 1043.88 108.272 1039.8 112.068L1041.16 113.532ZM1055.28 108.4C1060.93 108.4 1065.47 110.124 1068.99 113.52L1070.38 112.08C1066.43 108.276 1061.37 106.4 1055.28 106.4V108.4ZM1069 113.532C1072.66 116.941 1074.48 121.141 1074.48 126.2H1076.48C1076.48 120.592 1074.44 115.859 1070.36 112.068L1069 113.532ZM1074.48 126.2C1074.48 131.117 1072.67 135.254 1069 138.668L1070.36 140.132C1074.43 136.346 1076.48 131.683 1076.48 126.2H1074.48ZM1069 138.667C1065.48 141.936 1060.94 143.6 1055.28 143.6V145.6C1061.36 145.6 1066.42 143.797 1070.36 140.133L1069 138.667Z" fill="#274546" fill-opacity="0.2"/>
</svg>
