<svg width="16" height="15" viewBox="0 0 16 15" fill="none" xmlns="http://www.w3.org/2000/svg">
<path fill-rule="evenodd" clip-rule="evenodd" d="M15 7.5C15 5.75952 14.2625 4.09032 12.9497 2.85961C11.637 1.6289 9.85652 0.9375 8 0.9375C6.14348 0.9375 4.36301 1.6289 3.05025 2.85961C1.7375 4.09032 0.999999 5.75952 0.999999 7.5C0.999999 9.24048 1.7375 10.9097 3.05025 12.1404C4.36301 13.3711 6.14348 14.0625 8 14.0625C9.85651 14.0625 11.637 13.3711 12.9497 12.1404C14.2625 10.9097 15 9.24048 15 7.5ZM-1.10734e-06 7.5C-9.33446e-07 5.51088 0.842854 3.60322 2.34315 2.1967C3.84344 0.790176 5.87827 -3.88749e-07 8 -2.03261e-07C10.1217 -1.77735e-08 12.1566 0.790177 13.6569 2.1967C15.1571 3.60322 16 5.51088 16 7.5C16 9.48912 15.1571 11.3968 13.6569 12.8033C12.1566 14.2098 10.1217 15 8 15C5.87827 15 3.84344 14.2098 2.34314 12.8033C0.842853 11.3968 -1.28124e-06 9.48912 -1.10734e-06 7.5ZM7.5 4.21875C7.5 4.09443 7.55268 3.9752 7.64645 3.88729C7.74021 3.79939 7.86739 3.75 8 3.75C8.13261 3.75 8.25979 3.79939 8.35355 3.88729C8.44732 3.9752 8.5 4.09443 8.5 4.21875L8.5 9.64969L10.646 7.63687C10.7399 7.54886 10.8672 7.49941 11 7.49941C11.1328 7.49941 11.2601 7.54886 11.354 7.63687C11.4479 7.72489 11.5006 7.84427 11.5006 7.96875C11.5006 8.09323 11.4479 8.21261 11.354 8.30063L8.354 11.1131C8.30755 11.1568 8.25238 11.1914 8.19163 11.215C8.13089 11.2387 8.06577 11.2508 8 11.2508C7.93423 11.2508 7.86911 11.2387 7.80837 11.215C7.74762 11.1914 7.69244 11.1568 7.646 11.1131L4.646 8.30062C4.55211 8.21261 4.49937 8.09323 4.49937 7.96875C4.49937 7.84427 4.55211 7.72489 4.646 7.63687C4.73989 7.54886 4.86722 7.49941 5 7.49941C5.13277 7.49941 5.26011 7.54886 5.354 7.63687L7.5 9.64969L7.5 4.21875Z" fill="#F99A49"/>
</svg>
