<svg width="13" height="14" viewBox="0 0 13 14" fill="none" xmlns="http://www.w3.org/2000/svg">
<path fill-rule="evenodd" clip-rule="evenodd" d="M6.5 0.875C4.99158 0.875 3.54494 1.52031 2.47833 2.66897C1.41172 3.81763 0.812501 5.37555 0.8125 7C0.8125 8.62445 1.41172 10.1824 2.47833 11.331C3.54494 12.4797 4.99158 13.125 6.5 13.125C8.00842 13.125 9.45506 12.4797 10.5217 11.331C11.5883 10.1824 12.1875 8.62445 12.1875 7C12.1875 5.37555 11.5883 3.81763 10.5217 2.66897C9.45506 1.52031 8.00842 0.875 6.5 0.875ZM6.5 14C4.77609 14 3.12279 13.2625 1.90381 11.9497C0.68482 10.637 3.8773e-07 8.85652 4.68881e-07 7C5.50032e-07 5.14348 0.68482 3.36301 1.90381 2.05025C3.12279 0.737498 4.77609 -3.59478e-07 6.5 -2.84124e-07C8.22391 -2.0877e-07 9.87721 0.737498 11.0962 2.05025C12.3152 3.36301 13 5.14348 13 7C13 8.85652 12.3152 10.637 11.0962 11.9497C9.87721 13.2625 8.22391 14 6.5 14ZM3.65625 7.4375C3.54851 7.4375 3.44517 7.39141 3.36899 7.30936C3.2928 7.22731 3.25 7.11603 3.25 7C3.25 6.88397 3.2928 6.77269 3.36899 6.69064C3.44517 6.60859 3.54851 6.5625 3.65625 6.5625L8.36306 6.5625L6.61862 4.68475C6.54234 4.6026 6.49949 4.49118 6.49949 4.375C6.49949 4.25882 6.54234 4.1474 6.61862 4.06525C6.69491 3.9831 6.79837 3.93695 6.90625 3.93695C7.01413 3.93695 7.11759 3.9831 7.19388 4.06525L9.63137 6.69025C9.66921 6.73089 9.69922 6.77917 9.7197 6.83232C9.74018 6.88547 9.75073 6.94245 9.75073 7C9.75073 7.05755 9.74018 7.11453 9.7197 7.16768C9.69922 7.22083 9.66921 7.26911 9.63137 7.30975L7.19388 9.93475C7.11759 10.0169 7.01413 10.0631 6.90625 10.0631C6.79837 10.0631 6.69491 10.0169 6.61862 9.93475C6.54234 9.8526 6.49949 9.74118 6.49949 9.625C6.49949 9.50882 6.54234 9.3974 6.61862 9.31525L8.36306 7.4375L3.65625 7.4375Z" fill="#EFEEE5"/>
</svg>
