<svg width="9" height="11" viewBox="0 0 9 11" fill="none" xmlns="http://www.w3.org/2000/svg">
<path d="M8.82615 1.28941C9.09097 0.955505 9.04879 0.459563 8.73007 0.182131C8.41135 -0.095302 7.93795 -0.0511092 7.67313 0.282792L4.5 4.27242L1.32686 0.282792C1.06205 -0.0511092 0.588654 -0.095302 0.269934 0.182131C-0.0487854 0.459563 -0.0909688 0.955505 0.17385 1.28941L3.52275 5.5L0.17385 9.71059C-0.0909688 10.0445 -0.0487854 10.5404 0.269934 10.8179C0.588654 11.0953 1.06205 11.0511 1.32686 10.7172L4.5 6.72758L7.67313 10.7172C7.93795 11.0511 8.41135 11.0953 8.73007 10.8179C9.04879 10.5404 9.09097 10.0445 8.82615 9.71059L5.47725 5.5L8.82615 1.28941Z" fill="#274546"/>
</svg>
