<svg width="480" height="360" viewBox="0 0 480 360" fill="none" xmlns="http://www.w3.org/2000/svg">
<g clip-path="url(#clip0_149_1135)">
<path fill-rule="evenodd" clip-rule="evenodd" d="M306.094 296.473C289.472 300.106 272.849 303.739 256.226 307.372C253.886 307.883 251.546 308.395 249.206 308.906C249.902 287.457 250.599 266.008 251.295 244.559C251.395 241.462 251.496 238.364 251.597 235.266C247.745 238.637 243.702 241.869 240.017 245.42C235.3 249.964 230.763 254.669 225.907 259.078C217.554 266.663 208.779 274.019 199.107 279.876C188.597 286.239 176.474 290.333 164.27 291.747C159.775 292.267 155.705 292.14 151.252 291.676C147.377 291.273 143.502 290.869 139.627 290.465C138.067 290.303 136.505 290.14 134.944 289.977C134.567 289.938 133.34 290.027 133.039 289.773C132.493 289.312 132.208 287.222 131.993 286.557C131.096 283.792 130.205 281.026 129.32 278.258C126.913 270.734 124.54 263.199 122.249 255.639C120.287 249.168 118.224 242.668 116.759 236.061C116.587 235.287 116.211 234.273 116.274 233.472C116.367 232.302 115.813 232.548 117.355 232.532C120.98 232.492 124.814 233.373 128.443 233.631C132.179 233.895 135.924 234.053 139.67 234.091C159.509 234.293 182.342 232.143 198.414 219.298C203.802 214.992 209.214 210.014 213.39 204.477C219.277 196.67 222.486 186.276 223.269 176.643C224.148 165.819 222.322 154.655 219.664 144.177C219.125 142.057 219.247 141.264 219.709 139.045C220.093 137.203 220.476 135.361 220.86 133.519C220.967 133.008 221.081 130.859 221.504 130.544C222.244 129.993 225.812 130.598 226.678 130.609L237.427 130.743C244.35 130.83 251.272 130.916 258.195 131.003C261.789 131.048 265.381 131.61 268.953 131.981C276.612 132.777 284.27 133.573 291.928 134.369C293.463 134.528 294.998 134.688 296.533 134.847C295.549 143.563 294.566 152.279 293.581 160.994C292.848 167.493 295.406 173.937 296.769 180.29C299.84 194.603 302.832 209.124 303.97 223.74C305.042 237.502 305.031 251.412 305.38 265.207C305.644 275.628 305.884 286.051 306.094 296.473Z" fill="#EFEEE5"/>
<path fill-rule="evenodd" clip-rule="evenodd" d="M199.221 33.4298C199.221 32.6296 199.46 32.0693 199.909 31.4062C200.946 32.3073 202.571 36.7758 204.299 33.891C204.643 33.3173 204.659 31.1803 205.838 31.8471C206.392 32.1601 206.241 33.6682 206.201 34.1795C206.061 35.9992 205.235 38.5381 202.887 38.4344C200.491 38.3288 199.156 35.4204 199.221 33.4298Z" fill="#274546"/>
<path fill-rule="evenodd" clip-rule="evenodd" d="M200.667 29.4322C196.682 30.1671 198.272 26.5827 201.191 26.2853C202.273 26.1749 204.139 26.2328 203.882 27.8303C203.655 29.2431 201.72 29.2377 200.667 29.4322Z" fill="#274546"/>
<path fill-rule="evenodd" clip-rule="evenodd" d="M189.627 41.2443C188.373 41.3632 186.305 39.5945 188.389 39.379C189.351 39.2797 191.371 41.0781 189.627 41.2443Z" fill="#274546"/>
<path fill-rule="evenodd" clip-rule="evenodd" d="M408.392 62.2031C407.432 62.9379 404.555 60.5744 403.614 60.1567C399.953 58.5299 395.743 57.6302 391.807 56.9288C384.017 55.5406 376.032 54.7589 368.122 54.5099C363.297 54.3577 358.73 54.5264 353.958 55.0408C352.77 55.1685 344.732 56.5098 344.535 54.3065C344.19 50.4378 365.451 50.6215 367.476 50.6281C376.681 50.6595 384.995 51.6813 393.936 53.6868C396.355 54.2294 411.229 60.0308 408.392 62.2031Z" fill="#274546"/>
<path fill-rule="evenodd" clip-rule="evenodd" d="M154.21 126.124C149.369 127.556 143.845 127.361 139.302 125.053C138.522 124.657 136.626 123.815 137.631 122.825C138.712 121.76 141.739 123.566 142.918 123.798C148.64 124.92 155.894 122.695 159.947 118.523C161.959 116.453 163.094 113.837 163.573 111.018C163.846 109.411 163.986 107.711 163.888 106.081C163.784 104.355 163.078 102.499 163.551 100.781C165.661 102.033 165.686 105.328 165.836 107.456C166.026 110.139 166.009 112.719 165.256 115.334C163.705 120.716 159.541 124.547 154.21 126.124Z" fill="#274546"/>
<path fill-rule="evenodd" clip-rule="evenodd" d="M67.6151 269.642C67.7689 270.053 67.9137 270.438 68.0828 270.889C68.7354 269.69 68.7354 269.69 67.6151 269.642ZM73.7002 300.96C76.1219 302.079 78.8198 299.073 80.1088 297.399C82.2577 294.608 83.2137 291.391 84.0607 288.031C84.9981 284.313 86.0807 280.638 86.9516 276.903C87.3391 275.237 87.7098 273.567 88.145 271.913C88.5057 270.544 89.8492 268.106 89.2835 266.684C88.3275 264.281 83.6312 263.619 83.9513 260.396C84.2452 257.434 89.413 260.598 90.6537 261.226C93.4882 262.662 92.0144 260.85 90.6451 259.8C89.6074 259.004 84.7812 255.558 87.3075 253.821C88.9472 252.692 92.5136 256.127 93.8723 256.76C95.2994 257.425 95.8192 257.25 96.9758 256.08C97.799 255.246 99.0225 254.192 99.6584 253.237C101.23 250.874 99.1247 246.243 98.8013 243.537C98.7292 242.935 99.1826 239.634 98.7617 239.243C98.2084 238.729 95.8397 239.091 94.9693 238.96C91.8476 238.491 88.768 238.137 85.6416 237.746C83.5763 237.488 77.4334 235.933 76.2175 238.075C75.2524 239.773 75.5615 243.034 75.5611 244.85C75.5596 248.672 75.5477 252.414 75.186 256.249C74.3958 264.624 73.8029 272.994 73.0414 281.37C72.6716 285.435 71.9067 289.453 71.5231 293.518C71.2852 296.038 70.9092 299.671 73.7002 300.96ZM120.723 239.109C123.016 244.844 124.913 250.752 126.896 256.596C127.814 259.299 128.66 262.028 129.591 264.725C130.482 267.309 131.916 269.636 132.651 272.279C134.04 277.268 135.208 282.225 136.852 287.13C137.089 287.836 136.95 289.4 137.375 289.9C137.897 290.514 140.209 290.422 141.028 290.525C144.377 290.947 147.76 291.271 151.139 291.13C147.977 287.144 144.431 283.484 140.796 279.919C137.612 276.798 133.313 273.253 132.795 268.497C132.105 262.177 138.7 263.447 142.803 263.83C148.526 264.364 155.014 266.684 160.742 265.398C156.772 260.029 150.754 256.026 145.77 251.656C143.826 249.951 141.781 248.077 140.789 245.625C140.283 244.375 140.032 242.934 140.375 241.607C140.791 239.996 141.716 239.703 143.057 238.941C135.106 238.941 127.064 238.658 119.489 235.927C119.188 237.196 120.297 238.044 120.723 239.109ZM156.274 289.759C157.663 291.648 160.164 291.133 162.223 291.014C165.247 290.839 168.262 290.472 171.229 289.866C174.225 289.254 177.231 288.435 180.089 287.337C180.69 287.106 182.561 286.579 182.782 285.855C182.981 285.2 181.827 283.858 181.576 283.358C180.774 281.761 180.377 278.915 182.187 277.776C183.682 276.836 185.89 277.778 187.398 278.222C189.632 278.881 192.296 280.21 194.564 279.199C197.458 277.908 200.324 276.053 203.045 274.428C198.13 269.961 193.302 265.407 188.262 261.079C183.644 257.113 178.083 252.55 175.197 247.087C174.11 245.03 173.407 242.114 174.74 239.972C175.934 238.05 178.344 237.983 180.376 238.159C186.41 238.682 192.354 240.181 198.29 241.299C200.288 241.676 213.144 244.657 213.179 241.414C213.186 240.714 211.854 239.12 211.514 238.564C210.741 237.302 209.953 236.054 209.118 234.832C207.174 231.985 205.06 229.26 202.964 226.525C201.906 225.144 200.554 222.268 198.53 222.575C197.606 222.714 196.681 223.742 195.936 224.274C194.653 225.191 193.322 226.039 191.956 226.828C186.433 230.013 180.334 231.63 174.19 233.133C172.797 233.473 166.142 234.159 165.489 235.533C165.163 236.219 165.914 237.84 165.934 238.583C165.963 239.701 165.716 240.861 165.102 241.808C163.319 244.556 159.421 244.412 156.55 244.33C152.903 244.227 149.169 244.047 145.539 244.492C149.15 247.834 152.898 251.024 156.668 254.183C159.324 256.409 162.285 258.519 164.373 261.321C166.16 263.72 167.49 267.803 165.207 270.388C162.764 273.154 157.257 271.929 154.158 271.458C150.545 270.908 146.964 270.235 143.383 269.518C142.17 269.275 140.917 268.994 139.676 268.929C138.193 268.851 137.649 268.767 138.677 270.144C141.23 273.564 145.07 276.022 147.758 279.361C149.025 280.934 150.501 282.187 151.832 283.696C153.491 285.577 154.792 287.744 156.274 289.759ZM205.971 271.071C207.716 272.846 209.686 270.322 211.1 269.166C213.221 267.432 215.291 265.636 217.443 263.94C221.52 260.728 225.763 257.748 229.596 254.235C230.804 253.127 232.789 251.887 233.157 250.19C233.624 248.025 232.5 246.09 233.649 243.913C235.827 239.79 240.33 243.163 243.266 240.79C244.775 239.571 245.838 237.802 247.027 236.293C248.442 234.497 250.249 232.754 251.063 230.59C251.911 228.34 252.022 227.263 250.445 225.361C248.745 223.312 246.683 221.44 245.319 219.135C244.38 217.546 243.613 215.211 245.089 213.673C246.281 212.431 248.346 212.766 249.889 212.861C252.136 213 254.372 213.21 256.581 213.656C258.327 214.008 261.66 214.931 263.336 213.973C267.289 211.713 260.182 205.892 258.608 204.166C255.091 200.307 251.403 196.609 247.745 192.884C244.363 189.441 240.948 185.993 237.772 182.356C235.409 179.648 232.639 175.826 233.906 172.004C234.934 168.906 238.393 168.808 241.145 169.023C245.176 169.339 249.188 169.999 253.201 170.478C256.193 170.835 261.951 171.958 264.503 169.581C267.141 167.123 261.509 159.822 260.053 157.635C256.976 153.013 253.431 148.724 249.759 144.569C247.975 142.55 246.157 140.563 244.338 138.577C242.759 136.851 241.311 134.678 239.497 133.196C237.512 131.576 234.549 131.766 232.117 131.522C229.559 131.265 226.839 130.887 224.268 130.895C221.927 130.904 222.506 133.159 222.407 135.114C222.383 135.582 221.752 139.736 222.463 139.801C222.541 138.876 222.618 137.951 222.696 137.026C224.695 137.847 226.179 139.613 227.729 141.049C229.276 142.481 231.377 143.94 232.03 146.046C233.872 151.992 226.52 149.883 223.439 149.279C224.132 156.033 225.859 162.598 226.811 169.306C227.21 172.117 227.048 174.661 226.736 177.457C226.559 179.05 226.58 180.658 226.385 182.251C226.232 183.514 225.644 184.958 225.879 186.228C226.308 188.551 229.242 190.991 230.545 192.957C232.275 195.566 233.802 198.393 234.601 201.438C236.047 206.935 233.585 210.887 227.834 211.416C225.24 211.655 222.369 211.254 219.8 210.888C217.591 210.573 214.77 208.935 212.755 210.416C211.93 211.023 211.362 212.097 210.639 212.838C209.59 213.912 208.411 214.87 207.253 215.823C206.161 216.72 203.175 218.316 203.469 219.692C203.691 220.729 205.491 222.211 206.101 222.979C206.9 223.985 207.694 224.996 208.466 226.024C210.426 228.636 212.295 231.333 213.986 234.127C216.033 237.507 218.906 243.548 215.444 247.051C213.44 249.08 210.111 248.723 207.554 248.323C204.07 247.779 200.608 247.078 197.185 246.234C193.758 245.389 190.303 244.8 186.836 244.157C183.874 243.608 180.429 242.559 177.468 243.645C186.12 253.717 196.692 261.633 205.971 271.071ZM256.443 224.481C257.555 223.18 258.694 221.735 259.679 220.329C260.586 219.034 260.512 218.469 258.983 218.066C258.031 217.815 256.974 218.06 256.003 217.947C254.992 217.829 253.984 217.504 252.994 217.28C251.882 217.03 250.635 216.649 249.487 216.652C248.194 216.655 248.067 216.538 248.717 217.701C249.608 219.294 251.333 220.687 252.562 222.015C253.335 222.851 255.185 225.952 256.443 224.481ZM255.012 242.746C255.598 244.033 259.815 243.089 260.494 242.203C261.977 240.266 258.182 235.757 257.185 234.125C255.68 235.123 255.16 236.441 255.07 238.182C255.008 239.388 254.514 241.649 255.012 242.746ZM253.425 306.717C255.944 306.966 259.246 305.513 261.554 304.715C264.75 303.61 268.074 302.822 271.371 302.086C277.995 300.607 284.841 300.401 291.483 298.983C287.262 293.49 282.158 288.758 277.869 283.324C276.313 281.354 274.026 278.53 274.748 275.827C275.455 273.177 278.192 273.763 280.225 274.374C282.951 275.193 285.586 276.334 288.251 277.327C289.511 277.797 295.141 280.501 296.182 278.748C296.884 277.564 292.888 273.156 292.306 272.394C290.129 269.548 287.766 266.851 285.385 264.174C280.943 259.181 275.902 254.072 272.466 248.311C269.891 243.991 269.028 237.174 275.982 237.447C278.854 237.56 281.779 238.45 284.58 239.035C287.168 239.576 290.993 240.772 293.634 240.104C296.415 239.401 293.217 235.25 292.342 233.881C290.492 230.987 288.32 228.284 286.283 225.521C284.091 222.548 281.754 219.64 279.705 216.568C278.43 214.656 276.362 211.321 277.521 208.904C278.85 206.13 283.417 207.845 285.653 208.266C289.889 209.063 294.044 210.39 298.395 210.39C298.351 208.206 296.113 206.286 294.826 204.737C292.894 202.411 290.904 200.158 288.791 197.993C287.306 196.471 285.681 193.991 283.942 192.818C282.164 191.618 281.112 195.412 280.413 196.822C275.316 207.107 269.745 217.19 262.873 226.416C261.489 228.273 259.458 229.773 260.619 232.145C261.827 234.611 263.419 236.769 263.884 239.553C264.227 241.609 264.047 244.467 262.464 246.029C260.93 247.543 258.676 247.2 256.782 247.791C254.769 248.421 255.337 250.205 255.319 251.99C255.288 255.114 255.25 258.236 255.269 261.359C255.286 264.135 255.324 266.911 255.357 269.686C255.392 272.622 256.107 274.702 256.908 277.466C257.325 278.905 257.469 280.394 257.007 281.84C256.611 283.083 255.96 283.321 255.195 284.201C253.707 285.913 254.183 289.166 254.001 291.343C253.87 292.903 251.69 306.546 253.425 306.717ZM259.625 340.093C260.259 340.889 262.533 340.634 263.42 340.693C265.106 340.803 266.794 340.803 268.48 340.895C272.077 341.09 275.628 341.59 279.236 341.654C282.201 341.706 285.274 341.85 288.123 342.053C289.528 342.153 291.106 341.544 292.472 341.829C293.818 342.111 294.332 342.504 295.79 342.387C299.42 342.097 303.134 342.462 306.771 342.552C310.135 342.634 313.528 342.38 316.898 342.335C320.689 342.285 324.488 342.424 328.279 342.462C332.334 342.504 336.474 342.263 340.479 343.034C340.108 341.33 340.133 339.322 338.757 338.048C337.347 336.743 335.01 336.446 333.196 336.233C330.554 335.923 327.934 335.852 325.298 335.74C323.651 335.67 322.066 335.112 320.429 334.925C318.08 334.658 315.553 334.812 313.187 334.774C312.375 334.761 311.836 334.461 311.091 334.347C310.217 334.214 309.363 334.438 308.41 334.205C306.434 333.722 304.418 333.217 302.5 332.573C301.33 332.179 301.378 331.846 300.418 332.759C299.817 333.331 299.448 334.414 298.941 335.087C298.103 336.199 296.603 337.529 295.31 336.191C293.941 334.773 295.408 333.182 295.104 331.711C294.869 330.574 292.71 329.577 291.633 330.006C290.141 330.598 289.699 333.68 288.102 334.029C286.093 334.467 286.635 331.427 286.908 330.296C287.619 327.334 287.365 327.237 285 325.265C283.197 323.762 282.693 323.175 280.456 324.298C278.202 325.431 275.741 325.923 273.228 326.194C270.261 326.514 267.492 326.179 264.588 325.585C263.222 325.306 260.558 324.257 259.665 325.692C258.659 327.31 259.694 331.272 259.731 333.144C259.758 334.539 259.843 335.975 259.71 337.367C259.641 338.086 259.113 339.449 259.625 340.093ZM296.028 297.839C298.114 297.658 300.158 297.105 302.238 296.853C302.996 296.762 304.624 296.789 305.251 296.253C306.018 295.596 305.658 295.661 305.502 294.707C304.758 290.17 304.474 285.777 304.583 281.166C304.666 277.716 305.339 272.348 303.283 269.348C300.861 265.812 297.179 263.195 294.722 259.648C293.393 257.73 291.539 252.58 295.746 252.718C297.42 252.772 299.208 253.834 300.833 254.227C303.133 254.783 303.273 254.225 303.07 252.14C302.593 247.247 302.735 242.334 302.235 237.44C301.722 232.408 301.172 227.373 300.607 222.346C300.332 219.904 300.207 217.318 299.733 214.912C299.272 212.572 297.001 213.831 295.013 213.736C289.75 213.484 284.634 210.256 279.345 210.761C283.755 219.036 291.275 225.321 295.553 233.704C297.032 236.602 298.409 241.134 294.763 243.069C290.699 245.225 284.497 242.493 280.316 241.798C278.853 241.556 273.041 239.857 272.771 242.121C272.625 243.34 274.991 246.19 275.582 247.071C276.93 249.078 278.481 250.94 279.939 252.866C282.851 256.713 286.314 260.061 289.333 263.826C291.967 267.111 295.198 270.329 297.321 273.972C299.313 277.392 299.697 283.554 294.095 282.88C288.36 282.191 283.373 277.717 277.527 277.585C280.515 281.523 283.925 285.108 287.241 288.764C288.836 290.524 290.402 292.307 291.915 294.139C292.883 295.311 294.213 297.997 296.028 297.839ZM303.854 262.152C303.727 260.514 304.124 259.599 302.637 258.702C301.679 258.124 299.415 257.225 298.365 257.623C298.762 258.084 303.301 263.511 303.786 263.074C303.906 262.779 303.929 262.471 303.854 262.152ZM295.941 186.83C295.668 183.68 295.034 180.566 294.898 177.404C294.805 175.267 295.11 172.423 293.663 170.64C291.911 173.918 290.733 177.463 288.983 180.743C288.234 182.146 287.4 183.501 286.625 184.889C286.096 185.838 284.544 187.876 284.666 189.008C284.874 190.94 288.714 193.709 289.958 195.088C292.608 198.027 295.202 201.019 297.909 203.907C297.543 198.183 296.435 192.541 295.941 186.83ZM296.016 135.649C295.285 134.622 290.184 135.108 289.083 135.01C285.619 134.703 281.854 134.43 278.501 133.5C283.824 140.088 288.608 147.22 291.736 155.13C292.923 151.898 293.704 148.534 294.429 145.173C294.798 143.463 295.114 141.747 295.389 140.02C295.513 139.239 296.49 136.315 296.016 135.649ZM279.759 183.861C281.186 184.572 285.51 173.926 285.702 172.746C283.651 173.215 275.486 173.597 275.006 176.185C274.782 177.394 276.178 178.853 276.788 179.727C277.535 180.798 278.58 183.273 279.759 183.861ZM266.802 173.024C263.782 176.808 258.146 176.043 253.931 175.506C251.076 175.141 248.247 174.65 245.401 174.231C242.592 173.816 239.185 173.05 236.461 174.207C240.879 180.418 246.565 185.553 251.935 190.91C254.687 193.656 257.346 196.493 259.992 199.342C262.588 202.136 264.658 205.652 267.411 208.242C269.748 203.973 271.96 199.639 274.213 195.326C275.159 193.515 276.376 191.883 277.348 190.093C278.418 188.12 278.582 187.212 277.217 185.424C275.185 182.762 272.328 179.157 272.736 175.582C273.213 171.408 278.171 170.95 281.418 170.05C283.049 169.597 284.922 169.254 286.414 168.43C288.308 167.383 288.394 165.654 289.021 163.778C289.779 161.508 290.475 160.033 289.674 157.644C289.007 155.657 288.01 153.684 287.088 151.806C285.15 147.859 282.728 144.224 280.159 140.665C278.471 138.326 276.48 133.658 273.46 133.033C271.317 132.59 268.614 132.772 266.415 132.651C263.853 132.51 261.288 132.43 258.724 132.319C253.411 132.089 247.721 131.586 242.434 132.287C248.661 139.02 254.955 145.585 260.493 152.918C264.061 157.641 271.67 166.923 266.802 173.024ZM290.631 122.088C287.744 116.733 285.063 111.437 281.153 106.76C277.771 102.715 274.704 98.4947 271.194 94.545C263.832 86.2583 254.277 80.1344 245.369 73.6959C243.354 72.2388 240.775 71.4447 238.563 70.174C235.827 68.6022 232.895 67.2904 229.933 66.2038C224.561 64.2332 218.392 63.2274 212.671 63.6275C206.348 64.0692 201.577 66.3037 197.652 71.2363C193.803 76.0709 193.207 81.4079 193.102 87.4845C193.053 90.372 193.017 93.2762 193.046 96.1642C193.073 99.0225 193.444 100.829 195.194 103.031C196.635 104.843 199.671 105.758 201.742 106.595C204.56 107.735 207.197 109.005 209.826 110.537C210.963 111.201 213.663 113.696 215.066 113.431C217.133 113.041 217.639 109.372 217.845 107.744C218.614 101.654 218.532 95.4265 218.159 89.3069C217.968 86.1732 216.511 81.4648 217.337 78.2939C217.679 76.9763 218.462 76.5093 219.429 77.6724C220.625 79.1114 220.92 82.4884 221.228 84.2237C222.317 90.3357 222.245 96.4802 222.28 102.661C222.294 105.116 223.665 106.39 224.564 108.578C225.713 111.376 226.653 114.295 227.22 117.268C227.549 118.993 227.781 120.751 227.756 122.511C227.743 123.478 227.266 125.015 227.638 125.933C228.358 127.715 232.831 126.719 234.33 126.685C241.013 126.537 247.676 126.181 254.369 126.094C267.919 125.92 281.565 127.934 294.835 130.49C293.46 127.676 292.117 124.846 290.631 122.088ZM284.808 93.4957C285.869 93.6692 289.436 95.6192 290.052 94.3829C290.578 93.3264 287.975 89.5426 287.586 88.5348C286.684 86.1947 286.465 83.5822 285.933 81.1393C285.598 79.5999 285.566 76.5576 284.733 75.186C283.803 73.6524 281.633 74.4225 280.092 74.4684C277.465 74.5468 274.811 74.5454 272.182 74.5363C269.509 74.5268 266.837 74.457 264.163 74.4651C261.43 74.4732 258.73 74.0195 256.018 74.0195C256.322 75.002 257.594 75.4815 258.393 75.9437C259.623 76.6565 260.659 77.5032 261.738 78.4335C264.265 80.612 266.785 82.3535 268.904 84.9527C270.82 87.3024 273.495 89.8151 275.872 91.7044C277.145 92.7155 278.016 92.6342 279.558 92.6208C281.403 92.605 283.007 93.2012 284.808 93.4957ZM291.355 88.2604C292.018 90.2946 292.081 90.8921 294.233 90.7478C297.001 90.5613 299.774 90.3878 302.546 90.187C308.87 89.7295 315.199 88.7844 321.523 88.4655C326.915 88.1935 332.737 87.5424 338.095 88.1041C340.596 88.3661 343.262 87.8617 345.812 87.9616C348.891 88.0826 351.998 88.0697 354.944 89.0177C357.399 89.8084 359.45 90.2358 361.204 92.2809C362.971 94.3404 364.178 96.9362 365.353 99.3595C367.63 104.058 369.413 110.192 373.42 113.751C374.432 114.649 376.161 116.175 377.633 116.006C380.056 115.727 379.313 112.518 379.1 110.89C378.383 105.405 376.23 100.664 374.622 95.4246C374.142 93.8585 373.191 89.7219 375.678 89.1453C377.469 88.7304 380.281 92.6696 381.31 93.7275C383.575 96.0576 385.793 98.3183 388.325 100.37C390.416 102.063 392.518 103.934 395.407 103.571C394.024 99.8404 392.498 96.2287 390.233 92.9373C388.289 90.1119 385.012 87.5692 383.797 84.3193C382.882 81.8721 383.692 78.5334 386.538 80.6866C389.01 82.5562 391.15 84.8437 393.677 86.68C396.993 89.0889 400.757 91.0858 404.688 92.2771C405.988 92.671 408.296 93.4345 409.542 92.4941C411.401 91.092 409.505 88.1663 408.462 86.8774C398.675 74.7907 382.401 70.4561 367.552 69.5449C363.681 69.3073 359.655 69.6888 355.769 69.7438C352.082 69.7949 348.66 70.2467 345.016 70.786C337.452 71.9051 329.871 72.8153 322.34 73.9335C320.323 74.2328 317.931 74.8256 315.924 74.7476C315.097 74.7156 314.667 74.4938 313.843 74.7146C313.139 74.9035 312.633 75.2807 311.848 75.4073C307.385 76.1273 302.843 76.4079 298.32 76.4658C296.144 76.493 293.947 76.4519 291.788 76.167C290.517 75.9992 289.215 75.4705 288.856 76.9811C288.586 78.1203 289.487 80.2783 289.797 81.3754C290.43 83.618 290.646 86.0881 291.355 88.2604ZM210.447 49.1901C211.208 49.2188 212.461 49.3331 212.708 48.3822C213.174 46.5909 210.781 47.6843 210.337 46.5565C209.843 45.3011 211.528 44.9761 212.272 44.7734C213.787 44.3594 213.397 44.4478 213.438 42.874C213.477 41.4222 213.945 40.0999 214.534 38.7847C215.353 36.9576 215.395 37.0498 213.559 36.84C210.47 36.4872 209.796 33.7579 208.653 31.261C207.948 29.7203 207.166 28.2172 206.728 26.5713C206.461 25.5726 206.498 23.9855 205.523 23.4228C204.205 22.6627 201.137 23.4486 199.748 23.6312C197.428 23.9362 194.989 24.2823 192.769 25.0611C190.867 25.7289 190.142 27.2779 188.427 27.5523C187.318 27.7291 180.644 27.3108 181.52 29.3565C182.066 30.631 184.643 29.9029 185.593 29.8646C186.806 29.8163 188.285 29.6356 189.487 29.8728C190.689 30.1103 190.802 30.5602 191.271 31.7568C190.145 31.7008 185.932 31.0712 185.012 31.8997C184.196 32.6345 184.799 33.44 185.62 33.7101C187.222 34.2374 189.388 33.2144 191.07 33.6542C192.266 33.9673 192.183 34.0099 192.676 35.2122C192.933 35.8394 193.226 36.481 193.335 37.1555C193.953 40.9656 190.46 38.0079 189.008 37.1641C186.351 35.6205 183.47 35.9087 183.986 39.6175C184.157 40.8447 184.818 41.9184 185.668 42.8033C186.865 44.0505 187.175 44.2857 187.237 46.1702C187.29 47.7918 187.116 49.5267 187.689 51.0837C188.322 52.7985 189.67 54.26 190.722 55.7238C191.986 57.4821 193.294 59.2189 194.514 61.0087C195.039 61.7798 195.789 63.7207 196.802 63.9779C197.755 64.2193 199.232 62.6896 200.022 62.2517C201.935 61.1904 204.037 60.4996 206.004 59.5497C204.355 58.0839 202.888 56.4213 201.274 54.9488C200.014 53.7991 199.361 53.5802 199.777 51.6388C200.71 47.2836 207.26 49.0706 210.447 49.1901ZM185.666 140.708C180.458 145.753 172.713 148.907 165.667 150.177C158.287 151.507 149.871 152.492 142.681 149.92C135.31 147.282 128.417 143.491 122.176 138.772C121.409 138.192 112.812 129.797 112.12 130.459C114.674 134.284 117.353 138.014 120.06 141.73C121.39 143.556 125.989 149.84 123.345 152.113C121.593 153.619 118.614 151.193 117.176 150.22C113.714 147.878 109.858 146.617 105.65 146.617C107.594 150.187 110.55 153.348 112.131 157.118C112.877 158.9 112.497 158.771 110.81 158.286C108.698 157.681 106.303 156.98 104.1 156.88C103.075 156.834 100.994 157.285 100.821 158.623C100.655 159.904 103.373 162.32 104.132 163.237C106.912 166.599 109.745 169.79 113.182 172.501C119.78 177.705 127.612 181.06 135.583 183.552C143.727 186.097 152.43 186.864 160.756 184.815C164.881 183.8 168.664 182.423 172.359 180.367C174.031 179.437 175.791 179.015 177.399 177.921C179.07 176.785 180.764 175.652 182.47 174.571C185.983 172.344 188.161 170.104 190.612 166.757C191.598 165.411 192.951 164.414 193.891 163.089C194.926 161.629 195.991 160.141 196.956 158.605C201.408 151.519 205.77 143.901 208.365 135.912C209.703 131.793 210.612 127.556 211.735 123.377C212.121 121.939 213.547 119.173 213.249 117.713C212.962 116.304 210.733 115.732 209.63 115.134C206.408 113.391 203.175 111.843 200.032 109.989C195.689 107.427 196.458 112.68 196.177 115.713C195.341 124.73 192.312 134.271 185.666 140.708ZM222.399 144.155C223.315 144.94 225.634 145.428 226.806 145.07C225.651 143.348 223.87 142.218 222.371 140.833C222.208 141.785 221.484 143.371 222.399 144.155ZM216.807 205.418C218.916 205.572 221.117 206.206 223.208 206.222C225.074 206.237 227.434 206.389 229.246 205.989C234.246 204.883 231.29 200.357 229.55 197.404C228.587 195.771 227.371 194.31 226.367 192.705C226.125 192.318 225.453 190.739 224.916 190.686C224.126 190.607 223.881 191.903 223.5 192.696C222.47 194.843 221.518 197.061 220.349 199.137C219.173 201.225 217.531 203.098 216.807 205.418ZM162.716 237.192C162.284 234.79 155.259 237.23 153.669 237.516C153.213 237.598 147.709 238.269 147.759 238.748C149.581 238.882 163.254 240.181 162.716 237.192ZM67.1827 290.813C66.1063 291.282 66.1446 287.856 66.0949 287.401C65.9945 286.485 65.8684 284.837 66.3338 284.032C66.6753 283.442 66.7757 283.742 66.9591 283.587C68.4617 282.312 66.6472 281.767 66.3094 280.751C66.2052 280.439 66.1957 279.578 66.3509 279.318C66.7943 278.571 66.9176 279.13 67.4445 278.816C67.7981 278.607 68.5152 279.125 68.3078 278.168C68.1368 277.378 67.5329 277.863 67.2305 277.616C66.0805 276.676 66.1976 275.443 66.382 273.941C66.5569 272.514 66.7255 270.987 67.1455 269.636C67.3609 268.943 67.6547 269.255 67.6313 268.436C67.6189 268.009 66.9696 267.587 66.9481 267.05C66.9223 266.382 67.5415 265.31 67.5764 264.606C67.6222 263.682 67.6308 262.878 67.5277 262.005C67.4646 261.469 67.3227 261.275 67.2931 260.623C67.2658 260.009 67.4001 259.29 67.413 258.651C67.4493 256.834 67.6915 255.009 68.0107 253.272C68.1979 253 68.3451 252.707 68.4535 252.394C68.379 252.068 68.2543 251.763 68.0799 251.478C68.0317 250.648 68.0474 249.837 68.0575 248.995C68.0761 247.432 67.778 245.949 67.6867 244.409C67.66 243.952 67.4799 243.189 67.7976 242.766C68.0398 242.444 68.8869 242.523 68.98 242.213C69.2476 241.327 68.4464 241.856 68.2729 241.407C68.1339 241.047 68.2046 240.573 68.1817 240.211C68.1172 239.232 69.5261 232.581 70.7463 233.445C70.2599 233.101 71.214 230.81 71.5236 230.423C72.674 228.981 73.361 230.614 74.2941 231.627C75.5998 233.046 76.7363 232.134 78.4323 231.813C80.5321 231.417 82.8396 231.557 84.968 231.603C87.1499 231.65 89.3628 231.773 91.5361 231.965C93.8762 232.172 96.1426 232.879 98.5061 232.844C102.009 232.791 105.558 232.873 109.058 232.748C109.758 232.723 111.453 232.796 111.747 231.905C111.857 231.57 111.225 230.868 111.13 230.499C110.947 229.79 110.934 228.86 111.246 228.166C112.19 226.073 114.153 227.782 115.536 228.542C117.62 229.688 119.78 230.663 122.082 231.283C131.263 233.752 142.093 233.615 151.468 232.449C160.987 231.264 170.398 228.398 179.679 226.05C188.153 223.907 195.975 219.153 202.48 213.337C209.111 207.409 214.344 199.186 217.619 190.932C221.268 181.736 218.614 172.477 218.521 163.071C218.475 158.381 217.431 153.803 217.146 149.127C216.869 144.592 217.257 140.336 218.617 135.898C218.964 134.767 219.451 133.631 219.704 132.474C219.938 131.403 219.524 130.543 219.661 129.533C219.956 127.37 222.347 127.59 223.392 125.982C224.338 124.526 223.363 122.261 223.028 120.7C222.445 117.989 221.721 115.312 221.055 112.621C220.366 114.223 219.724 115.821 219.308 117.519C219.201 117.954 219.191 118.722 218.894 119.108C218.679 119.388 218.136 119.351 217.966 119.609C217.392 120.478 217.458 121.35 217.358 122.467C217.165 124.635 216.814 126.78 216.458 128.925C215.26 136.132 214.348 143.235 211.516 150.038C206.298 162.576 199.25 174.242 188.827 183.135C184.103 187.165 178.096 189.671 172.379 191.795C165.56 194.327 159.073 195.7 151.752 195.042C144.843 194.422 137.938 192.277 131.609 189.495C125.376 186.755 119.523 184.343 114.201 179.928C108.514 175.211 102.834 169.517 98.9227 163.203C97.4961 160.9 94.9564 156.15 95.5789 153.267C96.3772 149.569 102.057 152.008 104.109 152.773C102.383 149.948 97.7622 144.917 100.059 141.393C103.413 136.251 112.189 141.459 115.783 143.365C113.931 139.597 111.1 136.432 109.094 132.756C108.1 130.934 105.352 123.527 109.389 123.126C110.611 123.005 111.908 124.4 112.772 125.1C114.448 126.458 116.11 127.832 117.772 129.208C121.405 132.214 125.24 134.77 129.424 136.947C137.797 141.303 145.897 143.616 155.407 142.69C163.51 141.901 172.445 139.438 178.746 134.096C182.53 130.888 185.539 127.339 187.482 122.729C189.629 117.639 190.997 112.047 192.499 106.735C190.171 106.136 188.54 106.484 188.989 103.715C189.527 100.395 189.409 97.0371 189.428 93.6682C189.47 86.6848 189.599 79.6243 191.783 72.9229C192.172 71.7301 192.514 70.501 193.184 69.4273C194.01 68.1031 194.777 67.9061 193.713 66.4624C191.667 63.683 189.54 61.307 188.022 58.1131C187.232 56.4519 186.499 54.8245 185.526 53.2718C183.93 50.7257 181.843 48.8574 179.795 46.6516C177.444 44.1203 175.602 41.7324 174.394 38.4807C173.829 36.9628 173.059 35.4527 172.767 33.8492C172.42 31.9375 172.781 29.9818 172.946 28.069C173.492 21.7238 175.622 16.6033 181.861 14.1241C186.93 12.1091 192.758 11.2414 198.073 12.7994C204.504 14.6848 207.552 20.3274 210.614 25.7877C211.478 27.3276 212.009 28.9568 212.793 30.5196C213.596 32.1215 214.429 32.1239 215.908 32.7741C218.839 34.062 218.591 37.777 217.318 40.2189C215.701 43.322 216.028 46.917 214.635 50.1563C213.207 53.4735 210.992 54.3976 207.614 55.141C208.902 56.1641 210.076 57.5017 211.718 57.9391C213.71 58.4697 216.124 57.9635 218.187 57.9926C222.47 58.0529 226.801 58.6332 230.87 60.0024C234.867 61.3467 238.449 63.498 242.164 65.4231C243.863 66.3032 245.446 67.5586 247.387 67.8139C249.27 68.062 251.166 67.5978 253.06 67.8411C257.212 68.3751 261.764 67.702 265.999 67.6097C270.56 67.5103 275.137 67.5739 279.688 67.2402C281.655 67.0963 283.597 66.8893 285.569 67.0609C287.362 67.2163 288.432 66.7942 289.982 68.0213C291.012 68.8369 291.834 70.8333 293.048 71.1053C294.343 71.3955 296.893 70.5837 298.172 70.3911C302.47 69.7428 306.802 68.8857 311.074 68.0954C313.076 67.7249 314.962 67.0499 316.981 66.7014C319.065 66.3414 321.228 66.2243 323.286 65.7611C326.617 65.0115 330.214 64.7323 333.687 64.2533C337.754 63.6925 341.937 62.5098 346.037 62.3602C363.196 61.7339 382.429 60.7152 397.644 70.2295C401.216 72.4635 404.888 75.316 407.639 78.5119C410.168 81.4476 413.272 85.3314 413.917 89.2433C414.493 92.7351 414.073 98.8523 409.404 98.8948C404.851 98.9364 400.173 96.2182 396.255 94.2051C397.928 98.2165 403.013 106.809 398.599 110.704C394.044 114.724 385.657 106.001 382.649 103.201C383.243 107.487 387.488 123.064 379.455 123.305C371.614 123.54 367.065 113.875 364.271 108.137C362.797 105.107 361.696 101.548 359.302 99.0827C356.895 96.604 353.557 96.6862 350.299 96.3693C342.379 95.5991 334.503 95.559 326.537 95.3682C316.455 95.1273 306.554 96.7885 296.459 95.8501C296.586 97.7967 295.847 101.34 293.875 102.085C290.969 103.184 287.405 101.604 284.431 101.604C284.631 102.795 286.325 104.049 287.039 104.947C288.318 106.558 289.42 108.285 290.449 110.063C292.46 113.537 294.598 117.016 296.026 120.781C296.744 122.675 297.357 124.629 297.875 126.587C298.172 127.713 298.167 129.395 298.77 130.391C299.518 131.628 300.668 130.914 301.617 131.884C302.984 133.283 301.557 134.019 301.126 135.253C300.659 136.587 301.246 138.847 301.068 140.314C300.801 142.516 300.518 144.734 300.153 146.922C299.485 150.921 298.067 154.621 297.119 158.525C296.219 162.229 298.655 166.145 299.459 169.727C300.392 173.886 300.934 178.093 301.892 182.243C302.904 186.625 303.374 191.138 304.072 195.577C304.753 199.914 305.734 204.198 306.4 208.538C307.669 216.808 308.476 225.23 309.476 233.534C310 237.887 310.403 242.296 310.442 246.683C310.478 250.79 311.058 254.802 311.143 258.902C311.232 263.247 311.283 267.596 311.471 271.938C311.657 276.233 311.124 280.51 310.929 284.798C310.836 286.843 310.767 288.89 310.798 290.936C310.823 292.663 311.297 294.685 310.868 296.375C310.022 299.717 305.319 301.724 302.367 302.696C298.758 303.885 294.949 304.707 291.254 305.585C289.454 306.013 287.631 306.377 285.801 306.646C285.089 306.75 284.264 306.708 283.6 307.01C282.599 307.466 282.796 307.237 282.743 308.375C282.657 310.215 283.196 312.23 283.476 314.034C283.734 315.694 283.406 318.424 284.047 319.912C284.778 321.605 289.924 322.991 291.183 321.843C292.072 321.033 292.326 319.503 293.372 318.821C294.879 317.838 295.571 319.215 295.564 320.693C295.558 321.808 294.715 323.152 295.729 323.966C296.607 324.672 298.459 324.302 299.307 323.721C300.721 322.753 303.654 316.759 304.372 321.858C304.541 323.058 304.023 324.457 305.041 325.369C305.995 326.223 308.296 326.185 309.5 326.337C311.421 326.581 313.102 326.662 315.041 326.62C317.206 326.574 319.251 327.082 321.379 327.178C324.695 327.326 328.022 327.775 331.413 327.841C334.874 327.908 338.646 328.812 341.308 331.161C344.365 333.857 343.736 337.191 343.153 340.802C342.768 343.191 345.815 345.771 342.739 347.86C341.506 348.697 339.456 348.521 338.038 348.533C335.613 348.556 333.216 348.273 330.789 348.408C313.109 349.393 295.362 348.659 277.687 348.076C273.558 347.94 269.269 348.129 265.175 347.63C263.351 347.408 261.54 347.09 259.713 346.895C258.149 346.728 256.282 347.003 254.788 346.495C251.09 345.237 255.047 341.411 255.342 339.225C255.915 334.982 255.672 330.486 255.7 326.211C255.729 321.666 255.7 317.121 255.7 312.576C253.733 312.713 248.215 314.169 246.674 312.481C245.4 311.086 247.568 308.172 247.675 306.497C248.108 299.667 247.962 292.83 248.477 285.995C249.008 278.945 248.943 271.958 249.164 264.908C249.4 257.376 249.935 249.872 249.935 242.33C244.433 248.155 239.178 254.551 233.061 259.743C230.44 261.967 227.586 263.891 224.85 265.965C221.766 268.302 218.895 270.901 215.83 273.259C210.127 277.647 203.345 280.212 197.32 284.113C191.23 288.057 184.731 291.305 177.72 293.257C170.055 295.391 161.927 296.101 153.996 295.691C150.191 295.495 146.405 295.006 142.657 294.323C141.095 294.037 139.548 293.665 137.986 293.386C135.775 292.989 134.698 293.359 132.628 293.764C129.909 294.296 129.232 290.324 128.425 288.414C126.939 284.892 126.295 281.043 124.979 277.44C122.678 271.14 120.558 264.911 118.522 258.504C118.06 257.05 117.753 254.529 116.019 254.324C114.849 254.186 112.834 255.491 111.687 255.851C109.693 256.478 107.802 256.759 105.725 256.811C103.974 256.854 103.765 257.51 102.67 258.756C101.667 259.898 99.8552 260.553 100.196 262.212C100.397 263.194 101.44 263.952 101.635 265.061C102.335 269.042 98.3384 265.6 96.9338 264.73C96.0829 266.607 102.511 268.691 100.169 271.348C99.0215 272.649 96.6299 270.672 95.4886 270.167C92.8265 268.989 92.4219 272.193 91.7129 274.27C90.412 278.083 89.541 282.083 88.544 285.984C87.5837 289.743 86.8026 293.585 85.2871 297.173C83.9365 300.371 81.5846 302.459 79.9048 305.347C79.0783 306.768 78.1653 307.792 76.3785 307.859C75.1698 307.905 72.9339 307.43 71.7921 306.969C70.7138 306.533 69.5447 305.208 68.7908 304.376C67.7441 303.221 67.9509 302.104 67.1034 300.691C67.1402 301.4 67.2983 302.061 67.3366 302.754C65.7896 301.536 67.3318 299.621 67.0509 298.077C66.9625 297.588 66.4584 297.178 66.4298 296.665C66.4174 296.455 66.8664 295.972 66.8965 295.679C66.9324 295.332 66.9606 294.324 66.8621 294.067C66.791 293.882 66.1957 292.94 66.2086 293.111C66.1995 292.986 65.9893 292.79 66.102 292.378C66.2726 291.757 67.2615 291.646 67.1827 290.813Z" fill="#274546"/>
</g>
<defs>
<clipPath id="clip0_149_1135">
<rect width="480" height="360" fill="white"/>
</clipPath>
</defs>
</svg>
