<svg width="67" height="103" viewBox="0 0 67 103" fill="none" xmlns="http://www.w3.org/2000/svg">
<path d="M33.7031 102.901L6.61767 94.6464L0.581665 20.3252H66.9057L60.8635 94.6349L33.7031 102.901V102.901Z" fill="#264DE4"/>
<path d="M55.6907 89.9028L60.8539 26.4016H33.7438V96.5823L55.6907 89.9028V89.9028Z" fill="#2965F1"/>
<path d="M14.419 53.9666L15.1631 63.0818H33.7437V53.9666H14.419ZM12.9236 35.5173L13.6783 44.6325H33.7437V35.5173H12.9236V35.5173ZM33.7437 77.6398L33.7073 77.6504L24.4603 74.9093L23.8691 67.6396H15.5341L16.6972 81.9518L33.7055 87.1349L33.7437 87.1235V77.6398Z" fill="#EBEBEB"/>
<path d="M16.1908 0.127686L26.2469 0.127686V4.7445H20.3963V9.36132H26.2474V13.9779H16.1908V0.127686ZM28.2584 0.127686L38.3148 0.127686V4.14228H32.4639V4.94515H38.3148V14.1788H28.2586V9.96297H34.1095V9.16011H28.2581V0.127686H28.2584ZM40.3262 0.127686L50.3826 0.127686V4.14228H44.5317V4.94515H50.3826V14.1788H40.3262V9.96297H46.1771V9.16011H40.3265V0.127686H40.3262Z" fill="black"/>
<path d="M53.0154 53.9666L54.5142 35.5173H33.7151V44.6325H45.4148L44.6593 53.9666H33.7151V63.0818H43.9394L42.9754 74.9036L33.7148 77.6475V87.1306L50.7367 81.9518L50.8614 80.4117L52.8129 56.4143L53.0154 53.9666V53.9666Z" fill="white"/>
</svg>
