<svg width="494" height="327" viewBox="0 0 494 327" fill="none" xmlns="http://www.w3.org/2000/svg">
<path fill-rule="evenodd" clip-rule="evenodd" d="M173.707 3.26184C180.027 5.37829 185.729 8.48799 191.3 12.109C194.014 13.8734 196.729 15.9382 199.729 17.1876C202.393 18.2959 205.3 18.8002 208.035 19.7109C220.289 23.7915 233.586 24.6122 246.047 20.6893C258.749 16.6902 269.531 8.10187 282.668 5.40811C295.479 2.78092 308.508 3.36196 320.81 8.11945C326.786 10.4303 331.825 14.3133 336.924 18.0946C341.811 21.7182 346.938 25.2923 350.72 30.1297C354.436 34.8802 356.581 40.7918 358.217 46.5404C359.161 49.8557 359.597 53.2791 359.529 56.7275C359.482 59.1401 358.206 61.4706 358.956 63.8028C360.009 67.0733 361.541 69.4773 361.146 73.1185C360.827 76.0509 359.495 78.578 357.412 80.6364C355.274 82.748 352.717 84.1982 349.868 85.1143C347.713 85.8071 347.032 85.6319 345.779 83.753C342.273 86.9282 339.769 90.9406 335.375 93.0379C333.195 94.0796 330.961 94.5813 328.558 94.7341C326.738 94.8497 325.068 94.9024 323.53 96.0097C321.916 97.1723 316.017 102.358 318.274 104.398C319.591 105.587 322.662 105.823 324.336 106.507C326.68 107.464 328.933 108.637 331.059 110.01C338.838 115.035 346.582 118.17 355.577 120.419C364.916 122.754 374.333 124.017 383.968 124.052C392.72 124.084 401.89 123.419 410.006 119.874C413.902 118.173 417.662 115.917 420.848 113.093C424.029 110.274 425.981 106.355 429.248 103.732C431.363 102.034 429.407 99.4203 428.754 97.0897C427.425 92.3487 426.408 86.9516 426.004 82.0493C425.612 77.287 424.957 72.5386 424.111 67.8263C423.215 62.8308 421.347 58.1809 420.028 53.302C419.055 49.7044 418.077 45.4822 419.204 41.8085C419.764 39.986 421.004 38.0602 422.768 37.1905C424.345 36.4125 425.317 37.1559 426.73 37.0723C430.876 36.8284 434.078 38.5193 437.206 41.286C438.897 42.781 440.855 44.09 442.465 45.6558C443.718 46.8733 444.015 48.8379 445.35 49.9175C447.542 44.3217 449.838 37.2081 457.273 40.4084C463.155 42.9408 463.912 52.4557 466.765 57.4161C468.37 56.0953 468.549 53.4926 469.174 51.6515C469.819 49.746 470.907 47.7334 472.441 46.3854C475.791 43.4414 479.877 44.6237 482.183 48.1504C483.416 50.0357 482.682 52.2001 483.906 54.062C485.12 55.9084 484.741 58.0659 485.236 60.2164C485.865 62.9421 486.624 65.6279 487.13 68.3845C487.364 69.6589 487.705 71.0958 487.646 72.4038C487.621 72.946 487.182 73.8785 487.317 74.4138C487.493 75.1141 488.325 75.7441 488.63 76.437C489.04 77.368 488.888 78.0449 488.934 79.0051C489.019 80.7338 489.481 82.1521 489.977 83.8595C491.227 88.16 490.911 93.6035 489.059 97.6761C488.099 99.7872 487.426 101.323 487.141 103.582C486.957 105.041 485.858 106.369 485.924 107.937C486.016 110.119 491.851 113.484 487.245 114.931C485.32 115.536 484.908 115.22 484.383 117.419C483.861 119.601 483.27 121.724 482.414 123.804C480.6 128.216 477.916 132.167 475.383 136.185C472.642 140.534 469.765 144.738 465.715 147.981C461.959 150.988 457.655 153.435 453.368 155.6C444.337 160.161 434.288 162.707 424.148 162.461C413.335 162.197 402.367 163.219 391.651 161.382C380.68 159.501 369.976 156.388 359.049 154.299C354.141 153.361 349.566 152.338 345.1 150.021C340.568 147.671 336.048 145.272 331.902 142.275C329.046 149.122 327.509 156.258 323.414 162.556C319.84 168.053 315.53 173.221 310.254 177.163C305.1 181.014 298.366 183.894 291.877 184.142C289.897 184.217 286.852 183.348 285.432 184.84C284.72 185.587 284.648 187.07 284.366 188.029C283.886 189.661 283.19 191.253 282.804 192.91C282.218 195.424 284.578 195.463 286.646 196.484C289.419 197.852 292.127 199.347 294.808 200.887C297.547 202.461 300.159 204.271 302.902 205.82C305.257 207.15 307.689 208.176 309.957 209.683C315.316 213.245 321.188 215.62 326.943 218.439C333.104 221.458 339.095 224.825 345.149 228.049C357.141 234.436 369.17 241.065 380.491 248.593C385.776 252.107 390.857 255.765 396.277 259.088C401.332 262.188 407.102 265.818 410.32 270.904C412.83 274.87 416.436 276.749 420.585 278.911C423.03 280.185 424.543 280.426 426.529 278.341C428.478 276.295 430.362 274.26 432.419 272.308C440.851 264.304 448.065 255.542 455.097 246.326C460.318 239.484 467.476 231.268 477.064 232.767C479.939 233.217 481.848 234.555 483.974 236.438C485.416 237.715 488.023 238.551 488.984 240.205C489.539 241.161 489.772 242.385 490.331 243.387C490.917 244.435 491.644 245.457 492.036 246.604C492.697 248.543 491.27 251.625 492.693 253.204C493.735 254.361 492.766 257.085 492.482 258.392C491.957 260.81 491.511 263.264 490.68 265.598C490.026 267.436 489.383 269.954 488.005 271.389C486.776 272.668 485.334 272.543 485.655 274.759C484.324 274.315 483.18 277.502 482.805 278.306C481.797 280.464 480.696 282.238 479.072 284.028C474.966 288.551 470.266 291.611 464.941 294.487C462.998 295.535 458.97 296.995 458.519 299.419C458.086 301.747 459.414 303.638 458.48 306.125C456.539 311.299 452.173 316.754 448.61 320.929C445.405 324.683 442.297 327.193 437.158 326.311C432.605 325.531 428.1 323.206 424.311 320.629C419.748 317.525 414.914 315.191 409.986 312.726C407.56 311.514 405.133 310.395 403.031 308.653C401.078 307.034 399.383 305.21 397.118 304.008C395.505 303.151 393.398 302.544 392.725 300.637C391.992 298.557 393.331 297.259 394.471 295.769C395.236 294.768 395.659 294.613 394.998 293.809C394.471 293.168 393.023 292.624 392.296 292.234C390.536 291.289 388.777 290.463 386.896 291.501C384.798 292.659 383.363 295.053 381.791 296.793C379.907 298.876 377.791 300.775 375.725 302.676C371.627 306.446 367.136 309.824 363.133 313.682C362.217 314.564 360.415 316.801 358.904 316.378C357.789 316.066 358.375 315.403 357.8 314.893C357.182 314.344 356.656 314.337 355.864 313.744C353.893 312.268 353.292 309.437 351.225 307.909C349.101 306.339 346.477 305.21 344.177 303.917C333.679 298.016 323.451 291.652 313.855 284.358C309.043 280.701 304.499 276.732 299.838 272.89C297.644 271.082 295.419 269.1 292.979 267.631C290.754 266.291 288.281 265.354 286.014 264.069C281.157 261.315 275.961 259.207 271.153 256.364C268.892 255.027 267.216 253.231 265.114 251.742C263.273 250.439 261.74 249.667 260.37 247.769C259.718 249.203 257.932 247.332 257.287 246.893C256.779 246.547 256.129 246.302 255.658 245.906C255.184 245.508 254.898 244.621 254.538 244.344C253.741 243.731 252.816 243.871 251.746 243.487C250.317 242.974 248.431 241.607 247.332 240.564C246.571 239.842 247.813 240.41 246.527 239.525C245.929 239.112 244.903 239.002 244.231 238.565C242.636 237.53 241.171 236.2 239.648 235.057C236.888 232.988 233.319 231.104 231.753 227.878C223.339 234.788 215.213 242.289 205.551 247.46C196.218 252.456 185.424 254.724 175.459 258.171C165.206 261.717 154.85 265.281 144.425 268.287C139.357 269.748 134.13 270.797 128.95 271.785C123.636 272.798 118.396 272.496 113.064 273.068C110.443 273.349 107.818 273.258 105.198 273.512C102.785 273.746 100.445 274.359 98.0491 274.678C95.9369 274.959 93.5548 274.722 91.5235 275.297C90.0332 275.718 88.0648 277.212 86.9733 275.268C86.1735 276.466 85.9195 275.9 84.8781 275.824C83.7674 275.742 83.433 275.79 82.3458 275.998C80.5775 276.336 78.6261 276.466 77.1252 275.077C76.4383 277.566 69.7833 275.302 68.9895 273.657C68.0955 276.292 60.0114 274.018 59.8943 271.545C59.7958 269.45 61.186 266.439 61.76 264.472C62.6965 261.261 63.8572 258.12 65.0701 255.005C66.3533 251.711 67.669 248.428 68.9889 245.148C69.5688 243.707 70.1166 242.243 70.7785 240.837C71.1033 240.147 71.9482 239.118 71.9344 238.321C71.8934 235.994 67.7228 235.829 65.9593 235.248C64.6256 234.809 63.2716 234.345 62.0049 233.737C61.0854 233.295 59.9821 232.279 58.9646 232.139C56.6331 231.816 57.1612 234.456 56.9078 236.077C56.5825 238.164 55.4329 239.237 53.2233 239.252C50.642 239.27 43.281 234.83 41.8924 238.214C41.2412 239.8 41.418 242.841 41.1794 244.545C40.7876 247.337 40.943 250.115 41.3253 252.9C41.9531 257.485 44.0248 263.285 41.6927 267.681C37.0365 276.459 20.8907 271.169 15.7372 265.644C8.14775 257.506 8.36924 245.312 12.0058 235.459C13.7741 230.668 16.3357 225.533 19.6842 221.636C21.1718 219.905 24.0018 218.234 24.4927 215.855C24.9005 213.882 23.3671 212.064 23.6898 210.042C24.0731 207.641 26.1033 206.186 27.8433 204.73C29.6547 203.215 31.4171 201.563 33.4814 200.389C38.2579 197.675 43.675 199.314 48.4239 201.307C53.6168 203.487 58.5914 206.41 63.23 209.592C65.5265 211.167 67.4736 212.584 70.1965 213.346C72.2842 213.931 74.3932 214.505 76.4905 215.054C78.4696 215.572 80.1377 215.957 81.5269 214.245C83.0555 212.362 83.5619 211.601 86.2076 211.52C89.0253 211.434 91.8451 211.592 94.6601 211.699C95.2549 211.722 96.6051 211.537 97.0742 212.033C97.4922 212.474 96.8868 213.395 97.276 213.676C97.8905 214.117 101.381 209.184 101.68 213.177C101.87 211.239 103.904 212.177 105.037 212.433C105.45 212.525 105.862 212.635 106.27 212.725C106.713 212.577 107.081 212.691 107.373 213.065C107.839 213.164 108.154 212.986 108.318 212.532C113.245 212.461 118.214 212.771 123.152 212.745C128.863 212.715 134.607 212.659 140.264 211.832C142.36 211.525 144.456 211.102 146.556 210.845C147.518 210.728 148.325 210.83 149.264 210.892C149.606 210.957 149.917 211.099 150.196 211.318C150.339 211.036 150.552 210.823 150.836 210.677C154.428 209.625 158.125 208.911 161.776 207.992C164.331 207.349 166.474 206.853 169.018 206.672L169.5 206.641L170.523 206.943C170.672 206.578 170.916 206.294 171.253 206.09C172.082 205.75 172.787 205.618 173.681 205.527C177.239 205.164 180.73 205.201 184.093 204.681C185.865 204.407 192.337 203.403 193.531 205.16C194.446 203.02 201.037 205.933 202.967 204.669C199.972 200.583 198.667 196.211 197.819 191.271C196.896 185.888 196.315 180.227 197.681 174.866C198.94 169.926 201.683 164.856 205.431 161.381C209.056 158.02 209.906 154 212.325 149.852C217.364 141.209 225.667 135.929 234.916 132.741C239.953 131.005 245.073 129.56 250.154 127.964C254.28 126.668 257.735 124.814 259.822 120.85C242.252 120.85 225.439 126.301 209.35 132.913C201.347 136.201 193.38 139.624 185.475 143.144C181.452 144.935 177.473 146.85 173.719 149.163L172.682 149.802C171.472 150.551 170.27 151.317 169.141 152.18C168.873 152.386 167.405 153.243 167.318 153.529C166.647 155.753 170.343 159.33 171.303 161.237C172.609 163.835 173.888 166.873 174.049 169.802C174.24 173.304 172.007 175.057 168.566 174.338C164.357 173.459 161.171 169.951 157.83 167.511C157.084 169.75 158.047 172.325 158.569 174.506C159.284 177.498 159.996 180.536 160.505 183.571C161.224 187.862 160.713 192.704 156.445 194.953C145.569 200.682 140.024 185.566 137.815 178.015C136.322 179.092 136.496 183.038 136.222 184.688C135.694 187.863 135.089 191.271 133.679 194.187C132.599 196.419 130.765 199.026 128.064 199.267C125.135 199.528 122.774 197.009 121.462 194.684C119.195 190.668 118.661 186.191 118.482 181.69C118.442 180.698 118.729 171.516 117.727 171.254C114.781 176.535 113.137 182.407 109.676 187.443C106.642 191.856 102.078 194.849 97.9762 189.746C91.6247 181.844 93.657 170.424 96.2591 161.533C97.7723 156.363 99.8317 151.428 102.608 146.804C103.76 144.887 105.153 143.448 106.583 141.757C107.761 140.363 108.215 139.708 107.707 138.102C107.411 137.165 107.13 137.131 107.395 136.095C107.585 135.352 108.154 134.438 108.48 133.747C109.41 131.775 110.387 129.829 111.527 127.968C113.964 123.993 117.283 120.687 120.77 117.62L121.12 117.313L121.103 117.329C120.879 117.536 122.51 116.292 122.477 116.29L122.468 116.293L122.511 116.267C123.112 115.874 123.342 114.58 124.026 115.735L124.076 115.821C124.183 114.122 125.613 113.157 126.84 112.205C127.297 111.851 127.754 111.358 128.308 111.146C128.694 110.998 129.592 111.143 129.872 110.937C130.415 110.537 130.681 109.745 131.197 109.273C131.715 108.802 132.429 108.582 133.018 108.222C134.462 107.341 135.788 106.262 137.196 105.322C140.188 103.326 143.311 101.528 146.511 99.8889C153.243 96.4405 160.389 93.6658 167.539 91.2186C173.841 89.0617 180.373 87.0635 186.846 85.4924C193.49 83.8792 200.473 84.2808 207.258 83.6177C221.088 82.2655 235.686 82.5382 249.509 83.8877C256.284 84.5492 263.02 85.5834 269.702 86.8765C276.182 88.1302 282.922 89.557 288.679 92.9463C289.905 93.6684 292.121 95.9846 293.56 95.8994C294.77 95.828 295.821 93.5939 296.389 92.7135C297.741 90.6227 299.44 88.7011 300.589 86.4979C302.002 83.7844 302.727 80.7344 303.79 77.8792C298.858 78.5593 293.678 79.0003 288.944 77.1102C284.658 75.3985 281.769 71.9778 278.566 68.8191C275.193 65.4921 271.581 63.2377 266.756 62.932C261.282 62.5848 256.346 64.5494 251.311 66.3804C240.674 70.249 230.039 74.4995 219.092 77.4175C213.742 78.8437 208.241 79.9696 202.698 80.2231C199.875 80.3514 197.019 80.2247 194.227 80.7461C193.069 80.9618 192.722 81.1423 191.807 80.631C191.931 80.7008 190.642 78.5567 190.386 79.3912C190.14 80.1954 190.543 80.8238 189.839 81.4299C189.011 82.1414 187.216 81.7952 186.257 81.7132C184.822 81.5907 183.678 81.1034 182.295 80.7791C180.159 80.2779 177.764 80.6081 175.587 80.3344C174.576 80.2071 173.841 79.952 172.931 79.6719C171.978 79.3784 172.592 79.4157 171.61 79.2905C170.74 79.1798 170.247 79.2943 169.194 78.9518C168.252 78.6456 167.382 78.4347 166.419 78.21C165.536 78.0049 164.824 77.6358 164.004 77.3956C165.035 77.6976 162.68 76.764 162.782 77.0124L162.791 77.0284L162.783 77.0198C162.527 76.7317 162.231 76.1526 161.725 76.0627L161.621 76.0514C163.286 78.6088 155.965 75.9066 155.479 75.759C151.433 74.5277 147.289 71.7328 143.061 71.4755C138.933 71.2242 134.93 74.0378 131.607 76.1244C127.594 78.6445 123.599 81.1854 119.601 83.7312C110.765 89.3578 101.196 94.3906 91.2796 97.8103C86.4563 99.4735 81.5136 100.808 76.621 102.248C74.4151 102.897 72.0063 103.164 69.8983 104.096C68.4735 104.725 66.4199 106.609 64.9802 104.94C64.4003 106.4 61.5848 106.326 60.391 106.371C60.2073 106.378 60.5023 106.728 60.0822 106.698C59.4635 106.655 59.2979 106.054 58.8107 105.928C57.8209 105.674 57.7182 106.055 56.7374 106.434C55.4633 106.925 55.7061 106.5 54.5794 106.384C53.9346 106.317 53.2515 106.671 52.6057 106.691C52.3432 106.7 51.9987 106.263 51.619 106.269C51.2538 106.276 50.3976 106.712 49.9142 106.785C48.7034 106.967 47.2786 106.846 46.0577 106.792C44.3107 106.713 26.8136 105.153 28.0691 101.494C25.9638 103.437 21.0803 100.261 18.8855 99.2525C18.0682 98.877 18.0155 98.5122 17.5549 98.0888C17.6822 97.5802 17.4644 97.3533 16.9016 97.4077C16.7813 97.3938 16.6604 97.3805 16.5406 97.3666C15.5764 96.8751 15.233 96.8863 14.4652 96.024C13.4413 94.8731 11.5564 93.8325 11.0256 92.3328C10.8834 91.9301 11.0347 91.2351 10.8898 90.9188C10.7045 90.5129 10.2168 90.5598 10.1039 90.2307C10.0645 90.1157 10.253 89.361 10.2392 89.3487C9.35373 88.6074 8.10568 88.9589 7.07967 88.069C4.24441 85.6079 2.53367 80.6715 1.71797 77.1661C-0.415531 67.9978 -1.14391 58.779 2.9969 50.1071C5.00953 45.8907 7.47367 41.8804 10.1945 38.0869C10.9473 37.0377 11.7359 35.6525 12.6964 34.7668C13.1277 34.369 13.6921 34.2875 13.9024 34.0494C15.0248 32.7792 15.6067 31.1458 17.1109 29.9097C18.7854 28.533 20.4365 27.118 22.2862 25.9793C23.9837 24.9339 26.0975 24.2591 27.6538 23.2813C28.0808 23.0129 27.9339 22.5895 28.3976 22.2705C28.8891 21.9323 29.5248 21.9062 30.0817 21.7416C30.7425 21.5472 31.5619 21.1888 32.2477 21.1297C33.5282 21.0184 33.9579 21.3853 34.9238 22.295C34.9238 18.7944 41.3685 18.3071 43.9753 18.3007C45.1781 18.2975 51.2224 17.758 51.1063 19.6007C52.4832 17.7803 56.6693 19.1347 58.4902 19.6806C60.6754 20.3351 62.0576 21.9366 63.4595 23.6472C63.7193 23.105 63.9797 22.5623 64.2401 22.0202C64.6378 22.2982 65.9828 22.7605 65.5493 23.4938C67.1238 22.1043 66.2362 23.2488 67.5849 23.4959C68.1775 23.6046 68.6881 23.3857 69.3116 23.3117C69.3632 24.135 69.006 24.4018 68.4964 24.976C69.7178 24.9989 74.4119 24.511 70.9377 26.0464C71.402 26.8772 73.6052 26.5854 74.3799 26.6972C74.7904 26.7564 75.8132 26.7777 76.0582 27.078C76.2195 27.2756 75.9357 27.822 75.9719 27.8705C76.3031 28.3195 75.6152 28.5501 76.2946 28.68C76.4618 28.712 76.9905 28.181 77.1103 28.1831C77.9915 28.197 77.3733 28.0217 78.3077 28.1565C78.6373 28.2039 79.2699 28.5799 79.6932 28.6667C86.075 29.9731 93.8758 25.0585 98.5118 21.2538C104.052 16.7077 108.875 11.8485 115.536 8.89754C121.98 6.04347 129.158 3.79281 136.006 2.16047C148.671 -0.85816 161.247 -0.910884 173.707 3.26184ZM334.913 294.155C335.119 294.264 335.323 294.373 335.528 294.482C335.82 294.334 336.112 294.186 336.404 294.038C335.567 293.641 335.51 293.467 334.913 294.155ZM402.923 276.049C401.388 277.018 400.07 279.206 398.726 280.512C396.84 282.345 394.867 284.088 392.898 285.831C395.168 286.619 398.461 289.807 400.918 288.362C402.134 287.647 402.902 285.543 403.672 284.427C404.864 282.7 406.257 281.078 407.657 279.518C409.101 277.91 404.532 275.032 402.923 276.049ZM259.007 242.957C259.615 243.212 260.947 244.681 260.329 245.195C259.703 244.471 258.862 243.948 259.007 242.957ZM63.624 219.712C62.5128 220.673 61.26 222.678 60.4864 223.94C59.6147 225.363 59.5839 226.08 60.915 227.029C63.4872 228.864 67.2239 229.402 70.2072 230.258C71.7997 230.715 73.7687 231.864 75.1216 230.411C76.4612 228.973 76.4644 226.294 77.0672 224.511C77.5554 223.067 78.0777 221.635 78.5846 220.197C75.7728 220.48 72.945 220.5 70.1805 219.87C68.1738 219.414 65.3987 218.178 63.624 219.712ZM112.192 142.827C109.922 145.911 107.896 149.178 106.11 152.565C103.155 158.173 100.858 164.126 99.4031 170.299C98.3718 174.672 96.865 180.82 99.22 185.015C104.35 194.154 114.763 167.772 116.352 165.013C117.298 163.37 118.766 161.608 120.393 163.72C121.727 165.454 121.293 168.232 121.355 170.273C121.539 176.34 120.692 183.606 123.118 189.315C123.914 191.189 126.022 193.895 128.402 193.044C130.536 192.28 131.602 188.605 132.261 186.711C134.348 180.721 135.828 173.4 135.896 167.062C135.909 165.789 134.767 157.371 137.712 159.233C139.638 160.451 139.559 166.361 139.746 168.294C140.478 175.849 141.97 188.68 151.342 189.951C153.405 190.231 155.74 189.743 156.948 187.887C158.45 185.582 156.94 182.482 156.414 180.058C155.507 175.881 154.48 171.574 154.39 167.274C154.334 164.638 154.593 160.255 158.296 161.272C162.757 162.498 164.644 168.335 169.654 168.531C169.659 167.356 169.009 166.398 168.458 165.417C166.675 162.244 163.428 159.528 162.329 156.018C161.969 154.867 162.344 153.135 161.631 152.175C160.957 151.27 159.437 151.037 158.421 150.832C151.654 149.465 145.002 147.615 138.266 146.039C131.066 144.355 124.39 142.534 117.647 139.569C114.609 138.233 113.915 140.486 112.192 142.827ZM273.637 190.147C274.63 190.619 275.615 191.11 276.62 191.557C277.495 191.946 277.838 191.636 278.186 190.819C277.555 190.689 274.003 189.426 273.637 190.147ZM231 87.8027C218.124 88.1803 205.536 88.3448 192.846 90.7899C186.776 91.9594 180.827 93.3143 174.875 94.9749C172.361 95.6763 170.144 96.4075 167.951 97.8066C167.136 98.3264 164.978 99.9587 164.647 98.0931C163.563 99.1321 161.449 102.304 159.716 100.542C159.412 101.816 158.465 101.776 157.541 102.209C157.215 102.362 157.038 102.88 156.619 103.068C156.514 103.115 156.479 102.387 156.326 102.374C155.773 102.331 155.338 103.494 155.021 103.791C154.256 104.502 153.541 104.827 152.528 105.085C152.088 105.232 151.637 105.327 151.176 105.368C150.632 105.591 150.306 105.431 150.199 104.887C149.449 104.899 148.9 105.172 148.114 105.528C149.809 105.917 146.957 106.344 146.578 106.387C146.531 107.655 147.614 106.852 148.313 107.114C147.99 108.705 145.042 109.919 143.829 110.7C143.622 110.259 143.415 109.818 143.207 109.377C142.872 109.702 142.612 110.075 142.426 110.497C142.301 111.009 141.938 111.185 141.337 111.028C140.775 111.474 140.691 111.267 140.345 111.896C139.988 112.547 141.044 113.815 139.51 113.269C139.51 115.432 137.501 114.121 137.853 113.56C136.333 113.413 135.685 116.195 135.855 117.28C135.129 116.56 134.683 116.651 133.953 117.214L133.889 117.264L133.927 117.237C134.488 116.857 133.911 118.411 133.961 118.393L133.968 118.386C132.425 120.42 132.57 118.143 133.048 116.943C132.002 117.362 131.804 118.497 130.965 119.137C130.218 119.707 130.007 119.442 129.365 119.527C128.375 119.658 128.674 118.844 128.24 119.934C128.056 120.397 128.334 121.225 128.334 121.729C128.764 121.142 128.601 120.214 129.376 119.878C129.145 121.579 125.838 127.421 124.448 123.978C123.096 124.918 124.586 125.948 123.698 127.207C123.038 126.57 122.88 125.556 122.954 124.688C122.539 125.24 122.553 125.937 122.228 126.495C121.889 127.077 121.535 127.124 121.371 127.757C121.124 128.718 121.97 128.247 121.523 129.266C121.299 129.778 120.249 130.226 119.836 130.514C118.388 131.523 116.925 132.691 118.33 134.368C120.529 136.992 126.325 137.292 129.438 137.733C136.075 138.674 142.544 140.236 149.083 141.683C153.021 142.555 156.878 143.525 160.741 144.687C163.514 145.521 167.345 146.04 168.809 148.912C176.54 141.519 186.849 137.662 196.39 133.228C206.725 128.425 217.397 123.966 228.345 120.757C238.052 117.911 248.008 116.831 258.036 115.85C260.678 115.591 264.753 114.929 267.108 116.553C268.562 117.555 268.629 119.073 267.516 120.414C266.913 121.14 266.263 120.952 265.894 122.247C265.609 123.248 265.765 124.007 266.027 124.998C265.359 124.474 264.161 124.786 263.819 123.862L263.785 123.758L263.753 123.868C263.296 125.672 266.486 125.921 265.508 128.085L265.444 128.217C265.106 128.878 265.105 126.758 264.808 126.742C263.998 126.7 263.335 128.591 263.003 129.115C264.508 129.115 263.935 130.21 263.127 130.763C262.551 131.157 261.578 131.272 260.909 131.598C259.573 132.25 258.398 133.205 257.028 133.827C255.527 134.508 254.208 134.55 252.717 134.954C252.487 135.016 251.572 135.359 251.479 135.367C251.353 135.379 251.324 135.765 251.216 135.78C250.264 135.915 249.544 135.03 248.622 135.391C248.269 135.529 248.452 136.392 248.146 136.587C247.808 136.803 246.85 136.527 246.441 136.504C245.457 136.448 245.306 136.318 244.525 136.775C243.183 137.558 242.5 138.618 240.692 138.811C239.277 138.961 238.366 138.694 237.02 139.224C235.658 139.761 234.368 139.879 233.04 140.239C232.872 140.285 232.827 140.86 232.691 140.9C232.251 141.03 231.726 140.931 231.307 141.06C230.343 141.357 229.561 141.621 228.666 142.153C224.732 144.492 220.404 148.002 217.32 151.372C215.911 152.91 211.983 156.786 213.264 159.013C214.086 160.442 216.923 161.137 218.338 161.74C220.448 162.641 222.63 163.296 224.763 164.13C227.415 165.168 229.821 166.779 232.526 167.682C235.137 168.554 237.931 168.726 240.628 169.192C252.298 171.205 263.732 174.442 275.409 176.45C281.812 177.552 288.35 178.866 294.854 177.828C300.587 176.913 306.076 174.377 310.654 170.834C318.986 164.386 324.792 155.232 327.711 145.161C328.314 143.081 328.441 137.877 330.386 136.605C332.007 135.545 332.858 137.881 333.909 138.804C335.618 140.303 338.122 140.883 340.178 141.738C345.267 143.855 349.89 146.09 355.269 147.522C360.722 148.973 366.251 150.111 371.764 151.308C382.939 153.734 393.605 156.028 405.091 156.065C416.457 156.102 427.867 156.529 439.106 154.435C448.939 152.604 458.828 147.6 466.177 140.807C469.889 137.376 472.752 133.044 475.67 128.949C477.236 126.753 478.69 124.476 479.913 122.069C480.812 120.3 482.357 117.739 482.515 115.734C482.656 113.941 481.608 114.196 479.818 114.013C477.065 113.732 474.3 113.553 471.545 113.27C465.988 112.7 460.451 111.973 454.897 111.382C449.229 110.78 443.599 109.962 438.093 108.46C436.446 108.011 435.23 107.445 434.067 109.045C433.318 110.075 433.332 112.425 431.768 110.7C428.762 114.496 424.366 116.77 420.259 119.153C415.814 121.731 411.495 124.568 406.783 126.65C396.634 131.136 385.45 130.78 374.678 129.343C363.734 127.882 352.643 125.998 342.359 121.832C337.642 119.922 333.589 117.015 329.358 114.241C327.366 112.935 325.299 111.86 323.184 110.772C320.799 109.544 319.341 107.725 317.185 106.307C315.731 111.041 310.14 112.669 305.725 112.88C300.211 113.144 295.754 110.511 292.41 106.235C289.634 102.684 289.095 97.3741 284.798 95.4307C279.896 93.2142 274.15 92.3333 268.903 91.3022C256.581 88.8817 243.556 87.4336 231 87.8027ZM296.362 124.199C297.748 124.819 301.778 129.455 298.58 129.523C296.548 129.566 295.354 127.017 293.11 127.403C292.103 127.576 290.598 127.924 290.351 128.701C289.734 130.635 292.581 131.882 293.811 132.419C295.706 133.247 297.265 134.079 298.299 135.972C299.888 138.881 300.305 143.588 296.588 144.889C293.826 145.856 290.373 145.106 287.647 144.345C285.348 143.704 283.594 141.327 284.652 138.965C284.951 138.296 285.754 137.116 286.689 137.558C287.431 137.91 287.07 138.576 287.298 139.172C288.211 141.56 295.039 144.964 296.611 141.355C298.529 136.953 291.239 135.628 289.013 134.156C286.137 132.255 286.061 129.001 288.256 126.515C290.179 124.336 293.567 122.95 296.362 124.199ZM308.405 139.115C308.29 140.151 308.147 141.226 307.967 142.254C307.812 143.147 307.819 144.085 306.793 144.408C306.117 144.621 305.458 143.902 304.806 144.38C304.084 144.909 304.429 141.059 304.462 140.843C304.675 139.407 305.064 136.492 306.445 135.601C308.78 134.094 308.544 137.85 308.405 139.115ZM308.256 133.097C305.778 134.667 305.135 130.215 306.121 128.768C308.569 125.174 312.163 130.624 308.256 133.097ZM257.91 130.91C258.618 131.436 258.384 131.146 258.384 132.547C257.56 132.583 257.685 131.455 257.91 130.91ZM260.709 129.698C260.471 130.254 261.543 130.921 261.889 131.008C261.91 130.829 261.387 128.121 260.709 129.698ZM126.25 121.566C125.591 122.521 125.963 123.107 127.011 122.731L127.098 122.698L126.25 121.566ZM139.492 112.382L138.865 112.647C138.569 112.93 138.274 113.212 137.979 113.495C138.841 113.327 139.439 113.456 139.492 112.382ZM142.966 111.04C142.535 110.159 141.051 111.906 141.018 112.315C141.364 112.11 143.469 112.066 142.966 111.04ZM144.359 107.927C143.999 108.435 144.072 108.841 144.58 109.148C145.001 108.585 145.321 107.97 145.539 107.301C144.977 106.893 144.56 107.446 144.359 107.927ZM428.481 45.0439C427.394 45.5317 427.962 47.2115 428.068 48.1216C428.573 52.4568 429.375 56.7488 429.872 61.0829C430.57 67.1787 430.668 73.3481 431.812 79.3896C432.856 84.8991 434.615 90.2493 435.544 95.7844C436.165 99.4874 434.979 103.766 439.395 104.889C443.366 105.9 447.893 105.954 451.964 106.399C457.209 106.971 462.462 107.252 467.729 107.507C470.222 107.627 472.793 107.659 475.261 108.037C476.716 108.259 478.526 109.224 479.645 107.878C480.733 106.568 480.736 103.237 481.076 101.565C481.524 99.359 481.927 97.1408 482.146 94.8982C482.644 89.8206 481.912 84.7926 481.24 79.7651C480.516 74.3456 479.96 68.9032 479.211 63.4891C478.727 59.9991 478.783 54.3634 476.382 51.5466C474.192 58.0861 473.599 65.0293 473.49 71.8862C473.466 73.3582 472.503 81.8181 469.943 77.6939C469.232 76.5467 469.22 75.8917 468.114 74.9218C466.974 73.9222 466.575 73.1228 466.19 71.6092C465.491 68.8675 465.379 66.4566 463.868 63.9913C460.793 58.9734 459.547 52.7609 454.968 48.7101C454.923 53.4186 454.242 58.5111 455.118 63.1621C455.668 66.0848 457.923 70.2916 456.064 73.183C455.137 74.6252 454.601 74.1949 453.51 73.4706C452.81 73.0062 452.918 72.7899 452.04 72.325C451.202 71.8819 450.543 71.9027 449.75 71.2838C446.944 69.0939 446.723 65.2886 445.805 62.1379C443.78 55.1825 436.781 50.8868 431.421 46.5846C430.838 46.1165 429.378 44.6418 428.481 45.0439ZM322.713 59.1353C318.603 60.7767 314.366 61.4019 310 60.4747C310.003 61.4344 311.388 62.9938 310.319 63.5455C310.064 63.6771 308.608 63.047 308.325 62.9735C306.75 62.565 304.628 61.8626 302.982 62.1976C301.24 62.5523 301.3 63.6808 302.439 64.959C304.036 66.7532 308.047 66.8262 308.093 69.8033C308.112 71.0905 307.318 72.7031 307.148 74.0308C306.895 76.0163 306.618 77.9857 306.152 79.9355C305.35 83.2875 304.052 86.476 302.506 89.5506C301.174 92.1991 299.554 94.9589 297.074 96.6897C295.457 97.8177 296.08 97.3086 296.397 98.9713C296.609 100.085 296.574 100.914 295.136 100.639C294.861 100.555 294.586 100.47 294.311 100.386C297.683 105.912 306.209 109.395 312.046 105.707C309.584 103.723 312.925 100.263 314.335 98.7977C316.448 96.6019 318.661 94.0753 320.927 92.0707C324.394 89.002 328.933 90.4954 333.036 89.2044C337.189 87.898 340.21 84.9502 342.894 81.6557C345.285 78.7218 348.455 75.1311 348.778 71.1597C348.841 70.3822 348.464 69.4704 348.601 68.7349C348.741 67.9851 349.195 67.8876 349.432 67.3966C349.917 66.3863 350.035 65.3462 350.112 64.1894C350.363 60.4145 349.164 59.8218 345.62 58.8466C343.554 58.2778 341.461 57.8315 339.392 57.2761C337.417 56.7461 335.657 55.7263 333.71 55.1575C329.612 53.9597 326.322 57.6941 322.713 59.1353ZM333.274 82.857C336.534 84.835 331.395 86.1014 329.498 85.2269C326.936 84.0457 331.454 81.7524 333.274 82.857ZM339.414 66.4108C342.372 69.9465 345.661 77.1331 339.182 78.5875C337.182 79.0365 334.088 79.7619 332.077 79.2117C329.205 78.4251 329.955 74.6758 332.82 74.5112C334.517 74.4138 338.413 75.7569 339.421 73.7848C339.969 72.7154 338.724 71.0159 338.535 69.9487C338.292 68.5751 338.514 67.4775 339.414 66.4108ZM162.791 77.0284L162.794 77.0322C162.804 77.0468 162.821 77.0642 162.844 77.0846L162.855 77.0939L162.833 77.0733L162.791 77.0284ZM345.274 67.6748C347.329 67.67 346.31 72.0355 345.291 72.7811C343.461 74.1189 342.68 67.6801 345.274 67.6748ZM331.729 70.9662C329.345 71.2554 329.882 65.5484 332.054 65.3732C334.906 65.1425 334.485 70.6323 331.729 70.9662ZM352.354 61.494C352.069 62.0756 352.287 67.7379 352.97 67.845C353.154 66.4619 353.052 65.0713 353.033 63.682L353.03 63.3311C353.046 63.3528 353.159 59.8532 352.354 61.494Z" fill="#274546"/>
</svg>
