<svg width="486" height="364" viewBox="0 0 486 364" fill="none" xmlns="http://www.w3.org/2000/svg">
<g clip-path="url(#clip0_153_84)">
<path fill-rule="evenodd" clip-rule="evenodd" d="M309.593 282.855C311.849 290.484 310.411 299.385 305.244 305.66C301.907 309.713 293.972 313.338 289.517 309.118C287.526 307.231 286.683 300.771 285.832 297.757C285.049 294.985 283.741 289.852 284.322 287.526C285.169 284.137 291.933 284.92 295.094 284.623C299.946 284.168 304.763 283.476 309.593 282.855ZM373.423 286.73C374.485 289.065 376.179 290.612 376.902 293.203C377.374 294.895 377.658 296.591 377.845 298.327C378.071 300.431 378.226 300.35 376.773 301.334C374.556 302.835 368.883 302.719 366.185 303.154C362.663 303.722 359.159 304.391 355.635 304.957C356.489 301.682 356.042 298.157 356.924 294.817C357.782 291.572 359.276 288.368 361.384 285.702C362.953 283.718 365.234 281.341 368.055 281.329C371.691 281.313 372.265 284.187 373.423 286.73ZM149.824 216.562C150.364 223.583 149.362 231.06 145.364 237.093C143.67 239.648 141.204 241.023 139.202 243.223C136.886 245.769 135.629 248.916 131.97 250.005C129.608 250.709 126.837 250.223 124.382 250.54C120.306 251.066 119.103 250.495 115.667 248.389C113.199 246.875 110.353 247.159 107.751 245.5C104.629 243.51 101.912 240.673 98.9557 238.42C115.546 230.304 132.65 223.392 149.824 216.562ZM194.421 220.725C200.77 223.709 204.127 228.798 205.942 235.367C188.428 239.365 171.382 244.256 154.179 249.77C158.983 237.568 164.377 226.394 177.518 220.719C180.14 219.586 182.834 217.783 185.818 217.826C188.79 217.869 191.815 219.501 194.421 220.725ZM354.165 238.815C363.191 243.559 358.603 258.721 355.449 265.452C351.435 262.503 347.226 259.631 343.306 256.76C339.022 253.622 335.17 249.582 331.262 246.007C333.331 244.929 334.676 243.215 336.599 241.984C338.504 240.765 340.393 240.678 342.527 240.202C346.612 239.29 349.918 236.582 354.165 238.815ZM283.729 204.651C284.449 205.574 285.31 206.444 285.989 207.392C287.637 209.696 289.063 212.037 290.975 214.174C294.361 217.96 299.291 222.95 304.84 223.295L305.001 224.911C303.365 224.87 302.397 223.463 300.977 223.32C299.863 223.208 298.303 224.058 296.937 223.938C292.711 223.566 288.56 223.354 284.27 223.468C275.804 223.692 267.481 225.04 259.159 226.114C260.749 220.455 263.716 214.659 268.445 210.873C270.079 209.564 271.645 207.765 273.491 206.722C274.602 206.094 275.778 206.046 276.921 205.555C278.244 204.987 279.943 203.093 281.31 202.912C282.738 202.722 282.744 203.389 283.729 204.651ZM351.574 205.167C356.015 208.727 359.428 213.244 363.08 217.521C366.386 221.391 370.865 226.912 372.041 231.895C366.179 234.649 356.124 232.128 352.343 227.034C347.68 220.751 349.965 212.007 351.574 205.167ZM249.909 184.866C249.035 190.77 246.193 197.348 241.928 201.757C240.089 203.658 238.477 206.136 236.388 207.799C233.66 209.969 231.464 208.857 228.297 209.194C224.896 209.555 222.692 211.771 219.067 211.17C216.486 210.741 214.107 209.313 211.681 208.88C209.03 208.407 206.717 208.687 204.081 207.377C200.822 205.757 198.222 202.568 195.687 200.147C197.022 199.092 199.716 199.017 201.422 198.446C203.677 197.693 205.928 196.946 208.195 196.224C212.877 194.734 217.547 193.212 222.238 191.746C231.174 188.955 240.608 186.304 249.909 184.866Z" fill="#274546"/>
<path fill-rule="evenodd" clip-rule="evenodd" d="M390.093 39.0978L389.801 41.0551C392.654 41.5461 392.738 39.8256 390.093 39.0978ZM377.678 35.7229C376.149 35.1903 373.647 35.9711 374.85 37.7953C376.547 40.3714 377.32 37.0085 377.678 35.7229ZM254.329 107.057C254.558 106.827 251.848 101.655 251.498 100.787C249.748 101.784 249.629 101.543 250.342 103.21C250.958 104.648 253.1 106.108 254.329 107.057ZM94.4796 108.476C93.6436 108.403 91.9797 107.906 91.2704 108.196C90.2789 108.602 90.5453 109.541 90.4252 110.911C93.325 110.777 93.7305 111.16 94.4796 108.476ZM90.7198 105.636C92.1372 105.89 93.5541 106.144 94.971 106.398C95.274 104.777 96.0754 102.096 93.0869 103.075C92.8063 103.167 91.0792 105.108 90.7198 105.636ZM257.679 108.969C256.172 110.464 263.168 113.63 263.89 112.616C265.464 110.404 258.697 109.3 257.679 108.969ZM292.289 91.2899C293.135 91.207 293.981 91.1236 294.827 91.0407C294.535 89.8079 293.644 85.2644 291.792 85.5081C289.953 85.7501 292.028 90.3287 292.289 91.2899ZM295.376 98.7082C295.4 97.6842 295.82 95.4137 295.419 94.4278C295.146 93.7573 294.024 91.7218 292.411 93.0446C292.068 93.326 291.911 97.4257 292.016 97.5587C292.455 98.1163 294.75 98.4939 295.376 98.7082ZM286.628 111.857C284.891 110.531 281.114 108.575 279.441 111.573C277.11 115.752 285.121 112.959 286.628 111.857ZM276.698 112.205C274.417 112.632 272.113 112.577 269.804 112.415C267.217 112.234 266.604 111.445 265.851 113.92C268.625 114.924 274.534 115.621 277.342 114.665C277.128 113.845 276.913 113.025 276.698 112.205ZM291.084 100.85C290.286 102.484 288.556 104.625 288.09 106.329C287.747 107.586 287.612 106.958 287.9 107.934C288.002 108.281 289.406 109.738 289.652 110.091C291.358 108.801 293.414 107.484 294.287 105.498C295.685 102.318 293.888 102.064 291.084 100.85ZM252.284 94.158C246.484 95.9598 239.361 97.7244 233.222 97.1881C233.141 97.7126 243.633 100.766 244.888 100.546C246.17 100.321 246.272 98.5369 247.808 97.5845C249.501 96.5349 250.9 97.1598 252.772 96.9958C252.609 96.05 252.447 95.1038 252.284 94.158ZM271.376 118.429C266.037 118.088 261.268 116.815 256.545 114.389C253.833 112.996 251.885 110.975 250.072 108.644C248.668 106.839 248.955 106.987 246.751 106.375C245.122 105.923 243.119 106.106 241.446 105.896C235.847 105.193 230.266 103.499 224.94 101.734C218.963 99.7548 213.814 96.9635 207.249 97.1265C195.976 97.4066 186.833 105.926 175.073 102.348C170.407 100.929 165.575 99.0442 161.802 96.0005C156.895 92.0423 153.915 89.6972 147 91.0993C141.432 92.2279 137.16 95.1741 132.39 97.8897C126.954 100.985 121.021 102.839 114.959 104.473C112.585 105.113 110.385 105.486 107.897 105.61C106.417 105.685 99.4023 104.619 98.5356 105.371C97.6974 106.099 97.3162 111.123 97.4055 112.039C97.5545 113.569 96.8783 113.727 98.5154 114.371C99.6519 114.819 103.161 114.366 104.57 114.526C115.904 115.819 127.516 116.206 138.669 118.157C149.151 119.989 159.67 121.473 170.034 123.622C183.516 126.419 197.246 127.695 210.735 130.403C217.255 131.712 223.831 133.555 230.275 134.949C236.142 136.218 242.038 137.396 247.939 138.546C247.723 137.737 246.496 134.787 248.454 135.059C249.695 135.231 251.777 139.509 252.431 140.472C255.443 144.903 258.651 148.267 262.749 151.794C266.879 155.349 271.037 158.866 275.229 162.355C278.653 165.205 286.01 169.456 285.82 174.433C283.734 174.83 279.593 171.14 278.031 170.14C274.871 168.116 271.841 165.911 268.895 163.61C266.123 167.66 272.693 172.355 273.439 176.185C271.749 176.192 268.928 171.549 267.902 170.318C265.178 172.853 262.121 175.089 260.16 178.274C282.139 177.337 285.742 204.558 301.607 213.785C305.122 215.829 309.526 216.674 313.544 215.776C317.73 214.841 321.754 213.521 325.436 211.16C333.661 205.885 339.689 195.745 342.908 187.037C344.685 182.228 346.362 177.57 347.167 172.509C348.057 166.906 347.22 161.21 346.495 155.626C345.204 145.677 339.908 135.633 332.408 128.517C329.047 125.327 325.375 122.536 322.297 119.054C321.223 117.839 318.771 113.186 317.424 112.894C314.94 112.356 313.658 115.837 311.939 112.988C310.256 110.2 313.467 109.111 315.421 107.812C317.53 106.41 319.575 104.935 321.636 103.471C325.71 100.575 329.744 97.7281 333.658 94.6456C352.74 79.6156 369.61 62.8588 386.699 45.7796C383.5 45.0235 378.95 42.8499 375.697 43.4299C372.443 44.0102 369.551 46.3097 366.121 46.6906C362.779 47.0619 359.533 46.3412 356.434 45.2921C352.781 44.0551 350.308 42.4634 347.243 45.55C342.318 50.5092 339.608 57.4003 334.439 62.0927C329.214 66.8353 321.901 69.6049 315.099 71.0356C308.8 72.3599 300.066 71.7339 295.451 76.6853C294.412 77.7995 293.485 78.5923 293.426 80.2572C293.322 83.218 293.994 81.0962 294.947 82.9298C296.5 85.9147 297.107 89.639 297.457 92.9382C298.165 99.6151 297.271 106.929 291.914 111.531C286.144 116.487 279.006 118.574 271.376 118.429ZM271.07 107.615C274.977 109.606 282.877 107.011 286 104.584C290.249 101.281 290.584 95.532 289.904 90.7261C287.928 91.2039 285.952 91.6812 283.975 92.1589C283.133 92.3623 282.29 92.5658 281.448 92.7697C281.525 93.4658 281.41 94.1158 281.105 94.7194C279.244 97.1015 278.341 95.9177 276.32 93.8518C271.993 89.4292 268.154 84.4436 266.39 78.5648C264.414 80.8703 262.181 82.3573 259.014 82.037C257.626 81.8969 252.304 80.2426 253.678 77.8174C254.115 77.046 258.442 78.0172 259.892 77.9443C262.92 77.7914 264.344 77.8494 265.452 75.0061C266.375 72.6387 266.049 71.6658 263.203 71.2323C259.589 70.6808 259.486 72.8239 256.911 73.8286C250.373 76.3806 254.837 66.2188 253.904 63.3563C257.118 62.4064 260.51 61.7469 263.352 59.9367C260.203 60.2973 257.21 61.348 254.16 62.1122C254.42 58.3645 261.865 57.567 264.65 56.3898C261.641 55.9902 258.782 57.9677 255.762 57.8433C252.94 57.7271 248.983 56.5434 246.261 55.6418C243.462 54.7152 241.266 52.1327 238.565 54.3805C236.795 55.8541 234.419 59.8691 233.852 62.0056C235.614 61.7518 239.764 61.4099 240.253 63.4066C240.882 65.9714 235.697 64.4786 234.099 64.8986C231.673 65.5366 232.417 66.2405 231.537 68.6341C230.671 70.9907 229.115 72.8766 226.654 73.8542C229.39 75.3238 230.143 75.2974 229.591 78.0165C229.049 80.69 229.407 83.6935 229.672 86.6691C231.3 86.0036 233.054 85.789 234.801 85.6142C235.141 87.7726 231.745 88.6864 229.996 88.8124C230.914 91.6529 230.948 91.5637 234.09 91.5548C235.85 91.5498 237.615 91.449 239.371 91.3639C242.946 91.1905 246.414 90.5537 249.94 89.9879C251.285 89.7716 253.191 89.0377 254.531 89.185C256.986 89.4546 256.509 89.7193 256.103 91.8084C255.553 94.6409 256.173 96.7848 256.885 99.8587C252.683 98.4283 256.058 102.805 258.041 103.706C261.946 105.48 266.727 107.379 271.07 107.615ZM41.2422 278.794C44.2169 280.276 47.027 281.672 49.7374 283.569C52.4337 285.455 55.3099 288.628 58.7235 289.238C62.8062 289.967 63.7895 287.851 64.7998 284.727C65.9353 281.213 66.9744 279.618 70.2018 277.69C75.9135 274.279 82.6032 272.032 88.8452 269.577C91.2325 268.639 91.4122 268.818 90.7057 266.402C90.2793 264.944 89.7588 263.511 89.1995 262.095C88.1665 259.481 87.0345 256.712 85.3052 254.432C75.408 260.921 63.6034 268.442 51.4191 270.003C46.4718 270.637 41.5961 271.748 36.7435 272.17C34.3411 272.378 32.3727 272.986 30.2564 274.017C27.8866 275.172 23.9668 275.579 22.2602 277.477C28.6668 277.434 34.9076 278.251 41.2422 278.794ZM283.978 287.299C281.994 288.115 284.673 292.796 285.245 294.744C286.105 297.672 286.918 300.612 287.785 303.538C289.621 309.732 291.351 315.951 293.092 322.17C304.573 315.949 316.856 312.389 329.605 309.412C342.307 306.446 355.281 304.336 368.26 302.306C375.352 301.196 382.792 299.681 389.359 296.795C393.442 295.001 392.644 293.346 392.577 289.373C392.514 285.644 391.927 281.843 391.355 278.151C390.273 271.174 389.131 263.568 386.309 257.013C383.56 250.627 379.881 244.486 376.344 238.47C372.147 231.332 368.572 223.645 363.095 217.308C357.388 210.704 351.263 204.713 345.072 198.566C341.366 205.583 336.078 214.095 329.244 218.512C321.724 223.371 309.895 225.87 301.344 221.803C292.731 217.706 287.64 209.303 282.277 201.982C277.108 194.925 272.618 187.291 263.458 184.774C253.77 182.11 243.57 185.735 234.125 188.006C223.355 190.596 212.818 194.311 202.35 197.82C184.178 203.913 166.149 209.49 148.436 216.752C126.634 225.689 104.804 234.556 83.7318 245.019C88.2908 251.529 91.8243 257.461 94.3993 264.947C96.4044 270.777 97.6295 276.95 98.0983 283.253C100.551 280.817 102.425 277.918 104.901 275.452C107.701 272.661 110.988 270.514 114.283 268.326C120.246 264.366 126.358 260.78 132.936 257.769C147.866 250.932 163.731 246.223 179.517 241.351C183.093 240.247 187.302 238.964 191.009 238.353C194.158 237.833 196.956 236.922 200.162 236.165C207.433 234.45 214.784 232.876 222.118 231.633C236.208 229.246 250.586 226.702 264.872 225.051C274.559 223.932 284.668 222.117 294.621 223.087C296.303 223.25 297.95 223.582 299.644 223.53C300.116 223.515 300.677 222.817 301.166 222.865C302.106 222.958 303.113 224.008 304.072 224.321C306.238 225.028 309.383 224.589 310.563 226.37C311.508 227.796 311.162 228.925 309.755 229.865C311.448 232.013 314.762 233.991 317.032 235.68C319.072 237.198 320.996 238.832 323.054 240.295C325.264 241.867 327.941 243.351 330.256 244.955C333.275 247.048 335.855 249.729 338.707 252.076C343.825 256.29 348.962 259.96 354.356 263.909C357.261 266.036 360.03 268.039 363.185 269.78C364.911 270.731 368.822 273.338 366.78 275.705C364.743 278.067 360.658 274.574 358.433 274.323C355.872 274.033 352.419 275.631 349.864 276.005C343.105 276.997 336.324 277.869 329.563 278.941C321.844 280.163 314.207 281.815 306.453 282.831C302.448 283.355 298.444 283.862 294.418 284.224C292.341 284.411 289.406 284.13 287.455 284.792C285.978 284.364 285.336 284.782 285.528 286.049C285.166 286.64 284.649 287.057 283.978 287.299ZM70.1052 110.927C74.3279 110.9 78.5169 111.143 82.7447 111.106C84.3724 111.092 85.7733 111.42 86.4319 110.298C87.237 108.927 86.866 105.344 87.0036 103.774C82.0666 104.168 77.5362 104.291 72.6079 103.86C67.3293 103.399 62.2062 101.895 56.9076 101.569C58.0368 101.997 59.3291 104.325 58.5928 105.457C57.8595 106.585 56.6622 105.567 55.5015 105.057C51.019 103.085 47.2856 100.173 42.2506 101.446C46.8863 103.834 51.2851 107.662 56.1263 109.088C60.6915 110.432 65.2965 110.89 70.1052 110.927ZM383.744 33.3045C385.8 33.6878 389.809 35.7361 391.653 34.7042C393.905 33.4437 393.432 28.3326 393.514 26.3431C393.765 20.2289 394.231 11.8157 389.415 6.85956C388.542 12.7346 390.431 18.878 390.296 24.8185C390.193 29.2762 388.507 26.8419 387.911 23.6868C387.365 20.8003 387.424 17.953 386.68 15.0814C385.315 17.4068 384.996 20.5627 384.033 23.1301C382.817 26.3677 381.098 29.3044 379.366 32.3055C380.83 32.6234 382.287 32.9589 383.744 33.3045ZM90.1566 113.644C90.1316 115.356 89.8872 116.965 92.0334 117.122C94.8749 117.33 93.9428 114.44 93.7625 112.615C92.7408 112.753 90.3994 112.469 90.1566 113.644ZM382.556 36.0982C380.775 35.8783 380.504 35.4763 379.375 36.7197C378.657 37.5088 378.588 38.9402 379.21 39.4372C381.91 41.5935 382.335 37.3086 382.556 36.0982ZM384.222 40.0682C385.609 40.3402 386.966 41.0771 387.745 39.7045C388.887 37.6916 386.156 37.5232 384.661 36.9256C384.514 37.9728 384.368 39.0205 384.222 40.0682ZM297.095 229.462C281.764 229.1 266.661 231.499 251.613 234.139C238.303 236.474 225.09 238.421 212.072 241.351C185.837 247.257 159.558 253.867 135.207 265.236C129.291 267.998 123.383 270.758 117.93 274.117C114.999 275.922 112.013 277.707 109.238 279.744C107.712 280.863 106.132 281.968 104.702 283.195C103.391 284.319 102.647 285.87 101.47 286.97C100.915 287.488 98.5272 289.4 97.8187 289.616C96.2973 290.078 96.8999 290.115 95.3616 289.065C92.1468 286.87 91.5022 283.945 90.5331 280.427C89.8512 277.949 90.3747 277.129 88.1341 277.213C86.9938 277.256 85.278 278.413 84.2214 278.851C80.8086 280.266 77.1208 281.393 73.8455 283.081C71.1977 284.445 69.0789 286.199 67.9447 288.901C66.6054 292.09 65.8269 294.695 61.7634 295.053C54.515 295.691 50.3501 288.475 44.1524 286.047C37.5235 283.45 29.0634 283.961 22.0645 283.877C19.5154 283.847 16.7396 284.092 14.3082 284.435C10.8725 284.919 6.80788 286.783 3.24207 285.598C-0.861734 284.235 -0.799986 278.413 1.91914 275.88C4.76228 273.231 8.9809 272.868 12.6174 271.989C19.9685 270.212 26.6548 266.162 34.159 264.918C41.6233 263.68 49.5321 263.411 56.8087 261.156C60.5168 260.006 64.1198 259.109 67.6432 257.492C72.0329 255.477 76.7608 254.166 81.0968 252.185C79.6048 249.568 79.2007 247.139 79.1099 244.207C79.0495 242.25 78.7307 242.248 80.0913 241.428C80.3608 241.568 80.6301 241.707 80.9 241.847C81.7549 242.453 82.3639 242.176 82.7281 241.016C88.7462 237.371 94.3087 233.455 100.73 230.289C111.5 224.978 122.902 220.688 133.669 215.63C154.125 206.02 176.909 200.475 198.429 193.435C211.447 189.176 224.777 185.687 238.116 182.546C240.454 181.995 242.785 181.539 245.161 181.174C249.187 180.555 248.235 180.518 250.266 177.425C252.872 173.457 257.008 169.223 261.206 166.764C263.795 165.247 264.899 165.475 264.818 162.157C264.757 159.622 264.06 159.647 261.984 157.95C259.635 156.03 257.454 153.899 255.471 151.635C253.208 149.05 252.194 146.122 250.3 143.465C248.011 140.255 240.93 140.8 236.966 140.241C230.758 139.366 224.447 138.74 218.332 137.388C205.984 134.659 193.57 133.704 181.068 131.796C168.499 129.878 155.935 128.129 143.366 126.391C138.854 125.768 134.284 125.232 129.797 124.459C123.515 123.376 116.904 123.266 110.53 122.253C107.249 121.732 103.23 119.881 99.9288 120.039C96.3861 120.209 99.5539 120.169 97.2237 121.385C96.1777 121.932 94.9677 122.421 93.7625 122.484C91.8639 122.583 89.9503 121.771 88.7888 120.324C86.8526 117.911 87.7861 116.063 83.8405 115.759C81.2431 115.559 78.2119 116.559 75.5724 116.691C72.9864 116.82 70.2974 117.195 67.7102 117.119C62.5362 116.966 56.3705 116.512 51.6722 114.304C46.6932 111.964 42.2497 108.843 37.012 106.853C34.3835 105.854 30.6443 105.43 28.8822 103.015C27.4113 100.999 26.9563 96.8994 29.2118 95.2462C32.6715 92.7106 39.3799 96.5478 43.2082 95.5893C45.1654 95.0993 43.5495 94.5091 45.0298 93.8261C45.9472 93.4031 45.8095 93.3397 46.8977 93.1861C49.5804 92.8068 53.9749 94.6833 56.7027 95.129C62.085 96.0074 67.4207 97.3483 72.7985 98.1695C75.869 98.6387 78.9909 98.7564 82.0684 99.2551C84.7488 99.6897 86.9515 100.738 88.8961 98.5884C89.7164 97.6817 89.4659 96.747 90.7803 96.2743C91.9592 95.8507 95.3456 96.4585 96.4846 96.8947C97.7289 97.3708 98.0068 98.0579 99.0076 98.6003C99.033 99.6282 99.4654 99.9356 100.306 99.5224C101.088 99.4637 101.868 99.5052 102.644 99.6469C109.475 99.6754 116.274 97.5587 122.488 95.0591C132.784 90.9173 145.568 79.1927 157.378 85.5703C160.283 87.1392 162.19 89.7561 165.019 91.4559C167.532 92.9652 170.747 94.3171 173.572 95.1685C179.219 96.8696 184.832 96.6568 190.426 94.8953C197.246 92.7469 202.74 90.4972 210.091 90.7441C216.901 90.9726 222.337 95.6674 229.008 95.8548C227.378 93.2411 227.076 90.2383 226.904 87.2731C226.791 85.3341 227.875 80.2576 226.701 78.6881C225.403 76.9543 215.274 76.2532 220.923 71.1637C222.772 69.497 226.186 70.1007 228.098 68.2606C230.028 66.4033 230.066 63.499 231.095 61.1804C232.26 58.5572 234.18 56.3903 236.149 54.2969C236.982 53.4102 237.545 52.8479 238.02 51.7822C238.571 50.546 238.204 49.5012 239.084 48.1984C242.056 43.8011 247.24 45.3319 251.752 45.9178C254.487 46.2728 257.8 45.9343 260.454 46.6795C262.588 47.2787 265.362 49.0948 267.098 50.428C270.922 53.3646 271.81 58.7831 272.105 63.2232C272.277 65.8224 271.771 68.272 271.729 70.8622C271.685 73.5732 270.507 74.8014 268.387 76.5995C268.347 76.0993 268.102 75.7637 267.651 75.5927C266.728 76.7266 266.965 77.1692 268.362 76.9211C268.415 77.5991 268.657 78.2083 269.088 78.7496C270.243 80.0302 271.238 81.4454 272.362 82.7514C274.822 85.6065 277.693 88.0841 279.586 91.3245C281.571 89.0183 284.097 88.64 286.465 87.0493C288.768 85.5021 287.048 85.0412 287.902 82.8046C288.245 81.9085 289.145 81.7504 289.461 81.0566C289.761 80.3984 289.396 79.9835 289.581 79.2607C290.502 75.6718 290.12 73.4482 292.99 70.635C296.829 66.8722 301.56 65.8774 306.838 65.1629C312.104 64.4497 315.843 64.1957 320.524 62.1182C322.148 61.3977 323.684 61.0687 325.227 60.2508C327.312 59.145 329.254 57.9785 331.066 56.486C335.277 53.0176 337.896 48.1848 341.3 44.0171C344.027 40.6817 347.314 36.4115 352.234 37.2922C357.829 38.2944 362.76 41.6905 368.717 39.8593C370.927 39.1804 370.688 39.5976 371.565 37.4583C371.856 36.7458 372.044 36.0279 372.328 35.3275C373.39 32.7058 375.424 32.3776 376.686 30.2431C379.663 25.2041 381.295 18.9201 382.99 13.3898C383.778 10.8217 385.304 8.59422 386.234 6.13168C386.623 5.10195 386.447 0.515827 387.654 0.113583C391.55 -1.18266 394.702 9.00385 395.412 10.9305C397.269 15.9652 398.904 21.647 398.171 27.0376C397.869 29.2588 397.629 31.8321 397.034 34.0069C396.493 35.9815 396.376 35.8516 396.686 37.6414C397 39.4613 397.374 40.5526 397.104 42.4605C397.029 42.9934 396.786 44.9619 396.556 45.2344C395.489 46.5026 395.344 45.6161 394.015 46.1229C391.867 46.9425 391.336 47.647 389.815 49.5694C386.013 54.3749 382.043 59.195 377.934 63.7571C370.724 71.7605 363.142 78.9351 355.05 86.0526C347.107 93.0388 338.804 100.126 329.788 105.833C327.597 107.22 323.995 108.437 322.232 110.257C320.301 112.25 323.229 113.114 325.208 114.528C329.142 117.335 333.187 120.211 336.618 123.484C343.932 130.464 348.108 140.747 350.671 150.085C352.004 154.945 352.277 160.515 352.782 165.548C353.374 171.452 352.642 177.913 350.777 183.529C350.069 185.658 349.237 187.745 348.551 189.884C348.235 190.869 346.684 193.927 347.105 195.064C347.8 196.942 352.371 199.223 353.967 200.528C356.148 202.313 358.381 204.158 360.209 206.285C367.985 215.335 374.345 224.831 380.058 235.242C385.868 245.83 391.352 255.385 393.645 267.285C394.244 270.395 394.777 273.508 395.406 276.613C396.083 279.954 395.429 284.774 396.783 287.826C397.621 289.714 399.188 290.309 398.55 292.919C397.998 295.176 395.193 299.183 393.668 300.961C390.196 305.008 383.858 306.602 378.853 308.069C372.779 309.85 366.283 310.671 360.029 311.683C337.5 315.332 315.421 319.317 294.569 328.667C295.27 329.688 295.836 331.894 294.413 332.598C292.521 333.532 291.593 330.758 290.942 329.532C289.048 325.964 288.484 321.35 287.353 317.44C284.593 307.903 282.498 298.267 280.25 288.626C272.582 290.237 264.817 291.094 257.189 292.589C253.67 293.278 250.104 293.343 246.56 293.778C242.755 294.245 242.512 295.44 242.812 299.067C243.475 307.062 246.671 314.732 248.495 322.507C249.38 326.278 250.928 329.869 251.77 333.622C252.044 334.844 251.747 338.133 252.609 339.045C252.573 339.006 255.515 339.589 255.979 339.706C255.73 334.983 256.283 330.349 256.047 325.636C255.803 320.765 255.137 314.379 256.227 309.661C257.218 305.372 261.001 300.838 265.176 299.028C268.813 297.451 276.032 294.921 279.959 297.259C280.649 297.67 282.311 298.945 281.923 299.932C281.399 301.266 275.587 302.288 274.406 302.701C269.786 304.318 264.899 307.151 262.311 311.259C259.982 314.956 260.913 320.669 260.99 324.907C261.034 327.316 261.346 329.553 261.055 331.954C260.641 335.35 260.426 336.581 261.817 339.513C263.447 342.949 262.44 347.969 257.557 346.734C254.637 345.995 254.52 344.404 252.762 342.673C252.097 342.018 251.349 342.308 250.697 341.482C249.824 340.374 249.828 337.923 249.386 336.525C247.972 332.05 245.97 327.7 244.474 323.198C242.462 317.145 240.816 311.017 239.374 304.82C238.253 300.002 237.039 295.123 239.368 290.434C241.435 286.272 246.499 286.581 250.698 286.432C260.422 286.085 270.473 283.98 280.394 283.472C281.108 283.435 282.597 283.679 283.237 283.382C284.122 282.972 284.456 281.779 285.6 281.017C287.787 279.56 292.112 279.053 294.639 278.606C300.37 277.589 306.071 276.764 311.767 275.705C318.317 274.486 324.806 273.03 331.363 271.923C337.64 270.862 343.981 270.662 350.332 269.941C340.255 263.451 331.38 255.538 321.684 248.506C317.188 245.246 313.021 242.038 308.986 238.268C307.306 236.697 305.644 235.171 304.118 233.46C303.309 232.553 302.595 230.82 301.566 230.187C300.273 229.39 298.799 229.603 297.095 229.462Z" fill="#274546"/>
<path fill-rule="evenodd" clip-rule="evenodd" d="M260.106 46.7266C256.772 46.4367 252.952 46.4155 249.717 45.6748C252.575 45.9215 257.489 45.761 260.106 46.7266Z" fill="#274546"/>
<path fill-rule="evenodd" clip-rule="evenodd" d="M76.8902 98.7427C75.4716 98.6178 74.053 98.4929 72.6353 98.3681C74.0833 98.1577 75.4985 98.3166 76.8902 98.7427Z" fill="#274546"/>
<path fill-rule="evenodd" clip-rule="evenodd" d="M164.234 129.567C165.182 129.648 166.129 129.73 167.071 129.812C166.121 129.731 165.177 129.649 164.234 129.567Z" fill="#274546"/>
<path fill-rule="evenodd" clip-rule="evenodd" d="M260.803 325.218C260.844 324.11 260.886 323.003 260.927 321.898C260.886 323.006 260.844 324.112 260.803 325.218Z" fill="#274546"/>
<path fill-rule="evenodd" clip-rule="evenodd" d="M255.601 333.803C255.584 334.595 255.567 335.388 255.551 336.177C255.567 335.384 255.584 334.593 255.601 333.803Z" fill="#274546"/>
<path fill-rule="evenodd" clip-rule="evenodd" d="M276.791 296.752C275.838 296.753 274.885 296.754 273.933 296.756C274.886 296.754 275.839 296.753 276.791 296.752Z" fill="#274546"/>
<path fill-rule="evenodd" clip-rule="evenodd" d="M141.194 126.088C141.824 126.168 142.453 126.247 143.078 126.327C142.447 126.247 141.82 126.168 141.194 126.088Z" fill="#274546"/>
<path fill-rule="evenodd" clip-rule="evenodd" d="M247.825 45.5164C247.036 45.4508 246.248 45.3848 245.46 45.3193C246.248 45.3848 247.037 45.4508 247.825 45.5164Z" fill="#274546"/>
<path fill-rule="evenodd" clip-rule="evenodd" d="M255.74 321.445C255.717 322.237 255.694 323.029 255.671 323.818C255.694 323.025 255.717 322.235 255.74 321.445Z" fill="#274546"/>
<path fill-rule="evenodd" clip-rule="evenodd" d="M137.409 125.782C138.041 125.846 138.672 125.91 139.298 125.972C138.664 125.908 138.037 125.845 137.409 125.782Z" fill="#274546"/>
<path fill-rule="evenodd" clip-rule="evenodd" d="M147.296 127.129C147.928 127.188 148.56 127.246 149.186 127.304C148.552 127.246 147.924 127.187 147.296 127.129Z" fill="#274546"/>
<path fill-rule="evenodd" clip-rule="evenodd" d="M250.543 286.386C249.749 286.391 248.954 286.396 248.16 286.4C248.955 286.396 249.749 286.391 250.543 286.386Z" fill="#274546"/>
<path fill-rule="evenodd" clip-rule="evenodd" d="M223.003 138.51C223.477 138.548 223.952 138.587 224.422 138.627C223.946 138.588 223.474 138.549 223.003 138.51Z" fill="#274546"/>
<path fill-rule="evenodd" clip-rule="evenodd" d="M256.051 329.56C255.996 330.191 255.941 330.821 255.886 331.449C255.942 330.818 255.996 330.189 256.051 329.56Z" fill="#274546"/>
<path fill-rule="evenodd" clip-rule="evenodd" d="M296.962 229.657C297.437 229.697 297.912 229.736 298.381 229.776C297.905 229.738 297.434 229.697 296.962 229.657Z" fill="#274546"/>
<path fill-rule="evenodd" clip-rule="evenodd" d="M150.597 84.0142C149.802 84.0204 149.007 84.0266 148.213 84.0328C149.008 84.0266 149.802 84.0204 150.597 84.0142Z" fill="#274546"/>
<path fill-rule="evenodd" clip-rule="evenodd" d="M57.6731 95.1337C57.0482 95.0163 56.4237 94.8994 55.7983 94.782C56.4232 94.8994 57.0482 95.0163 57.6731 95.1337Z" fill="#274546"/>
<path fill-rule="evenodd" clip-rule="evenodd" d="M68.4615 97.0664L66.5934 96.6382L68.4615 97.0664Z" fill="#274546"/>
<path fill-rule="evenodd" clip-rule="evenodd" d="M43.3231 95.7879C42.6985 95.6672 42.0738 95.547 41.4491 95.4263C42.0733 95.5469 42.6985 95.6672 43.3231 95.7879Z" fill="#274546"/>
<path fill-rule="evenodd" clip-rule="evenodd" d="M290.304 229.529C290.619 229.57 290.935 229.611 291.246 229.651C290.929 229.61 290.616 229.569 290.304 229.529Z" fill="#274546"/>
<path fill-rule="evenodd" clip-rule="evenodd" d="M224.95 78.2222C225.265 78.2706 225.579 78.319 225.89 78.3676C225.574 78.3186 225.262 78.2704 224.95 78.2222Z" fill="#274546"/>
<path fill-rule="evenodd" clip-rule="evenodd" d="M331.366 272.009C330.727 272.047 330.088 272.085 329.45 272.122C330.089 272.085 330.727 272.047 331.366 272.009Z" fill="#274546"/>
<path fill-rule="evenodd" clip-rule="evenodd" d="M352.301 177.159C352.342 176.687 352.383 176.214 352.424 175.743C352.383 176.216 352.342 176.688 352.301 177.159Z" fill="#274546"/>
<path fill-rule="evenodd" clip-rule="evenodd" d="M239.51 140.425C239.827 140.452 240.143 140.479 240.456 140.506C240.137 140.479 239.824 140.452 239.51 140.425Z" fill="#274546"/>
<path fill-rule="evenodd" clip-rule="evenodd" d="M110.54 122.505C110.858 122.526 111.174 122.547 111.487 122.569C111.169 122.548 110.855 122.526 110.54 122.505Z" fill="#274546"/>
<path fill-rule="evenodd" clip-rule="evenodd" d="M61.142 109.92C62.6064 110.049 63.9708 110.099 65.3749 110.546C63.9992 110.441 62.3714 110.6 61.142 109.92Z" fill="#274546"/>
<path fill-rule="evenodd" clip-rule="evenodd" d="M76.3262 110.619C77.3492 110.324 79.0577 110.449 80.1133 110.896C78.851 110.803 77.5881 110.712 76.3262 110.619Z" fill="#274546"/>
<path fill-rule="evenodd" clip-rule="evenodd" d="M270.952 107.816C272.056 107.909 273.159 108.002 274.263 108.094C273.129 108.364 272.017 108.372 270.952 107.816Z" fill="#274546"/>
<path fill-rule="evenodd" clip-rule="evenodd" d="M382.539 35.9282C381.753 35.8286 380.965 35.7288 380.184 35.6287C380.972 35.7285 381.756 35.8284 382.539 35.9282Z" fill="#274546"/>
<path fill-rule="evenodd" clip-rule="evenodd" d="M38.2664 278.583C39.2596 278.119 40.1843 278.441 41.1037 278.826C40.1573 278.744 39.2123 278.664 38.2664 278.583Z" fill="#274546"/>
<path fill-rule="evenodd" clip-rule="evenodd" d="M97.4431 110.646C97.428 111.439 97.4133 112.232 97.398 113.021C97.4132 112.228 97.4282 111.437 97.4431 110.646Z" fill="#274546"/>
<path fill-rule="evenodd" clip-rule="evenodd" d="M67.7369 110.775C68.5309 110.773 69.3257 110.771 70.1197 110.768C69.3253 110.771 68.5309 110.773 67.7369 110.775Z" fill="#274546"/>
<path fill-rule="evenodd" clip-rule="evenodd" d="M271.449 118.453C270.816 118.412 270.182 118.372 269.554 118.331C270.19 118.371 270.82 118.412 271.449 118.453Z" fill="#274546"/>
<path fill-rule="evenodd" clip-rule="evenodd" d="M95.9409 268.946C95.94 269.74 95.9382 270.532 95.9369 271.325C95.9379 270.531 95.9396 269.739 95.9409 268.946Z" fill="#274546"/>
<path fill-rule="evenodd" clip-rule="evenodd" d="M232.8 135.442C233.581 135.587 234.364 135.731 235.144 135.875C234.362 135.73 233.581 135.586 232.8 135.442Z" fill="#274546"/>
<path fill-rule="evenodd" clip-rule="evenodd" d="M71.2064 103.802C70.5723 103.767 69.9382 103.733 69.3095 103.701C69.9456 103.736 70.5763 103.769 71.2064 103.802Z" fill="#274546"/>
<path fill-rule="evenodd" clip-rule="evenodd" d="M227.646 134.458C228.427 134.601 229.208 134.744 229.99 134.887C229.191 134.85 228.343 135.101 227.646 134.458Z" fill="#274546"/>
<path fill-rule="evenodd" clip-rule="evenodd" d="M78.7705 104.472C78.2943 104.446 77.8186 104.42 77.348 104.394C77.825 104.42 78.298 104.446 78.7705 104.472Z" fill="#274546"/>
<path fill-rule="evenodd" clip-rule="evenodd" d="M215.041 131.508C215.822 131.654 216.603 131.802 217.384 131.948C216.602 131.801 215.822 131.654 215.041 131.508Z" fill="#274546"/>
<path fill-rule="evenodd" clip-rule="evenodd" d="M384.073 40.1758C384.854 40.3249 385.635 40.474 386.416 40.6236C385.635 40.474 384.854 40.3249 384.073 40.1758Z" fill="#274546"/>
<path fill-rule="evenodd" clip-rule="evenodd" d="M186.397 126.731C187.184 126.809 187.972 126.887 188.759 126.964C187.972 126.886 187.184 126.809 186.397 126.731Z" fill="#274546"/>
<path fill-rule="evenodd" clip-rule="evenodd" d="M383.706 33.4897C384.487 33.6346 385.269 33.779 386.05 33.9239C385.268 33.779 384.487 33.6346 383.706 33.4897Z" fill="#274546"/>
<path fill-rule="evenodd" clip-rule="evenodd" d="M97.4617 114.083C98.2514 114.137 99.0411 114.19 99.8299 114.243C99.0109 114.659 98.224 114.561 97.4617 114.083Z" fill="#274546"/>
<path fill-rule="evenodd" clip-rule="evenodd" d="M253.862 66.2687C253.921 65.6389 253.98 65.0086 254.038 64.3811C253.98 65.0124 253.921 65.6408 253.862 66.2687Z" fill="#274546"/>
<path fill-rule="evenodd" clip-rule="evenodd" d="M253.656 68.6296C253.714 67.9994 253.772 67.3692 253.831 66.7418C253.773 67.3729 253.714 68.0013 253.656 68.6296Z" fill="#274546"/>
<path fill-rule="evenodd" clip-rule="evenodd" d="M256.202 183.734C255.726 183.703 255.25 183.673 254.781 183.642C255.258 183.673 255.73 183.703 256.202 183.734Z" fill="#274546"/>
<path fill-rule="evenodd" clip-rule="evenodd" d="M297.522 95.7749C297.45 96.4036 297.376 97.0324 297.304 97.6589C297.377 97.0293 297.45 96.4019 297.522 95.7749Z" fill="#274546"/>
<path fill-rule="evenodd" clip-rule="evenodd" d="M307.691 215.961C308.485 215.952 309.28 215.943 310.075 215.934C309.28 215.943 308.485 215.952 307.691 215.961Z" fill="#274546"/>
<path fill-rule="evenodd" clip-rule="evenodd" d="M254.49 89.0769C255.155 88.7339 255.786 88.7696 256.381 89.2398C255.75 89.1856 255.12 89.131 254.49 89.0769Z" fill="#274546"/>
<path fill-rule="evenodd" clip-rule="evenodd" d="M259.849 82.2872C259.534 82.2378 259.219 82.1884 258.909 82.1394C259.225 82.1894 259.537 82.238 259.849 82.2872Z" fill="#274546"/>
<path fill-rule="evenodd" clip-rule="evenodd" d="M262.894 178.041C263.518 178.168 264.142 178.295 264.766 178.423C264.142 178.295 263.518 178.168 262.894 178.041Z" fill="#274546"/>
<path fill-rule="evenodd" clip-rule="evenodd" d="M241.346 228.231C241.982 228.217 242.619 228.202 243.255 228.188C242.619 228.202 241.982 228.217 241.346 228.231Z" fill="#274546"/>
<path fill-rule="evenodd" clip-rule="evenodd" d="M227.776 230.857C228.413 230.839 229.049 230.821 229.686 230.803C229.05 230.821 228.413 230.839 227.776 230.857Z" fill="#274546"/>
<path fill-rule="evenodd" clip-rule="evenodd" d="M221.976 231.798C222.614 231.766 223.253 231.735 223.89 231.703L221.976 231.798Z" fill="#274546"/>
<path fill-rule="evenodd" clip-rule="evenodd" d="M216.179 232.713L218.092 232.631C217.454 232.658 216.816 232.685 216.179 232.713Z" fill="#274546"/>
<path fill-rule="evenodd" clip-rule="evenodd" d="M338.466 277.975C337.989 277.952 337.512 277.93 337.042 277.908C337.521 277.93 337.993 277.953 338.466 277.975Z" fill="#274546"/>
<path fill-rule="evenodd" clip-rule="evenodd" d="M241.227 137.136C241.852 137.262 242.476 137.389 243.1 137.515C242.476 137.389 241.851 137.262 241.227 137.136Z" fill="#274546"/>
<path fill-rule="evenodd" clip-rule="evenodd" d="M358.775 46.16C358.457 46.1423 358.14 46.1245 357.827 46.1071C358.145 46.1254 358.46 46.1425 358.775 46.16Z" fill="#274546"/>
<path fill-rule="evenodd" clip-rule="evenodd" d="M76.4033 104.301C76.0873 104.265 75.7716 104.229 75.4599 104.193C75.7771 104.229 76.09 104.265 76.4033 104.301Z" fill="#274546"/>
<path fill-rule="evenodd" clip-rule="evenodd" d="M209.922 130.116C210.546 130.244 211.17 130.373 211.794 130.501C211.17 130.373 210.546 130.244 209.922 130.116Z" fill="#274546"/>
<path fill-rule="evenodd" clip-rule="evenodd" d="M138.551 118.19C139.176 118.306 139.801 118.422 140.426 118.537C139.801 118.422 139.175 118.306 138.551 118.19Z" fill="#274546"/>
<path fill-rule="evenodd" clip-rule="evenodd" d="M90.0422 113.806C90.04 114.282 90.0383 114.758 90.0358 115.233C90.038 114.756 90.0401 114.281 90.0422 113.806Z" fill="#274546"/>
<path fill-rule="evenodd" clip-rule="evenodd" d="M83.4218 111.199C84.0585 111.18 84.6952 111.161 85.3325 111.142C84.6957 111.161 84.0585 111.18 83.4218 111.199Z" fill="#274546"/>
<path fill-rule="evenodd" clip-rule="evenodd" d="M100.788 114.188C101.443 113.92 102.087 113.806 102.68 114.338C102.049 114.288 101.418 114.238 100.788 114.188Z" fill="#274546"/>
<path fill-rule="evenodd" clip-rule="evenodd" d="M319.383 152.459C321.668 152.811 322.75 153.326 323.368 155.538C323.654 156.565 322.828 158.495 323.106 159.142C323.477 160.001 324.03 159.546 324.676 160.361C327.038 163.34 328.271 169.271 323.66 171.327C321.932 169.227 322.533 166.788 323.718 164.618C321.228 164.044 319.937 163.958 319.168 161.469C319.075 161.17 318.889 157.515 318.812 157.435C318.298 156.899 316.213 157.441 315.499 157.04C313.921 156.155 313.176 153.193 313.573 151.526C314.12 149.228 316.553 148.054 318.402 146.765C312.469 146.911 307.015 151.384 301.082 151.684C299.433 151.767 299.018 152.5 298.446 150.642C297.937 148.991 298.487 149.205 299.606 148.384C301.825 146.759 305.228 145.687 307.847 144.761C311.651 143.414 318.212 140.259 322.332 142.023C324.388 142.903 325.847 145.602 325.217 147.711C324.601 149.768 321.052 151.222 319.383 152.459Z" fill="#274546"/>
<path fill-rule="evenodd" clip-rule="evenodd" d="M321.758 121.829C323.456 124.472 324.201 127.263 322.365 130.052C324.976 129.839 327.883 129.362 329.584 131.722C332.044 135.133 329.502 136.251 326.635 136.445C324.333 136.601 319.765 138.085 317.747 136.536C314.431 133.988 317.731 129.166 319.009 126.726C316.902 126.792 311.584 127.414 312.501 123.476C313.163 120.637 319.689 121.355 321.758 121.829Z" fill="#274546"/>
<path fill-rule="evenodd" clip-rule="evenodd" d="M294.578 138.946L292.523 141.363C293.563 141.595 294.976 140.713 295.894 140.343C295.455 139.877 295.016 139.412 294.578 138.946ZM291.455 135.691C289.013 135.349 286.377 138.536 285.815 134.974C285.486 132.887 287.443 130.215 289.743 129.893C293.756 129.334 299.367 138.421 300.371 141.554C301.295 144.441 300.309 144.042 298.187 145.111C296.349 146.037 293.959 148.186 291.574 147.535C289.392 146.94 288.719 143.45 288.729 141.632C288.744 138.829 290.432 137.927 291.455 135.691Z" fill="#274546"/>
<path fill-rule="evenodd" clip-rule="evenodd" d="M303.888 135.68C304.257 136.807 306.922 142.075 304.558 142.062C303.242 142.055 300.763 134.453 300.408 133.584C299.922 132.391 298.898 130.745 299.079 129.392C299.391 127.054 299.26 127.792 300.847 128.047C303.939 128.544 306.496 133.244 309.418 134.436C308.208 129.948 306.392 125.029 307.635 120.447C311.116 123.659 311.267 130.278 312.221 134.674C312.511 136.012 313.202 138.753 311.736 139.661C310.077 140.687 305.008 136.392 303.888 135.68Z" fill="#274546"/>
<path fill-rule="evenodd" clip-rule="evenodd" d="M281.671 145.358C282.825 142.939 284.066 140.109 279.804 141.005C280.426 142.456 281.049 143.907 281.671 145.358ZM280.29 135.24C283.946 134.95 286.026 139.741 286.404 142.525C286.706 144.745 284.392 152.496 281.272 150.156C280.109 149.284 279.456 146.902 278.695 145.697C277.653 144.047 276.194 142.475 275.403 140.701C273.729 136.943 276.731 135.25 280.29 135.24Z" fill="#274546"/>
<path fill-rule="evenodd" clip-rule="evenodd" d="M280.453 135.317C279.658 135.328 278.863 135.339 278.068 135.349C278.864 135.339 279.659 135.328 280.453 135.317Z" fill="#274546"/>
<path fill-rule="evenodd" clip-rule="evenodd" d="M322.109 122.081C321.486 121.939 320.864 121.797 320.241 121.654C320.863 121.796 321.486 121.939 322.109 122.081Z" fill="#274546"/>
<path fill-rule="evenodd" clip-rule="evenodd" d="M327.119 130.151C326.488 130.094 325.858 130.037 325.228 129.98C325.895 129.637 326.524 129.699 327.119 130.151Z" fill="#274546"/>
<path fill-rule="evenodd" clip-rule="evenodd" d="M239.646 68.357C242.725 70.5645 235.909 78.8317 233.208 72.1289C232.455 70.2582 232.69 67.935 234.678 68.42C235.573 68.6383 235.696 69.9861 236.938 70.0366C238.171 70.087 238.776 69.0294 239.646 68.357Z" fill="#274546"/>
<path fill-rule="evenodd" clip-rule="evenodd" d="M257.534 76.1051C257.583 74.4517 260.762 71.1685 262.574 73.3387C264.393 75.5159 258.91 76.0537 257.534 76.1051Z" fill="#274546"/>
</g>
<defs>
<clipPath id="clip0_153_84">
<rect width="486" height="364" fill="white"/>
</clipPath>
</defs>
</svg>
