<svg width="90" height="57" viewBox="0 0 90 57" fill="none" xmlns="http://www.w3.org/2000/svg">
<path d="M89.608 55.2634C88.3082 55.8011 86.8734 55.7999 85.5744 55.2601C84.2754 54.7202 83.2019 53.679 82.5565 52.3329L69.7186 32.9139L67.858 30.1991L52.9623 52.3573C52.3557 53.6469 51.3404 54.6508 50.1063 55.1811C48.8722 55.7115 47.5038 55.7321 46.2568 55.239L65.4504 27.0732L47.5964 1.63034C48.8802 1.12431 50.2842 1.1176 51.5719 1.61134C52.8597 2.10508 53.9526 3.06911 54.6666 4.34109L67.9733 24.0002L81.3545 4.4225C81.9658 3.1558 82.9813 2.17895 84.208 1.67767C85.4347 1.17638 86.787 1.18561 88.0079 1.7036L81.0792 11.7611L71.6945 25.1235C71.4339 25.3778 71.2253 25.6895 71.0825 26.0381C70.9397 26.3867 70.8659 26.7644 70.8659 27.1464C70.8659 27.5284 70.9397 27.9061 71.0825 28.2548C71.2253 28.6034 71.4339 28.915 71.6945 29.1693L89.5708 55.2675L89.608 55.2634ZM0.308268 26.7231L1.87114 18.2775C6.16533 1.57743 23.6695 -5.37041 35.7111 4.9679C42.7627 11.0284 44.5228 19.6084 44.1767 29.2792H4.45361C3.80985 46.5491 15.204 56.977 29.7722 51.6491C32.1338 50.7192 34.2478 49.1631 35.9246 47.1202C37.6014 45.0773 38.7887 42.6113 39.3802 39.9432C40.1504 37.2324 41.4193 36.7684 43.7488 37.5499C43.3606 40.8564 42.292 44.0237 40.6233 46.8133C38.9546 49.603 36.7293 51.9424 34.1148 53.6557C29.7961 56.2396 24.8411 57.2637 19.9582 56.5816C15.0753 55.8996 10.5146 53.5463 6.92816 49.8582C3.38203 45.4924 1.23883 39.9777 0.825506 34.1553C0.825506 33.1988 0.527815 32.3034 0.326874 31.4446C0.308759 29.8722 0.300077 28.2997 0.300826 26.7272L0.308268 26.7231ZM4.50198 25.5591H40.4258C40.2025 13.0391 32.9798 4.15793 23.3458 4.07653C12.6215 3.91372 4.94852 12.5995 4.47594 25.5021L4.50198 25.5591Z" fill="black"/>
</svg>
