<svg width="55" height="90" viewBox="0 0 55 90" fill="none" xmlns="http://www.w3.org/2000/svg">
<path d="M13.7068 90C21.217 90 27.3122 83.3086 27.3122 75.0639V60.1277H13.7068C6.19666 60.1277 0.10144 66.8191 0.10144 75.0639C0.10144 83.3086 6.19666 90 13.7068 90Z" fill="#0ACF83"/>
<path d="M0.10144 45.1915C0.10144 36.9468 6.19666 30.2554 13.7068 30.2554H27.3122V60.1277H13.7068C6.19666 60.1277 0.10144 53.4363 0.10144 45.1915Z" fill="#A259FF"/>
<path d="M0.10144 15.3192C0.10144 7.07446 6.19666 0.383057 13.7068 0.383057L27.3122 0.383057V30.2554H13.7068C6.19666 30.2554 0.10144 23.564 0.10144 15.3192Z" fill="#F24E1E"/>
<path d="M27.3121 0.383057L40.9175 0.383057C48.4277 0.383057 54.5229 7.07446 54.5229 15.3192C54.5229 23.564 48.4277 30.2554 40.9175 30.2554H27.3121V0.383057Z" fill="#FF7262"/>
<path d="M54.5229 45.1915C54.5229 53.4363 48.4277 60.1277 40.9175 60.1277C33.4074 60.1277 27.3121 53.4363 27.3121 45.1915C27.3121 36.9468 33.4074 30.2554 40.9175 30.2554C48.4277 30.2554 54.5229 36.9468 54.5229 45.1915Z" fill="#1ABCFE"/>
</svg>
