<svg width="86" height="93" viewBox="0 0 86 93" fill="none" xmlns="http://www.w3.org/2000/svg">
<path fill-rule="evenodd" clip-rule="evenodd" d="M42.959 0.191406C31.7055 0.192972 20.9134 5.15537 12.9561 13.9872C4.99869 22.8191 0.527656 34.7973 0.526245 47.2875C0.526245 68.0839 12.7624 85.7095 29.4194 92.0689C31.5049 92.3582 32.2816 90.9115 32.2816 89.7542V81.6647C20.5722 84.5581 17.9707 75.3113 17.9707 75.3113C16.1459 69.8199 13.2837 68.3732 13.2837 68.3732C9.37881 65.4858 13.5391 65.4858 13.5391 65.4858C17.7047 65.7751 20.0508 70.3985 20.0508 70.3985C23.9558 77.62 29.9408 75.5947 32.287 74.4433C32.5423 71.2665 33.8457 69.2471 34.8885 68.0898C25.5145 66.9325 15.6246 62.8877 15.6246 44.6835C15.6246 39.4873 17.1833 35.4367 20.0508 31.9706C19.7848 31.1026 18.2261 26.1958 20.5722 19.8364C20.5722 19.8364 24.2164 18.6791 32.2816 24.7491C35.6652 23.5918 39.3147 23.3025 42.959 23.3025C46.6032 23.3025 50.2475 23.8811 53.631 24.7491C61.7015 18.685 65.3458 19.8364 65.3458 19.8364C67.6866 26.1958 66.1225 31.1026 65.8618 32.2599C68.7287 35.7265 70.3097 40.2673 70.2881 44.9728C70.2881 63.1771 60.3928 66.9325 51.0295 68.0898C52.5883 69.5305 53.8917 72.4179 53.8917 76.752V89.7542C53.8917 90.9115 54.6684 92.3523 56.7539 92.0689C65.1915 88.9084 72.5208 82.8844 77.7056 74.8485C82.8904 66.8126 85.6685 57.1713 85.6471 47.2875C85.3864 21.2831 66.3885 0.191406 42.959 0.191406Z" fill="black"/>
</svg>
