<svg width="97" height="46" viewBox="0 0 97 46" fill="none" xmlns="http://www.w3.org/2000/svg">
<path d="M58.1788 15.8873C56.0545 15.8873 54.4726 17.0323 54.4726 19.7882C54.4726 21.8644 55.5152 23.3061 58.0642 23.3061C60.225 23.3061 61.6927 21.9082 61.6927 19.7019C61.6927 17.2019 60.3795 15.8873 58.1788 15.8873V15.8873ZM53.9317 35.3462C53.4288 36.0233 52.9278 36.7433 52.9278 37.5921C52.9278 39.2867 54.8961 39.7967 57.6 39.7967C59.8394 39.7967 62.8902 39.6242 62.8902 37.3383C62.8902 35.9796 61.4224 35.8958 59.568 35.7683L53.9317 35.3462V35.3462ZM65.361 16.0152C66.0548 16.9902 66.7896 18.3473 66.7896 20.2969C66.7896 25.002 63.4302 27.757 58.566 27.757C57.329 27.757 56.2094 27.5878 55.5152 27.3762L54.2403 29.622L58.024 29.8762C64.7048 30.3437 68.6418 30.5562 68.6418 36.1917C68.6418 41.0675 64.7431 43.8213 58.024 43.8213C51.0354 43.8213 48.371 41.8713 48.371 38.5229C48.371 36.6154 49.1433 35.6 50.4949 34.1987C49.2204 33.6075 48.7961 32.5483 48.7961 31.4029C48.7961 30.4695 49.2204 29.6224 49.9165 28.8162C50.6111 28.012 51.3831 27.2057 52.3099 26.2732C50.4182 25.2557 48.9889 23.0515 48.9889 19.914C48.9889 15.0402 51.9239 11.6927 57.8304 11.6927C59.4913 11.6927 60.4956 11.8602 61.3837 12.1164H68.9139V15.7181L65.361 16.0152V16.0152ZM75.7071 8.3122C73.5057 8.3122 72.2316 6.91218 72.2316 4.49508C72.2316 2.0813 73.5053 0.765869 75.7071 0.765869C77.9464 0.765869 79.2209 2.0813 79.2209 4.49508C79.2209 6.91218 77.9468 8.3122 75.7071 8.3122ZM70.7251 33.7862V30.4391L72.695 30.1433C73.2358 30.0578 73.3125 29.9312 73.3125 29.2941V16.8315C73.3125 16.3665 73.1971 16.0681 72.8096 15.9423L70.7251 15.136L71.1495 11.7035H79.1431V29.2941C79.1431 29.9733 79.1803 30.0578 79.7614 30.1437L81.7305 30.4395V33.7862H70.7251V33.7862ZM97 32.1429C95.3391 33.0325 92.9066 33.8379 90.7049 33.8379C86.1101 33.8379 84.3733 31.8054 84.3733 27.0128V15.9081C84.3733 15.6539 84.3733 15.4844 84.0632 15.4844H81.3608V11.7106C84.7596 11.2856 86.1101 9.42054 86.5348 4.80008H90.2035V10.821C90.2035 11.1168 90.2035 11.2447 90.5128 11.2447H95.9567V15.4835H90.2035V25.614C90.2035 28.1149 90.7447 29.0891 92.8288 29.0891C93.9113 29.0891 95.0298 28.7933 95.9563 28.4116L97 32.1425" fill="#2F2707"/>
<path d="M39.788 21.0189L22.133 1.63829C21.8912 1.37277 21.6041 1.16215 21.2882 1.01845C20.9722 0.874744 20.6336 0.800781 20.2916 0.800781C19.9496 0.800781 19.611 0.874744 19.295 1.01845C18.9791 1.16215 18.692 1.37277 18.4502 1.63829L14.7842 5.66333L19.4348 10.7684C19.9814 10.5643 20.5692 10.5323 21.1316 10.6762C21.6939 10.82 22.2083 11.1338 22.6165 11.5821C23.0269 12.0333 23.3135 12.602 23.4434 13.2235C23.5733 13.8449 23.5414 14.4939 23.3513 15.0963L27.8326 20.0168C28.917 19.6068 30.1684 19.8722 31.0341 20.8243C31.322 21.1401 31.5503 21.5151 31.7061 21.9278C31.8619 22.3405 31.942 22.7828 31.942 23.2296C31.942 23.6763 31.8619 24.1186 31.7061 24.5313C31.5503 24.944 31.322 25.319 31.0341 25.6348C30.5277 26.1913 29.8613 26.5379 29.1483 26.6156C28.4353 26.6933 27.7198 26.4974 27.1236 26.0612C26.5274 25.625 26.0873 24.9754 25.8782 24.223C25.6692 23.4707 25.7041 22.662 25.977 21.9348L21.7975 17.3464L21.7971 29.4215C22.1001 29.586 22.3768 29.8032 22.6165 30.0648C22.9043 30.3807 23.1327 30.7558 23.2884 31.1685C23.4442 31.5813 23.5244 32.0237 23.5244 32.4705C23.5244 32.9173 23.4442 33.3597 23.2884 33.7725C23.1327 34.1852 22.9043 34.5603 22.6165 34.8761C21.4058 36.2053 19.4435 36.2053 18.2347 34.8761C17.8735 34.48 17.6071 33.9919 17.4592 33.4555C17.3113 32.919 17.2864 32.3508 17.3868 31.8012C17.4871 31.2517 17.7096 30.7379 18.0345 30.3055C18.3593 29.8731 18.7765 29.5355 19.2488 29.3227V17.1351C18.8688 16.9648 18.5239 16.7123 18.2347 16.3926C17.3177 15.3872 17.0972 13.9101 17.567 12.6738L12.9829 7.64044L0.877609 20.9289C0.635714 21.1945 0.443831 21.5097 0.312918 21.8567C0.182004 22.2036 0.114624 22.5755 0.114624 22.951C0.114624 23.3266 0.182004 23.6984 0.312918 24.0454C0.443831 24.3923 0.635714 24.7076 0.877609 24.9731L18.5326 44.3542C19.021 44.8902 19.6834 45.1913 20.374 45.1913C21.0646 45.1913 21.7269 44.8902 22.2154 44.3542L39.788 25.0635C40.2764 24.5271 40.5507 23.7997 40.5507 23.0412C40.5507 22.2828 40.2764 21.5554 39.788 21.0189" fill="#DE4C36"/>
</svg>
