<svg width="25" height="25" viewBox="0 0 25 25" fill="none" xmlns="http://www.w3.org/2000/svg">
<circle cx="12.4121" cy="12.4121" r="11.9121" stroke="#EFEEE5"/>
<path d="M12.413 4.00391C7.76698 4.00207 4.00391 7.68158 4.00391 12.2231C4.00391 15.8144 6.35794 18.8672 9.6363 19.9883C10.0778 20.0967 10.0102 19.7898 10.0102 19.5803V18.1559C7.46075 18.4481 7.35742 16.7977 7.18646 16.522C6.84077 15.9449 6.02353 15.7978 6.26776 15.5221C6.84829 15.2299 7.44008 15.5957 8.12581 16.5863C8.6218 17.3049 9.58934 17.1836 10.0797 17.0642C10.1868 16.6322 10.416 16.2463 10.7316 15.9467C8.09012 15.4835 6.98919 13.9066 6.98919 12.0319C6.98919 11.1222 7.29542 10.2859 7.89661 9.6114C7.51335 8.49946 7.93231 7.54741 7.98867 7.40589C9.0802 7.31032 10.2149 8.17047 10.3032 8.23847C10.9232 8.0749 11.6315 7.98852 12.4243 7.98852C13.2209 7.98852 13.9311 8.07857 14.5567 8.24399C14.769 8.08592 15.821 7.34708 16.8356 7.43714C16.89 7.57866 17.2996 8.50865 16.9389 9.60588C17.5476 10.2822 17.8576 11.1258 17.8576 12.0375C17.8576 13.9158 16.7491 15.4946 14.1001 15.9504C14.327 16.1687 14.5072 16.429 14.6301 16.7162C14.753 17.0033 14.8162 17.3116 14.8159 17.6229V19.6905C14.831 19.856 14.8159 20.0195 15.0977 20.0195C18.4249 18.9223 20.8203 15.8475 20.8203 12.2249C20.8203 7.68158 17.0554 4.00391 12.413 4.00391Z" fill="#EFEEE5"/>
</svg>
