<svg width="474" height="86" viewBox="0 0 474 86" fill="none" xmlns="http://www.w3.org/2000/svg">
<path d="M124.186 0C124.19 0.00755906 124.195 0.0189119 124.199 0.026471L124.195 0L124.186 0ZM124.199 0.026471L128.336 33.8155C128.256 33.7649 128.183 33.7044 128.102 33.6552L128.377 34.1514L128.965 38.9561C128.871 39.2739 128.791 39.596 128.721 39.9209H126.85L123.936 37.6943L125.688 34.5283C124.498 34.5359 123.276 34.6172 122.158 35.0576C121.867 35.1725 121.621 35.3294 121.393 35.5029L120.805 34.7568L124.291 24.2998C122.954 24.3008 121.53 24.5319 120.465 25.4033C118.577 26.9484 118.485 29.4522 118.5 31.8291L116.67 29.5069C116.724 29.9292 116.936 30.3087 117.102 30.6944C117.533 31.6997 118.005 32.6839 118.502 33.6552C118.501 33.6779 118.502 33.7006 118.502 33.7218C118.492 34.1088 118.422 34.4106 118.312 34.6613C118.297 34.6622 118.282 34.6644 118.266 34.6651C117.489 34.7335 116.712 34.8158 115.936 34.9111C115.692 34.0398 115.419 33.1768 115.088 32.331C114.375 30.5136 113.486 28.7133 112.229 27.2139L116.863 13.3076C116.135 14.0372 115.494 14.8491 114.908 15.6963C112.363 19.3776 110.78 23.6239 109.404 27.8584C108.456 30.7761 107.677 33.7475 107.035 36.749C106.505 36.9108 105.98 37.0861 105.457 37.2685L105.154 37.038C104.933 35.9857 104.695 34.9376 104.432 33.8954C103.323 29.5031 101.983 25.0771 99.7109 21.1435L100.664 17.9364C99.9065 18.3228 99.2247 18.8174 98.6016 19.3837C97.4208 17.6521 96.0012 16.0079 94.1113 15.0438L96.2363 22.1923C96.1423 22.3298 96.0368 22.4621 95.9453 22.6005C93.5517 26.2224 92.1046 30.3562 90.9551 34.536C89.9504 34.5549 88.935 34.6524 87.9824 34.9813C87.3019 31.5959 86.4377 28.248 85.3711 24.9657C85.1465 24.2745 84.9029 23.5867 84.664 22.8974C84.7091 22.7949 84.763 22.6974 84.8066 22.5946C84.9717 22.209 85.1846 21.8295 85.2382 21.4071L84.4824 22.3661C83.2963 19.0157 81.8924 15.7297 79.8691 12.8036C79.2832 11.9565 78.6406 11.1446 77.9121 10.4149L82.664 24.6727L74.1875 35.4345C73.7771 35.1521 73.3439 34.9013 72.8886 34.6942C72.7496 34.6307 72.6093 34.5714 72.4629 34.5264L73.6425 36.126L72.1777 37.9854C71.7284 37.2558 71.2582 36.5393 70.7539 35.8467C69.7078 34.4099 68.4431 33.0951 67.0175 32.0049L70.582 2.89359C67.7533 8.55067 65.9974 14.689 64.9101 20.9034C64.4681 23.4296 64.1348 25.9668 63.8808 28.5108C63.6982 28.9704 63.53 29.4354 63.3593 29.8995C62.8054 29.6757 62.2374 29.487 61.6582 29.337C60.9572 28.6378 60.2137 27.9819 59.4218 27.4053C54.5453 23.8547 48.6956 21.6574 42.7324 20.9561C42.12 20.8839 41.5039 20.8306 40.8867 20.8291L45.125 23.9112L60.8554 35.3506C60.3996 35.5951 59.9626 35.8753 59.541 36.1748C58.5398 35.4634 57.4417 34.8821 56.2636 34.5283L57.7968 37.6318C57.0643 38.3363 56.3987 39.1043 55.791 39.9209H50.3125C49.9949 39.4603 49.6616 39.0122 49.3144 38.5752L51.6386 35.3779C51.765 35.2249 51.8957 35.0763 52.0195 34.9209L52.125 34.7081L53.8047 32.3995C50.9218 32.4759 48.2342 33.5738 45.9375 35.2452C45.5974 34.992 45.25 34.7472 44.8867 34.5284L45.125 34.9601L45.4707 35.5851C44.5759 36.2834 43.7437 37.0655 42.9942 37.9152C42.8886 37.4112 42.7847 36.9077 42.668 36.4054C41.6752 32.1337 40.4977 27.5855 37.416 24.2999L39.6485 39.921H39.1231C38.4179 39.2254 37.6547 38.5927 36.8457 38.0265L37.5567 34.5284C36.8416 35.3825 36.1845 36.2802 35.5801 37.212C35.1379 36.9535 34.6828 36.7175 34.2207 36.4953C33.4969 33.0728 32.5461 29.6948 31.3047 26.4269L31.6289 25.4562C31.4037 25.4563 31.1753 25.4751 30.9473 25.4902C30.3938 24.1061 29.7891 22.7421 29.1211 21.4062L29.6445 25.6757C28.9775 25.8416 28.343 26.1164 27.8027 26.5585C25.4961 28.4462 25.8677 31.7629 25.8418 34.5273C25.8248 34.5271 25.8082 34.5253 25.791 34.5253L25.8418 34.5666V34.8749C25.7978 36.7618 24.3833 36.7951 23.2969 37.2754C22.3293 36.9371 21.3475 36.6397 20.3574 36.371C20.2654 35.9489 20.176 35.5262 20.0781 35.1054L20.7793 34.5253C20.5005 34.5283 20.222 34.5405 19.9434 34.5556C19.4037 32.299 18.7851 30.0621 18.0684 27.8564C16.6924 23.6219 15.1101 19.3756 12.5645 15.6942C11.9786 14.8471 11.3379 14.0352 10.6094 13.3056L17.7695 34.788C16.9944 34.9142 16.2276 35.0896 15.4727 35.3056C13.8073 35.0252 12.1336 34.81 10.4609 34.663C10.2979 34.6479 10.1339 34.6403 9.97071 34.629C9.28001 33.1686 8.46923 31.7674 7.54493 30.4415L8.60547 28.5274C7.82007 28.5312 7.02486 28.5743 6.25196 28.7247C6.19897 28.6601 6.15131 28.5917 6.09764 28.5274L6.14258 28.7463C5.89377 28.7984 5.64709 28.8608 5.40429 28.9394C5.36914 28.9507 5.33732 28.9697 5.30273 28.9825L1.15821 23.7227C1.21222 24.1451 1.42462 24.5246 1.58985 24.9102C2.30494 26.5785 3.13038 28.1904 4.01758 29.7696C3.28278 30.4623 2.84221 31.435 2.84961 32.4707C2.85982 33.5962 3.36821 35.511 1.56641 35.4161C1.06688 35.3897 0.470404 35.4388 0 35.6485L0 44.0822L0 45.2462L0 47.4103L0 85.9904H473.236V65.2325V63.4063V53.8438V38.254C472.427 36.551 471.359 34.974 469.918 33.7814L473.236 31.3673V25.9766C470.387 27.0611 467.674 28.5058 465.211 30.2989C463.743 31.3677 462.407 32.6653 461.303 34.129C461.273 33.2397 461.235 32.3512 461.187 31.463L462.836 30.2032C462.267 30.424 461.711 30.6739 461.152 30.9161C460.904 26.5955 460.471 22.2876 459.723 18.0118C458.635 11.7974 456.881 5.65908 454.053 0.00207616L457.434 27.6154L457.395 27.8009C456.261 29.017 455.386 30.4052 454.684 31.8869C454.886 27.6154 454.657 23.3146 454.35 19.0587L451.055 35.256L446.525 29.5079C446.578 29.9303 446.792 30.3098 446.957 30.6955C447.915 32.9301 449.065 35.0667 450.316 37.1486C449.265 37.9019 448.236 38.6882 447.221 39.4884C447.236 38.8714 447.236 38.254 447.194 37.6369C447.148 36.9751 447.046 36.2109 446.507 35.7521C446.349 35.6176 446.165 35.5722 445.975 35.5586C446.336 36.9688 446.587 38.405 446.765 39.8535C446.734 39.8762 446.708 39.8988 446.679 39.9219H445.778C445.579 38.5229 445.346 37.1294 445.087 35.7403C445.373 35.619 445.681 35.5362 445.976 35.5566C445.696 34.4632 445.36 33.385 444.946 32.33C444.612 31.477 444.221 30.6374 443.79 29.8203C443.433 28.4162 443.039 27.0211 442.612 25.6367L446.722 13.3066C445.993 14.0362 445.351 14.8481 444.765 15.6953C443.407 17.6587 442.33 19.7848 441.405 21.9824C440.205 18.5638 438.785 15.2079 436.722 12.2246C436.136 11.3774 435.495 10.5655 434.767 9.83591L440.026 25.6152C439.766 26.362 439.504 27.1082 439.261 27.8574C437.98 31.7995 436.996 35.8367 436.267 39.9199H435.566C435.268 38.195 434.906 36.4823 434.497 34.7812C434.914 32.3512 435.058 29.876 434.874 27.416L433.362 30.4785C432.419 27.2389 431.249 24.0571 429.567 21.1445L430.522 17.9355C429.765 18.322 429.081 18.8165 428.458 19.3828C427.277 17.6512 425.858 16.0089 423.968 15.0449L426.093 22.1894C425.998 22.3274 425.894 22.4608 425.802 22.5996C423.078 26.7203 421.565 31.5007 420.343 36.2617L415.997 27.4648C415.753 26.6282 415.499 25.7936 415.229 24.9648C415.005 24.2736 414.761 23.5859 414.522 22.8965C414.567 22.7941 414.621 22.6965 414.665 22.5937C414.83 22.2081 415.043 21.8286 415.097 21.4062L414.341 22.3652C413.155 19.0148 411.749 15.7288 409.725 12.8027C409.14 11.9555 408.499 11.1437 407.77 10.4141L412.522 24.6718L408.225 30.1269C408.109 29.4392 407.911 28.7618 407.583 28.1113L407.04 29.0917C405.937 23.6414 404.281 18.2874 401.79 13.3066L404.323 33.998L402.311 37.6328L402.034 37.9862C401.584 37.2561 401.115 36.5386 400.61 35.8455C399.564 34.408 398.3 33.0922 396.874 32.0018L400.438 2.89243C397.609 8.54952 395.856 14.6878 394.768 20.9022C394.326 23.4303 393.991 25.9695 393.737 28.5154C393.555 28.9732 393.387 29.436 393.218 29.8983C392.662 29.6738 392.093 29.4861 391.513 29.3357C390.812 28.6369 390.072 27.9804 389.28 27.4041C384.404 23.8535 378.552 21.6562 372.589 20.9549C371.976 20.8827 371.36 20.8294 370.743 20.8279L374.983 23.9118L390.712 35.3494C390.156 35.6476 389.622 35.9888 389.118 36.3669C387.779 37.3706 386.64 38.586 385.647 39.9197H382.159L380.895 37.0759C380.547 37.249 380.115 37.4157 379.718 37.3885C380.467 36.5922 381.195 35.776 381.878 34.9198L382.071 34.5272L380.296 35.8827L381.298 34.5252C381.151 34.5702 381.011 34.6295 380.872 34.693C380.32 34.944 379.805 35.2634 379.319 35.6227C378.931 33.6349 378.727 31.6098 378.64 29.5817C378.639 29.6157 378.641 29.6864 378.64 29.7167C378.578 31.5801 378.371 33.4456 378.499 35.3104C378.518 35.5942 378.554 35.8939 378.624 36.1834C378.334 36.4416 378.071 36.7275 377.81 37.0155C377.23 36.4195 376.613 35.8583 375.948 35.3494C375.562 35.0539 375.162 34.7781 374.745 34.5272L374.983 34.9569L376.811 38.2615C376.729 38.3791 376.634 38.4895 376.556 38.6093C376.505 38.6875 376.463 38.7721 376.413 38.8515L375.013 39.9219H372.29C371.503 38.3666 370.58 36.8838 369.523 35.4961L365.085 13.6699C364.586 20.5799 364.281 27.6116 365.72 34.4375C365.735 34.5093 365.754 34.5785 365.77 34.6503C361.563 31.2702 357.058 28.2131 352.153 25.955C352.131 24.8475 351.914 23.7557 351.393 22.7245L350.091 25.0781C349.881 24.9934 349.678 24.8962 349.468 24.8142L350.009 25.2263L346.571 31.4334L345.624 33.1443C341.464 29.9813 337.005 27.2037 332.171 25.2068L332.686 24.8142C332.442 24.9091 332.206 25.0221 331.964 25.1207C331.721 25.0221 331.487 24.9087 331.243 24.8142L331.759 25.2068C328.731 26.4574 325.85 28.0116 323.099 29.781L319.19 22.7244C317.746 25.5848 318.562 28.9173 319.772 31.7263C319.806 31.8061 319.858 31.8817 319.896 31.9607C318.546 32.9362 317.229 33.955 315.938 35.0037C315.619 35.0743 315.302 35.1537 314.987 35.2399L314.611 33.6539C314.558 34.2313 314.516 34.8135 314.472 35.3941C314.293 35.4482 314.114 35.4992 313.937 35.5582C313.673 35.2101 313.411 34.8623 313.13 34.5269L313.38 35.7574C312.5 36.0802 311.645 36.4645 310.823 36.9097L309.907 35.2535C310.251 34.8584 310.588 34.4564 310.915 34.0464L311.108 33.6539L309.642 34.775L309.021 33.6539C308.824 34.0475 308.676 34.4469 308.56 34.8492C308.474 34.7433 308.395 34.6318 308.308 34.5268L308.456 35.2592C308.418 35.4247 308.383 35.5906 308.356 35.7572L306.401 37.2514L306.956 34.5268C306.161 35.476 305.44 36.4806 304.782 37.5248L304.692 37.4859L303.493 36.9605L302.85 34.2515L296.975 9.4878C296.342 16.431 296.216 23.6161 298.292 30.3276C298.784 31.9185 299.429 33.5327 300.309 34.982C300.131 35.1056 299.945 35.2174 299.772 35.3493C299.569 35.505 299.378 35.6747 299.182 35.8395C297.829 35.4304 296.452 35.0914 295.065 34.8044C294.992 34.7666 294.923 34.7269 294.848 34.6929C294.709 34.6294 294.569 34.5701 294.423 34.5251L294.55 34.6971C294.255 34.6392 293.96 34.5916 293.665 34.5387L293.65 34.5273V34.5387C293.335 34.4824 293.022 34.4215 292.706 34.3709C292.756 34.1381 292.797 33.9008 292.817 33.656L291.567 34.2029C290.398 34.037 289.225 33.8956 288.054 33.7927C287.19 33.7168 286.324 33.6585 285.456 33.6559L285.65 33.7398L289.136 35.2672L286.607 36.3746C286.607 36.3726 286.595 36.3708 286.595 36.3671C286.385 36.2094 286.167 36.0628 285.947 35.9178C285.592 35.1628 285.026 34.5274 284.158 34.1854C283.04 33.7449 281.82 33.6615 280.63 33.6541L282.435 36.9139C282.216 36.7298 282.003 36.5394 281.773 36.3671C281.176 35.9197 280.539 35.5259 279.871 35.1932C279.657 34.3667 279.411 33.5488 279.136 32.742L285.716 19.4178C284.083 19.9079 282.601 20.819 281.322 21.9354C279.501 23.525 278.06 25.4788 276.9 27.5936C275.74 25.479 274.301 23.5248 272.48 21.9354C271.201 20.819 269.719 19.9079 268.086 19.4178L274.664 32.7401C274.547 33.0817 274.439 33.426 274.334 33.7713C273.765 33.8492 273.204 33.9743 272.668 34.1854C270.808 34.9178 270.294 36.9746 270.404 38.7362C270.438 39.2808 270.341 39.6525 270.164 39.9198H264.211C264.15 38.9133 264.058 37.9096 263.941 36.9081L271.373 33.6541C270.505 33.6571 269.639 33.715 268.775 33.7909C267.045 33.9429 265.313 34.1678 263.591 34.4628C263.497 33.9029 263.408 33.3424 263.291 32.785C262.265 27.9194 260.192 23.2433 256.984 19.4179L260.185 35.1581C258.758 35.5017 257.349 35.9116 255.964 36.3944L252.689 33.8905L255.632 19.4179C252.425 23.2433 250.351 27.9194 249.326 32.785C248.829 35.1432 248.551 37.5262 248.406 39.9198H246.64L250.81 19.4179C247.603 23.2433 245.529 27.9194 244.504 32.785C244.23 34.082 244.037 35.3877 243.878 36.6972C243.213 35.6374 242.485 34.6165 241.679 33.6542L242.521 37.7948C241.409 37.8749 240.019 38.0352 240.101 36.4823C240.156 35.4419 239.898 33.9686 238.492 34.1288C235.656 34.4524 233.531 31.346 230.914 30.2187C228.918 29.3591 226.659 28.7147 224.492 28.9218C224.492 27.0031 224.273 25.0872 223.724 23.1914L218.496 38.8749C217.923 38.1217 217.296 37.4149 216.615 36.7597L218.148 33.6542C216.97 34.008 215.874 34.5896 214.873 35.3007C214.295 34.8901 213.683 34.5294 213.043 34.2265L213.326 33.6542C213.032 33.7423 212.745 33.8485 212.461 33.9626C212.176 33.8485 211.889 33.7423 211.595 33.6542L211.878 34.2265C211.575 34.3701 211.278 34.5258 210.988 34.6952C210.735 34.5236 210.485 34.3498 210.228 34.1835L210.742 34.8359C210.504 34.9822 210.276 35.1394 210.048 35.3007C209.712 35.0615 209.363 34.8397 209.004 34.6347L211.541 28.9277C211.146 29.1427 210.806 29.4481 210.482 29.7558C209.239 30.9347 208.322 32.3971 207.578 33.9414C207.313 33.8367 207.046 33.7365 206.773 33.6541L207.259 34.6385C207.088 35.0248 206.914 35.4102 206.761 35.8006C206.348 36.8557 206.009 37.9338 205.73 39.0271C205.907 39.0158 206.086 39.0385 206.267 39.0918C206.065 39.3643 205.865 39.6375 205.675 39.9199H205.525C205.592 39.622 205.654 39.3231 205.73 39.0273C205.577 39.0386 205.429 39.0734 205.295 39.1599L201.91 22.5272C201.639 26.2737 201.438 30.0544 201.529 33.8201C201.529 33.821 201.529 33.821 201.519 33.8221C200.836 34.1328 200.204 34.5378 199.623 35.0096L197.107 17.406C196.811 23.0857 196.569 28.8189 196.664 34.531C196.641 34.5121 196.619 34.4933 196.597 34.4762C196.211 34.1807 195.809 33.9049 195.392 33.654L196.687 35.9919C196.707 36.7246 196.752 37.4556 196.785 38.1872L195.957 38.82L191.519 25.5055C190.863 27.7694 190.671 30.0615 190.775 32.3532C190.204 31.5318 189.566 30.758 188.863 30.0427C190.498 27.4721 191.975 24.8143 193.175 22.0153C193.34 21.6297 193.553 21.2502 193.607 20.8278L187.4 28.7067C187.101 28.4603 186.805 28.2086 186.494 27.9821C181.617 24.4315 175.767 22.2342 169.804 21.5329C169.192 21.4607 168.576 21.4074 167.959 21.4059L168.152 21.5465L183.974 33.0543L183.15 34.1012L183.24 33.6539C182.959 33.9892 182.697 34.3372 182.433 34.6852C180.458 34.0266 178.377 33.6754 176.298 33.6539L177.501 34.65C177.401 34.6099 177.302 34.5669 177.201 34.5272L177.685 34.8983C176.721 35.4031 175.876 36.1033 175.13 36.9022C174.519 36.6638 173.903 36.4404 173.281 36.2323C174.495 34.2164 175.256 31.9508 175.32 29.5546L169.546 33.7538C169.317 33.7765 169.089 33.8033 168.861 33.8339C168.729 32.1486 168.308 30.5526 166.962 29.4511C165.897 28.5796 164.473 28.3486 163.136 28.3476L165.117 34.291C163.736 34.0801 162.35 33.9125 160.966 33.7909C160.102 33.715 159.236 33.6568 158.369 33.6541L160.503 34.5897L159.115 35.6503L158.494 34.5272C158.178 35.1612 157.976 35.8086 157.859 36.4627C157.297 35.6917 156.663 34.9806 155.919 34.3787L156.582 32.3924L158.701 26.035C157.364 26.036 155.939 26.2652 154.875 27.1366C152.474 29.1013 152.98 32.6313 152.914 35.4569C152.88 36.9061 152.035 37.2588 151.154 37.5623C150.394 37.2789 149.627 37.0156 148.851 36.7772C148.595 36.3671 148.327 35.9649 148.05 35.5682L149.111 33.6541C148.328 33.6579 147.535 33.7089 146.763 33.8593C146.708 33.7921 146.659 33.7207 146.603 33.6541L146.648 33.8786C146.287 33.9546 145.929 34.0472 145.584 34.1833C144.855 34.4701 144.339 34.9656 143.98 35.5621C143.383 35.4453 142.784 35.3369 142.183 35.2398C142.233 35.0066 142.274 34.7702 142.294 34.5249L141.044 35.0718C140.253 34.9596 139.461 34.8635 138.668 34.7808L153.878 23.7182C153.261 23.7202 152.647 23.773 152.035 23.8452C146.072 24.5466 140.22 26.7439 135.343 30.2945C135.282 30.3391 135.226 30.3916 135.166 30.437L134.884 30.0813C134.905 30.2457 134.962 30.3996 135.019 30.554C133.68 31.5733 132.455 32.7731 131.435 34.1262C131.243 28.7266 130.789 23.3429 129.855 18.0071C128.77 11.8028 127.02 5.67417 124.199 0.0246832L124.199 0.026471ZM378.641 29.5831C378.667 28.484 378.591 25.6736 378.584 26.6632C378.573 27.6335 378.599 28.609 378.641 29.5831ZM331.965 25.3663L339.631 31.2257L344.59 35.0147L344.504 35.1689C343.561 35.0242 342.616 34.9074 341.67 34.8057C341.555 34.4188 341.413 34.0342 341.225 33.6553L340.647 34.6983C340.537 34.6869 340.428 34.6756 340.319 34.6643C339.542 34.5958 338.764 34.5475 337.985 34.5354L338.003 34.5279C337.957 34.528 337.909 34.5309 337.863 34.5316C337.815 34.5311 337.77 34.5279 337.722 34.5279L337.741 34.5354C336.962 34.5468 336.182 34.5958 335.405 34.6643C333.995 34.7882 332.583 34.9572 331.177 35.1741C330.841 35.0123 330.506 34.8479 330.167 34.6936V34.6917C329.694 34.4766 329.217 34.2691 328.737 34.0686L329.044 33.6526C328.897 33.6976 328.755 33.7611 328.616 33.8246C328.543 33.8586 328.475 33.8967 328.403 33.9319C328.179 33.8401 327.957 33.7429 327.731 33.6545L328.218 34.0256C327.496 34.4032 326.832 34.8802 326.231 35.4338L324.02 31.4417L331.965 25.3663ZM83.1289 26.0675L83.9961 28.671C83.7915 28.8301 83.5956 28.9994 83.4082 29.1768C81.6727 30.8229 80.5537 33.0145 79.6875 35.2237C79.6144 35.4097 79.5568 35.6009 79.4882 35.7882C79.2182 35.5761 78.9342 35.3827 78.6425 35.2022L79.0156 34.5284C78.7741 34.6739 78.5495 34.8436 78.3183 35.005C78.1256 34.8973 77.93 34.7944 77.7285 34.7022C79.7009 31.9214 81.5523 29.0663 83.1289 26.0675H83.1289ZM412.988 26.0675L413.855 28.671C413.651 28.8301 413.455 28.999 413.268 29.1768C412.978 29.4516 412.71 29.7471 412.453 30.0499L411.666 28.458C412.127 27.6723 412.565 26.873 412.988 26.0675V26.0675ZM352.121 26.8429L356.471 30.1671L362.437 34.7257C362.213 34.9989 361.998 35.2783 361.785 35.5597C359.81 34.9011 357.729 34.5499 355.65 34.5284L356.471 35.2061L360.039 38.1592C359.696 38.7357 359.371 39.3222 359.068 39.921H358.969C358.528 39.6454 358.08 39.3855 357.635 39.1612C355.001 37.8357 352.217 36.8567 349.361 36.1397C349.04 35.8691 348.722 35.5963 348.397 35.3292C349.258 34.1534 350.266 32.9973 350.813 31.7276C351.47 30.2009 351.996 28.5193 352.121 26.8429H352.121ZM97.8183 27.5128L101.24 39.0264C101.144 39.0737 101.045 39.113 100.949 39.1614C100.503 39.3859 100.057 39.6454 99.6152 39.9211H95.6699L95.8418 39.3411C95.5074 39.5115 95.1935 39.7115 94.8867 39.9211H94.6933C94.5762 39.6895 94.4571 39.4601 94.334 39.2317L97.8183 27.5128ZM427.676 27.5128L428.551 30.4561L424.154 39.3604L427.676 27.5128ZM111.74 28.6749L114.594 35.0987C113.644 35.2359 112.696 35.3897 111.754 35.5753L112.041 34.714C111.728 35.0273 111.439 35.3624 111.156 35.7022C110.52 35.8353 109.885 35.9744 109.256 36.1319L111.74 28.6749ZM413.996 29.089L415.986 35.0616L415.426 36.0733L413.039 31.2393L413.996 29.089ZM84.1367 29.0909L86.4453 36.0128C86.3343 36.147 86.2267 36.2838 86.1367 36.4327L83.7812 34.6339L83.8398 34.5284C83.8039 34.5511 83.7719 34.5768 83.7363 34.5987L83.6445 34.5284L83.6933 34.6282C83.3305 34.8539 82.974 35.0912 82.6347 35.3509C81.9703 35.8595 81.3531 36.4192 80.7734 37.0149C80.7382 36.976 80.7015 36.9382 80.666 36.8996L84.1367 29.0909ZM411.078 29.425C411.078 30.2326 411.108 31.0397 411.17 31.845C410.525 32.9164 409.999 34.0667 409.545 35.2239C409.131 36.2789 408.795 37.3571 408.516 38.4504C408.748 38.4353 408.991 38.4769 409.225 38.5619L408.568 39.7474C408.534 39.3767 408.502 39.0065 408.465 38.6361C408.48 38.5738 408.499 38.5129 408.515 38.4505C408.493 38.4525 408.469 38.4475 408.447 38.4505C408.306 37.0959 408.136 35.7438 407.943 34.3939C407.97 34.2911 407.998 34.1879 408.021 34.0855C409.09 32.56 410.113 31.0089 411.078 29.4253L411.078 29.425ZM441.324 29.5052L444.795 39.9211H443.144L440.809 37.9876L441.9 34.7141C441.172 35.4438 440.529 36.2556 439.943 37.1028C439.315 38.0109 438.747 38.9529 438.225 39.9211H437.852L441.324 29.5052ZM30.1562 29.8721L30.8125 35.2257C30.0627 35.0231 29.2993 34.8658 28.5312 34.7511L30.1562 29.8721ZM224.416 31.0206L229.373 33.7647C229.189 33.88 229.012 34.0074 228.834 34.1317C228.636 34.021 228.435 33.9174 228.228 33.8233C228.089 33.7598 227.949 33.6982 227.803 33.6532L228.383 34.4403C228.364 34.4554 228.345 34.463 228.328 34.4792C227.663 34.9884 227.047 35.5488 226.467 36.1452C225.743 35.3493 224.926 34.6413 223.99 34.1218C224.175 33.0912 224.331 32.0579 224.416 31.0222L224.416 31.0206ZM6.04488 33.1534C6.51258 33.8835 6.99063 34.6077 7.48043 35.3253L8.13277 38.5323C7.33137 37.1572 6.32056 35.924 5.03316 34.9816L6.04488 33.1534ZM321.002 33.7471C321.813 34.8476 322.714 35.9162 323.246 37.0577C321.482 37.6404 319.752 38.3256 318.088 39.1632C317.642 39.3873 317.195 39.6474 316.754 39.9229H316.654C316.352 39.325 316.028 38.7389 315.686 38.1632L315.963 37.9326L320.072 34.5303C320.038 34.5306 320.005 34.5315 319.971 34.5322L320.783 33.9111L321.002 33.7471ZM229.449 33.8095L230.186 34.2177L232.156 35.3076C231.857 35.5767 231.569 35.8573 231.289 36.1454C230.657 35.4502 229.954 34.8225 229.16 34.331L229.449 33.8095ZM252.648 34.1277C253.384 35.0445 254.172 35.9132 254.982 36.7625C253.915 37.1666 252.865 37.6139 251.838 38.116L252.648 34.1277ZM201.549 34.2098C201.549 34.3231 201.559 34.4365 201.559 34.5495L200.959 35.0066L201.549 34.2098ZM328.566 34.2956L329.984 35.3796C329.112 35.533 328.243 35.7076 327.379 35.9049L328.566 34.2956ZM469.139 34.3462L469.857 37.3716C469.072 37.2148 468.263 37.1717 467.465 37.1683L468.988 39.9202H461.508L461.53 39.8771L469.139 34.3462ZM185.887 34.438L186.898 35.1744C186.622 35.5559 186.354 35.9437 186.098 36.3384C185.726 36.1211 185.345 35.9208 184.959 35.729C185.271 35.3007 185.579 34.8693 185.887 34.438V34.438ZM429.738 34.4494H429.74L429.779 34.5843L429.728 34.4925C429.728 34.4773 429.74 34.4622 429.74 34.4494H429.738ZM337.861 34.5881L340.152 35.5901L339.16 37.381C338.182 37.5383 337.206 37.7185 336.236 37.926C335.387 37.4064 334.524 36.9083 333.65 36.4318L333.764 36.3812L335.018 35.8323L337.861 34.5881ZM160.555 34.607L162.617 35.5113L162.869 35.6205C161.878 36.0969 160.93 36.6565 160.039 37.2982L159.391 36.1283C159.735 35.7322 160.071 35.3304 160.398 34.9193L160.555 34.607ZM83.7363 34.7124L83.8398 34.9196C84.4608 35.6983 85.1139 36.4469 85.791 37.1754C85.5141 37.9474 85.4243 38.8069 85.4746 39.609C85.4844 39.722 85.4746 39.8203 85.4746 39.9197H82.7597C82.5401 39.4709 82.3048 39.0301 82.0293 38.6092C81.9503 38.489 81.8561 38.3779 81.7734 38.2596L83.7363 34.7124ZM362.537 34.7982L365.525 37.0834C365.499 37.1261 365.468 37.1673 365.44 37.2104C364.455 36.6343 363.416 36.1513 362.342 35.7572L362.537 34.7982ZM223.853 34.836L225.557 37.1446C224.816 38.0164 224.148 38.9519 223.531 39.92H222.576C223.073 38.2461 223.513 36.5481 223.853 34.836V34.836ZM77.5761 34.9199L77.8672 35.3125C77.849 35.3277 77.8305 35.3352 77.8125 35.3515C77.2847 35.7555 76.794 36.1997 76.3203 36.66C76.7433 36.0828 77.1611 35.5024 77.5761 34.9198L77.5761 34.9199ZM228.793 34.994L230.186 36.8827L230.379 37.1465C229.756 37.8801 229.184 38.6582 228.65 39.4629C228.385 38.8675 228.082 38.2878 227.723 37.7384C227.644 37.6185 227.549 37.5085 227.467 37.3906L228.793 34.994ZM178.049 35.1678L178.941 35.8495L179.187 36.0388L180.668 37.2635L179.385 38.8924C179.022 38.6755 178.657 38.47 178.293 38.2869C177.669 37.9728 177.036 37.6824 176.396 37.4061L178.049 35.1678ZM201.58 35.1981C201.651 36.7781 201.789 38.3527 201.996 39.9207H201.406C200.984 39.259 200.537 38.6136 200.061 37.993L199.916 36.9852C200.482 36.3994 201.047 35.8136 201.58 35.1981V35.1981ZM300.533 35.3289C300.826 35.781 301.147 36.2089 301.492 36.618C301.027 36.4471 300.557 36.2914 300.086 36.1375L300.533 35.3289ZM212.469 35.4071L212.73 35.9364C212.604 35.8408 212.475 35.7493 212.348 35.6552L212.469 35.4071ZM90.6601 35.6278C90.5582 36.0158 90.4414 36.4022 90.3437 36.79C90.3218 36.878 90.3022 36.9672 90.2812 37.0556C90.1822 36.9869 90.0847 36.9135 89.9824 36.8485L90.6601 35.6278ZM137.49 35.6505C137.636 35.9162 137.774 36.186 137.924 36.4493L135.682 37.4298C135.644 37.3036 135.603 37.1784 135.555 37.0567L137.49 35.6505ZM4.65816 35.6619L5.66988 39.9255H2.29885L3.58791 37.5954L4.65816 35.6619ZM187.652 35.7283L189.359 36.9706L188.691 38.1776C188.265 37.8155 187.819 37.4803 187.361 37.16L187.652 35.7283ZM10.6269 35.7435L12.1015 36.3919L12.3515 36.5011C12.0792 36.6319 11.8105 36.7676 11.5449 36.9113L10.6269 35.7435ZM233.141 35.8569L239.262 39.2475C239.504 39.475 239.746 39.7018 239.99 39.9271H234.268V39.9234C234.064 39.79 233.836 39.7507 233.602 39.7416C233.628 39.8028 233.648 39.8655 233.672 39.9271H232.449C232.813 39.8247 233.217 39.7276 233.602 39.7416C233.312 39.0478 232.964 38.3775 232.549 37.7435C232.471 37.6237 232.375 37.5138 232.293 37.3958L233.141 35.8569ZM78.2753 35.872L79.08 36.9619C78.9247 37.4564 78.7844 37.9541 78.6562 38.456C78.9041 38.4371 79.1644 38.4862 79.4121 38.5811C79.0649 39.0181 78.7316 39.4662 78.414 39.9268H78.3242C78.425 39.4343 78.5318 38.9429 78.6562 38.4561C78.4666 38.4712 78.2826 38.5154 78.125 38.6496C77.8944 38.8458 77.7565 39.1039 77.6562 39.3801C77.5134 39.1219 77.3675 38.8645 77.205 38.6164C77.127 38.4966 77.0317 38.3866 76.9492 38.2687L78.2753 35.872ZM155.434 35.874L155.676 36.8974L155.955 38.0751L155.676 38.2879L154.654 39.0691C154.572 39.0287 154.488 38.9939 154.406 38.9539L155.434 35.874ZM411.822 36.3017C412.094 37.5286 412.441 38.7379 412.848 39.9247H410.631C411.086 38.7374 411.485 37.5278 411.822 36.3017ZM429.383 36.3017C429.512 36.7721 429.65 37.2409 429.797 37.706L428.701 39.9247H428.358C428.765 38.7379 429.112 37.5286 429.383 36.3017H429.383ZM27.9961 36.3584L29.1211 37.2881L30.1796 38.165C29.8371 38.7409 29.5135 39.3267 29.2109 39.9248H29.1113C28.6697 39.6489 28.2232 39.3894 27.7773 39.165C27.5731 39.0622 27.3621 38.9746 27.1562 38.8759L27.9961 36.3584ZM341.961 36.3886L343.072 36.875C342.708 36.9131 342.343 36.9445 341.98 36.9883C341.98 36.788 341.969 36.5884 341.962 36.3887L341.961 36.3886ZM211.98 36.4L212.646 37.2476C212.589 37.3077 212.525 37.3625 212.469 37.4234C212.256 37.1943 212.026 36.9802 211.801 36.7632L211.967 36.4272L211.98 36.4ZM291.816 36.4412L296.588 38.531C296.227 38.9827 295.882 39.4465 295.553 39.9236H290.074C289.828 39.5936 289.572 39.2723 289.307 38.9587C290.289 38.2626 291.172 37.4233 291.816 36.4412ZM208.184 36.4998L208.314 36.7635C208.165 36.9072 208.017 37.0523 207.873 37.2011L208.184 36.4998ZM120.168 36.6698C120.215 36.7496 120.265 36.8278 120.312 36.9079C119.95 37.7445 119.838 38.7161 119.894 39.613C119.904 39.726 119.894 39.8243 119.894 39.9237H119.084L120.168 36.6698ZM416.535 36.7088L417.607 39.9255H417.326L416.23 37.7068C416.335 37.3753 416.439 37.0429 416.535 36.7088V36.7088ZM308.264 37.0213C308.264 37.5065 308.326 37.9926 308.4 38.4783C308.227 38.6114 308.058 38.7512 307.889 38.8904L306.863 38.4412C307.341 37.9786 307.802 37.4988 308.264 37.0213H308.264ZM332.197 37.0739L334.01 38.4606C332.746 38.7928 331.498 39.1822 330.273 39.6324C330.285 39.5296 330.289 39.4257 330.289 39.3278C330.289 39.016 330.27 38.4092 330.262 37.9216L332.197 37.0739ZM114.83 37.1755C114.316 38.0225 113.999 38.9537 113.773 39.9255H110.305L110.605 39.0252L114.83 37.1755ZM276.908 37.2753L278.217 39.9256H275.6L276.908 37.2753ZM141.303 37.3165L143.322 38.2012C143.322 38.3834 143.322 38.5645 143.332 38.7423C143.366 39.287 143.269 39.6585 143.092 39.9258H142.647L140.967 37.795C141.087 37.64 141.196 37.4794 141.303 37.3165H141.303ZM379.717 37.3966C379.935 38.2515 380.201 39.0936 380.5 39.9259H380.17C379.768 39.3426 379.345 38.7749 378.895 38.2306C379.169 37.9525 379.449 37.6807 379.717 37.3966H379.717ZM89.6093 37.5293L89.9258 38.5937C89.8778 38.8031 89.8253 39.011 89.7793 39.2207L89.0019 38.6269L89.6093 37.5293ZM329.898 38.082C329.787 38.7064 329.634 39.322 329.445 39.9258H328.713L328.121 38.8594L329.459 38.2734L329.898 38.082ZM342.826 38.203L341.959 39.7694L341.873 39.9255H341.537C341.654 39.4991 341.748 39.0721 341.82 38.6423L341.959 38.5818L342.826 38.203ZM16.3105 38.2332L19.3613 39.5691L19.4804 39.9267H14.2636L15.1582 39.1865L16.3105 38.2332ZM260.826 38.282L261.162 39.9265H260.588L259.307 38.9479L260.826 38.282ZM440.697 38.3288C440.709 38.4082 440.709 38.4861 440.716 38.5651C440.781 39.0248 440.876 39.4781 440.994 39.9244H440.163L440.697 38.3288ZM191.441 38.4831L191.732 38.694C191.829 39.1055 191.934 39.515 192.041 39.9244H191.238C191.336 39.4446 191.409 38.9641 191.441 38.483L191.441 38.4831ZM390.709 38.5133C390.604 38.9828 390.497 39.4522 390.401 39.9234H390.014L390.709 38.5133ZM346.902 38.5522H346.904L350.035 39.9233H346.838C346.896 39.7456 346.931 39.5506 346.902 39.31C346.872 39.0511 346.88 38.8 346.902 38.5522H346.902ZM226.725 38.7298L227.605 39.9232H226.064L226.725 38.7298ZM231.547 38.7298L232.428 39.9232H230.887L231.547 38.7298ZM182.621 38.8821L183.877 39.9212H181.977L182.027 39.6752C182.226 39.4117 182.423 39.1481 182.621 38.8842V38.8821ZM273.185 39.1067C273.151 39.3784 273.107 39.6488 273.078 39.9211H272.734L273.185 39.1067ZM171.025 39.1925L172.687 39.921H170.811C170.678 39.8761 170.549 39.8273 170.42 39.7785C170.622 39.5835 170.832 39.3968 171.025 39.1926V39.1925ZM395.996 39.1925L396.199 39.341C396.198 39.3145 396.199 39.2919 396.199 39.2669L396.674 39.9212H395.91L395.996 39.1925ZM139.59 39.2189C139.74 39.4555 139.9 39.6868 140.053 39.9221H138.668C138.986 39.7025 139.294 39.4674 139.59 39.2189ZM145.967 39.3557L146.613 39.6388L147.262 39.9219H145.654L145.967 39.3557ZM156.268 39.3898L156.395 39.9229H156.193C156.094 39.8613 155.998 39.7944 155.898 39.7354C156.02 39.619 156.146 39.5068 156.268 39.3896V39.3898ZM314.131 39.4484L314.228 39.9229H313.556L314.131 39.4484ZM257.852 39.581C257.974 39.6948 258.096 39.8093 258.219 39.9226H257.07L257.852 39.581ZM76.207 39.6037L76.4433 39.9238H76.0293L76.207 39.6037ZM81.0312 39.6037L81.2675 39.9238H80.8535L81.0312 39.6037ZM298.168 39.6056L298.402 39.9239H297.992L298.168 39.6056ZM377.555 39.6056L377.73 39.9239H377.32L377.555 39.6056ZM228.473 39.7425C228.433 39.8033 228.395 39.8649 228.355 39.9262H227.623C227.891 39.8506 228.183 39.7742 228.473 39.7425H228.473Z" fill="#274546"/>
</svg>
