<svg width="1332" height="228" viewBox="0 0 1332 228" fill="none" xmlns="http://www.w3.org/2000/svg">
<path d="M35 49.6H36V48.6H35V49.6ZM41.2 153L40.461 153.674L41.2 153ZM77.8 153L78.5282 153.685L77.8 153ZM84.2 49.6V48.6H83.2V49.6H84.2ZM118.4 49.6H119.4V48.6H118.4V49.6ZM110.4 165.2L111.252 165.724L110.4 165.2ZM88.8 184.8L88.3634 183.9L88.3582 183.903L88.8 184.8ZM29 185L28.5473 185.892L28.5555 185.896L28.5637 185.9L29 185ZM8.4 165.4L7.53336 165.899L7.5367 165.905L8.4 165.4ZM0.800001 49.6V48.6H-0.199999V49.6H0.800001ZM34 49.6L34 133.6H36L36 49.6H34ZM34 133.6C34 142.156 36.1062 148.897 40.461 153.674L41.939 152.326C38.0271 148.036 36 141.844 36 133.6H34ZM40.461 153.674C44.8372 158.473 51.2091 160.8 59.4 160.8V158.8C51.5909 158.8 45.8295 156.593 41.939 152.326L40.461 153.674ZM59.4 160.8C67.5927 160.8 74.0223 158.473 78.5282 153.685L77.0718 152.315C73.0444 156.594 67.2073 158.8 59.4 158.8V160.8ZM78.5282 153.685C83.023 148.91 85.2 142.164 85.2 133.6H83.2C83.2 141.836 81.1103 148.024 77.0718 152.315L78.5282 153.685ZM85.2 133.6L85.2 49.6H83.2L83.2 133.6H85.2ZM84.2 50.6H118.4V48.6H84.2V50.6ZM117.4 49.6L117.4 133.4H119.4L119.4 49.6H117.4ZM117.4 133.4C117.4 145.791 114.764 156.2 109.548 164.676L111.252 165.724C116.702 156.867 119.4 146.076 119.4 133.4H117.4ZM109.548 164.676C104.314 173.182 97.257 179.584 88.3634 183.9L89.2366 185.7C98.4763 181.216 105.82 174.551 111.252 165.724L109.548 164.676ZM88.3582 183.903C79.577 188.228 69.7307 190.4 58.8 190.4L58.8 192.4C70.0026 192.4 80.1564 190.172 89.2419 185.697L88.3582 183.903ZM58.8 190.4C47.8645 190.4 38.0834 188.293 29.4363 184.1L28.5637 185.9C37.5166 190.241 47.6022 192.4 58.8 192.4L58.8 190.4ZM29.4527 184.108C20.963 179.798 14.2364 173.402 9.2633 164.895L7.5367 165.905C12.6969 174.731 19.7036 181.402 28.5473 185.892L29.4527 184.108ZM9.26662 164.901C4.30562 156.285 1.8 145.799 1.8 133.4H-0.199999C-0.199999 146.068 2.36104 156.915 7.53338 165.899L9.26662 164.901ZM1.8 133.4L1.8 49.6H-0.199999L-0.199999 133.4H1.8ZM0.800001 50.6L35 50.6V48.6L0.800001 48.6V50.6ZM176.616 49.6H177.616V48.6H176.616V49.6ZM176.616 190V191H177.616V190H176.616ZM142.416 190H141.416V191H142.416V190ZM142.416 49.6V48.6H141.416V49.6H142.416ZM175.616 49.6L175.616 190H177.616L177.616 49.6H175.616ZM176.616 189H142.416V191H176.616V189ZM143.416 190L143.416 49.6H141.416L141.416 190H143.416ZM142.416 50.6H176.616V48.6H142.416V50.6ZM277.6 -9.53674e-06L278.573 0.229412L278.863 -1.00001H277.6V-9.53674e-06ZM224 227.4V228.4H224.792L224.973 227.629L224 227.4ZM191 227.4L190.027 227.171L189.737 228.4H191V227.4ZM244.6 -9.53674e-06V-1.00001H243.808L243.627 -0.229431L244.6 -9.53674e-06ZM276.627 -0.229431L223.027 227.171L224.973 227.629L278.573 0.229412L276.627 -0.229431ZM224 226.4H191V228.4H224V226.4ZM191.973 227.629L245.573 0.229412L243.627 -0.229431L190.027 227.171L191.973 227.629ZM244.6 0.99999L277.6 0.99999V-1.00001L244.6 -1.00001V0.99999ZM325.625 49.6H326.625V48.6H325.625V49.6ZM331.825 153L331.086 153.674L331.825 153ZM368.425 153L369.153 153.685L368.425 153ZM374.825 49.6V48.6H373.825V49.6H374.825ZM409.025 49.6H410.025V48.6H409.025V49.6ZM401.025 165.2L401.877 165.724L401.025 165.2ZM379.425 184.8L378.988 183.9L378.983 183.903L379.425 184.8ZM319.625 185L319.172 185.892L319.18 185.896L319.189 185.9L319.625 185ZM299.025 165.4L298.158 165.899L298.162 165.905L299.025 165.4ZM291.425 49.6V48.6H290.425V49.6H291.425ZM324.625 49.6V133.6H326.625V49.6H324.625ZM324.625 133.6C324.625 142.156 326.731 148.897 331.086 153.674L332.564 152.326C328.652 148.036 326.625 141.844 326.625 133.6H324.625ZM331.086 153.674C335.462 158.473 341.834 160.8 350.025 160.8V158.8C342.216 158.8 336.454 156.593 332.564 152.326L331.086 153.674ZM350.025 160.8C358.218 160.8 364.647 158.473 369.153 153.685L367.697 152.315C363.669 156.594 357.832 158.8 350.025 158.8V160.8ZM369.153 153.685C373.648 148.91 375.825 142.164 375.825 133.6H373.825C373.825 141.836 371.735 148.024 367.697 152.315L369.153 153.685ZM375.825 133.6V49.6H373.825V133.6H375.825ZM374.825 50.6L409.025 50.6V48.6L374.825 48.6V50.6ZM408.025 49.6V133.4H410.025V49.6H408.025ZM408.025 133.4C408.025 145.791 405.389 156.2 400.173 164.676L401.877 165.724C407.327 156.867 410.025 146.076 410.025 133.4H408.025ZM400.173 164.676C394.939 173.182 387.882 179.584 378.988 183.9L379.862 185.7C389.101 181.216 396.445 174.551 401.877 165.724L400.173 164.676ZM378.983 183.903C370.202 188.228 360.356 190.4 349.425 190.4V192.4C360.628 192.4 370.781 190.172 379.867 185.697L378.983 183.903ZM349.425 190.4C338.489 190.4 328.708 188.293 320.061 184.1L319.189 185.9C328.142 190.241 338.227 192.4 349.425 192.4V190.4ZM320.078 184.108C311.588 179.798 304.861 173.402 299.888 164.895L298.162 165.905C303.322 174.731 310.329 181.402 319.172 185.892L320.078 184.108ZM299.892 164.901C294.931 156.285 292.425 145.799 292.425 133.4H290.425C290.425 146.068 292.986 156.915 298.158 165.899L299.892 164.901ZM292.425 133.4V49.6H290.425V133.4H292.425ZM291.425 50.6L325.625 50.6V48.6L291.425 48.6V50.6ZM519.041 190L518.208 190.554L518.505 191H519.041V190ZM490.441 147L491.273 146.446L490.387 145.114L489.578 146.494L490.441 147ZM465.241 190V191H465.814L466.103 190.506L465.241 190ZM426.441 190L425.595 189.467L424.628 191H426.441V190ZM471.441 118.6L472.287 119.133L472.632 118.585L472.273 118.045L471.441 118.6ZM425.441 49.6V48.6H423.572L424.609 50.1547L425.441 49.6ZM465.241 49.6L466.073 49.0462L465.777 48.6H465.241V49.6ZM493.441 92L492.608 92.5538L493.495 93.8876L494.304 92.5049L493.441 92ZM518.241 49.6V48.6H517.667L517.377 49.0951L518.241 49.6ZM557.041 49.6L557.887 50.133L558.852 48.6H557.041V49.6ZM512.441 120.4L511.595 119.867L511.249 120.415L511.609 120.955L512.441 120.4ZM558.841 190V191H560.709L559.673 189.445L558.841 190ZM519.873 189.446L491.273 146.446L489.608 147.554L518.208 190.554L519.873 189.446ZM489.578 146.494L464.378 189.494L466.103 190.506L491.303 147.506L489.578 146.494ZM465.241 189L426.441 189V191L465.241 191V189ZM427.287 190.533L472.287 119.133L470.595 118.067L425.595 189.467L427.287 190.533ZM472.273 118.045L426.273 49.0453L424.609 50.1547L470.609 119.155L472.273 118.045ZM425.441 50.6H465.241V48.6H425.441V50.6ZM464.408 50.1538L492.608 92.5538L494.273 91.4462L466.073 49.0462L464.408 50.1538ZM494.304 92.5049L519.104 50.1049L517.377 49.0951L492.577 91.4951L494.304 92.5049ZM518.241 50.6H557.041V48.6H518.241V50.6ZM556.195 49.067L511.595 119.867L513.287 120.933L557.887 50.133L556.195 49.067ZM511.609 120.955L558.009 190.555L559.673 189.445L513.273 119.845L511.609 120.955ZM558.841 189H519.041V191H558.841V189ZM709.792 58.4L710.261 57.5165L709.792 58.4ZM735.392 83.2L734.521 83.6903L734.524 83.6967L734.528 83.7032L735.392 83.2ZM735.392 156.4L734.525 155.902L734.521 155.91L735.392 156.4ZM709.592 181.2L709.128 180.314L709.124 180.316L709.592 181.2ZM618.392 190H617.392V191H618.392V190ZM618.392 49.6V48.6H617.392V49.6H618.392ZM652.592 78.8V77.8L651.592 77.8V78.8L652.592 78.8ZM652.592 160.4H651.592V161.4H652.592V160.4ZM670.992 50.6C685.659 50.6 698.425 53.5061 709.324 59.2835L710.261 57.5165C699.026 51.5606 685.926 48.6 670.992 48.6V50.6ZM709.324 59.2835C720.225 65.0627 728.617 73.1947 734.521 83.6903L736.264 82.7097C730.168 71.872 721.492 63.4707 710.261 57.5165L709.324 59.2835ZM734.528 83.7032C740.561 94.0637 743.592 106.085 743.592 119.8H745.592C745.592 105.781 742.49 93.403 736.256 82.6968L734.528 83.7032ZM743.592 119.8C743.592 133.379 740.562 145.404 734.525 155.902L736.259 156.898C742.489 146.063 745.592 133.688 745.592 119.8H743.592ZM734.521 155.91C728.619 166.402 720.163 174.534 709.128 180.314L710.056 182.086C721.421 176.133 730.166 167.731 736.264 156.89L734.521 155.91ZM709.124 180.316C698.224 186.095 685.523 189 670.992 189V191C685.794 191 698.827 188.039 710.061 182.084L709.124 180.316ZM670.992 189H618.392V191H670.992V189ZM619.392 190V49.6H617.392V190H619.392ZM618.392 50.6L670.992 50.6V48.6L618.392 48.6V50.6ZM668.792 161.4C681.91 161.4 692.257 157.812 699.693 150.514L698.292 149.086C691.327 155.922 681.541 159.4 668.792 159.4V161.4ZM699.693 150.514C707.134 143.21 710.792 132.922 710.792 119.8H708.792C708.792 132.544 705.25 142.257 698.292 149.086L699.693 150.514ZM710.792 119.8C710.792 106.677 707.134 96.3277 699.699 88.8929L698.285 90.3071C705.25 97.2723 708.792 107.057 708.792 119.8H710.792ZM699.699 88.8929C692.265 81.4581 681.915 77.8 668.792 77.8V79.8C681.536 79.8 691.32 83.3419 698.285 90.3071L699.699 88.8929ZM668.792 77.8H652.592V79.8H668.792V77.8ZM651.592 78.8V160.4H653.592V78.8L651.592 78.8ZM652.592 161.4H668.792V159.4H652.592V161.4ZM797.905 77V76H796.905V77H797.905ZM797.905 105.4H796.905V106.4H797.905V105.4ZM843.705 105.4H844.705V104.4H843.705V105.4ZM843.705 131.8V132.8H844.705V131.8H843.705ZM797.905 131.8V130.8H796.905V131.8H797.905ZM797.905 162.6H796.905V163.6H797.905V162.6ZM849.705 162.6H850.705V161.6H849.705V162.6ZM849.705 190V191H850.705V190H849.705ZM763.705 190H762.705V191H763.705V190ZM763.705 49.6V48.6H762.705V49.6H763.705ZM849.705 49.6H850.705V48.6H849.705V49.6ZM849.705 77V78H850.705V77H849.705ZM796.905 77V105.4H798.905V77H796.905ZM797.905 106.4H843.705V104.4H797.905V106.4ZM842.705 105.4V131.8H844.705V105.4H842.705ZM843.705 130.8H797.905V132.8H843.705V130.8ZM796.905 131.8V162.6H798.905V131.8H796.905ZM797.905 163.6H849.705V161.6H797.905V163.6ZM848.705 162.6V190H850.705V162.6H848.705ZM849.705 189L763.705 189V191L849.705 191V189ZM764.705 190V49.6H762.705V190H764.705ZM763.705 50.6L849.705 50.6V48.6L763.705 48.6V50.6ZM848.705 49.6V77H850.705V49.6H848.705ZM849.705 76L797.905 76V78L849.705 78V76ZM895.108 186.4L894.729 187.325L895.108 186.4ZM875.508 171.6L874.702 172.192L874.71 172.203L875.508 171.6ZM867.908 148V147H866.878L866.908 148.029L867.908 148ZM904.308 148L905.303 147.898L905.211 147H904.308V148ZM909.708 160L909.034 160.738L909.042 160.747L909.052 160.755L909.708 160ZM933.708 160.6L934.319 161.391L934.33 161.383L934.341 161.374L933.708 160.6ZM934.508 142.2L933.801 142.907L933.811 142.917L933.821 142.927L934.508 142.2ZM925.908 136.6L925.505 137.515L925.512 137.518L925.518 137.521L925.908 136.6ZM911.508 131.6L911.213 132.556L911.222 132.558L911.508 131.6ZM889.308 123.2L888.869 124.099L889.308 123.2ZM874.508 110.8L875.305 110.197L874.508 110.8ZM882.508 58.8L883.12 59.5906L883.127 59.5852L882.508 58.8ZM956.908 58.8L956.289 59.5852L956.295 59.5905L956.908 58.8ZM972.108 89.6V90.6H973.16L973.107 89.5496L972.108 89.6ZM935.108 89.6L934.11 89.6587L934.165 90.6H935.108V89.6ZM930.108 79L929.452 79.7546L929.461 79.7629L929.471 79.771L930.108 79ZM908.308 78.4L908.952 79.1649L908.963 79.1552L908.975 79.1452L908.308 78.4ZM910.908 98.4L911.418 97.5401L910.908 98.4ZM930.908 106.6L931.228 105.653L931.216 105.649L930.908 106.6ZM952.908 115.4L952.461 116.294L952.469 116.299L952.908 115.4ZM967.708 127.6L966.917 128.213L967.708 127.6ZM967.708 170L966.863 169.465L966.859 169.472L966.855 169.478L967.708 170ZM950.108 185.6L949.661 184.706L950.108 185.6ZM922.708 190.4C912.55 190.4 903.482 188.751 895.487 185.475L894.729 187.325C903.001 190.716 912.333 192.4 922.708 192.4V190.4ZM895.487 185.475C887.507 182.204 881.123 177.377 876.306 170.997L874.71 172.203C879.759 178.89 886.442 183.929 894.729 187.325L895.487 185.475ZM876.314 171.008C871.65 164.66 869.169 156.996 868.907 147.971L866.908 148.029C867.18 157.404 869.766 165.474 874.702 172.192L876.314 171.008ZM867.908 149H904.308V147H867.908V149ZM903.313 148.102C903.865 153.481 905.742 157.733 909.034 160.738L910.382 159.262C907.54 156.667 905.818 152.919 905.303 147.898L903.313 148.102ZM909.052 160.755C912.337 163.612 916.587 165 921.708 165V163C916.962 163 913.212 161.722 910.364 159.245L909.052 160.755ZM921.708 165C926.916 165 931.156 163.835 934.319 161.391L933.096 159.809C930.392 161.898 926.633 163 921.708 163V165ZM934.341 161.374C937.529 158.765 939.108 155.202 939.108 150.8H937.108C937.108 154.664 935.753 157.635 933.075 159.826L934.341 161.374ZM939.108 150.8C939.108 147.074 937.805 143.939 935.194 141.473L933.821 142.927C936.01 144.994 937.108 147.593 937.108 150.8H939.108ZM935.215 141.493C932.843 139.121 929.862 137.187 926.297 135.679L925.518 137.521C928.887 138.946 931.64 140.746 933.801 142.907L935.215 141.493ZM926.311 135.685C922.92 134.193 918.074 132.512 911.793 130.642L911.222 132.558C917.475 134.421 922.229 136.074 925.505 137.515L926.311 135.685ZM911.803 130.645C902.764 127.853 895.417 125.071 889.747 122.301L888.869 124.099C894.665 126.929 902.118 129.747 911.213 132.555L911.803 130.645ZM889.747 122.301C884.165 119.575 879.351 115.548 875.305 110.197L873.71 111.403C877.931 116.986 882.984 121.225 888.869 124.099L889.747 122.301ZM875.305 110.197C871.337 104.948 869.308 98.0446 869.308 89.4H867.308C867.308 98.3554 869.412 105.719 873.71 111.403L875.305 110.197ZM869.308 89.4C869.308 76.6102 873.923 66.7155 883.12 59.5905L881.895 58.0094C872.16 65.5512 867.308 76.0565 867.308 89.4H869.308ZM883.127 59.5852C892.376 52.2906 904.473 48.6 919.508 48.6V46.6C904.143 46.6 891.573 50.3761 881.889 58.0148L883.127 59.5852ZM919.508 48.6C934.814 48.6 947.043 52.2929 956.289 59.5852L957.527 58.0148C947.839 50.3738 935.135 46.6 919.508 46.6V48.6ZM956.295 59.5905C965.506 66.7255 970.455 76.7077 971.109 89.6504L973.107 89.5496C972.427 76.0923 967.243 65.5412 957.52 58.0094L956.295 59.5905ZM972.108 88.6H935.108V90.6H972.108V88.6ZM936.106 89.5413C935.826 84.7738 934.057 80.9651 930.745 78.229L929.471 79.771C932.292 82.1016 933.857 85.3595 934.11 89.6587L936.106 89.5413ZM930.764 78.2454C927.483 75.3927 923.303 74 918.308 74V76C922.913 76 926.599 77.274 929.452 79.7546L930.764 78.2454ZM918.308 74C913.984 74 910.395 75.1903 907.641 77.6548L908.975 79.1452C911.287 77.0763 914.365 76 918.308 76V74ZM907.664 77.6351C904.85 80.0043 903.508 83.4512 903.508 87.8H905.508C905.508 83.8821 906.699 81.0624 908.952 79.1649L907.664 77.6351ZM903.508 87.8C903.508 92.7248 905.862 96.5669 910.397 99.2598L911.418 97.5401C907.42 95.1664 905.508 91.9419 905.508 87.8H903.508ZM910.397 99.2598C914.762 101.852 921.515 104.612 930.6 107.551L931.216 105.649C922.168 102.721 915.587 100.015 911.418 97.5401L910.397 99.2598ZM930.587 107.547C939.631 110.606 946.917 113.523 952.461 116.294L953.355 114.506C947.699 111.677 940.318 108.727 931.228 105.653L930.587 107.547ZM952.469 116.299C958.057 119.028 962.872 122.993 966.917 128.213L968.498 126.987C964.277 121.54 959.225 117.372 953.347 114.501L952.469 116.299ZM966.917 128.213C970.884 133.331 972.908 139.966 972.908 148.2H974.908C974.908 139.634 972.798 132.535 968.498 126.987L966.917 128.213ZM972.908 148.2C972.908 156.018 970.891 163.098 966.863 169.465L968.553 170.535C972.791 163.836 974.908 156.382 974.908 148.2H972.908ZM966.855 169.478C962.965 175.832 957.249 180.912 949.661 184.706L950.555 186.494C958.434 182.555 964.451 177.235 968.561 170.522L966.855 169.478ZM949.661 184.706C942.093 188.489 933.119 190.4 922.708 190.4V192.4C933.363 192.4 942.656 190.444 950.555 186.494L949.661 184.706ZM1029.15 49.6H1030.15V48.6H1029.15V49.6ZM1029.15 190V191H1030.15V190H1029.15ZM994.955 190H993.955V191H994.955V190ZM994.955 49.6V48.6H993.955V49.6H994.955ZM1028.15 49.6V190H1030.15V49.6H1028.15ZM1029.15 189H994.955V191H1029.15V189ZM995.955 190V49.6H993.955V190H995.955ZM994.955 50.6L1029.15 50.6V48.6L994.955 48.6V50.6ZM1147.14 94L1146.26 94.4771L1146.54 95H1147.14V94ZM1136.14 83.4L1135.66 84.2788L1135.68 84.2869L1135.69 84.2944L1136.14 83.4ZM1092.94 90.6L1093.67 91.2794L1093.68 91.2727L1092.94 90.6ZM1093.34 150L1092.61 150.687L1092.62 150.694L1092.63 150.7L1093.34 150ZM1143.54 154.4L1142.95 153.591L1142.94 153.598L1143.54 154.4ZM1156.34 136L1157.29 136.316L1157.73 135H1156.34V136ZM1112.94 136H1111.94V137H1112.94V136ZM1112.94 110.8V109.8H1111.94V110.8H1112.94ZM1187.34 110.8H1188.34V109.8H1187.34V110.8ZM1187.34 142.6L1188.3 142.885L1188.34 142.745V142.6H1187.34ZM1174.34 166.4L1173.57 165.758L1173.57 165.767L1174.34 166.4ZM1151.34 184.2L1150.9 183.3L1151.34 184.2ZM1082.54 182L1082.05 182.87L1082.05 182.873L1082.06 182.877L1082.54 182ZM1057.14 156.6L1056.26 157.086L1056.27 157.094L1057.14 156.6ZM1057.14 82.6L1056.27 82.1107L1056.26 82.1144L1057.14 82.6ZM1082.54 57.2L1083.02 58.0742L1083.03 58.0696L1082.54 57.2ZM1161.94 60.2L1161.36 61.0157L1161.36 61.0188L1161.94 60.2ZM1184.94 94V95H1186.23L1185.91 93.749L1184.94 94ZM1148.02 93.5229C1145.39 88.6741 1141.57 84.9961 1136.59 82.5056L1135.69 84.2944C1140.31 86.6039 1143.83 89.9925 1146.26 94.4771L1148.02 93.5229ZM1136.62 82.5211C1131.78 79.8935 1126.07 78.6 1119.54 78.6V80.6C1125.81 80.6 1131.17 81.8398 1135.66 84.2788L1136.62 82.5211ZM1119.54 78.6C1108.23 78.6 1099.08 82.3599 1092.2 89.9273L1093.68 91.2727C1100.13 84.1734 1108.72 80.6 1119.54 80.6V78.6ZM1092.21 89.9206C1085.33 97.3466 1081.94 107.277 1081.94 119.6H1083.94C1083.94 107.656 1087.22 98.2533 1093.67 91.2794L1092.21 89.9206ZM1081.94 119.6C1081.94 132.714 1085.46 143.12 1092.61 150.687L1094.07 149.313C1087.35 142.213 1083.94 132.353 1083.94 119.6H1081.94ZM1092.63 150.7C1099.92 158.132 1109.87 161.8 1122.34 161.8V159.8C1110.28 159.8 1100.89 156.268 1094.05 149.3L1092.63 150.7ZM1122.34 161.8C1130.92 161.8 1138.2 159.619 1144.14 155.202L1142.94 153.598C1137.41 157.715 1130.56 159.8 1122.34 159.8V161.8ZM1144.13 155.209C1150.19 150.8 1154.57 144.481 1157.29 136.316L1155.39 135.684C1152.78 143.519 1148.62 149.466 1142.95 153.591L1144.13 155.209ZM1156.34 135L1112.94 135V137L1156.34 137V135ZM1113.94 136V110.8H1111.94V136H1113.94ZM1112.94 111.8L1187.34 111.8V109.8L1112.94 109.8V111.8ZM1186.34 110.8V142.6H1188.34V110.8H1186.34ZM1186.38 142.315C1183.89 150.708 1179.62 158.522 1173.57 165.758L1175.11 167.042C1181.32 159.611 1185.72 151.558 1188.3 142.885L1186.38 142.315ZM1173.57 165.767C1167.67 172.978 1160.12 178.824 1150.9 183.3L1151.78 185.1C1161.23 180.509 1169.01 174.489 1175.11 167.033L1173.57 165.767ZM1150.9 183.3C1141.72 187.76 1131.34 190 1119.74 190V192C1131.6 192 1142.29 189.707 1151.78 185.1L1150.9 183.3ZM1119.74 190C1106.02 190 1093.79 187.034 1083.02 181.123L1082.06 182.877C1093.15 188.966 1105.72 192 1119.74 192V190ZM1083.03 181.13C1072.39 175.086 1064.05 166.749 1058.01 156.106L1056.27 157.094C1062.49 168.051 1071.09 176.647 1082.05 182.87L1083.03 181.13ZM1058.01 156.114C1052.11 145.48 1049.14 133.318 1049.14 119.6H1047.14C1047.14 133.615 1050.17 146.12 1056.26 157.086L1058.01 156.114ZM1049.14 119.6C1049.14 105.882 1052.11 93.7196 1058.01 83.0856L1056.26 82.1144C1050.17 93.0804 1047.14 105.585 1047.14 119.6H1049.14ZM1058.01 83.0892C1064.06 72.315 1072.39 63.9828 1083.02 58.0742L1082.05 56.3258C1071.09 62.4172 1062.49 71.0183 1056.27 82.1107L1058.01 83.0892ZM1083.03 58.0696C1093.67 52.0313 1105.82 49 1119.54 49V47C1105.52 47 1093.01 50.102 1082.05 56.3304L1083.03 58.0696ZM1119.54 49C1136.17 49 1150.09 53.0241 1161.36 61.0156L1162.52 59.3843C1150.85 51.1092 1136.51 47 1119.54 47V49ZM1161.36 61.0188C1172.76 69.0084 1180.29 80.0685 1183.97 94.251L1185.91 93.749C1182.12 79.1315 1174.32 67.6582 1162.51 59.3812L1161.36 61.0188ZM1184.94 93L1147.14 93V95L1184.94 95V93ZM1331.88 190V191H1332.88V190H1331.88ZM1297.68 190L1296.85 190.551L1297.14 191H1297.68V190ZM1240.48 103.4L1241.32 102.849L1239.48 100.072V103.4H1240.48ZM1240.48 190V191H1241.48V190H1240.48ZM1206.28 190H1205.28V191H1206.28V190ZM1206.28 49.6V48.6H1205.28V49.6H1206.28ZM1240.48 49.6L1241.32 49.0506L1241.02 48.6H1240.48V49.6ZM1297.68 136.6L1296.85 137.149L1298.68 139.941V136.6H1297.68ZM1297.68 49.6V48.6H1296.68V49.6H1297.68ZM1331.88 49.6H1332.88V48.6H1331.88V49.6ZM1331.88 189L1297.68 189V191L1331.88 191V189ZM1298.52 189.449L1241.32 102.849L1239.65 103.951L1296.85 190.551L1298.52 189.449ZM1239.48 103.4V190H1241.48V103.4H1239.48ZM1240.48 189H1206.28V191H1240.48V189ZM1207.28 190V49.6H1205.28V190H1207.28ZM1206.28 50.6H1240.48V48.6H1206.28V50.6ZM1239.65 50.1494L1296.85 137.149L1298.52 136.051L1241.32 49.0506L1239.65 50.1494ZM1298.68 136.6V49.6H1296.68V136.6H1298.68ZM1297.68 50.6H1331.88V48.6H1297.68V50.6ZM1330.88 49.6V190H1332.88V49.6H1330.88Z" fill="#274546" fill-opacity="0.2"/>
</svg>
