<svg width="1541" height="145" viewBox="0 0 1541 145" fill="none" xmlns="http://www.w3.org/2000/svg">
<path d="M91.8 2.6H92.8V1.6H91.8V2.6ZM91.8 30V31H92.8V30H91.8ZM34.6 30V29H33.6V30H34.6ZM34.6 59.6H33.6V60.6H34.6V59.6ZM77.4 59.6H78.4V58.6H77.4V59.6ZM77.4 86.2V87.2H78.4V86.2H77.4ZM34.6 86.2V85.2H33.6V86.2H34.6ZM34.6 143V144H35.6V143H34.6ZM0.400001 143H-0.599999V144H0.400001V143ZM0.400001 2.6V1.6H-0.599999V2.6H0.400001ZM90.8 2.6V30H92.8V2.6H90.8ZM91.8 29H34.6V31H91.8V29ZM33.6 30L33.6 59.6H35.6L35.6 30H33.6ZM34.6 60.6L77.4 60.6V58.6L34.6 58.6V60.6ZM76.4 59.6V86.2H78.4V59.6H76.4ZM77.4 85.2L34.6 85.2V87.2L77.4 87.2V85.2ZM33.6 86.2L33.6 143H35.6L35.6 86.2H33.6ZM34.6 142H0.400001V144H34.6V142ZM1.4 143L1.4 2.6H-0.599999L-0.599999 143H1.4ZM0.400001 3.6L91.8 3.6V1.6L0.400001 1.6V3.6ZM181.375 143L180.499 143.483L180.784 144H181.375V143ZM152.175 90L153.051 89.5174L152.766 89H152.175V90ZM143.975 90V89H142.975V90H143.975ZM143.975 143V144H144.975V143H143.975ZM109.775 143H108.775L108.775 144H109.775L109.775 143ZM109.775 2.6V1.6H108.775V2.6H109.775ZM195.375 8.39999L194.928 9.29444L194.934 9.29744L195.375 8.39999ZM212.975 24.4L212.106 24.8943L212.11 24.9017L212.975 24.4ZM210.775 71.8L209.966 71.2118L209.959 71.2216L210.775 71.8ZM187.575 87.4L187.289 86.4418L186.071 86.8055L186.711 87.9035L187.575 87.4ZM219.975 143V144H221.715L220.839 142.497L219.975 143ZM143.975 65.8H142.975V66.8H143.975V65.8ZM179.175 61.2L178.483 60.478L178.475 60.4854L178.468 60.4929L179.175 61.2ZM179.175 35.6L178.468 36.3071L178.475 36.3146L178.483 36.322L179.175 35.6ZM143.975 31V30H142.975V31H143.975ZM182.251 142.517L153.051 89.5174L151.299 90.4825L180.499 143.483L182.251 142.517ZM152.175 89H143.975V91H152.175V89ZM142.975 90V143H144.975V90H142.975ZM143.975 142H109.775L109.775 144H143.975V142ZM110.775 143L110.775 2.6H108.775L108.775 143H110.775ZM109.775 3.6L167.175 3.6V1.6L109.775 1.6V3.6ZM167.175 3.6C178.129 3.6 187.367 5.51385 194.928 9.29442L195.822 7.50557C187.917 3.55281 178.355 1.6 167.175 1.6V3.6ZM194.934 9.29744C202.643 13.0867 208.35 18.2892 212.106 24.8943L213.844 23.9057C209.867 16.9108 203.84 11.4466 195.816 7.50254L194.934 9.29744ZM212.11 24.9017C215.882 31.4049 217.775 38.6963 217.775 46.8H219.775C219.775 38.3704 217.802 30.7284 213.84 23.8983L212.11 24.9017ZM217.775 46.8C217.775 55.9286 215.171 64.0547 209.966 71.2118L211.584 72.3882C217.045 64.8786 219.775 56.338 219.775 46.8H217.775ZM209.959 71.2216C204.912 78.3396 197.384 83.4264 187.289 86.4418L187.861 88.3582C198.299 85.2403 206.238 79.9271 211.591 72.3784L209.959 71.2216ZM186.711 87.9035L219.111 143.503L220.839 142.497L188.439 86.8965L186.711 87.9035ZM219.975 142H181.375V144H219.975V142ZM143.975 66.8H165.175V64.8H143.975V66.8ZM165.175 66.8C171.589 66.8 176.558 65.231 179.882 61.9071L178.468 60.4929C175.659 63.3023 171.295 64.8 165.175 64.8V66.8ZM179.867 61.922C183.313 58.6198 184.975 53.9965 184.975 48.2H182.975C182.975 53.6035 181.437 57.6468 178.483 60.478L179.867 61.922ZM184.975 48.2C184.975 42.6537 183.303 38.1709 179.867 34.878L178.483 36.322C181.447 39.1624 182.975 43.0796 182.975 48.2H184.975ZM179.882 34.8929C176.558 31.569 171.589 30 165.175 30V32C171.295 32 175.659 33.4977 178.468 36.3071L179.882 34.8929ZM165.175 30H143.975V32H165.175V30ZM142.975 31V65.8H144.975V31H142.975ZM270.244 135.2L269.754 136.072L269.759 136.075L270.244 135.2ZM244.044 109.6L243.178 110.101L243.182 110.107L243.185 110.113L244.044 109.6ZM244.044 35.4L243.185 34.887L243.181 34.8948L244.044 35.4ZM270.244 9.8L269.759 8.92533L269.755 8.92786L270.244 9.8ZM342.844 9.8L342.355 10.6722L342.359 10.6747L342.844 9.8ZM368.844 35.4L367.976 35.8973L367.981 35.9052L368.844 35.4ZM368.844 109.6L369.707 110.105L369.709 110.101L368.844 109.6ZM342.844 135.2L343.333 136.072L343.333 136.072L342.844 135.2ZM333.444 102L332.704 101.327L332.698 101.334L333.444 102ZM333.444 42.8L332.698 43.466L332.704 43.473L332.71 43.4799L333.444 42.8ZM279.444 42.6L278.71 41.92L278.704 41.9273L279.444 42.6ZM279.444 102.2L278.698 102.866L278.704 102.873L278.71 102.88L279.444 102.2ZM306.644 143.4C293.606 143.4 281.64 140.373 270.729 134.325L269.759 136.075C280.981 142.294 293.282 145.4 306.644 145.4V143.4ZM270.733 134.328C259.955 128.281 251.347 119.873 244.902 109.087L243.185 110.113C249.807 121.194 258.666 129.852 269.755 136.072L270.733 134.328ZM244.909 109.099C238.604 98.1961 235.444 85.971 235.444 72.4H233.444C233.444 86.2956 236.684 98.8705 243.178 110.101L244.909 109.099ZM235.444 72.4C235.444 58.8288 238.604 46.6725 244.907 35.9052L243.181 34.8948C236.684 45.9942 233.444 58.5045 233.444 72.4H235.444ZM244.902 35.9129C251.347 25.127 259.955 16.7186 270.733 10.6721L269.755 8.92786C258.666 15.1481 249.807 23.8063 243.185 34.887L244.902 35.9129ZM270.729 10.6747C281.64 4.62715 293.606 1.6 306.644 1.6V-0.400002C293.282 -0.400002 280.981 2.70618 269.759 8.92534L270.729 10.6747ZM306.644 1.6C319.682 1.6 331.579 4.62712 342.355 10.6721L343.333 8.92786C332.242 2.7062 320.006 -0.400002 306.644 -0.400002V1.6ZM342.359 10.6747C353.267 16.7199 361.801 25.123 367.976 35.8973L369.711 34.9027C363.354 23.8103 354.554 15.1468 343.329 8.92534L342.359 10.6747ZM367.981 35.9052C374.284 46.6725 377.444 58.8288 377.444 72.4H379.444C379.444 58.5045 376.204 45.9942 369.707 34.8948L367.981 35.9052ZM377.444 72.4C377.444 85.971 374.284 98.1961 367.978 109.099L369.709 110.101C376.204 98.8705 379.444 86.2956 379.444 72.4H377.444ZM367.981 109.095C361.67 119.877 353.131 128.282 342.355 134.328L343.333 136.072C354.423 129.851 363.218 121.19 369.707 110.105L367.981 109.095ZM342.355 134.328C331.579 140.373 319.682 143.4 306.644 143.4V145.4C320.006 145.4 332.242 142.294 343.333 136.072L342.355 134.328ZM306.644 114.2C318.091 114.2 327.31 110.372 334.19 102.666L332.698 101.334C326.245 108.562 317.597 112.2 306.644 112.2V114.2ZM334.183 102.673C341.185 94.9848 344.644 84.8595 344.644 72.4H342.644C342.644 84.4738 339.302 94.0819 332.704 101.327L334.183 102.673ZM344.644 72.4C344.644 59.8112 341.187 49.68 334.177 42.1201L332.71 43.4799C339.3 50.5866 342.644 60.1888 342.644 72.4H344.644ZM334.19 42.134C327.31 34.4282 318.091 30.6 306.644 30.6V32.6C317.597 32.6 326.245 36.2384 332.698 43.466L334.19 42.134ZM306.644 30.6C295.073 30.6 285.726 34.3545 278.71 41.9201L280.177 43.2799C286.762 36.1788 295.548 32.6 306.644 32.6V30.6ZM278.704 41.9273C271.829 49.4897 268.444 59.6862 268.444 72.4H270.444C270.444 60.0471 273.725 50.377 280.184 43.2727L278.704 41.9273ZM268.444 72.4C268.444 84.9846 271.831 95.1751 278.698 102.866L280.19 101.534C273.723 94.2915 270.444 84.6154 270.444 72.4H268.444ZM278.71 102.88C285.726 110.446 295.073 114.2 306.644 114.2V112.2C295.548 112.2 286.762 108.621 280.177 101.52L278.71 102.88ZM523.07 143V144H524.07V143H523.07ZM488.87 143L488.036 143.551L488.332 144H488.87V143ZM431.67 56.4L432.505 55.8489L430.67 53.0716V56.4H431.67ZM431.67 143V144H432.67V143H431.67ZM397.47 143H396.47V144H397.47V143ZM397.47 2.6V1.6H396.47V2.6H397.47ZM431.67 2.6L432.506 2.05063L432.21 1.6H431.67V2.6ZM488.87 89.6L488.035 90.1494L489.87 92.9412V89.6H488.87ZM488.87 2.6V1.6H487.87V2.6H488.87ZM523.07 2.6H524.07V1.6H523.07V2.6ZM523.07 142H488.87V144H523.07V142ZM489.705 142.449L432.505 55.8489L430.836 56.9511L488.036 143.551L489.705 142.449ZM430.67 56.4L430.67 143H432.67L432.67 56.4H430.67ZM431.67 142L397.47 142V144L431.67 144V142ZM398.47 143L398.47 2.6H396.47L396.47 143H398.47ZM397.47 3.6H431.67V1.6H397.47V3.6ZM430.835 3.14937L488.035 90.1494L489.706 89.0506L432.506 2.05063L430.835 3.14937ZM489.87 89.6V2.6H487.87V89.6H489.87ZM488.87 3.6H523.07V1.6H488.87V3.6ZM522.07 2.6V143H524.07V2.6H522.07ZM648.861 2.6H649.861V1.6H648.861V2.6ZM648.861 30V31H649.861V30H648.861ZM611.661 30V29H610.661V30H611.661ZM611.661 143V144H612.661V143H611.661ZM577.461 143H576.461V144H577.461V143ZM577.461 30H578.461V29H577.461V30ZM540.261 30H539.261V31H540.261V30ZM540.261 2.6V1.6H539.261V2.6H540.261ZM647.861 2.6V30H649.861V2.6H647.861ZM648.861 29H611.661V31H648.861V29ZM610.661 30V143H612.661V30H610.661ZM611.661 142L577.461 142V144L611.661 144V142ZM578.461 143V30H576.461V143H578.461ZM577.461 29L540.261 29V31L577.461 31V29ZM541.261 30V2.6H539.261V30H541.261ZM540.261 3.6L648.861 3.6V1.6L540.261 1.6V3.6ZM742.608 30V29H741.608V30H742.608ZM742.608 58.4H741.608V59.4H742.608V58.4ZM788.408 58.4H789.408V57.4H788.408V58.4ZM788.408 84.8V85.8H789.408V84.8H788.408ZM742.608 84.8V83.8H741.608V84.8H742.608ZM742.608 115.6H741.608V116.6H742.608V115.6ZM794.408 115.6H795.408V114.6H794.408V115.6ZM794.408 143V144H795.408V143H794.408ZM708.408 143H707.408V144H708.408V143ZM708.408 2.6V1.6H707.408V2.6H708.408ZM794.408 2.6H795.408V1.6H794.408V2.6ZM794.408 30V31H795.408V30H794.408ZM741.608 30V58.4H743.608V30H741.608ZM742.608 59.4L788.408 59.4V57.4L742.608 57.4V59.4ZM787.408 58.4V84.8H789.408V58.4H787.408ZM788.408 83.8L742.608 83.8V85.8L788.408 85.8V83.8ZM741.608 84.8V115.6H743.608V84.8H741.608ZM742.608 116.6L794.408 116.6V114.6L742.608 114.6V116.6ZM793.408 115.6V143H795.408V115.6H793.408ZM794.408 142L708.408 142V144L794.408 144V142ZM709.408 143V2.6H707.408V143H709.408ZM708.408 3.6L794.408 3.6V1.6L708.408 1.6V3.6ZM793.408 2.6V30H795.408V2.6H793.408ZM794.408 29H742.608V31H794.408V29ZM942.211 143V144H943.211V143H942.211ZM908.011 143L907.177 143.551L907.473 144H908.011V143ZM850.811 56.4L851.645 55.8489L849.811 53.0716V56.4H850.811ZM850.811 143V144H851.811V143H850.811ZM816.611 143H815.611V144H816.611V143ZM816.611 2.6V1.6H815.611V2.6H816.611ZM850.811 2.6L851.647 2.05063L851.35 1.6H850.811V2.6ZM908.011 89.6L907.175 90.1494L909.011 92.9412V89.6H908.011ZM908.011 2.6V1.6H907.011V2.6H908.011ZM942.211 2.6H943.211V1.6H942.211V2.6ZM942.211 142H908.011V144H942.211V142ZM908.845 142.449L851.645 55.8489L849.977 56.9511L907.177 143.551L908.845 142.449ZM849.811 56.4V143H851.811V56.4H849.811ZM850.811 142H816.611V144H850.811V142ZM817.611 143V2.6H815.611V143H817.611ZM816.611 3.6L850.811 3.6V1.6L816.611 1.6V3.6ZM849.975 3.14937L907.175 90.1494L908.847 89.0506L851.647 2.05063L849.975 3.14937ZM909.011 89.6V2.6H907.011V89.6H909.011ZM908.011 3.6L942.211 3.6V1.6L908.011 1.6V3.6ZM941.211 2.6V143H943.211V2.6H941.211ZM1058.4 11.4L1058.87 10.5165L1058.87 10.5165L1058.4 11.4ZM1084 36.2L1083.13 36.6903L1083.13 36.6967L1083.14 36.7032L1084 36.2ZM1084 109.4L1083.13 108.902L1083.13 108.91L1084 109.4ZM1058.2 134.2L1057.74 133.314L1057.73 133.316L1058.2 134.2ZM967.002 143H966.002V144H967.002V143ZM967.002 2.6V1.6H966.002V2.6H967.002ZM1001.2 31.8V30.8H1000.2V31.8H1001.2ZM1001.2 113.4H1000.2V114.4H1001.2V113.4ZM1019.6 3.6C1034.27 3.6 1047.03 6.5061 1057.93 12.2835L1058.87 10.5165C1047.63 4.56055 1034.54 1.6 1019.6 1.6V3.6ZM1057.93 12.2835C1068.83 18.0627 1077.23 26.1947 1083.13 36.6903L1084.87 35.7097C1078.78 24.872 1070.1 16.4707 1058.87 10.5165L1057.93 12.2835ZM1083.14 36.7032C1089.17 47.0637 1092.2 59.0853 1092.2 72.8H1094.2C1094.2 58.7813 1091.1 46.403 1084.87 35.6968L1083.14 36.7032ZM1092.2 72.8C1092.2 86.3792 1089.17 98.4036 1083.13 108.902L1084.87 109.898C1091.1 99.0631 1094.2 86.6875 1094.2 72.8H1092.2ZM1083.13 108.91C1077.23 119.402 1068.77 127.534 1057.74 133.314L1058.67 135.086C1070.03 129.133 1078.78 120.731 1084.87 109.89L1083.13 108.91ZM1057.73 133.316C1046.83 139.095 1034.13 142 1019.6 142V144C1034.4 144 1047.44 141.039 1058.67 135.084L1057.73 133.316ZM1019.6 142H967.002V144H1019.6V142ZM968.002 143V2.6H966.002V143H968.002ZM967.002 3.6L1019.6 3.6V1.6L967.002 1.6V3.6ZM1017.4 114.4C1030.52 114.4 1040.87 110.812 1048.3 103.514L1046.9 102.086C1039.94 108.922 1030.15 112.4 1017.4 112.4V114.4ZM1048.3 103.514C1055.74 96.2098 1059.4 85.9223 1059.4 72.8H1057.4C1057.4 85.5444 1053.86 95.2569 1046.9 102.086L1048.3 103.514ZM1059.4 72.8C1059.4 59.6767 1055.74 49.3277 1048.31 41.8929L1046.89 43.3071C1053.86 50.2723 1057.4 60.0566 1057.4 72.8H1059.4ZM1048.31 41.8929C1040.87 34.4581 1030.52 30.8 1017.4 30.8V32.8C1030.14 32.8 1039.93 36.3419 1046.89 43.3071L1048.31 41.8929ZM1017.4 30.8L1001.2 30.8V32.8L1017.4 32.8V30.8ZM1000.2 31.8V113.4H1002.2V31.8H1000.2ZM1001.2 114.4H1017.4V112.4H1001.2V114.4ZM1246.1 11.4L1246.57 10.5165L1246.57 10.5165L1246.1 11.4ZM1271.7 36.2L1270.83 36.6903L1270.83 36.6967L1270.83 36.7032L1271.7 36.2ZM1271.7 109.4L1270.83 108.902L1270.83 108.91L1271.7 109.4ZM1245.9 134.2L1245.43 133.314L1245.43 133.316L1245.9 134.2ZM1154.7 143H1153.7V144H1154.7V143ZM1154.7 2.6V1.6H1153.7V2.6H1154.7ZM1188.9 31.8V30.8H1187.9V31.8H1188.9ZM1188.9 113.4H1187.9V114.4H1188.9V113.4ZM1207.3 3.6C1221.96 3.6 1234.73 6.5061 1245.63 12.2835L1246.57 10.5165C1235.33 4.56055 1222.23 1.6 1207.3 1.6V3.6ZM1245.63 12.2835C1256.53 18.0627 1264.92 26.1947 1270.83 36.6903L1272.57 35.7097C1266.47 24.872 1257.8 16.4707 1246.57 10.5165L1245.63 12.2835ZM1270.83 36.7032C1276.87 47.0637 1279.9 59.0853 1279.9 72.8H1281.9C1281.9 58.7813 1278.8 46.403 1272.56 35.6968L1270.83 36.7032ZM1279.9 72.8C1279.9 86.3792 1276.87 98.4036 1270.83 108.902L1272.56 109.898C1278.79 99.0631 1281.9 86.6875 1281.9 72.8H1279.9ZM1270.83 108.91C1264.92 119.402 1256.47 127.534 1245.43 133.314L1246.36 135.086C1257.73 129.133 1266.47 120.731 1272.57 109.89L1270.83 108.91ZM1245.43 133.316C1234.53 139.095 1221.83 142 1207.3 142V144C1222.1 144 1235.13 141.039 1246.37 135.084L1245.43 133.316ZM1207.3 142H1154.7V144H1207.3V142ZM1155.7 143V2.6H1153.7V143H1155.7ZM1154.7 3.6L1207.3 3.6V1.6L1154.7 1.6V3.6ZM1205.1 114.4C1218.22 114.4 1228.56 110.812 1236 103.514L1234.6 102.086C1227.63 108.922 1217.85 112.4 1205.1 112.4V114.4ZM1236 103.514C1243.44 96.2098 1247.1 85.9223 1247.1 72.8H1245.1C1245.1 85.5444 1241.55 95.2569 1234.6 102.086L1236 103.514ZM1247.1 72.8C1247.1 59.6767 1243.44 49.3277 1236 41.8929L1234.59 43.3071C1241.55 50.2723 1245.1 60.0566 1245.1 72.8H1247.1ZM1236 41.8929C1228.57 34.4581 1218.22 30.8 1205.1 30.8V32.8C1217.84 32.8 1227.62 36.3419 1234.59 43.3071L1236 41.8929ZM1205.1 30.8H1188.9V32.8H1205.1V30.8ZM1187.9 31.8V113.4H1189.9V31.8H1187.9ZM1188.9 114.4H1205.1V112.4H1188.9V114.4ZM1334.21 30V29H1333.21V30H1334.21ZM1334.21 58.4H1333.21V59.4H1334.21V58.4ZM1380.01 58.4H1381.01V57.4H1380.01V58.4ZM1380.01 84.8V85.8H1381.01V84.8H1380.01ZM1334.21 84.8V83.8H1333.21V84.8H1334.21ZM1334.21 115.6H1333.21V116.6H1334.21V115.6ZM1386.01 115.6H1387.01V114.6H1386.01V115.6ZM1386.01 143V144H1387.01V143H1386.01ZM1300.01 143H1299.01V144H1300.01V143ZM1300.01 2.6V1.6H1299.01V2.6H1300.01ZM1386.01 2.6H1387.01V1.6H1386.01V2.6ZM1386.01 30V31H1387.01V30H1386.01ZM1333.21 30V58.4H1335.21V30H1333.21ZM1334.21 59.4H1380.01V57.4H1334.21V59.4ZM1379.01 58.4V84.8H1381.01V58.4H1379.01ZM1380.01 83.8H1334.21V85.8H1380.01V83.8ZM1333.21 84.8V115.6H1335.21V84.8H1333.21ZM1334.21 116.6H1386.01V114.6H1334.21V116.6ZM1385.01 115.6V143H1387.01V115.6H1385.01ZM1386.01 142L1300.01 142V144L1386.01 144V142ZM1301.01 143V2.6H1299.01V143H1301.01ZM1300.01 3.6L1386.01 3.6V1.6L1300.01 1.6V3.6ZM1385.01 2.6V30H1387.01V2.6H1385.01ZM1386.01 29L1334.21 29V31L1386.01 31V29ZM1540.01 2.6L1540.95 2.93429L1541.43 1.6H1540.01V2.6ZM1490.21 143V144L1490.92 144L1491.15 143.334L1490.21 143ZM1447.41 143L1446.47 143.334L1446.71 144H1447.41V143ZM1397.61 2.6V1.6H1396.2L1396.67 2.93429L1397.61 2.6ZM1434.01 2.6L1434.96 2.28807L1434.74 1.6H1434.01V2.6ZM1468.81 108.6L1467.86 108.912L1468.81 111.798L1469.76 108.914L1468.81 108.6ZM1503.81 2.6V1.6H1503.09L1502.86 2.28646L1503.81 2.6ZM1539.07 2.2657L1489.27 142.666L1491.15 143.334L1540.95 2.93429L1539.07 2.2657ZM1490.21 142H1447.41V144H1490.21V142ZM1448.35 142.666L1398.55 2.2657L1396.67 2.93429L1446.47 143.334L1448.35 142.666ZM1397.61 3.6H1434.01V1.6H1397.61V3.6ZM1433.06 2.91192L1467.86 108.912L1469.76 108.288L1434.96 2.28807L1433.06 2.91192ZM1469.76 108.914L1504.76 2.91353L1502.86 2.28646L1467.86 108.286L1469.76 108.914ZM1503.81 3.6L1540.01 3.6V1.6L1503.81 1.6V3.6Z" fill="#274546" fill-opacity="0.2"/>
</svg>
