<svg width="67" height="102" viewBox="0 0 67 102" fill="none" xmlns="http://www.w3.org/2000/svg">
<path d="M66.5622 19.9724L60.5873 93.4541L33.7296 101.628L6.94592 93.4654L0.977173 19.9724H66.5622Z" fill="#E44D26"/>
<path d="M33.7695 95.3799L55.4719 88.7748L60.5776 25.9812H33.7695V95.3799Z" fill="#F16529"/>
<path d="M22.1546 44.0087H33.7697V34.9951H13.1815L13.3779 37.4133L15.396 62.2524H33.7697V53.2388H22.905L22.1546 44.0087V44.0087ZM24.0051 66.7594H15.7629L16.9131 80.9122L33.7319 86.0375L33.7697 86.0262V76.6482L33.7337 76.6587L24.5897 73.9481L24.0051 66.7594Z" fill="#EBEBEB"/>
<path d="M7.0791 0L11.2516 0V4.52558H15.0685V0L19.2413 0V13.7046H15.0688V9.1155H11.2519V13.7046H7.07936V0L7.0791 0ZM24.728 4.54477H21.0553V0L32.5763 0V4.54477H28.9013V13.7046H24.7288V4.54477H24.7285H24.728ZM34.4047 0L38.7553 0L41.4316 4.81543L44.1053 0L48.4577 0V13.7046H44.3022V6.91184L41.4316 11.7846H41.3596L38.4872 6.91184V13.7046H34.4047V0ZM50.5342 0L54.708 0V9.17477H60.5757V13.7046H50.5339V0L50.5342 0Z" fill="black"/>
<path d="M33.7415 62.2524H43.8519L42.8986 73.9425L33.7412 76.6558V86.0332L50.5733 80.9122L50.6967 79.3892L52.6264 55.6592L52.8267 53.2388H33.7415V62.2524ZM33.7415 43.9867V44.0087H53.5738L53.7383 41.9829L54.1126 37.4133L54.3088 34.9951H33.7415V43.987V43.9867Z" fill="white"/>
</svg>
