<svg width="25" height="25" viewBox="0 0 25 25" fill="none" xmlns="http://www.w3.org/2000/svg">
<circle cx="12.4121" cy="12.4121" r="11.9121" stroke="#EFEEE5"/>
<path fill-rule="evenodd" clip-rule="evenodd" d="M9.60592 6.44469C10.3318 6.41324 10.5632 6.40625 12.4121 6.40625C14.261 6.40625 14.4925 6.41382 15.2177 6.44469C15.9429 6.47555 16.4379 6.58446 16.8711 6.74229C17.3246 6.90361 17.7361 7.15578 18.0765 7.48192C18.423 7.80165 18.6903 8.18835 18.8611 8.61582C19.0294 9.02349 19.1445 9.4894 19.1779 10.1708C19.2113 10.8551 19.2188 11.0729 19.2188 12.8125C19.2188 14.5527 19.2107 14.7705 19.1779 15.4536C19.1451 16.135 19.0294 16.6009 18.8611 17.0086C18.6903 17.4361 18.4225 17.8235 18.0765 18.1437C17.7361 18.4698 17.3246 18.7214 16.8711 18.8821C16.4379 19.0405 15.9429 19.1489 15.2189 19.1803C14.4925 19.2118 14.261 19.2188 12.4121 19.2188C10.5632 19.2188 10.3318 19.2112 9.60592 19.1803C8.88194 19.1494 8.38691 19.0405 7.95376 18.8821C7.49952 18.7214 7.08797 18.4694 6.74775 18.1437C6.40146 17.8237 6.13349 17.4366 5.96251 17.0092C5.79482 16.6015 5.67972 16.1356 5.64631 15.4542C5.61289 14.7699 5.60547 14.5521 5.60547 12.8125C5.60547 11.0723 5.61351 10.8545 5.64631 10.172C5.6791 9.4894 5.79482 9.02349 5.96251 8.61582C6.13374 8.1884 6.40192 7.80125 6.74837 7.48134C7.0881 7.15549 7.49924 6.90328 7.95314 6.74229C8.38629 6.58446 8.88194 6.47614 9.60592 6.44469ZM15.1626 7.59781C14.4448 7.56695 14.2295 7.56054 12.4121 7.56054C10.5947 7.56054 10.3794 7.56695 9.66161 7.59781C8.99765 7.62635 8.63752 7.7306 8.39743 7.81854C8.07999 7.93501 7.8529 8.07304 7.61467 8.29726C7.38884 8.50404 7.21504 8.75576 7.10602 9.03398C7.01259 9.25994 6.90182 9.59889 6.8715 10.2238C6.83871 10.8994 6.8319 11.102 6.8319 12.8125C6.8319 14.523 6.83871 14.7256 6.8715 15.4012C6.90182 16.0261 7.01259 16.3651 7.10602 16.591C7.21493 16.8688 7.38881 17.121 7.61467 17.3277C7.83433 17.5403 8.10227 17.704 8.39743 17.8065C8.63752 17.8944 8.99765 17.9987 9.66161 18.0272C10.3794 18.0581 10.5941 18.0645 12.4121 18.0645C14.2301 18.0645 14.4448 18.0581 15.1626 18.0272C15.8266 17.9987 16.1867 17.8944 16.4268 17.8065C16.7442 17.69 16.9713 17.552 17.2096 17.3277C17.4354 17.121 17.6093 16.8688 17.7182 16.591C17.8116 16.3651 17.9224 16.0261 17.9527 15.4012C17.9855 14.7256 17.9923 14.523 17.9923 12.8125C17.9923 11.102 17.9855 10.8994 17.9527 10.2238C17.9224 9.59889 17.8116 9.25994 17.7182 9.03398C17.5944 8.73521 17.4478 8.52148 17.2096 8.29726C16.9898 8.08473 16.7224 7.92116 16.4268 7.81854C16.1867 7.7306 15.8266 7.62635 15.1626 7.59781ZM11.5427 14.7874C12.0283 14.9776 12.5689 15.0033 13.0723 14.86C13.5757 14.7167 14.0107 14.4134 14.3029 14.0019C14.5951 13.5903 14.7264 13.096 14.6744 12.6035C14.6224 12.1109 14.3904 11.6506 14.0179 11.3012C13.7804 11.0778 13.4933 10.9068 13.1771 10.8004C12.861 10.6941 12.5238 10.655 12.1897 10.686C11.8555 10.717 11.5329 10.8173 11.245 10.9798C10.957 11.1423 10.7109 11.3628 10.5244 11.6255C10.3379 11.8882 10.2155 12.1866 10.1662 12.4992C10.1169 12.8117 10.1419 13.1307 10.2393 13.433C10.3367 13.7354 10.5041 14.0137 10.7295 14.2479C10.9548 14.4821 11.2326 14.6663 11.5427 14.7874ZM9.9382 10.4841C10.2631 10.1784 10.6488 9.9358 11.0732 9.77032C11.4977 9.60484 11.9527 9.51967 12.4121 9.51967C12.8716 9.51967 13.3265 9.60484 13.751 9.77032C14.1755 9.9358 14.5611 10.1784 14.886 10.4841C15.2109 10.7899 15.4686 11.1529 15.6444 11.5524C15.8202 11.9519 15.9107 12.3801 15.9107 12.8125C15.9107 13.2449 15.8202 13.6731 15.6444 14.0726C15.4686 14.4721 15.2109 14.8351 14.886 15.1409C14.2299 15.7584 13.34 16.1053 12.4121 16.1053C11.4842 16.1053 10.5943 15.7584 9.9382 15.1409C9.28208 14.5234 8.91348 13.6858 8.91348 12.8125C8.91348 11.9392 9.28208 11.1016 9.9382 10.4841ZM16.6867 10.0101C16.7672 9.93858 16.8316 9.85263 16.8762 9.75729C16.9208 9.66195 16.9446 9.55916 16.9462 9.455C16.9478 9.35085 16.9272 9.24745 16.8856 9.15093C16.844 9.0544 16.7822 8.96672 16.704 8.89306C16.6257 8.81941 16.5326 8.76128 16.43 8.72212C16.3274 8.68296 16.2176 8.66357 16.1069 8.66508C15.9963 8.6666 15.887 8.689 15.7857 8.73096C15.6844 8.77292 15.5931 8.83358 15.5172 8.90935C15.3695 9.05671 15.2886 9.25244 15.2918 9.455C15.2949 9.65756 15.3818 9.85099 15.534 9.99424C15.6862 10.1375 15.8917 10.2193 16.1069 10.2222C16.3221 10.2252 16.5301 10.1491 16.6867 10.0101Z" fill="#EFEEE5"/>
</svg>
