<svg width="88" height="95" viewBox="0 0 88 95" fill="none" xmlns="http://www.w3.org/2000/svg">
<path d="M0.983643 10C0.983643 4.47715 5.4608 0 10.9836 0L77.5 0C83.0229 0 87.5 4.47715 87.5 10V84.9787C87.5 90.5016 83.0229 94.9787 77.5 94.9787H10.9836C5.4608 94.9787 0.983643 90.5016 0.983643 84.9787L0.983643 10Z" fill="#F7DF1E"/>
<path d="M23.3109 79.4417L29.9524 75.1959C31.2339 77.5956 32.3995 79.6261 35.1955 79.6261C37.8755 79.6261 39.5655 78.5188 39.5655 74.2114V44.9183H47.7215V74.3332C47.7215 83.2563 42.7697 87.3181 35.545 87.3181C29.0204 87.3181 25.2332 83.7487 23.3105 79.441M52.1515 78.5185L58.7924 74.4571C60.5408 77.4728 62.8129 79.6881 66.8324 79.6881C70.2122 79.6881 72.367 77.9032 72.367 75.4415C72.367 72.4878 70.1532 71.4414 66.4246 69.7189L64.386 68.7949C58.5015 66.1495 54.5983 62.8262 54.5983 55.8107C54.5983 49.3489 59.2589 44.4255 66.5415 44.4255C71.7266 44.4255 75.4552 46.3336 78.1349 51.3182L71.7842 55.6263C70.3858 52.9802 68.8717 51.9341 66.5412 51.9341C64.1524 51.9341 62.6376 53.5342 62.6376 55.6263C62.6376 58.2108 64.1524 59.2576 67.6478 60.8577L69.6867 61.7805C76.6198 64.9194 80.523 68.1192 80.523 75.3187C80.523 83.0733 74.7555 87.3192 67.007 87.3192C59.4335 87.3192 54.5396 83.5038 52.1512 78.5188" fill="black"/>
</svg>
