<svg width="25" height="25" viewBox="0 0 25 25" fill="none" xmlns="http://www.w3.org/2000/svg">
<path fill-rule="evenodd" clip-rule="evenodd" d="M11.2164 10.951H13.3605V12.019C13.6694 11.4048 14.4615 10.8528 15.6513 10.8528C17.9322 10.8528 18.4738 12.0756 18.4738 14.319V18.4739H16.1645V14.8299C16.1645 13.5523 15.8557 12.8319 15.0694 12.8319C13.9788 12.8319 13.5257 13.6083 13.5257 14.8293V18.4739H11.2164V10.951ZM7.25668 18.3757H9.56591V10.8528H7.25668V18.3757ZM9.8967 8.39987C9.89679 8.59343 9.8584 8.78507 9.78378 8.96366C9.70915 9.14225 9.59977 9.30423 9.46199 9.44018C9.18281 9.71764 8.80491 9.87296 8.41129 9.872C8.01837 9.87174 7.64134 9.71682 7.36175 9.44075C7.22447 9.30434 7.11546 9.14218 7.04096 8.96357C6.96647 8.78496 6.92795 8.5934 6.92761 8.39987C6.92761 8.00903 7.08349 7.63494 7.36232 7.35898C7.64168 7.08254 8.01886 6.92756 8.41187 6.92773C8.80559 6.92773 9.18315 7.08303 9.46199 7.35898C9.74025 7.63494 9.8967 8.00903 9.8967 8.39987Z" fill="#EFEEE5"/>
<circle cx="12.4121" cy="12.4121" r="11.9121" stroke="#EFEEE5"/>
</svg>
