<svg width="355" height="151" viewBox="0 0 355 151" fill="none" xmlns="http://www.w3.org/2000/svg">
<path d="M30.2734 151C23.6003 117.634 13.5091 67.5853 0 0.853516C6.67318 0.853516 16.6016 0.853516 29.7852 0.853516C36.7839 34.2194 47.1191 84.2682 60.791 151C53.9551 151 43.7826 151 30.2734 151ZM90.0879 15.7461C90.0879 19.8151 88.623 23.3145 85.6934 26.2441C82.7637 29.1738 79.2643 30.6387 75.1953 30.6387C70.9635 30.6387 67.3828 29.1738 64.4531 26.2441C61.5234 23.3145 60.0586 19.8151 60.0586 15.7461C60.0586 11.6771 61.5234 8.17773 64.4531 5.24805C67.3828 2.31836 70.9635 0.853516 75.1953 0.853516C79.2643 0.853516 82.7637 2.31836 85.6934 5.24805C88.623 8.01497 90.0879 11.3516 90.0879 15.2578C90.0879 15.4206 90.0879 15.5833 90.0879 15.7461ZM123.779 151C115.479 151 108.398 148.07 102.539 142.211C96.6797 136.352 93.75 129.271 93.75 120.971C93.75 112.67 96.6797 105.59 102.539 99.7305C108.398 93.8711 115.479 90.9414 123.779 90.9414C123.779 104.288 123.779 124.307 123.779 151ZM153.809 60.9121C162.109 60.9121 169.189 63.8418 175.049 69.7012C180.908 75.5605 183.838 82.6406 183.838 90.9414C183.838 104.288 183.838 124.307 183.838 151C177.165 151 167.155 151 153.809 151C153.809 143.513 153.809 132.283 153.809 117.309C153.809 104.776 153.809 85.9772 153.809 60.9121ZM108.398 90.209C104.329 90.209 100.911 88.7441 98.1445 85.8145C95.2148 83.0475 93.75 79.6296 93.75 75.5605C93.75 71.4915 95.2148 68.0736 98.1445 65.3066C100.911 62.377 104.329 60.9121 108.398 60.9121C112.305 60.9121 115.723 62.377 118.652 65.3066C121.419 68.0736 122.803 71.4915 122.803 75.5605C122.803 75.5605 122.803 75.6419 122.803 75.8047C122.803 79.7109 121.419 83.0475 118.652 85.8145C115.723 88.7441 112.305 90.209 108.398 90.209ZM211.426 60.9121C218.099 60.9121 228.109 60.9121 241.455 60.9121C241.455 80.9316 241.455 110.961 241.455 151C234.782 151 224.772 151 211.426 151C211.426 130.98 211.426 100.951 211.426 60.9121ZM286.377 90.9414C282.308 90.9414 278.809 89.4766 275.879 86.5469C272.949 83.6172 271.484 80.1178 271.484 76.0488C271.484 71.8171 272.949 68.2363 275.879 65.3066C278.809 62.377 282.308 60.9121 286.377 60.9121C290.609 60.9121 294.189 62.377 297.119 65.3066C300.049 68.2363 301.514 71.8171 301.514 76.0488C301.514 76.0488 301.514 76.1302 301.514 76.293C301.514 80.1992 300.049 83.6172 297.119 86.5469C294.189 89.4766 290.609 90.9414 286.377 90.9414Z" fill="#274546"/>
<path d="M352.783 141.723C352.132 143.513 351.074 145.141 349.609 146.605C348.307 148.07 346.68 149.128 344.727 149.779C342.936 150.593 341.064 151 339.111 151C338.949 151 338.786 151 338.623 151C336.833 151 335.042 150.593 333.252 149.779C331.462 149.128 329.834 148.07 328.369 146.605C326.904 145.303 325.846 143.676 325.195 141.723C324.382 139.932 323.975 137.979 323.975 135.863C323.975 135.863 323.975 135.782 323.975 135.619C323.975 133.829 324.382 132.038 325.195 130.248C325.846 128.458 326.904 126.83 328.369 125.365C329.671 123.9 331.299 122.842 333.252 122.191C335.042 121.378 336.995 120.971 339.111 120.971C341.064 120.971 342.936 121.378 344.727 122.191C346.517 122.842 348.145 123.9 349.609 125.365C351.074 126.667 352.132 128.295 352.783 130.248C353.597 132.038 354.004 133.829 354.004 135.619C354.004 135.782 354.004 135.863 354.004 135.863C354.004 137.979 353.597 139.932 352.783 141.723Z" fill="#F99A49"/>
</svg>
