<svg width="17" height="17" viewBox="0 0 17 17" fill="none" xmlns="http://www.w3.org/2000/svg">
<path d="M0 3.1875C0 2.5998 0.474805 2.125 1.0625 2.125H13.8125C14.4002 2.125 14.875 2.5998 14.875 3.1875C14.875 3.7752 14.4002 4.25 13.8125 4.25H1.0625C0.474805 4.25 0 3.7752 0 3.1875ZM2.125 8.5C2.125 7.9123 2.5998 7.4375 3.1875 7.4375H15.9375C16.5252 7.4375 17 7.9123 17 8.5C17 9.0877 16.5252 9.5625 15.9375 9.5625H3.1875C2.5998 9.5625 2.125 9.0877 2.125 8.5ZM14.875 13.8125C14.875 14.4002 14.4002 14.875 13.8125 14.875H1.0625C0.474805 14.875 0 14.4002 0 13.8125C0 13.2248 0.474805 12.75 1.0625 12.75H13.8125C14.4002 12.75 14.875 13.2248 14.875 13.8125Z" fill="#efeee5"/>
</svg>
