<svg width="17" height="17" viewBox="0 0 17 17" fill="none" xmlns="http://www.w3.org/2000/svg">
<path d="M13.35 3.47028C12.7106 2.8288 11.9519 2.31871 11.1165 1.96881C10.2598 1.60883 9.33946 1.42439 8.41014 1.42641H8.37823C6.50703 1.43392 4.75595 2.16588 3.44592 3.48905C2.13402 4.81221 1.41894 6.56893 1.42645 8.44013C1.43208 9.57186 1.71361 10.6961 2.24287 11.6889L2.32733 11.8466V14.4892H4.96991L5.12756 14.5736C6.1204 15.1029 7.24463 15.3844 8.37636 15.39H8.40826C10.2663 15.39 12.0118 14.6731 13.3274 13.3706C14.6487 12.0605 15.3826 10.3095 15.3938 8.44013C15.3976 7.49045 15.2155 6.5708 14.8514 5.70371C14.5013 4.86848 13.9912 4.10977 13.35 3.47028ZM4.6546 9.3091C4.41886 9.30429 4.19439 9.20726 4.02937 9.03883C3.86435 8.87041 3.77192 8.64401 3.77192 8.40822C3.77192 8.17243 3.86435 7.94603 4.02937 7.77761C4.19439 7.60918 4.41886 7.51215 4.6546 7.50734C4.89034 7.51215 5.11481 7.60918 5.27983 7.77761C5.44485 7.94603 5.53728 8.17243 5.53728 8.40822C5.53728 8.64401 5.44485 8.87041 5.27983 9.03883C5.11481 9.20726 4.89034 9.30429 4.6546 9.3091ZM8.40826 9.3091C8.17252 9.30429 7.94805 9.20726 7.78303 9.03883C7.61801 8.87041 7.52559 8.64401 7.52559 8.40822C7.52559 8.17243 7.61801 7.94603 7.78303 7.77761C7.94805 7.60918 8.17252 7.51215 8.40826 7.50734C8.64401 7.51215 8.86847 7.60918 9.03349 7.77761C9.19851 7.94603 9.29094 8.17243 9.29094 8.40822C9.29094 8.64401 9.19851 8.87041 9.03349 9.03883C8.86847 9.20726 8.64401 9.30429 8.40826 9.3091ZM12.1619 9.3091C11.9262 9.30429 11.7017 9.20726 11.5367 9.03883C11.3717 8.87041 11.2792 8.64401 11.2792 8.40822C11.2792 8.17243 11.3717 7.94603 11.5367 7.77761C11.7017 7.60918 11.9262 7.51215 12.1619 7.50734C12.3977 7.51215 12.6221 7.60918 12.7872 7.77761C12.9522 7.94603 13.0446 8.17243 13.0446 8.40822C13.0446 8.64401 12.9522 8.87041 12.7872 9.03883C12.6221 9.20726 12.3977 9.30429 12.1619 9.3091Z" fill="#274546"/>
<path d="M11.5112 8.7085C11.5112 8.94742 11.6061 9.17657 11.7751 9.34551C11.944 9.51446 12.1732 9.60938 12.4121 9.60938C12.651 9.60938 12.8802 9.51446 13.0491 9.34551C13.2181 9.17657 13.313 8.94742 13.313 8.7085C13.313 8.46957 13.2181 8.24043 13.0491 8.07148C12.8802 7.90253 12.651 7.80762 12.4121 7.80762C12.1732 7.80762 11.944 7.90253 11.7751 8.07148C11.6061 8.24043 11.5112 8.46957 11.5112 8.7085ZM4.00391 8.7085C4.00391 8.94742 4.09882 9.17657 4.26777 9.34551C4.43672 9.51446 4.66586 9.60938 4.90479 9.60938C5.14371 9.60938 5.37286 9.51446 5.5418 9.34551C5.71075 9.17657 5.80566 8.94742 5.80566 8.7085C5.80566 8.46957 5.71075 8.24043 5.5418 8.07148C5.37286 7.90253 5.14371 7.80762 4.90479 7.80762C4.66586 7.80762 4.43672 7.90253 4.26777 8.07148C4.09882 8.24043 4.00391 8.46957 4.00391 8.7085Z" fill="#EFEEE5"/>
<path d="M16.1634 5.15002C15.7392 4.14217 15.1311 3.23753 14.356 2.46053C13.5863 1.68802 12.6725 1.07396 11.6665 0.653137C10.6342 0.219589 9.53816 0 8.40831 0H8.37077C7.23341 0.00563049 6.13171 0.23085 5.0957 0.673782C4.09827 1.09892 3.19309 1.71407 2.4306 2.48492C1.66298 3.26006 1.06052 4.16093 0.64386 5.16504C0.212188 6.2048 -0.00552402 7.31026 0.000106478 8.44762C0.00647504 9.75102 0.314836 11.0352 0.900985 12.1994V15.0522C0.900985 15.2812 0.991944 15.5008 1.15385 15.6627C1.31576 15.8246 1.53535 15.9155 1.76433 15.9155H4.61899C5.78317 16.5017 7.06737 16.81 8.37077 16.8164H8.41018C9.53441 16.8164 10.6248 16.5987 11.6515 16.1727C12.6524 15.7568 13.5628 15.1499 14.3316 14.3859C15.1067 13.6183 15.7167 12.7212 16.1427 11.7208C16.5857 10.6848 16.8109 9.5831 16.8165 8.44574C16.8221 7.30275 16.6007 6.19354 16.1634 5.15002ZM13.3275 13.3705C12.0118 14.6731 10.2664 15.39 8.40831 15.39H8.3764C7.24467 15.3844 6.12045 15.1029 5.12761 14.5736L4.96995 14.4891H2.32738V11.8466L2.24292 11.6889C1.71365 10.6961 1.43213 9.57184 1.4265 8.44011C1.41899 6.56891 2.13406 4.81219 3.44597 3.48903C4.756 2.16586 6.50708 1.4339 8.37828 1.42639H8.41018C9.3486 1.42639 10.2589 1.60844 11.1166 1.9688C11.9536 2.31976 12.7044 2.82463 13.35 3.47026C13.9938 4.11401 14.5005 4.86662 14.8515 5.70369C15.2156 6.57078 15.3976 7.49043 15.3939 8.44011C15.3826 10.3094 14.6488 12.0605 13.3275 13.3705Z" fill="#EFEEE5"/>
<path d="M7.50745 8.70862C7.50745 8.94755 7.60236 9.17669 7.77131 9.34564C7.94026 9.51458 8.1694 9.6095 8.40833 9.6095C8.64725 9.6095 8.87639 9.51458 9.04534 9.34564C9.21429 9.17669 9.3092 8.94755 9.3092 8.70862C9.3092 8.46969 9.21429 8.24055 9.04534 8.0716C8.87639 7.90265 8.64725 7.80774 8.40833 7.80774C8.1694 7.80774 7.94026 7.90265 7.77131 8.0716C7.60236 8.24055 7.50745 8.46969 7.50745 8.70862Z" fill="#EFEEE5"/>
</svg>
