<svg width="511" height="109" viewBox="0 0 511 109" fill="none" xmlns="http://www.w3.org/2000/svg">
<path d="M55.1 108.05C45.2 108.05 36.1 105.75 27.8 101.15C19.6 96.55 13.05 90.15 8.15 81.95C3.35 73.65 0.95 64.35 0.95 54.05C0.95 43.75 3.35 34.5 8.15 26.3C13.05 18.1 19.6 11.7 27.8 7.1C36.1 2.5 45.2 0.199998 55.1 0.199998C65 0.199998 74.05 2.5 82.25 7.1C90.55 11.7 97.05 18.1 101.75 26.3C106.55 34.5 108.95 43.75 108.95 54.05C108.95 64.35 106.55 73.65 101.75 81.95C96.95 90.15 90.45 96.55 82.25 101.15C74.05 105.75 65 108.05 55.1 108.05ZM55.1 84.65C63.5 84.65 70.2 81.85 75.2 76.25C80.3 70.65 82.85 63.25 82.85 54.05C82.85 44.75 80.3 37.35 75.2 31.85C70.2 26.25 63.5 23.45 55.1 23.45C46.6 23.45 39.8 26.2 34.7 31.7C29.7 37.2 27.2 44.65 27.2 54.05C27.2 63.35 29.7 70.8 34.7 76.4C39.8 81.9 46.6 84.65 55.1 84.65ZM213.67 107H188.02L145.12 42.05V107H119.47L119.47 1.7H145.12L188.02 66.95L188.02 1.7L213.67 1.7L213.67 107ZM254.163 87.2L287.763 87.2V107L228.513 107L228.513 1.7L254.163 1.7V87.2ZM321.897 1.7V107H296.247V1.7H321.897ZM430.936 107H405.286L362.386 42.05V107H336.736V1.7H362.386L405.286 66.95V1.7L430.936 1.7V107ZM471.429 22.25V43.55L505.779 43.55V63.35L471.429 63.35V86.45H510.279V107H445.779V1.7L510.279 1.7V22.25L471.429 22.25Z" fill="#5E6162" fill-opacity="0.3"/>
</svg>
