<svg width="74" height="92" viewBox="0 0 74 92" fill="none" xmlns="http://www.w3.org/2000/svg">
<path d="M36.9544 91.0423C35.8277 91.0423 34.7761 90.7102 33.7996 90.129L23.809 83.5692C22.3068 82.6559 23.0579 82.3238 23.5086 82.1577C25.5366 81.4104 25.9122 81.2444 28.0154 79.9156C28.241 79.7495 28.5414 79.8325 28.7665 79.9986L36.4286 85.0638C36.7291 85.2299 37.1046 85.2299 37.33 85.0638L67.3015 65.883C67.602 65.7169 67.7522 65.3848 67.7522 64.9697V26.6905C67.7522 26.2754 67.602 25.9432 67.3015 25.7772L37.33 6.6791C37.0295 6.51304 36.6539 6.51304 36.4286 6.6791L6.45705 25.7775C6.1566 25.9435 6.00637 26.3587 6.00637 26.6908L6.00637 64.9697C6.00637 65.3018 6.1566 65.7169 6.45705 65.883L14.6449 71.114C19.0769 73.6049 21.8558 70.6988 21.8558 67.7927V30.0117C21.8558 29.5136 22.2317 29.0154 22.7575 29.0154H26.5885C27.0392 29.0154 27.4899 29.4305 27.4899 30.0117V67.7924C27.4899 74.3522 24.2597 78.1716 18.6259 78.1716C16.8983 78.1716 15.5463 78.1716 11.7155 76.0958L3.82809 71.114C1.87515 69.8682 0.67334 67.5433 0.67334 65.0524L0.67334 26.7739C0.67334 24.2829 1.87515 21.9581 3.82809 20.7123L33.7996 1.53149C35.6775 0.36906 38.2313 0.36906 40.1092 1.53149L70.0807 20.7123C72.0336 21.9577 73.2355 24.2826 73.2355 26.7739V65.0527C73.2355 67.5436 72.0336 69.8685 70.0807 71.114L40.1092 90.2954C39.1327 90.7936 38.006 91.0427 36.9544 91.0427V91.0423ZM46.1936 64.7203C33.0482 64.7203 30.3442 58.0778 30.3442 52.4314C30.3442 51.9332 30.7197 51.435 31.2455 51.435H35.1514C35.6021 51.435 35.9779 51.7671 35.9779 52.2653C36.5788 56.6659 38.3064 58.8251 46.2687 58.8251C52.5785 58.8251 55.2829 57.2475 55.2829 53.5111C55.2829 51.352 54.5317 49.7744 44.6913 48.6947C36.5037 47.7813 31.3957 45.7886 31.3957 38.5649C31.3957 31.8387 36.5034 27.8533 45.0669 27.8533C54.6817 27.8533 59.4141 31.5066 60.015 39.4779C60.015 39.727 59.9399 39.9761 59.7896 40.2252C59.6394 40.3912 59.4141 40.5573 59.1887 40.5573H55.2829C54.907 40.5573 54.5317 40.2252 54.4563 39.81C53.555 35.2433 51.2265 33.7488 45.0669 33.7488C38.1565 33.7488 37.33 36.4058 37.33 38.3985C37.33 40.8067 38.3064 41.5537 47.6207 42.8822C56.8602 44.2107 61.2168 46.1207 61.2168 53.2617C61.1417 60.5687 55.7335 64.7203 46.1936 64.7203V64.7203Z" fill="#539E43"/>
</svg>
