<svg width="2298" height="145" viewBox="0 0 2298 145" fill="none" xmlns="http://www.w3.org/2000/svg">
<path d="M101.8 70.2L102.673 70.6886L102.677 70.6813L101.8 70.2ZM84.6 86.4L84.1286 85.5181L84.1286 85.5181L84.6 86.4ZM34.6 92.6V91.6H33.6V92.6H34.6ZM34.6 143V144H35.6V143H34.6ZM0.400001 143H-0.599999V144H0.400001V143ZM0.400001 2.6V1.6H-0.599999V2.6H0.400001ZM84.2 8.39999L84.6472 7.50557L84.6472 7.50557L84.2 8.39999ZM34.6 30.2V29.2H33.6V30.2H34.6ZM34.6 65.4H33.6V66.4H34.6V65.4ZM106.4 47.8C106.4 55.7735 104.572 63.0735 100.923 69.7187L102.677 70.6813C106.495 63.7265 108.4 56.0931 108.4 47.8H106.4ZM100.927 69.7114C97.3007 76.1878 91.7189 81.4612 84.1286 85.5181L85.0714 87.2819C92.9478 83.0721 98.8326 77.5456 102.673 70.6886L100.927 69.7114ZM84.1286 85.5181C76.5781 89.5537 67.1512 91.6 55.8 91.6V93.6C67.3822 93.6 77.1553 91.513 85.0714 87.2819L84.1286 85.5181ZM55.8 91.6H34.6V93.6H55.8V91.6ZM33.6 92.6L33.6 143H35.6L35.6 92.6H33.6ZM34.6 142H0.400001V144H34.6V142ZM1.4 143L1.4 2.6H-0.599999L-0.599999 143H1.4ZM0.400001 3.6L55.8 3.6V1.6L0.400001 1.6V3.6ZM55.8 3.6C66.889 3.6 76.1931 5.51459 83.7528 9.29442L84.6472 7.50557C76.7402 3.55207 67.111 1.6 55.8 1.6V3.6ZM83.7528 9.29442C91.3283 13.0822 96.9722 18.2845 100.731 24.8943L102.469 23.9057C98.4945 16.9155 92.5384 11.4511 84.6472 7.50557L83.7528 9.29442ZM100.731 24.8943C104.501 31.5255 106.4 39.1512 106.4 47.8H108.4C108.4 38.8488 106.432 30.8744 102.469 23.9057L100.731 24.8943ZM53.2 66.4C59.8703 66.4 65.0337 64.8361 68.4919 61.522L67.1081 60.078C64.1663 62.8972 59.5963 64.4 53.2 64.4V66.4ZM68.4919 61.522C71.9376 58.2198 73.6 53.5965 73.6 47.8H71.6C71.6 53.2035 70.0624 57.2468 67.1081 60.078L68.4919 61.522ZM73.6 47.8C73.6 42.0035 71.9376 37.3802 68.4919 34.078L67.1081 35.522C70.0624 38.3532 71.6 42.3965 71.6 47.8H73.6ZM68.4919 34.078C65.0337 30.7639 59.8703 29.2 53.2 29.2V31.2C59.5963 31.2 64.1663 32.7027 67.1081 35.522L68.4919 34.078ZM53.2 29.2H34.6V31.2H53.2V29.2ZM33.6 30.2L33.6 65.4H35.6L35.6 30.2H33.6ZM34.6 66.4H53.2V64.4H34.6V66.4ZM155.205 135.2L154.715 136.072L154.72 136.075L155.205 135.2ZM129.005 109.6L128.139 110.101L128.143 110.107L128.146 110.113L129.005 109.6ZM129.005 35.4L128.146 34.887L128.142 34.8948L129.005 35.4ZM155.205 9.8L154.72 8.92533L154.715 8.92786L155.205 9.8ZM227.805 9.8L227.315 10.6722L227.32 10.6747L227.805 9.8ZM253.805 35.4L252.937 35.8973L252.942 35.9052L253.805 35.4ZM253.805 109.6L254.668 110.105L254.67 110.101L253.805 109.6ZM227.805 135.2L228.294 136.072L228.294 136.072L227.805 135.2ZM218.405 102L217.665 101.327L217.659 101.334L218.405 102ZM218.405 42.8L217.659 43.466L217.665 43.473L217.671 43.4799L218.405 42.8ZM164.405 42.6L163.671 41.92L163.665 41.9273L164.405 42.6ZM164.405 102.2L163.659 102.866L163.665 102.873L163.671 102.88L164.405 102.2ZM191.605 143.4C178.567 143.4 166.601 140.373 155.689 134.325L154.72 136.075C165.941 142.294 178.243 145.4 191.605 145.4V143.4ZM155.694 134.328C144.915 128.281 136.308 119.873 129.863 109.087L128.146 110.113C134.768 121.194 143.627 129.852 154.715 136.072L155.694 134.328ZM129.87 109.099C123.565 98.1961 120.405 85.971 120.405 72.4H118.405C118.405 86.2956 121.645 98.8705 128.139 110.101L129.87 109.099ZM120.405 72.4C120.405 58.8288 123.565 46.6725 129.868 35.9052L128.142 34.8948C121.644 45.9942 118.405 58.5045 118.405 72.4H120.405ZM129.863 35.9129C136.308 25.127 144.915 16.7186 155.694 10.6721L154.715 8.92786C143.627 15.1481 134.768 23.8063 128.146 34.887L129.863 35.9129ZM155.689 10.6747C166.601 4.62715 178.567 1.6 191.605 1.6V-0.400002C178.243 -0.400002 165.941 2.70618 154.72 8.92534L155.689 10.6747ZM191.605 1.6C204.643 1.6 216.54 4.62712 227.315 10.6721L228.294 8.92786C217.203 2.7062 204.967 -0.400002 191.605 -0.400002V1.6ZM227.32 10.6747C238.228 16.7199 246.762 25.123 252.937 35.8973L254.672 34.9027C248.314 23.8103 239.515 15.1468 228.289 8.92534L227.32 10.6747ZM252.942 35.9052C259.244 46.6725 262.405 58.8288 262.405 72.4H264.405C264.405 58.5045 261.165 45.9942 254.668 34.8948L252.942 35.9052ZM262.405 72.4C262.405 85.971 259.245 98.1961 252.939 109.099L254.67 110.101C261.165 98.8705 264.405 86.2956 264.405 72.4H262.405ZM252.942 109.095C246.63 119.877 238.092 128.282 227.315 134.328L228.294 136.072C239.384 129.851 248.179 121.19 254.668 110.105L252.942 109.095ZM227.315 134.328C216.54 140.373 204.643 143.4 191.605 143.4V145.4C204.967 145.4 217.203 142.294 228.294 136.072L227.315 134.328ZM191.605 114.2C203.052 114.2 212.27 110.372 219.151 102.666L217.659 101.334C211.206 108.562 202.558 112.2 191.605 112.2V114.2ZM219.144 102.673C226.146 94.9848 229.605 84.8595 229.605 72.4H227.605C227.605 84.4738 224.263 94.0819 217.665 101.327L219.144 102.673ZM229.605 72.4C229.605 59.8112 226.148 49.68 219.138 42.1201L217.671 43.4799C224.261 50.5866 227.605 60.1888 227.605 72.4H229.605ZM219.151 42.134C212.27 34.4282 203.052 30.6 191.605 30.6V32.6C202.558 32.6 211.206 36.2384 217.659 43.466L219.151 42.134ZM191.605 30.6C180.034 30.6 170.687 34.3545 163.671 41.9201L165.138 43.2799C171.723 36.1788 180.509 32.6 191.605 32.6V30.6ZM163.665 41.9273C156.79 49.4897 153.405 59.6862 153.405 72.4H155.405C155.405 60.0471 158.686 50.377 165.145 43.2727L163.665 41.9273ZM153.405 72.4C153.405 84.9846 156.792 95.1751 163.659 102.866L165.151 101.534C158.684 94.2915 155.405 84.6154 155.405 72.4H153.405ZM163.671 102.88C170.687 110.446 180.034 114.2 191.605 114.2V112.2C180.509 112.2 171.723 108.621 165.138 101.52L163.671 102.88ZM354.031 143L353.155 143.483L353.44 144H354.031V143ZM324.831 90L325.707 89.5174L325.422 89H324.831V90ZM316.631 90V89H315.631V90H316.631ZM316.631 143V144H317.631V143H316.631ZM282.431 143H281.431V144H282.431V143ZM282.431 2.6V1.6H281.431V2.6H282.431ZM368.031 8.39999L367.584 9.29444L367.59 9.29744L368.031 8.39999ZM385.631 24.4L384.762 24.8943L384.766 24.9017L385.631 24.4ZM383.431 71.8L382.622 71.2118L382.616 71.2216L383.431 71.8ZM360.231 87.4L359.945 86.4418L358.727 86.8055L359.367 87.9035L360.231 87.4ZM392.631 143V144H394.371L393.495 142.497L392.631 143ZM316.631 65.8H315.631V66.8H316.631V65.8ZM351.831 61.2L351.139 60.478L351.132 60.4854L351.124 60.4929L351.831 61.2ZM351.831 35.6L351.124 36.3071L351.132 36.3146L351.139 36.322L351.831 35.6ZM316.631 31V30H315.631V31H316.631ZM354.907 142.517L325.707 89.5174L323.955 90.4825L353.155 143.483L354.907 142.517ZM324.831 89H316.631V91H324.831V89ZM315.631 90L315.631 143H317.631L317.631 90H315.631ZM316.631 142H282.431V144H316.631V142ZM283.431 143L283.431 2.6H281.431L281.431 143H283.431ZM282.431 3.6L339.831 3.6V1.6L282.431 1.6V3.6ZM339.831 3.6C350.785 3.6 360.023 5.51385 367.584 9.29442L368.478 7.50557C360.573 3.55281 351.011 1.6 339.831 1.6V3.6ZM367.59 9.29744C375.299 13.0867 381.006 18.2892 384.762 24.8943L386.501 23.9057C382.523 16.9108 376.496 11.4466 368.472 7.50254L367.59 9.29744ZM384.766 24.9017C388.538 31.4049 390.431 38.6963 390.431 46.8H392.431C392.431 38.3704 390.458 30.7284 386.496 23.8983L384.766 24.9017ZM390.431 46.8C390.431 55.9286 387.828 64.0547 382.623 71.2118L384.24 72.3882C389.701 64.8786 392.431 56.338 392.431 46.8H390.431ZM382.616 71.2216C377.568 78.3396 370.04 83.4264 359.945 86.4418L360.517 88.3582C370.956 85.2403 378.894 79.9271 384.247 72.3784L382.616 71.2216ZM359.367 87.9035L391.767 143.503L393.495 142.497L361.095 86.8965L359.367 87.9035ZM392.631 142H354.031V144H392.631V142ZM316.631 66.8H337.831V64.8H316.631V66.8ZM337.831 66.8C344.245 66.8 349.214 65.231 352.538 61.9071L351.124 60.4929C348.315 63.3023 343.951 64.8 337.831 64.8V66.8ZM352.523 61.922C355.969 58.6198 357.631 53.9965 357.631 48.2H355.631C355.631 53.6035 354.094 57.6468 351.139 60.478L352.523 61.922ZM357.631 48.2C357.631 42.6537 355.959 38.1709 352.523 34.878L351.139 36.322C354.103 39.1624 355.631 43.0796 355.631 48.2H357.631ZM352.538 34.8929C349.214 31.569 344.245 30 337.831 30V32C343.951 32 348.315 33.4977 351.124 36.3071L352.538 34.8929ZM337.831 30H316.631V32H337.831V30ZM315.631 31V65.8H317.631V31H315.631ZM513.9 2.6H514.9V1.6H513.9V2.6ZM513.9 30V31H514.9V30H513.9ZM476.7 30V29H475.7V30H476.7ZM476.7 143V144H477.7V143H476.7ZM442.5 143H441.5V144H442.5V143ZM442.5 30H443.5V29H442.5V30ZM405.3 30H404.3V31H405.3V30ZM405.3 2.6V1.6H404.3V2.6H405.3ZM512.9 2.6V30H514.9V2.6H512.9ZM513.9 29H476.7V31H513.9V29ZM475.7 30L475.7 143H477.7L477.7 30H475.7ZM476.7 142H442.5V144H476.7V142ZM443.5 143L443.5 30H441.5L441.5 143H443.5ZM442.5 29H405.3V31H442.5V29ZM406.3 30V2.6H404.3V30H406.3ZM405.3 3.6L513.9 3.6V1.6L405.3 1.6V3.6ZM622.464 2.6H623.464V1.6H622.464V2.6ZM622.464 30V31H623.464V30H622.464ZM565.264 30V29H564.264V30H565.264ZM565.264 59.6H564.264V60.6H565.264V59.6ZM608.064 59.6H609.064V58.6H608.064V59.6ZM608.064 86.2V87.2H609.064V86.2H608.064ZM565.264 86.2V85.2H564.264V86.2H565.264ZM565.264 143V144H566.264V143H565.264ZM531.064 143H530.064V144H531.064V143ZM531.064 2.6V1.6H530.064V2.6H531.064ZM621.464 2.6V30H623.464V2.6H621.464ZM622.464 29H565.264V31H622.464V29ZM564.264 30V59.6H566.264V30H564.264ZM565.264 60.6L608.064 60.6V58.6L565.264 58.6V60.6ZM607.064 59.6V86.2H609.064V59.6H607.064ZM608.064 85.2L565.264 85.2V87.2L608.064 87.2V85.2ZM564.264 86.2V143H566.264V86.2H564.264ZM565.264 142H531.064V144H565.264V142ZM532.064 143V2.6H530.064V143H532.064ZM531.064 3.6L622.464 3.6V1.6L531.064 1.6V3.6ZM670.439 135.2L669.95 136.072L669.954 136.075L670.439 135.2ZM644.239 109.6L643.373 110.101L643.377 110.107L643.381 110.113L644.239 109.6ZM644.239 35.4L643.381 34.887L643.376 34.8948L644.239 35.4ZM670.439 9.8L669.954 8.92533L669.95 8.92786L670.439 9.8ZM743.039 9.8L742.55 10.6722L742.554 10.6747L743.039 9.8ZM769.039 35.4L768.171 35.8973L768.176 35.9052L769.039 35.4ZM769.039 109.6L769.902 110.105L769.905 110.101L769.039 109.6ZM743.039 135.2L743.528 136.072L743.528 136.072L743.039 135.2ZM733.639 102L732.9 101.327L732.893 101.334L733.639 102ZM733.639 42.8L732.893 43.466L732.899 43.473L732.906 43.4799L733.639 42.8ZM679.639 42.6L678.906 41.92L678.899 41.9273L679.639 42.6ZM679.639 102.2L678.893 102.866L678.899 102.873L678.906 102.88L679.639 102.2ZM706.839 143.4C693.801 143.4 681.836 140.373 670.924 134.325L669.954 136.075C681.176 142.294 693.477 145.4 706.839 145.4V143.4ZM670.928 134.328C660.15 128.281 651.543 119.873 645.097 109.087L643.381 110.113C650.002 121.194 658.862 129.852 669.95 136.072L670.928 134.328ZM645.105 109.099C638.799 98.1961 635.639 85.971 635.639 72.4H633.639C633.639 86.2956 636.879 98.8705 643.373 110.101L645.105 109.099ZM635.639 72.4C635.639 58.8288 638.799 46.6725 645.102 35.9052L643.376 34.8948C636.879 45.9942 633.639 58.5045 633.639 72.4H635.639ZM645.097 35.9129C651.543 25.127 660.15 16.7186 670.928 10.6721L669.95 8.92786C658.862 15.1481 650.002 23.8063 643.381 34.887L645.097 35.9129ZM670.924 10.6747C681.836 4.62715 693.801 1.6 706.839 1.6V-0.400002C693.477 -0.400002 681.176 2.70618 669.954 8.92534L670.924 10.6747ZM706.839 1.6C719.877 1.6 731.774 4.62712 742.55 10.6721L743.528 8.92786C732.438 2.7062 720.201 -0.400002 706.839 -0.400002V1.6ZM742.554 10.6747C753.462 16.7199 761.996 25.123 768.171 35.8973L769.907 34.9027C763.549 23.8103 754.749 15.1468 743.524 8.92534L742.554 10.6747ZM768.176 35.9052C774.479 46.6725 777.639 58.8288 777.639 72.4H779.639C779.639 58.5045 776.399 45.9942 769.902 34.8948L768.176 35.9052ZM777.639 72.4C777.639 85.971 774.479 98.1961 768.173 109.099L769.905 110.101C776.399 98.8705 779.639 86.2956 779.639 72.4H777.639ZM768.176 109.095C761.865 119.877 753.326 128.282 742.55 134.328L743.528 136.072C754.618 129.851 763.413 121.19 769.902 110.105L768.176 109.095ZM742.55 134.328C731.774 140.373 719.877 143.4 706.839 143.4V145.4C720.201 145.4 732.438 142.294 743.528 136.072L742.55 134.328ZM706.839 114.2C718.286 114.2 727.505 110.372 734.385 102.666L732.893 101.334C726.44 108.562 717.792 112.2 706.839 112.2V114.2ZM734.378 102.673C741.38 94.9848 744.839 84.8595 744.839 72.4H742.839C742.839 84.4738 739.498 94.0819 732.9 101.327L734.378 102.673ZM744.839 72.4C744.839 59.8112 741.382 49.68 734.372 42.1201L732.906 43.4799C739.496 50.5866 742.839 60.1888 742.839 72.4H744.839ZM734.385 42.134C727.505 34.4282 718.286 30.6 706.839 30.6V32.6C717.792 32.6 726.44 36.2384 732.893 43.466L734.385 42.134ZM706.839 30.6C695.268 30.6 685.921 34.3545 678.906 41.9201L680.372 43.2799C686.957 36.1788 695.743 32.6 706.839 32.6V30.6ZM678.899 41.9273C672.024 49.4897 668.639 59.6862 668.639 72.4H670.639C670.639 60.0471 673.921 50.377 680.379 43.2727L678.899 41.9273ZM668.639 72.4C668.639 84.9846 672.026 95.1751 678.893 102.866L680.385 101.534C673.919 94.2915 670.639 84.6154 670.639 72.4H668.639ZM678.906 102.88C685.921 110.446 695.268 114.2 706.839 114.2V112.2C695.743 112.2 686.957 108.621 680.372 101.52L678.906 102.88ZM831.866 116.6H830.866V117.6H831.866V116.6ZM876.666 116.6H877.666V115.6H876.666V116.6ZM876.666 143V144H877.666V143H876.666ZM797.666 143H796.666V144H797.666V143ZM797.666 2.6V1.6H796.666V2.6H797.666ZM831.866 2.6H832.866V1.6H831.866V2.6ZM831.866 117.6H876.666V115.6H831.866V117.6ZM875.666 116.6V143H877.666V116.6H875.666ZM876.666 142H797.666V144H876.666V142ZM798.666 143V2.6H796.666V143H798.666ZM797.666 3.6L831.866 3.6V1.6L797.666 1.6V3.6ZM830.866 2.6V116.6H832.866V2.6H830.866ZM927.178 2.6H928.178V1.6H927.178V2.6ZM927.178 143V144H928.178V143H927.178ZM892.978 143H891.978V144H892.978V143ZM892.978 2.6V1.6H891.978V2.6H892.978ZM926.178 2.6V143H928.178V2.6H926.178ZM927.178 142H892.978V144H927.178V142ZM893.978 143V2.6H891.978V143H893.978ZM892.978 3.6L927.178 3.6V1.6L892.978 1.6V3.6ZM981.963 135.2L981.473 136.072L981.478 136.075L981.963 135.2ZM955.763 109.6L954.897 110.101L954.9 110.107L954.904 110.113L955.763 109.6ZM955.763 35.4L954.904 34.887L954.899 34.8948L955.763 35.4ZM981.963 9.8L981.478 8.92533L981.473 8.92786L981.963 9.8ZM1054.56 9.8L1054.07 10.6722L1054.08 10.6747L1054.56 9.8ZM1080.56 35.4L1079.69 35.8973L1079.7 35.9052L1080.56 35.4ZM1080.56 109.6L1081.43 110.105L1081.43 110.101L1080.56 109.6ZM1054.56 135.2L1055.05 136.072L1055.05 136.072L1054.56 135.2ZM1045.16 102L1044.42 101.327L1044.42 101.334L1045.16 102ZM1045.16 42.8L1044.42 43.466L1044.42 43.473L1044.43 43.4799L1045.16 42.8ZM991.163 42.6L990.429 41.92L990.423 41.9273L991.163 42.6ZM991.163 102.2L990.417 102.866L990.423 102.873L990.429 102.88L991.163 102.2ZM1018.36 143.4C1005.32 143.4 993.359 140.373 982.447 134.325L981.478 136.075C992.699 142.294 1005 145.4 1018.36 145.4V143.4ZM982.452 134.328C971.673 128.281 963.066 119.873 956.621 109.087L954.904 110.113C961.525 121.194 970.385 129.852 981.473 136.072L982.452 134.328ZM956.628 109.099C950.323 98.1961 947.162 85.971 947.162 72.4H945.162C945.162 86.2956 948.402 98.8705 954.897 110.101L956.628 109.099ZM947.162 72.4C947.162 58.8288 950.323 46.6725 956.626 35.9052L954.899 34.8948C948.402 45.9942 945.162 58.5045 945.162 72.4H947.162ZM956.621 35.9129C963.066 25.127 971.673 16.7186 982.452 10.6721L981.473 8.92786C970.385 15.1481 961.525 23.8063 954.904 34.887L956.621 35.9129ZM982.447 10.6747C993.359 4.62715 1005.32 1.6 1018.36 1.6V-0.400002C1005 -0.400002 992.699 2.70618 981.478 8.92534L982.447 10.6747ZM1018.36 1.6C1031.4 1.6 1043.3 4.62712 1054.07 10.6721L1055.05 8.92786C1043.96 2.7062 1031.72 -0.400002 1018.36 -0.400002V1.6ZM1054.08 10.6747C1064.99 16.7199 1073.52 25.123 1079.69 35.8973L1081.43 34.9027C1075.07 23.8103 1066.27 15.1468 1055.05 8.92534L1054.08 10.6747ZM1079.7 35.9052C1086 46.6725 1089.16 58.8288 1089.16 72.4H1091.16C1091.16 58.5045 1087.92 45.9942 1081.43 34.8948L1079.7 35.9052ZM1089.16 72.4C1089.16 85.971 1086 98.1961 1079.7 109.099L1081.43 110.101C1087.92 98.8705 1091.16 86.2956 1091.16 72.4H1089.16ZM1079.7 109.095C1073.39 119.877 1064.85 128.282 1054.07 134.328L1055.05 136.072C1066.14 129.851 1074.94 121.19 1081.43 110.105L1079.7 109.095ZM1054.07 134.328C1043.3 140.373 1031.4 143.4 1018.36 143.4V145.4C1031.72 145.4 1043.96 142.294 1055.05 136.072L1054.07 134.328ZM1018.36 114.2C1029.81 114.2 1039.03 110.372 1045.91 102.666L1044.42 101.334C1037.96 108.562 1029.32 112.2 1018.36 112.2V114.2ZM1045.9 102.673C1052.9 94.9848 1056.36 84.8595 1056.36 72.4H1054.36C1054.36 84.4738 1051.02 94.0819 1044.42 101.327L1045.9 102.673ZM1056.36 72.4C1056.36 59.8112 1052.91 49.68 1045.9 42.1201L1044.43 43.4799C1051.02 50.5866 1054.36 60.1888 1054.36 72.4H1056.36ZM1045.91 42.134C1039.03 34.4282 1029.81 30.6 1018.36 30.6V32.6C1029.32 32.6 1037.96 36.2384 1044.42 43.466L1045.91 42.134ZM1018.36 30.6C1006.79 30.6 997.445 34.3545 990.429 41.9201L991.896 43.2799C998.48 36.1788 1007.27 32.6 1018.36 32.6V30.6ZM990.423 41.9273C983.548 49.4897 980.163 59.6862 980.163 72.4H982.163C982.163 60.0471 985.444 50.377 991.902 43.2727L990.423 41.9273ZM980.163 72.4C980.163 84.9846 983.55 95.1751 990.417 102.866L991.908 101.534C985.442 94.2915 982.163 84.6154 982.163 72.4H980.163ZM990.429 102.88C997.445 110.446 1006.79 114.2 1018.36 114.2V112.2C1007.27 112.2 998.48 108.621 991.896 101.52L990.429 102.88ZM1110.39 139.4L1109.69 140.12L1109.71 140.132L1109.72 140.145L1110.39 139.4ZM1110.39 112.8L1109.71 112.068L1109.7 112.074L1109.69 112.08L1110.39 112.8ZM1139.59 112.8L1138.89 113.52L1138.9 113.526L1138.91 113.532L1139.59 112.8ZM1139.59 139.4L1140.27 140.133L1140.27 140.132L1139.59 139.4ZM1125.19 143.6C1119.39 143.6 1114.71 141.932 1111.06 138.655L1109.72 140.145C1113.8 143.801 1118.98 145.6 1125.19 145.6V143.6ZM1111.08 138.68C1107.55 135.269 1105.79 131.129 1105.79 126.2H1103.79C1103.79 131.671 1105.77 136.331 1109.69 140.12L1111.08 138.68ZM1105.79 126.2C1105.79 121.13 1107.55 116.925 1111.08 113.52L1109.69 112.08C1105.76 115.875 1103.79 120.604 1103.79 126.2H1105.79ZM1111.07 113.532C1114.73 110.128 1119.4 108.4 1125.19 108.4V106.4C1118.97 106.4 1113.78 108.272 1109.71 112.068L1111.07 113.532ZM1125.19 108.4C1130.83 108.4 1135.37 110.124 1138.89 113.52L1140.28 112.08C1136.34 108.276 1131.28 106.4 1125.19 106.4V108.4ZM1138.91 113.532C1142.57 116.941 1144.39 121.141 1144.39 126.2H1146.39C1146.39 120.592 1144.34 115.859 1140.27 112.068L1138.91 113.532ZM1144.39 126.2C1144.39 131.117 1142.57 135.254 1138.91 138.668L1140.27 140.132C1144.34 136.346 1146.39 131.683 1146.39 126.2H1144.39ZM1138.91 138.667C1135.39 141.936 1130.84 143.6 1125.19 143.6V145.6C1131.27 145.6 1136.32 143.797 1140.27 140.133L1138.91 138.667ZM1309.42 70.2L1310.29 70.6886L1310.29 70.6813L1309.42 70.2ZM1292.22 86.4L1291.75 85.5181L1291.75 85.5181L1292.22 86.4ZM1242.22 92.6V91.6H1241.22V92.6H1242.22ZM1242.22 143V144H1243.22V143H1242.22ZM1208.02 143H1207.02V144H1208.02V143ZM1208.02 2.6V1.6H1207.02V2.6H1208.02ZM1291.82 8.39999L1292.26 7.50557L1292.26 7.50557L1291.82 8.39999ZM1242.22 30.2V29.2H1241.22V30.2H1242.22ZM1242.22 65.4H1241.22V66.4H1242.22V65.4ZM1314.02 47.8C1314.02 55.7735 1312.19 63.0735 1308.54 69.7187L1310.29 70.6813C1314.11 63.7265 1316.02 56.0931 1316.02 47.8H1314.02ZM1308.54 69.7114C1304.92 76.1878 1299.34 81.4612 1291.75 85.5181L1292.69 87.2819C1300.56 83.0721 1306.45 77.5456 1310.29 70.6886L1308.54 69.7114ZM1291.75 85.5181C1284.2 89.5537 1274.77 91.6 1263.42 91.6V93.6C1275 93.6 1284.77 91.513 1292.69 87.2819L1291.75 85.5181ZM1263.42 91.6H1242.22V93.6H1263.42V91.6ZM1241.22 92.6V143H1243.22V92.6H1241.22ZM1242.22 142H1208.02V144H1242.22V142ZM1209.02 143V2.6H1207.02V143H1209.02ZM1208.02 3.6H1263.42V1.6H1208.02V3.6ZM1263.42 3.6C1274.51 3.6 1283.81 5.51459 1291.37 9.29442L1292.26 7.50557C1284.36 3.55207 1274.73 1.6 1263.42 1.6V3.6ZM1291.37 9.29442C1298.95 13.0822 1304.59 18.2845 1308.35 24.8943L1310.09 23.9057C1306.11 16.9155 1300.16 11.4511 1292.26 7.50557L1291.37 9.29442ZM1308.35 24.8943C1312.12 31.5255 1314.02 39.1512 1314.02 47.8H1316.02C1316.02 38.8488 1314.05 30.8744 1310.09 23.9057L1308.35 24.8943ZM1260.82 66.4C1267.49 66.4 1272.65 64.8361 1276.11 61.522L1274.73 60.078C1271.78 62.8972 1267.21 64.4 1260.82 64.4V66.4ZM1276.11 61.522C1279.55 58.2198 1281.22 53.5965 1281.22 47.8H1279.22C1279.22 53.2035 1277.68 57.2468 1274.73 60.078L1276.11 61.522ZM1281.22 47.8C1281.22 42.0035 1279.55 37.3802 1276.11 34.078L1274.73 35.522C1277.68 38.3532 1279.22 42.3965 1279.22 47.8H1281.22ZM1276.11 34.078C1272.65 30.7639 1267.49 29.2 1260.82 29.2V31.2C1267.21 31.2 1271.78 32.7027 1274.73 35.522L1276.11 34.078ZM1260.82 29.2H1242.22V31.2H1260.82V29.2ZM1241.22 30.2V65.4H1243.22V30.2H1241.22ZM1242.22 66.4H1260.82V64.4H1242.22V66.4ZM1362.82 135.2L1362.33 136.072L1362.34 136.075L1362.82 135.2ZM1336.62 109.6L1335.76 110.101L1335.76 110.107L1335.76 110.113L1336.62 109.6ZM1336.62 35.4L1335.76 34.887L1335.76 34.8948L1336.62 35.4ZM1362.82 9.8L1362.34 8.92533L1362.33 8.92786L1362.82 9.8ZM1435.42 9.8L1434.93 10.6722L1434.94 10.6747L1435.42 9.8ZM1461.42 35.4L1460.55 35.8973L1460.56 35.9052L1461.42 35.4ZM1461.42 109.6L1462.28 110.105L1462.29 110.101L1461.42 109.6ZM1435.42 135.2L1435.91 136.072L1435.91 136.072L1435.42 135.2ZM1426.02 102L1425.28 101.327L1425.28 101.334L1426.02 102ZM1426.02 42.8L1425.28 43.466L1425.28 43.473L1425.29 43.4799L1426.02 42.8ZM1372.02 42.6L1371.29 41.92L1371.28 41.9273L1372.02 42.6ZM1372.02 102.2L1371.28 102.866L1371.28 102.873L1371.29 102.88L1372.02 102.2ZM1399.22 143.4C1386.18 143.4 1374.22 140.373 1363.31 134.325L1362.34 136.075C1373.56 142.294 1385.86 145.4 1399.22 145.4V143.4ZM1363.31 134.328C1352.53 128.281 1343.93 119.873 1337.48 109.087L1335.76 110.113C1342.38 121.194 1351.24 129.852 1362.33 136.072L1363.31 134.328ZM1337.49 109.099C1331.18 98.1961 1328.02 85.971 1328.02 72.4H1326.02C1326.02 86.2956 1329.26 98.8705 1335.76 110.101L1337.49 109.099ZM1328.02 72.4C1328.02 58.8288 1331.18 46.6725 1337.48 35.9052L1335.76 34.8948C1329.26 45.9942 1326.02 58.5045 1326.02 72.4H1328.02ZM1337.48 35.9129C1343.93 25.127 1352.53 16.7186 1363.31 10.6721L1362.33 8.92786C1351.24 15.1481 1342.38 23.8063 1335.76 34.887L1337.48 35.9129ZM1363.31 10.6747C1374.22 4.62715 1386.18 1.6 1399.22 1.6V-0.400002C1385.86 -0.400002 1373.56 2.70618 1362.34 8.92534L1363.31 10.6747ZM1399.22 1.6C1412.26 1.6 1424.16 4.62712 1434.93 10.6721L1435.91 8.92786C1424.82 2.7062 1412.58 -0.400002 1399.22 -0.400002V1.6ZM1434.94 10.6747C1445.84 16.7199 1454.38 25.123 1460.55 35.8973L1462.29 34.9027C1455.93 23.8103 1447.13 15.1468 1435.91 8.92534L1434.94 10.6747ZM1460.56 35.9052C1466.86 46.6725 1470.02 58.8288 1470.02 72.4H1472.02C1472.02 58.5045 1468.78 45.9942 1462.28 34.8948L1460.56 35.9052ZM1470.02 72.4C1470.02 85.971 1466.86 98.1961 1460.56 109.099L1462.29 110.101C1468.78 98.8705 1472.02 86.2956 1472.02 72.4H1470.02ZM1460.56 109.095C1454.25 119.877 1445.71 128.282 1434.93 134.328L1435.91 136.072C1447 129.851 1455.8 121.19 1462.28 110.105L1460.56 109.095ZM1434.93 134.328C1424.16 140.373 1412.26 143.4 1399.22 143.4V145.4C1412.58 145.4 1424.82 142.294 1435.91 136.072L1434.93 134.328ZM1399.22 114.2C1410.67 114.2 1419.89 110.372 1426.77 102.666L1425.28 101.334C1418.82 108.562 1410.17 112.2 1399.22 112.2V114.2ZM1426.76 102.673C1433.76 94.9848 1437.22 84.8595 1437.22 72.4H1435.22C1435.22 84.4738 1431.88 94.0819 1425.28 101.327L1426.76 102.673ZM1437.22 72.4C1437.22 59.8112 1433.77 49.68 1426.76 42.1201L1425.29 43.4799C1431.88 50.5866 1435.22 60.1888 1435.22 72.4H1437.22ZM1426.77 42.134C1419.89 34.4282 1410.67 30.6 1399.22 30.6V32.6C1410.17 32.6 1418.82 36.2384 1425.28 43.466L1426.77 42.134ZM1399.22 30.6C1387.65 30.6 1378.3 34.3545 1371.29 41.9201L1372.76 43.2799C1379.34 36.1788 1388.13 32.6 1399.22 32.6V30.6ZM1371.28 41.9273C1364.41 49.4897 1361.02 59.6862 1361.02 72.4H1363.02C1363.02 60.0471 1366.3 50.377 1372.76 43.2727L1371.28 41.9273ZM1361.02 72.4C1361.02 84.9846 1364.41 95.1751 1371.28 102.866L1372.77 101.534C1366.3 94.2915 1363.02 84.6154 1363.02 72.4H1361.02ZM1371.29 102.88C1378.3 110.446 1387.65 114.2 1399.22 114.2V112.2C1388.13 112.2 1379.34 108.621 1372.76 101.52L1371.29 102.88ZM1561.65 143L1560.77 143.483L1561.06 144H1561.65V143ZM1532.45 90L1533.32 89.5174L1533.04 89H1532.45V90ZM1524.25 90V89H1523.25V90H1524.25ZM1524.25 143V144H1525.25V143H1524.25ZM1490.05 143H1489.05V144H1490.05V143ZM1490.05 2.6V1.6H1489.05V2.6H1490.05ZM1575.65 8.39999L1575.2 9.29444L1575.21 9.29744L1575.65 8.39999ZM1593.25 24.4L1592.38 24.8943L1592.38 24.9017L1593.25 24.4ZM1591.05 71.8L1590.24 71.2118L1590.23 71.2216L1591.05 71.8ZM1567.85 87.4L1567.56 86.4418L1566.34 86.8055L1566.98 87.9035L1567.85 87.4ZM1600.25 143V144H1601.99L1601.11 142.497L1600.25 143ZM1524.25 65.8H1523.25V66.8H1524.25V65.8ZM1559.45 61.2L1558.76 60.478L1558.75 60.4854L1558.74 60.4929L1559.45 61.2ZM1559.45 35.6L1558.74 36.3071L1558.75 36.3146L1558.76 36.322L1559.45 35.6ZM1524.25 31V30H1523.25V31H1524.25ZM1562.52 142.517L1533.32 89.5174L1531.57 90.4825L1560.77 143.483L1562.52 142.517ZM1532.45 89H1524.25V91H1532.45V89ZM1523.25 90V143H1525.25V90H1523.25ZM1524.25 142L1490.05 142V144L1524.25 144V142ZM1491.05 143V2.6H1489.05V143L1491.05 143ZM1490.05 3.6L1547.45 3.6V1.6L1490.05 1.6V3.6ZM1547.45 3.6C1558.4 3.6 1567.64 5.51385 1575.2 9.29442L1576.1 7.50557C1568.19 3.55281 1558.63 1.6 1547.45 1.6V3.6ZM1575.21 9.29744C1582.92 13.0867 1588.62 18.2892 1592.38 24.8943L1594.12 23.9057C1590.14 16.9108 1584.11 11.4466 1576.09 7.50254L1575.21 9.29744ZM1592.38 24.9017C1596.16 31.4049 1598.05 38.6963 1598.05 46.8H1600.05C1600.05 38.3704 1598.07 30.7284 1594.11 23.8983L1592.38 24.9017ZM1598.05 46.8C1598.05 55.9286 1595.44 64.0547 1590.24 71.2118L1591.86 72.3882C1597.32 64.8786 1600.05 56.338 1600.05 46.8H1598.05ZM1590.23 71.2216C1585.19 78.3396 1577.66 83.4264 1567.56 86.4418L1568.13 88.3582C1578.57 85.2403 1586.51 79.9271 1591.86 72.3784L1590.23 71.2216ZM1566.98 87.9035L1599.38 143.503L1601.11 142.497L1568.71 86.8965L1566.98 87.9035ZM1600.25 142H1561.65V144H1600.25V142ZM1524.25 66.8H1545.45V64.8H1524.25V66.8ZM1545.45 66.8C1551.86 66.8 1556.83 65.231 1560.16 61.9071L1558.74 60.4929C1555.93 63.3023 1551.57 64.8 1545.45 64.8V66.8ZM1560.14 61.922C1563.59 58.6198 1565.25 53.9965 1565.25 48.2H1563.25C1563.25 53.6035 1561.71 57.6468 1558.76 60.478L1560.14 61.922ZM1565.25 48.2C1565.25 42.6537 1563.58 38.1709 1560.14 34.878L1558.76 36.322C1561.72 39.1624 1563.25 43.0796 1563.25 48.2H1565.25ZM1560.16 34.8929C1556.83 31.569 1551.86 30 1545.45 30V32C1551.57 32 1555.93 33.4977 1558.74 36.3071L1560.16 34.8929ZM1545.45 30L1524.25 30V32L1545.45 32V30ZM1523.25 31V65.8H1525.25V31H1523.25ZM1721.52 2.6H1722.52V1.6H1721.52V2.6ZM1721.52 30V31H1722.52V30H1721.52ZM1684.32 30V29H1683.32V30H1684.32ZM1684.32 143V144H1685.32V143H1684.32ZM1650.12 143H1649.12V144H1650.12V143ZM1650.12 30H1651.12V29H1650.12V30ZM1612.92 30H1611.92V31H1612.92V30ZM1612.92 2.6V1.6H1611.92V2.6H1612.92ZM1720.52 2.6V30H1722.52V2.6H1720.52ZM1721.52 29L1684.32 29V31L1721.52 31V29ZM1683.32 30V143H1685.32V30H1683.32ZM1684.32 142L1650.12 142V144L1684.32 144V142ZM1651.12 143V30H1649.12V143H1651.12ZM1650.12 29L1612.92 29V31L1650.12 31V29ZM1613.92 30V2.6H1611.92V30H1613.92ZM1612.92 3.6L1721.52 3.6V1.6L1612.92 1.6V3.6ZM1830.08 2.6H1831.08V1.6H1830.08V2.6ZM1830.08 30V31H1831.08V30H1830.08ZM1772.88 30V29H1771.88V30H1772.88ZM1772.88 59.6H1771.88V60.6H1772.88V59.6ZM1815.68 59.6H1816.68V58.6H1815.68V59.6ZM1815.68 86.2V87.2H1816.68V86.2H1815.68ZM1772.88 86.2V85.2H1771.88V86.2H1772.88ZM1772.88 143V144H1773.88V143H1772.88ZM1738.68 143H1737.68V144H1738.68V143ZM1738.68 2.6V1.6H1737.68V2.6H1738.68ZM1829.08 2.6V30H1831.08V2.6H1829.08ZM1830.08 29L1772.88 29V31L1830.08 31V29ZM1771.88 30V59.6H1773.88V30H1771.88ZM1772.88 60.6H1815.68V58.6H1772.88V60.6ZM1814.68 59.6V86.2H1816.68V59.6H1814.68ZM1815.68 85.2H1772.88V87.2H1815.68V85.2ZM1771.88 86.2V143H1773.88V86.2H1771.88ZM1772.88 142H1738.68V144H1772.88V142ZM1739.68 143V2.6H1737.68V143H1739.68ZM1738.68 3.6L1830.08 3.6V1.6L1738.68 1.6V3.6ZM1878.06 135.2L1877.57 136.072L1877.57 136.075L1878.06 135.2ZM1851.86 109.6L1850.99 110.101L1850.99 110.107L1851 110.113L1851.86 109.6ZM1851.86 35.4L1851 34.887L1850.99 34.8948L1851.86 35.4ZM1878.06 9.8L1877.57 8.92533L1877.57 8.92786L1878.06 9.8ZM1950.66 9.8L1950.17 10.6722L1950.17 10.6747L1950.66 9.8ZM1976.66 35.4L1975.79 35.8973L1975.79 35.9052L1976.66 35.4ZM1976.66 109.6L1977.52 110.105L1977.52 110.101L1976.66 109.6ZM1950.66 135.2L1951.15 136.072L1951.15 136.072L1950.66 135.2ZM1941.26 102L1940.52 101.327L1940.51 101.334L1941.26 102ZM1941.26 42.8L1940.51 43.466L1940.52 43.473L1940.52 43.4799L1941.26 42.8ZM1887.26 42.6L1886.52 41.92L1886.52 41.9273L1887.26 42.6ZM1887.26 102.2L1886.51 102.866L1886.52 102.873L1886.52 102.88L1887.26 102.2ZM1914.46 143.4C1901.42 143.4 1889.45 140.373 1878.54 134.325L1877.57 136.075C1888.79 142.294 1901.09 145.4 1914.46 145.4V143.4ZM1878.55 134.328C1867.77 128.281 1859.16 119.873 1852.71 109.087L1851 110.113C1857.62 121.194 1866.48 129.852 1877.57 136.072L1878.55 134.328ZM1852.72 109.099C1846.42 98.1961 1843.26 85.971 1843.26 72.4H1841.26C1841.26 86.2956 1844.5 98.8705 1850.99 110.101L1852.72 109.099ZM1843.26 72.4C1843.26 58.8288 1846.42 46.6725 1852.72 35.9052L1850.99 34.8948C1844.5 45.9942 1841.26 58.5045 1841.26 72.4H1843.26ZM1852.71 35.9129C1859.16 25.127 1867.77 16.7186 1878.55 10.6721L1877.57 8.92786C1866.48 15.1481 1857.62 23.8063 1851 34.887L1852.71 35.9129ZM1878.54 10.6747C1889.45 4.62715 1901.42 1.6 1914.46 1.6V-0.400002C1901.09 -0.400002 1888.79 2.70618 1877.57 8.92534L1878.54 10.6747ZM1914.46 1.6C1927.49 1.6 1939.39 4.62712 1950.17 10.6721L1951.15 8.92786C1940.05 2.7062 1927.82 -0.400002 1914.46 -0.400002V1.6ZM1950.17 10.6747C1961.08 16.7199 1969.61 25.123 1975.79 35.8973L1977.52 34.9027C1971.17 23.8103 1962.37 15.1468 1951.14 8.92534L1950.17 10.6747ZM1975.79 35.9052C1982.1 46.6725 1985.26 58.8288 1985.26 72.4H1987.26C1987.26 58.5045 1984.02 45.9942 1977.52 34.8948L1975.79 35.9052ZM1985.26 72.4C1985.26 85.971 1982.1 98.1961 1975.79 109.099L1977.52 110.101C1984.02 98.8705 1987.26 86.2956 1987.26 72.4H1985.26ZM1975.79 109.095C1969.48 119.877 1960.94 128.282 1950.17 134.328L1951.15 136.072C1962.24 129.851 1971.03 121.19 1977.52 110.105L1975.79 109.095ZM1950.17 134.328C1939.39 140.373 1927.49 143.4 1914.46 143.4V145.4C1927.82 145.4 1940.05 142.294 1951.15 136.072L1950.17 134.328ZM1914.46 114.2C1925.9 114.2 1935.12 110.372 1942 102.666L1940.51 101.334C1934.06 108.562 1925.41 112.2 1914.46 112.2V114.2ZM1942 102.673C1949 94.9848 1952.46 84.8595 1952.46 72.4H1950.46C1950.46 84.4738 1947.11 94.0819 1940.52 101.327L1942 102.673ZM1952.46 72.4C1952.46 59.8112 1949 49.68 1941.99 42.1201L1940.52 43.4799C1947.11 50.5866 1950.46 60.1888 1950.46 72.4H1952.46ZM1942 42.134C1935.12 34.4282 1925.9 30.6 1914.46 30.6V32.6C1925.41 32.6 1934.06 36.2384 1940.51 43.466L1942 42.134ZM1914.46 30.6C1902.89 30.6 1893.54 34.3545 1886.52 41.9201L1887.99 43.2799C1894.57 36.1788 1903.36 32.6 1914.46 32.6V30.6ZM1886.52 41.9273C1879.64 49.4897 1876.26 59.6862 1876.26 72.4H1878.26C1878.26 60.0471 1881.54 50.377 1888 43.2727L1886.52 41.9273ZM1876.26 72.4C1876.26 84.9846 1879.64 95.1751 1886.51 102.866L1888 101.534C1881.54 94.2915 1878.26 84.6154 1878.26 72.4H1876.26ZM1886.52 102.88C1893.54 110.446 1902.89 114.2 1914.46 114.2V112.2C1903.36 112.2 1894.57 108.621 1887.99 101.52L1886.52 102.88ZM2039.48 116.6H2038.48V117.6H2039.48V116.6ZM2084.28 116.6H2085.28V115.6H2084.28V116.6ZM2084.28 143V144H2085.28V143H2084.28ZM2005.28 143H2004.28V144H2005.28V143ZM2005.28 2.6V1.6H2004.28V2.6H2005.28ZM2039.48 2.6H2040.48V1.6H2039.48V2.6ZM2039.48 117.6H2084.28V115.6H2039.48V117.6ZM2083.28 116.6V143H2085.28V116.6H2083.28ZM2084.28 142L2005.28 142V144L2084.28 144V142ZM2006.28 143V2.6H2004.28V143H2006.28ZM2005.28 3.6H2039.48V1.6H2005.28V3.6ZM2038.48 2.6V116.6H2040.48V2.6H2038.48ZM2134.8 2.6H2135.8V1.6H2134.8V2.6ZM2134.8 143V144H2135.8V143H2134.8ZM2100.6 143H2099.6V144H2100.6V143ZM2100.6 2.6V1.6H2099.6V2.6H2100.6ZM2133.8 2.6V143H2135.8V2.6H2133.8ZM2134.8 142H2100.6V144H2134.8V142ZM2101.6 143V2.6H2099.6V143H2101.6ZM2100.6 3.6H2134.8V1.6H2100.6V3.6ZM2189.58 135.2L2189.09 136.072L2189.09 136.075L2189.58 135.2ZM2163.38 109.6L2162.51 110.101L2162.52 110.107L2162.52 110.113L2163.38 109.6ZM2163.38 35.4L2162.52 34.887L2162.52 34.8948L2163.38 35.4ZM2189.58 9.8L2189.09 8.92533L2189.09 8.92786L2189.58 9.8ZM2262.18 9.8L2261.69 10.6722L2261.69 10.6747L2262.18 9.8ZM2288.18 35.4L2287.31 35.8973L2287.32 35.9052L2288.18 35.4ZM2288.18 109.6L2289.04 110.105L2289.05 110.101L2288.18 109.6ZM2262.18 135.2L2262.67 136.072L2262.67 136.072L2262.18 135.2ZM2252.78 102L2252.04 101.327L2252.03 101.334L2252.78 102ZM2252.78 42.8L2252.03 43.466L2252.04 43.473L2252.05 43.4799L2252.78 42.8ZM2198.78 42.6L2198.05 41.92L2198.04 41.9273L2198.78 42.6ZM2198.78 102.2L2198.03 102.866L2198.04 102.873L2198.05 102.88L2198.78 102.2ZM2225.98 143.4C2212.94 143.4 2200.98 140.373 2190.06 134.325L2189.09 136.075C2200.32 142.294 2212.62 145.4 2225.98 145.4V143.4ZM2190.07 134.328C2179.29 128.281 2170.68 119.873 2164.24 109.087L2162.52 110.113C2169.14 121.194 2178 129.852 2189.09 136.072L2190.07 134.328ZM2164.25 109.099C2157.94 98.1961 2154.78 85.971 2154.78 72.4H2152.78C2152.78 86.2956 2156.02 98.8705 2162.51 110.101L2164.25 109.099ZM2154.78 72.4C2154.78 58.8288 2157.94 46.6725 2164.24 35.9052L2162.52 34.8948C2156.02 45.9942 2152.78 58.5045 2152.78 72.4H2154.78ZM2164.24 35.9129C2170.68 25.127 2179.29 16.7186 2190.07 10.6721L2189.09 8.92786C2178 15.1481 2169.14 23.8063 2162.52 34.887L2164.24 35.9129ZM2190.06 10.6747C2200.98 4.62715 2212.94 1.6 2225.98 1.6V-0.400002C2212.62 -0.400002 2200.32 2.70618 2189.09 8.92534L2190.06 10.6747ZM2225.98 1.6C2239.02 1.6 2250.91 4.62712 2261.69 10.6721L2262.67 8.92786C2251.58 2.7062 2239.34 -0.400002 2225.98 -0.400002V1.6ZM2261.69 10.6747C2272.6 16.7199 2281.14 25.123 2287.31 35.8973L2289.05 34.9027C2282.69 23.8103 2273.89 15.1468 2262.66 8.92534L2261.69 10.6747ZM2287.32 35.9052C2293.62 46.6725 2296.78 58.8288 2296.78 72.4H2298.78C2298.78 58.5045 2295.54 45.9942 2289.04 34.8948L2287.32 35.9052ZM2296.78 72.4C2296.78 85.971 2293.62 98.1961 2287.31 109.099L2289.05 110.101C2295.54 98.8705 2298.78 86.2956 2298.78 72.4H2296.78ZM2287.32 109.095C2281.01 119.877 2272.47 128.282 2261.69 134.328L2262.67 136.072C2273.76 129.851 2282.55 121.19 2289.04 110.105L2287.32 109.095ZM2261.69 134.328C2250.91 140.373 2239.02 143.4 2225.98 143.4V145.4C2239.34 145.4 2251.58 142.294 2262.67 136.072L2261.69 134.328ZM2225.98 114.2C2237.43 114.2 2246.65 110.372 2253.53 102.666L2252.03 101.334C2245.58 108.562 2236.93 112.2 2225.98 112.2V114.2ZM2253.52 102.673C2260.52 94.9848 2263.98 84.8595 2263.98 72.4H2261.98C2261.98 84.4738 2258.64 94.0819 2252.04 101.327L2253.52 102.673ZM2263.98 72.4C2263.98 59.8112 2260.52 49.68 2253.51 42.1201L2252.05 43.4799C2258.64 50.5866 2261.98 60.1888 2261.98 72.4H2263.98ZM2253.53 42.134C2246.65 34.4282 2237.43 30.6 2225.98 30.6V32.6C2236.93 32.6 2245.58 36.2384 2252.03 43.466L2253.53 42.134ZM2225.98 30.6C2214.41 30.6 2205.06 34.3545 2198.05 41.9201L2199.51 43.2799C2206.1 36.1788 2214.88 32.6 2225.98 32.6V30.6ZM2198.04 41.9273C2191.16 49.4897 2187.78 59.6862 2187.78 72.4H2189.78C2189.78 60.0471 2193.06 50.377 2199.52 43.2727L2198.04 41.9273ZM2187.78 72.4C2187.78 84.9846 2191.17 95.1751 2198.03 102.866L2199.53 101.534C2193.06 94.2915 2189.78 84.6154 2189.78 72.4H2187.78ZM2198.05 102.88C2205.06 110.446 2214.41 114.2 2225.98 114.2V112.2C2214.88 112.2 2206.1 108.621 2199.51 101.52L2198.05 102.88Z" fill="#274546" fill-opacity="0.2"/>
</svg>
