<svg width="360" height="229" viewBox="0 0 360 229" fill="none" xmlns="http://www.w3.org/2000/svg">
<path fill-rule="evenodd" clip-rule="evenodd" d="M328.223 0L328.473 0.00433127C335.262 0.184826 341.248 4.55024 345.891 9.17021C348.187 11.4545 350.281 14.1415 351.266 17.2682C352.404 20.88 352.029 24.8528 351.164 28.4777C349.251 36.4885 346.914 44.5406 344.286 52.3477C342.993 56.1882 341.118 59.9539 340.142 63.8847C339.337 67.1232 342.725 69.4819 342.855 72.8099C342.986 76.1672 340.726 79.3212 337.62 80.521C336.297 81.032 334.696 80.6051 333.477 81.1288C332.361 81.6075 331.971 83.0202 331.756 84.1047C331.465 85.5837 331.517 87.0616 331.6 88.5538C331.651 89.4667 331.423 90.9565 331.869 91.7707C332.175 92.3299 332.733 92.5127 333.213 92.8953C333.869 93.4175 334.306 94.0674 334.881 94.6675C335.829 95.6579 336.741 96.1943 336.998 97.6391C337.135 97.3109 337.272 96.9827 337.409 96.6548C338.115 97.9465 338.639 98.5658 337.967 99.7919C340.052 99.5875 341.287 103.366 341.833 104.799C342.834 107.422 343.521 110.147 344.524 112.771C345.899 116.369 347.705 119.92 348.582 123.684C349.319 126.848 349.902 130.098 350.557 133.284C350.926 135.078 351.248 136.9 351.923 138.611C352.185 139.275 352.672 139.722 352.974 140.314C353.386 141.124 353.225 141.552 353.245 142.439C353.279 144.021 354.278 145.049 354.592 146.585C354.928 148.227 355.202 149.888 355.54 151.533C356.222 154.847 357.485 158.156 357.789 161.513C358.143 165.411 358.9 169.261 359.281 173.161C359.615 176.568 359.048 180.225 359.76 183.521C360.391 186.447 359.609 189.122 359.33 192.026C359.259 192.763 360.396 197.154 358.569 196.311C358.913 197.346 359.393 197.839 359.419 198.975C359.443 200.037 359.169 201.129 358.945 202.158C358.513 204.149 358.225 206.318 357.378 208.182C356.421 210.291 354.962 210.543 352.978 211.267C351.635 211.757 349.217 213.505 348.159 211.635C347.528 213.554 346.296 212.228 344.915 212.12C344.924 212.121 344.124 212.416 343.975 212.437C343.489 212.502 342.915 212.273 342.432 212.233C341.228 212.133 340.046 212.294 338.868 212.538C336.153 213.1 333.526 213.877 330.771 214.269C325.389 215.034 320.115 214.673 314.725 215.008C304.178 215.663 293.456 215.113 282.9 214.829C281.767 214.799 280.546 214.957 279.428 214.783C278.223 214.596 277.96 214.026 277.021 213.455C275.46 212.507 273.728 213.429 272.108 213.775C267.354 214.792 262.388 214.867 257.596 215.851C247.859 217.849 238.887 221.793 229.561 225.119C225.517 226.561 220.771 228.897 216.411 228.998C211.127 229.112 212.375 223.911 213.346 220.568C210.293 221.378 205.499 225.079 202.395 222.931C198.697 220.371 203.403 216.117 203.624 213.108C197.014 214.479 189.516 217.487 182.807 215.042C181.516 214.572 180.393 213.578 179.007 213.416C177.566 213.248 176.043 213.757 174.587 213.748C171.269 213.727 168.047 213.285 164.73 213.694C157.334 214.604 150.043 215.102 142.588 215.299C135.082 215.496 127.576 215.94 120.067 215.922C116.256 215.912 112.374 215.461 108.57 215.663C107.076 215.743 103.862 216.827 102.813 215.31C101.759 216.572 100.864 215.729 99.5125 215.869C99.763 215.843 98.8085 216.394 98.665 216.448C97.9545 216.711 97.2903 216.631 96.5485 216.623C94.5726 216.603 92.7266 217.527 90.7607 217.438C90.2636 217.416 89.8877 217.271 89.4659 217.101C89.366 217.06 89.3899 216.63 89.2297 216.595C88.268 216.379 88.5165 216.968 87.906 217.265C87.2291 217.593 86.2276 217.062 86.6127 218.073C84.7761 217.992 83.0359 218.611 81.3648 217.522C82.1548 219.267 79.395 217.818 78.6737 217.789C77.475 217.741 76.4253 218.34 75.2297 218.478C73.7959 218.643 72.3553 217.979 70.9524 218.384C69.8533 218.702 69.477 219.466 68.3331 219.075C67.3613 218.743 66.7542 218.023 66.2826 217.235C65.6319 216.148 65.5486 215.662 63.9794 215.643C62.8158 215.629 61.646 215.879 60.4713 215.877C59.1251 215.874 57.6459 215.731 56.4171 216.371C55.0933 217.06 54.3157 218.108 52.8476 218.648C46.2458 221.074 38.9988 220.432 32.1107 220.39C29.2046 220.373 27.072 220.64 26.2561 217.327C25.5668 214.528 25.2905 211.602 24.6329 208.78C23.8271 205.322 22.9413 202.114 21.1533 199.023C19.4189 196.025 17.9597 192.928 16.4496 189.814C13.3089 183.338 8.93705 177.828 4.06273 172.565C2.21103 170.565 0.0887946 168.338 0.00259764 165.458C-0.0605609 162.972 1.03548 160.396 2.47308 158.415C3.75669 156.647 5.87159 154.653 8.26398 155.065C9.70467 155.314 10.649 156.475 11.7242 157.346C12.8994 158.298 14.1795 158.947 15.5959 159.466C18.8987 160.676 21.6685 162.001 24.5287 164.091C27.4228 166.205 30.1282 168.573 32.6309 171.138C37.4354 176.061 42.3583 181.175 45.1189 187.55C46.2068 190.061 46.9019 192.483 47.6437 195.088C48.3723 197.645 50.356 196.94 52.5867 196.572C55.3052 196.124 58.0372 195.884 60.7738 195.6C61.8039 195.493 63.2561 195.462 63.8763 194.489C64.5602 193.416 63.7768 192.027 63.7146 190.914C63.6814 190.32 63.8787 189.882 63.9281 189.302C63.9848 188.643 63.7899 188.041 63.7891 187.385C63.7883 185.973 64.4494 184.716 65.5482 183.861C67.6041 182.26 70.6027 181.306 73.0368 180.425C76.3601 179.223 79.9211 178.632 83.3435 177.774C87.197 176.807 91.0737 175.937 94.9481 175.059C98.7549 174.196 102.556 173.309 106.404 172.645C108.661 172.256 111.109 172.398 113.297 171.686C115.622 170.929 115.236 168.592 115.23 166.52C115.218 163.099 115.642 159.577 116.143 156.195C117.21 149.006 119.751 141.969 122.061 135.099C124.286 128.481 127.043 122.13 131.594 116.76C136.024 111.532 141.461 106.801 147.102 102.916C152.979 98.8682 159.518 95.9437 165.653 92.3299C164.312 91.3052 162.713 90.4309 161.943 88.8527C161.073 87.0713 161.441 84.9412 161.478 83.0372C161.52 80.8882 161.586 79.0019 162.354 76.9547C162.774 75.8336 164.399 73.707 164.15 72.4879C163.733 70.4407 159.251 68.9455 157.601 68.1032C155.013 66.7819 152.42 65.4397 150.035 63.7717C147.746 62.1715 145.592 60.2455 144.206 57.7892C143.812 57.0922 143.489 56.3602 143.237 55.6005C142.958 54.7528 143.153 54.4639 142.305 54.4018C140.952 54.3023 138.923 55.6599 137.782 56.2596C131.903 59.3515 125.445 63.5125 118.508 63.2364C115.991 63.1365 113.161 62.3462 112.271 59.7229C111.099 56.2692 113.546 52.7014 115.692 50.2068C111.505 50.8644 103.784 52.9197 100.48 49.1864C98.2787 46.6988 99.9393 42.7503 101.786 40.5932C104.225 37.7439 107.703 36.0091 110.915 34.1961C106.973 32.6943 102.61 31.7339 99.1432 29.2209C95.8276 26.8178 96.2375 23.1257 98.856 20.2911C101.656 17.2608 106.551 15.7089 110.401 14.5839C115.123 13.2039 119.814 13.3146 124.681 13.4072C133.414 13.573 140.916 16.7903 148.08 21.6544C151.867 24.2264 155.6 27.0021 158.959 30.1172C162.11 33.0387 165.471 35.7553 168.576 38.7084C171.584 41.5697 173.95 45.1148 177.124 47.7879C179.824 50.0607 182.784 53.2822 186.213 54.2911C189.85 55.361 193.123 57.1304 196.791 58.1837C200.951 59.3781 204.525 61.3755 208.38 63.2811C224.56 71.2784 241.93 76.483 258.988 82.2245C267.713 85.161 276.496 87.2309 285.404 89.4736C289.877 90.5998 294.031 91.2007 298.647 90.997C299.712 90.9504 300.728 90.9226 301.778 91.0703C302.548 91.1783 303.133 91.4691 303.821 91.0094C304.81 90.3491 305.181 88.6305 305.771 87.6521C302.485 86.6343 299.27 85.5332 297.771 82.169C296.826 80.049 296.336 77.5764 295.922 75.3017C295.7 74.0776 295.695 72.8423 295.505 71.6174C295.401 70.9409 295.079 70.234 295.103 69.5429C295.03 69.9274 292.582 68.6628 292.227 68.4279C290.857 67.5212 290.608 65.6935 290.619 64.1508C290.632 62.4083 291.158 60.4931 292.342 59.1718C292.903 58.5462 293.57 58.0772 294.384 57.8416C294.963 57.6742 295.725 57.8933 296.235 57.7247C298.496 56.9777 298.75 51.3851 299.07 49.3491C299.777 44.863 300.482 40.5801 302.008 36.2799C304.79 28.4399 308.371 20.8206 312.635 13.6826C316.29 7.56607 319.941 0.0872394 327.976 0H328.223ZM258.764 188.331C255.512 188.894 252.396 190.043 249.255 191.018C246.321 191.928 243.347 192.508 240.337 193.099C234.347 194.277 228.226 195.355 222.322 196.891C220.66 197.323 219.786 198.299 218.335 198.977C217.26 199.48 216.251 198.97 215.133 198.928C212.698 198.835 209.996 199.628 207.654 200.22C202.126 201.616 197.221 204.04 192.218 206.72C191.77 206.96 188.743 208.344 188.887 208.917C189.003 209.385 192.851 208.129 193.463 208.036C196.562 207.564 199.588 206.588 202.663 205.982C205.188 205.484 207.741 205.147 210.254 204.594C213.052 203.979 219.01 201.841 219.247 206.458C219.503 211.448 213.989 212.982 210.675 215.31C211.044 215.947 216.362 213.847 217.021 213.635C219.282 212.906 221.38 211.593 223.682 211.034C227.687 210.061 227.202 214.481 224.991 216.448C222.534 218.632 218.471 219.293 217.11 222.655C218.897 223.299 221.233 222.089 222.874 221.488C225.029 220.698 227.192 219.921 229.36 219.168C234.227 217.478 238.85 215.15 243.742 213.54C253.781 210.237 264.392 209.29 274.887 208.703C273.952 205.078 272.929 201.474 272.089 197.825C271.729 196.263 271.4 194.695 271.127 193.115C270.938 192.017 271.099 189.388 270.342 188.522C269.42 187.467 267.019 188.949 265.712 188.921C264.432 188.893 263.498 188.233 262.315 188.025C261.192 187.827 259.863 188.141 258.764 188.331ZM70.1381 209.314C70.1381 211.047 69.8374 213.149 72.1183 213.351C73.963 213.515 77.5719 213.726 79.0434 212.415C77.6333 211.728 76.0305 211.608 74.5327 211.212C72.972 210.799 71.5309 210.121 70.1381 209.314ZM107.784 177.741C107.09 177.746 105.92 178.517 105.287 178.732C104.129 179.125 102.952 179.457 101.769 179.77C98.2161 180.71 93.6417 180.857 92.0104 184.668C91.196 186.57 90.6314 191.462 87.8018 191.444C85.2867 191.428 83.7804 187.8 81.9862 186.509C80.1318 185.176 77.1917 186.084 75.1918 186.663C73.1595 187.251 70.0057 188.006 70.2338 190.58C70.3978 192.43 70.732 194.115 70.7162 196.005C70.6965 198.411 70.4931 200.812 70.4931 203.218C71.9199 201.265 73.1646 197.338 75.6924 196.552C78.2461 195.758 79.6907 200.217 80.3548 201.926C81.178 204.043 82.2127 206.444 82.2756 208.739C82.2953 209.46 81.8577 211.439 82.359 212.031C82.804 212.557 84.5156 212.176 85.0686 212.118C88.4914 211.762 91.8961 211.319 95.3298 211.022C97.0931 210.87 97.5732 210.483 97.4007 208.588C97.2652 207.099 97.2231 205.68 97.4099 204.186C98.2435 197.513 102.355 191.409 109.307 190.251C113.497 189.552 118.389 190.063 122.572 190.734C124.184 190.992 125.934 191.772 127.572 191.704C128.782 191.654 128.392 191.586 128.64 190.448C128.813 189.652 129.184 188.973 129.789 188.422C130.268 187.986 130.875 188.232 131.326 187.662C131.653 187.25 131.604 186.688 131.758 186.213C132.058 185.289 132.602 184.041 133.684 183.808C135.425 183.432 137.275 185.761 138.154 186.963C139.062 188.205 139.336 191.913 140.796 192.399C142.481 192.959 144.485 190.752 144.836 189.362C145.308 187.493 144.713 185.47 144.429 183.618C144.409 183.485 144.326 182.255 144.234 182.175C143.988 181.958 142.136 182.019 141.808 182.003C140.195 181.926 138.578 181.922 136.963 181.918C130.631 181.902 124.429 181.28 118.139 180.617C119.052 182.105 120.616 184.549 119.011 186.12C117.821 187.284 115.674 186.7 114.179 186.94C112.068 187.278 108.51 189.28 106.498 187.817C103.663 185.753 106.87 182.208 107.923 180.258C108.148 179.84 108.984 178.369 108.63 177.879C108.323 177.455 108.233 177.737 107.784 177.741ZM60.567 200.672C59.1193 201.114 57.6609 201.538 56.182 201.865C54.4473 202.249 51.7573 201.876 50.9133 203.783C50.2711 205.233 50.5899 207.573 51.1116 209.017C51.7091 210.671 53.1112 211.097 54.766 211.223C56.6972 211.37 58.6539 211.059 60.5623 210.795C61.3145 210.691 62.1165 210.503 62.8806 210.502C63.3341 210.501 64.2495 210.915 64.6528 210.576C65.175 210.137 64.8311 207.642 64.7902 207.044C64.6887 205.562 64.4074 204.101 64.3306 202.617C64.2758 201.551 64.6779 200.103 63.4279 199.876C62.6495 199.734 61.2435 200.466 60.567 200.672ZM177.466 171.347C176.384 171.534 175.309 171.668 174.21 171.651C173.533 171.641 172.723 171.411 172.097 171.782C170.941 172.467 171.114 174.273 171.153 175.399C171.201 176.766 171.321 178.153 171.467 179.513C171.606 180.814 172.32 182.955 171.312 184.07C170.6 183.292 170.25 180.748 168.877 180.841C167.367 180.943 168.065 183.353 168.199 184.217C168.939 188.988 169.782 193.762 170.443 198.547C170.757 200.821 171.163 203.079 171.374 205.365C171.515 206.9 171.562 208.281 173.278 208.599C174.868 208.893 176.655 208.391 178.262 208.352C179.917 208.312 180.865 208.2 181.817 206.705C179.537 206.206 175.926 206.512 174.642 204.102C173.144 201.291 176.303 198.761 177.857 196.84C179.05 195.364 181.489 190.459 183.703 193.372C184.501 194.421 184.645 196.022 185.047 197.243C185.702 199.225 186.502 201.18 187.287 203.113C194.469 199.409 201.838 196.069 209.671 193.989C207.674 190.616 205.202 187.579 203.707 183.923C202.033 179.826 200.645 175.617 198.933 171.533C196.218 173.117 193.315 169.278 190.612 169.123C186.341 168.879 181.653 170.622 177.466 171.347ZM134.924 198.968C133.435 199.854 131.245 201.578 130.888 203.359C130.27 206.44 133.788 204.38 134.874 203.706C137.147 202.295 139.375 201.844 141.986 202.714C145.334 203.829 148.42 205.711 152.013 204.281C153.801 203.569 157.768 202.048 156.698 199.319C155.96 197.437 153.8 199.051 152.659 199.726C149.671 201.492 147.197 200.373 144.211 199.098C141.226 197.823 137.863 197.218 134.924 198.968ZM28.8874 183.16C27.6922 184.853 30.122 184.487 31.1887 184.652C33.4194 184.997 35.7168 186.774 35.1021 189.29C34.5027 191.742 32.1543 193.275 31.707 195.85C31.3226 198.06 31.6931 200.858 33.8293 202.072C35.0291 202.754 37.6515 203.034 38.8591 202.251C40.7031 201.056 38.413 199.276 37.193 198.684C35.5764 197.899 34.2708 197.474 35.0708 195.412C36.046 192.898 37.9402 190.97 37.7719 188.094C37.633 185.711 36.3745 183.003 34.0816 182.013C32.4399 181.305 30.007 181.574 28.8874 183.16ZM192.085 175.856C194.151 175.767 194.234 178.263 194.129 179.49C193.987 181.168 194.292 182.956 194.327 184.64C194.374 186.869 194.841 194.171 190.895 193.086C188.358 192.389 186.271 189.959 184.231 188.398C182.355 186.961 177.584 185.237 177.275 182.513C176.926 179.436 180.688 178.86 182.843 178.371C185.919 177.673 188.907 175.992 192.085 175.856ZM182.019 94.7527C178.743 95.0686 175.484 95.5549 172.366 96.6425C170.256 97.3784 167.015 97.906 165.52 99.7117C164.227 101.273 164.787 103.499 164.367 105.344C163.799 107.84 162.074 107.499 160.402 105.941C158.401 104.075 157.822 102.724 155.036 104.475C149.268 108.099 144.695 113.45 140.12 118.408C143.658 119.479 150.598 119.738 151.773 124.155C152.415 126.57 150.479 128.327 148.739 129.644C146.493 131.346 144.148 132.92 141.95 134.691C139.9 136.342 135.302 142.919 134.001 137.137C133.196 133.557 134.705 129.858 134.065 126.323C131.283 130.805 128.458 135.276 125.908 139.896C123.737 143.829 122.474 148.035 121.433 152.383C123.056 152.489 124.746 151.666 126.351 152.152C127.896 152.62 128.619 154.081 128.728 155.595C128.912 158.161 127.726 160.772 127.13 163.236C126.72 164.929 126.25 168.77 124.187 169.32C121.836 169.948 120.361 166.334 119.313 164.865C118.315 166.398 118.331 168.641 118.185 170.398C118.085 171.607 117.411 173.866 118.771 174.534C120.044 175.159 122.727 174.375 124.089 174.318C126.614 174.211 129.189 174.006 131.715 174.081C134.102 174.151 137.614 175.426 138.546 172.495C139.181 170.499 139.74 163.326 143.127 167.218C144.631 168.946 145.807 170.916 147.26 172.677C148.726 174.453 150.059 174.569 152.248 174.48C156.581 174.302 160.812 175.134 165.052 175.805C168.773 176.394 168.284 173.238 168.229 170.429C168.145 166.075 169.009 161.521 169.48 157.19C170.601 146.892 172.901 136.718 176.439 126.979C173.479 125.972 168.173 130.036 165.984 126.949C164.185 124.412 166.496 120.917 167.437 118.545C168.611 115.586 169.204 112.494 171.119 109.871C171.723 109.043 172.582 107.934 173.751 108.213C174.755 108.452 175.155 109.731 175.719 110.453C177.512 112.743 179.801 114.46 181.394 116.958C182.369 118.486 183.127 120.119 183.443 121.913C183.53 122.407 183.42 123.417 183.767 123.83C184.844 125.113 188.238 125.094 189.746 125.88C194.895 128.566 196.705 136.383 198.704 141.311C199.268 142.699 199.826 144.091 200.126 145.562C200.326 146.546 200.316 147.796 200.85 148.678C202.015 150.604 205.635 148.884 207.411 148.586C210.389 148.086 213.351 147.609 216.341 147.19C218.165 146.934 220.82 146.273 222.209 147.888C223.65 149.562 222.821 152.199 222.098 153.995C220.918 156.927 219.409 159.728 218.164 162.632C217.17 164.95 216.675 167.935 214.766 169.72C213.111 171.267 210.374 171.711 208.427 170.452C207.315 169.733 204.462 162.783 203.709 163.093C205.068 168.462 207.061 173.936 209.166 179.059C209.813 180.633 210.923 183.842 212.557 184.696C213.911 185.404 216.984 184.067 218.369 183.807C219.683 183.561 222.277 182.495 223.533 183.276C225.055 184.224 225.241 186.75 225.412 188.318C225.539 189.481 225.308 190.348 226.724 190.291C227.721 190.25 228.728 189.764 229.685 189.52C231.907 188.953 234.213 188.578 236.475 188.213C241.706 187.369 246.935 186.527 252.164 185.662C256.66 184.918 261.096 184.922 265.158 182.791C267.217 181.711 269.577 181.382 271.77 180.659C273.944 179.943 276.112 179.478 278.388 179.209C283.362 178.621 288.202 178.045 293.118 177.038C295.808 176.487 298.494 175.91 301.17 175.293C303.552 174.743 305.855 173.87 308.225 173.331C310.197 172.883 311.817 173.22 312.662 170.983C313.268 169.379 313.127 167.581 313.282 165.902C313.994 158.232 311.306 150.517 310.756 142.889C310.577 140.418 310.522 137.94 310.337 135.471C310.252 134.34 310.303 131.046 308.983 130.437C308.863 131.341 308.956 132.863 307.927 133.312C308.43 133.093 307.77 135.765 307.735 136.033C307.594 137.1 307.945 138.242 307.76 139.289C307.907 139.657 307.843 139.934 307.569 140.121C307.382 140.272 307.246 140.463 307.161 140.694C307.148 141.441 307.366 141.001 307.377 141.259C307.48 143.826 307.046 146.487 307.232 149.116C307.428 151.896 308.049 154.622 308.521 157.364C308.944 159.824 309.4 162.29 309.753 164.762C310.001 166.497 310.185 168.488 309.251 170.067C307.478 173.065 302.343 172.739 299.353 173.229C294.383 174.044 289.406 174.78 284.418 175.472C282.503 175.738 280.565 176.345 278.628 176.376C276.558 176.408 275.45 175.573 274.145 174.046C271.516 170.971 269.821 167.478 267.631 164.134C266.401 162.255 265.378 161.759 263.308 161.186C261.385 160.653 259.841 159.251 258.277 158.085C254.99 155.635 250.746 152.971 248.589 149.363C246.32 145.566 249.518 144.306 252.58 143.27C251.835 141.291 250.374 139.701 249.169 137.998C247.801 136.062 246.559 134.051 245.085 132.188C242.081 128.391 239.081 124.613 236.165 120.744C233.673 117.438 231.155 114.305 227.974 111.627C224.78 108.937 221.224 106.732 217.716 104.479C215.884 103.303 212.667 100.296 210.351 100.604C208.104 100.902 207.216 105.084 206.655 106.841C206.011 108.858 205.783 111.67 204.283 113.258C202.078 115.591 199.788 111.915 198.735 110.222C196.809 107.119 194.836 104.044 192.912 100.938C192.035 99.5227 190.769 98.1755 190.248 96.5704C190.242 96.5511 189.998 95.1709 190.244 95.3639L190.261 95.3793L190.244 95.3608C189.694 94.8159 187.661 94.7028 186.901 94.6371L186.831 94.6308C185.232 94.48 183.614 94.5988 182.019 94.7527ZM160.54 181.754C158.698 181.743 156.862 181.957 155.028 182.107C153.417 182.239 151.941 181.993 150.334 181.896C148.344 181.776 147.361 181.985 147.819 184.038C148.152 185.531 148.552 187.521 150.087 188.152C152.16 189.005 154.953 188.891 157.162 189.214C158.783 189.451 160.401 189.665 162.016 189.935C163.088 190.115 163.639 190.303 164.141 189.088C164.561 188.071 164.29 186.711 164.147 185.659C164.037 184.853 164.103 183.434 163.721 182.716C163.152 181.645 161.661 181.761 160.54 181.754ZM246.416 161.284C249.122 163.756 250.943 166.916 252.987 169.914C254.234 171.744 256.675 174.661 254.903 176.88C253.393 178.771 249.881 178.339 247.769 178.43C244.449 178.573 241.737 180.072 238.578 180.845C230.621 182.793 237.229 169.427 238.332 166.638C239.105 164.681 239.903 162.733 240.838 160.847C241.26 159.997 242.102 157.517 243.151 157.192C244.671 156.721 245.453 160.404 246.416 161.284ZM178.051 133.182C176.787 135.598 176.581 138.942 175.982 141.58C174.149 149.648 173.077 157.864 172.235 166.087C176.426 164.425 180.849 164.311 185.274 163.904C188.48 163.609 191.424 163.272 194.631 163.409C195.177 163.432 196.749 163.709 197.199 163.245C197.804 162.622 197.072 160.883 196.893 160.227C195.921 156.666 195.494 152.986 194.39 149.448C193.263 145.838 191.894 142.234 190.438 138.745C189.373 136.193 187.91 133.704 185.328 132.453C183.068 131.358 179.454 130.503 178.051 133.182ZM160.792 148.884C162.519 151.485 164.706 153.76 166.393 156.386C167.588 158.248 168.988 161.693 166.116 162.877C165.108 163.293 163.918 163.113 162.862 163.131C161.228 163.16 159.61 163.3 157.974 163.261C156.426 163.224 154.893 163.037 153.35 162.956C152.377 162.905 151.154 162.98 150.297 162.422C148 160.924 149.661 157.866 150.401 155.91C151.187 153.831 152.248 151.866 153.272 149.896C153.981 148.53 155.043 145.747 156.657 145.19C158.569 144.531 159.996 147.684 160.792 148.884ZM244.52 119.409C248.315 123.819 251.61 128.629 254.713 133.542C256.227 135.939 257.697 138.365 259.165 140.791C260.126 142.378 260.847 144.409 262.017 145.847C264.687 149.126 265.429 141.971 265.823 140.415C267.274 134.68 269.072 128.991 270.67 123.291L269.032 123.291C262.5 123.288 256.237 123.191 249.878 121.268C248.077 120.724 246.436 119.543 244.52 119.409ZM230.723 120.521C232.789 122.046 246.016 131 240.452 134.454C239.301 135.17 237.419 134.845 236.118 134.948C234.451 135.079 232.758 135.24 231.111 135.536C228.978 135.918 226.907 136.585 224.764 136.923C223.061 137.192 220.804 137.505 219.282 136.445C216.772 134.697 218.296 131.263 219.125 129.04C220.303 125.881 221.419 121.653 224.341 119.771C225.021 119.333 225.855 117.77 226.586 117.627C227.732 117.403 229.885 119.903 230.723 120.521ZM303.693 46.2529C302.696 47.0154 302.651 48.599 302.392 49.7167C301.522 53.4762 300.308 57.1358 299.588 60.9355C298.885 64.6414 298.664 68.2898 299.009 72.0455C299.239 74.5504 299.266 77.6327 300.789 79.7659C302.613 82.3183 306.224 82.1875 308.954 82.9434C311.582 83.6708 314.187 85.9235 311.321 88.2653C310.303 89.0972 308.965 89.2326 307.958 90.034C306.716 91.0233 306.003 92.7958 305.476 94.2452C305.041 95.4384 305.054 95.6664 306.352 96.0879C306.945 96.2803 307.544 96.4026 308.167 96.3509C309.587 96.2329 310.854 95.2957 312.043 94.5915C315.076 92.7954 318.579 90.3977 322.2 90.1266C323.357 90.0402 324.673 90.5134 325.798 90.1378C326.847 89.7872 326.525 89.5727 326.707 88.5982C327.428 84.7353 327.721 80.9437 329.692 77.4492C330.665 75.7248 333.237 72.1975 334.961 74.8821C335.681 76.0033 335.941 76.5509 337.538 76.2069C338.838 75.9273 340.265 74.9003 340.007 73.4004C339.765 71.9853 337.902 71.0219 336.774 70.4018C335.271 69.5764 334.217 69.6717 332.58 69.4762C328.083 68.9389 331.236 62.3659 331.884 59.8995C332.292 58.3495 332.768 56.346 331.699 54.9464C330.07 52.8175 326.523 53.5175 324.289 53.8194C321.199 54.2371 317.825 54.4597 314.933 53.0581C311.873 51.5756 310.569 48.2318 307.7 46.6062C306.64 46.0053 304.783 45.4191 303.693 46.2529ZM317.121 73.4069C319.247 73.3783 318.214 76.4078 317.632 77.4263C316.405 79.5745 313.778 80.4053 311.472 79.6131C309.647 78.9864 307.673 76.218 310.531 75.7591C311.901 75.5392 313.258 75.6287 314.557 74.9773C315.297 74.6063 316.253 73.4184 317.121 73.4069ZM311.787 57.2975C313.108 58.0989 310.854 63.2176 310.474 64.2535C309.856 65.9443 309.305 67.0357 310.878 68.3389C311.972 69.2452 314.129 70.0274 313.099 71.8335C312.146 73.5046 308.875 72.8038 307.546 71.9862C305.612 70.7972 306.182 68.5198 306.608 66.6508C306.887 65.4263 309.435 55.8705 311.787 57.2975ZM103.771 23.6892C107.845 25.4282 112.01 26.999 116.321 28.0469C120.088 28.9629 123.792 29.9506 127.675 29.7354C131.267 29.5368 131.695 33.063 129.643 35.505C128.529 36.8317 127.235 36.7986 125.611 36.8499C123.71 36.91 121.983 37.4372 120.149 37.9093C117.356 38.6282 114.528 39.2387 111.821 40.2534C110.425 40.7772 109.047 41.3931 107.801 42.2207C107.018 42.7414 105.27 43.6793 106.195 44.4067C107.531 45.4577 111.496 44.018 113.086 43.9231C116.789 43.7025 120.484 43.3685 124.165 42.9053C125.968 42.6781 127.904 42.4537 129.612 41.7992C130.729 41.3711 131.966 40.3082 133.231 40.5782C135.9 41.1478 134.577 45.1464 133.366 46.4473C131.566 48.3791 128.834 49.2323 126.51 50.3299C124.885 51.0974 123.27 51.91 121.692 52.7689C120.947 53.1746 117.474 54.6945 117.584 55.8484C117.699 57.0614 120.441 56.4497 121.119 56.3394C125.644 55.6039 129.728 53.8553 133.909 52.0658C135.739 51.2825 137.595 50.5308 139.387 49.6623C140.639 49.0552 141.869 48.1304 143.252 47.8546C146.512 47.204 146.369 50.8428 147.653 52.8086C151.468 58.6507 158.84 61.1429 164.576 64.5191C166.745 65.7961 168.815 67.2666 170.806 68.8051C172.228 69.9035 172.797 71.4153 174.385 69.9667C175.708 68.7592 176.346 66.9882 177.195 65.4525C178.182 63.6645 179.501 62.0859 180.514 60.3126C182.01 57.6927 182.458 55.194 179.173 54.2298C175.724 53.2178 172.995 51.7087 170.063 49.5554C162.87 44.271 156.901 37.5229 149.729 32.1979C143.084 27.2644 136.037 22.6348 127.707 21.31C119.812 20.0539 111.149 20.3632 103.771 23.6892ZM319.28 61.6366C319.111 63.0913 318.753 66.1941 316.731 66.3101C314.275 66.4509 315.924 58.9947 317.315 58.1555C319.543 56.8118 319.423 60.404 319.28 61.6366ZM296.426 61.0427C293.361 61.2965 292.487 64.6522 295.551 65.8404L296.426 61.0427ZM307.794 58.0975C307.4 59.6205 307.54 62.0645 306.317 63.2335C304.594 64.8807 303.843 62.4633 303.856 61.0849C303.868 59.7216 304.544 56.3114 306.37 56.1317C307.93 55.9782 306.632 57.7855 307.794 58.0975ZM340.881 24.2129C339.76 26.5436 340.965 28.8437 341.636 31.1346C340.26 31.5777 338.406 31.2426 337.565 32.6958C337.036 33.6118 337.128 34.9909 337.287 35.9829C337.417 36.7966 338.085 37.8923 337.529 38.6475C336.801 39.636 334.996 39.1789 334.193 40.2785C332.974 41.9508 333.658 45.7705 335.369 47.0293C337.774 48.7976 336.339 44.458 336.192 43.6678C335.823 41.6881 337.875 41.9573 339.277 41.1578C340.029 40.729 340.164 40.646 340.336 39.7305C340.495 38.887 340.411 38.2179 340.21 37.3088C339.528 34.2246 340.72 34.7283 343.172 34.0487C345.287 33.4621 345.118 31.7733 344.581 29.998C344.159 28.6065 342.903 26.3237 344.264 25.1374C344.804 24.6665 345.624 24.9642 345.74 23.9815C345.819 23.3182 344.928 22.2306 344.461 21.8492C342.849 20.534 341.536 22.85 340.881 24.2129Z" fill="#274546"/>
</svg>
