<svg width="74" height="82" viewBox="0 0 74 82" fill="none" xmlns="http://www.w3.org/2000/svg">
<path d="M15.0543 63.1229L18.2336 59.6323L22.9663 64.8273L15.4238 64.2593C15.091 64.2187 14.8692 63.8939 14.9064 63.5286C14.9064 63.3662 14.9434 63.2038 15.054 63.1226L15.0543 63.1229Z" fill="white"/>
<path d="M73.6551 46.1972C76.2433 23.9549 61.9348 3.61991 41.7112 0.778838C21.4876 -2.06255 2.89041 13.6455 0.302475 35.8472C-2.28575 58.049 12.0227 78.4246 32.2464 81.3062C52.507 84.1476 71.0302 68.4396 73.6551 46.1972Z" fill="#FF6C37"/>
<path d="M50.3258 26.5117L34.7234 43.6402L30.3235 38.81C45.6671 21.9659 47.1829 23.427 50.3255 26.5117H50.3258Z" fill="white"/>
<path d="M34.7233 44.0461C34.6123 44.0461 34.5384 44.0055 34.4644 43.9243L30.0278 39.0943C29.9928 39.0577 29.9649 39.0136 29.9459 38.9648C29.9268 38.916 29.917 38.8634 29.917 38.8103C29.917 38.7572 29.9268 38.7047 29.9459 38.6558C29.9649 38.607 29.9928 38.563 30.0278 38.5263C45.63 21.3978 47.2567 23.0213 50.5473 26.2683C50.6212 26.3495 50.6582 26.4307 50.6582 26.5525C50.6582 26.6743 50.6212 26.7555 50.5473 26.8366L34.9451 43.9243C34.9082 44.0055 34.7972 44.0461 34.7233 44.0461V44.0461ZM30.8414 38.8102L34.7233 43.0721L49.771 26.5525C47.0352 23.8738 45.1862 23.0619 30.8414 38.8105V38.8102Z" fill="#FF6C37"/>
<path d="M39.197 48.5515L34.9453 43.8836L50.5475 26.7554C54.7255 31.3827 48.4772 38.8913 39.197 48.5515Z" fill="white"/>
<path d="M39.1969 48.9574C39.086 48.9574 39.012 48.9168 38.9384 48.8357L34.6864 44.1678C34.6124 44.0866 34.6124 44.0054 34.6124 43.8836C34.6124 43.7621 34.6494 43.6806 34.7234 43.5998L50.3258 26.4712C50.3592 26.4327 50.3993 26.4021 50.4438 26.3811C50.4883 26.3602 50.5362 26.3494 50.5847 26.3494C50.6331 26.3494 50.681 26.3602 50.7255 26.3811C50.77 26.4021 50.8101 26.4327 50.8435 26.4712C51.3156 26.9508 51.6885 27.5358 51.9372 28.187C52.186 28.8381 52.3047 29.5402 52.2854 30.246C52.2114 34.7515 47.5533 40.4742 39.493 48.8357C39.3821 48.9168 39.2712 48.9574 39.1972 48.9574H39.1969ZM35.4629 43.8836C37.829 46.522 38.8274 47.5772 39.1969 47.9831C45.4082 41.4891 51.4346 34.8327 51.4719 30.246C51.5088 29.1908 51.1391 28.1353 50.5104 27.3237L35.4629 43.8836V43.8836Z" fill="#FF6C37"/>
<path d="M30.3977 38.9317L33.5404 42.3817C33.6143 42.4629 33.6143 42.5441 33.5404 42.6253C33.5034 42.6659 33.5034 42.6659 33.4664 42.6659L26.9593 44.2082C26.6265 44.2488 26.3306 44.0052 26.2567 43.6402C26.2197 43.4372 26.2937 43.2342 26.4046 43.1124L30.1759 38.9723C30.2498 38.8911 30.3608 38.8505 30.3977 38.9317V38.9317Z" fill="white"/>
<path d="M26.8484 44.6148C26.2937 44.6148 25.8872 44.1276 25.8872 43.519C25.8872 43.2348 25.9981 42.9507 26.183 42.7477L29.954 38.6076C30.1759 38.4046 30.4717 38.4046 30.6936 38.6076L33.8362 42.0576C34.0581 42.2605 34.0581 42.6259 33.8362 42.8695C33.7622 42.9507 33.6883 42.9913 33.5773 43.0319L27.0702 44.5742C26.9963 44.5742 26.9223 44.6148 26.8484 44.6148ZM30.2868 39.3789L26.6635 43.3566C26.5895 43.4378 26.5525 43.5596 26.6265 43.6814C26.6635 43.8032 26.7744 43.8435 26.8853 43.8032L32.9857 42.3417L30.2868 39.3789V39.3789Z" fill="#FF6C37"/>
<path d="M58.5703 17.0145C56.2042 14.4979 52.396 14.5791 50.1039 17.2175C47.8115 19.8556 47.8854 23.9957 50.2888 26.512C51.2373 27.5182 52.4625 28.1515 53.7733 28.313C55.0841 28.4746 56.4067 28.1554 57.5349 27.4051L53.3199 22.7778L58.57 17.0145H58.5703Z" fill="white"/>
<path d="M54.4294 28.7439C50.917 28.7439 48.0702 25.6187 48.0702 21.7627C48.0702 17.9067 50.917 14.7815 54.4294 14.7815C56.0559 14.7815 57.646 15.4716 58.8293 16.7298C58.9029 16.811 58.9399 16.8922 58.9399 17.0139C58.9399 17.1357 58.9029 17.2169 58.829 17.2981L53.8377 22.7773L57.7569 27.0798C57.9048 27.2422 57.9048 27.4857 57.7569 27.6481L57.6829 27.7293C56.7215 28.3785 55.5754 28.7442 54.4294 28.7442V28.7439ZM54.4294 15.634C51.3237 15.634 48.8095 18.3939 48.8465 21.8033C48.8465 25.2127 51.3607 27.9729 54.4664 27.9323C55.3166 27.9323 56.1671 27.7293 56.9434 27.2828L53.0615 23.0614C52.9875 22.9802 52.9505 22.8991 52.9505 22.7773C52.9505 22.6558 52.9875 22.5743 53.0615 22.4934L58.0157 17.0542C57.0173 16.1208 55.7603 15.634 54.4294 15.634V15.634Z" fill="#FF6C37"/>
<path d="M58.6813 17.1359L58.6074 17.0547L53.3206 22.7774L57.4983 27.3641C57.9051 27.0799 58.3115 26.7552 58.6443 26.3898C59.2045 25.7875 59.6502 25.0691 59.9555 24.2763C60.2609 23.4835 60.42 22.6321 60.4234 21.7713C60.4268 20.9106 60.2746 20.0576 59.9756 19.2619C59.6765 18.4662 59.2366 17.7436 58.6813 17.1359V17.1359Z" fill="white"/>
<path d="M57.5352 27.8107C57.4242 27.8107 57.3503 27.7701 57.2763 27.6889L53.0613 23.0617C52.9877 22.9805 52.9507 22.8993 52.9507 22.7775C52.9507 22.656 52.9877 22.5745 53.0616 22.4936L58.3114 16.73C58.3448 16.6915 58.385 16.6608 58.4295 16.6399C58.474 16.619 58.5219 16.6082 58.5703 16.6082C58.6187 16.6082 58.6666 16.619 58.7111 16.6399C58.7556 16.6608 58.7958 16.6915 58.8292 16.73L58.9401 16.8112C61.4174 19.5305 61.4174 23.9142 58.9771 26.674C58.6073 27.08 58.2008 27.4454 57.7571 27.7295C57.6461 27.7701 57.5722 27.8107 57.5352 27.8107V27.8107ZM53.8379 22.7775L57.5722 26.877C57.868 26.674 58.1638 26.3899 58.3854 26.1466C60.4929 23.833 60.6038 20.0582 58.5703 17.6228L53.8382 22.7775H53.8379Z" fill="#FF6C37"/>
<path d="M50.9542 27.2427C50.5274 26.775 49.949 26.5122 49.3459 26.5122C48.7428 26.5122 48.1644 26.775 47.7376 27.2427L33.7992 42.5445L36.1283 45.1017L50.8802 30.8957C51.8417 30.0026 51.9153 28.4197 51.1021 27.3645C51.0281 27.3239 50.9911 27.2833 50.9542 27.2427V27.2427Z" fill="white"/>
<path d="M36.0911 45.5074C35.9802 45.5074 35.9062 45.4668 35.8323 45.3856L33.5032 42.8284C33.4681 42.7917 33.4402 42.7477 33.4211 42.6988C33.402 42.65 33.3922 42.5974 33.3922 42.5442C33.3922 42.4911 33.402 42.4385 33.4211 42.3896C33.4402 42.3408 33.4681 42.2967 33.5032 42.26L47.4416 26.9583C47.6863 26.6882 47.9772 26.4738 48.2977 26.3275C48.6181 26.1813 48.9617 26.106 49.3087 26.106C49.6558 26.106 49.9994 26.1813 50.3198 26.3275C50.6402 26.4738 50.9312 26.6882 51.1759 26.9583C51.4219 27.227 51.6172 27.5463 51.7504 27.8981C51.8837 28.2499 51.9523 28.6271 51.9523 29.0081C51.9523 29.389 51.8837 29.7663 51.7504 30.118C51.6172 30.4698 51.4219 30.7892 51.1759 31.0578L51.0649 31.1796L36.313 45.3856C36.276 45.4668 36.2021 45.5074 36.0911 45.5074V45.5074ZM34.3164 42.5442L36.1281 44.5331L50.6212 30.5707C51.4347 29.84 51.5087 28.5006 50.8431 27.6078C50.1777 26.7147 48.9574 26.6335 48.1442 27.3643C48.1072 27.4049 48.0702 27.4455 47.9963 27.486L34.3164 42.5445V42.5442Z" fill="#FF6C37"/>
<path d="M23.1141 59.9566C22.9665 60.0378 22.8925 60.2002 22.9292 60.3625L23.5578 63.2848C23.7057 63.6907 23.4839 64.1779 23.0771 64.2997C22.7816 64.4215 22.4488 64.2997 22.2639 64.0561L18.1968 59.6318L31.4698 45.0608L36.0546 45.142L39.1603 48.5514C38.4207 49.2412 33.9471 53.9903 23.1141 59.9566V59.9566Z" fill="white"/>
<path d="M22.8186 64.7053C22.5227 64.7053 22.2269 64.5838 22.042 64.3402L18.0119 59.9159C17.9382 59.8347 17.9012 59.7535 17.9012 59.6321C17.9012 59.5103 17.9382 59.4291 18.0122 59.3479L31.285 44.7766C31.3589 44.6954 31.4699 44.6548 31.5438 44.6548L36.1286 44.736C36.2392 44.736 36.3135 44.7766 36.3872 44.8578L39.4928 48.2672C39.5668 48.3484 39.6037 48.4702 39.6037 48.5919C39.6037 48.7137 39.5668 48.7949 39.4558 48.8761L39.197 49.1194C35.2781 52.8941 29.954 56.6689 23.336 60.2813L23.9646 63.1633C24.0755 63.6907 23.8537 64.259 23.4099 64.5429C23.1881 64.665 23.0032 64.7056 22.8186 64.7056V64.7053ZM18.7515 59.6321L22.5597 63.7719C22.6706 63.9749 22.8925 64.0561 23.0771 63.9343C23.262 63.8125 23.336 63.5689 23.225 63.3659L22.5967 60.4437C22.5227 60.0783 22.6706 59.7535 22.9665 59.5915C29.5103 55.9791 34.7974 52.2449 38.6796 48.5513L35.9437 45.5479L31.6917 45.4667L18.7515 59.6321V59.6321Z" fill="#FF6C37"/>
<path d="M22.9665 65.1924L15.387 64.6244C14.8323 64.5838 14.4625 64.0561 14.4998 63.4471C14.5368 63.2035 14.6107 62.9603 14.7956 62.7979L17.9752 59.3073C18.0086 59.2689 18.0487 59.2383 18.0932 59.2173C18.1377 59.1964 18.1855 59.1856 18.2339 59.1856C18.2823 59.1856 18.3302 59.1964 18.3746 59.2173C18.4191 59.2383 18.4592 59.2689 18.4926 59.3073L23.225 64.5023C23.336 64.6244 23.3729 64.7868 23.299 64.9488C23.225 65.1112 23.1141 65.1924 22.9665 65.1924ZM18.2338 60.2004L15.313 63.4068C15.2021 63.4877 15.2021 63.6907 15.313 63.7719C15.35 63.8125 15.387 63.8531 15.4609 63.8531L22.005 64.3402L18.2338 60.2001V60.2004ZM30.1759 46.9278C29.954 46.9278 29.8061 46.7248 29.8061 46.5219C29.8061 46.4001 29.8431 46.3189 29.917 46.2377L33.5034 42.3005C33.5368 42.262 33.5769 42.2314 33.6214 42.2105C33.6659 42.1895 33.7138 42.1787 33.7622 42.1787C33.8107 42.1787 33.8586 42.1895 33.9031 42.2105C33.9476 42.2314 33.9877 42.262 34.0211 42.3005L36.3502 44.8578C36.4611 44.9795 36.4981 45.1013 36.4611 45.2637C36.4241 45.3855 36.3132 45.5073 36.1653 45.5479L30.2498 46.9275H30.1759V46.9278ZM33.7622 43.1531L31.3219 45.8317L35.3151 44.8984L33.7622 43.1531V43.1531Z" fill="#FF6C37"/>
<path d="M36.0545 45.1419L31.9877 46.1158C31.6918 46.197 31.396 45.9941 31.3221 45.6693C31.2851 45.4663 31.3221 45.2633 31.47 45.1013L33.7254 42.6252L36.0545 45.1419V45.1419Z" fill="white"/>
<path d="M31.9137 46.522C31.7919 46.5233 31.6711 46.498 31.5584 46.4475C31.4457 46.397 31.3433 46.3223 31.2572 46.2278C31.1711 46.1332 31.1031 46.0208 31.057 45.8971C31.011 45.7733 30.9879 45.6407 30.9892 45.5071C30.9892 45.2232 31.1001 44.9797 31.248 44.7767L33.5035 42.3007C33.5368 42.2622 33.577 42.2315 33.6215 42.2106C33.666 42.1896 33.7139 42.1788 33.7623 42.1788C33.8107 42.1788 33.8586 42.1896 33.9031 42.2106C33.9476 42.2315 33.9878 42.2622 34.0212 42.3007L36.3502 44.8579C36.4612 44.9797 36.4982 45.1015 36.4612 45.2638C36.4242 45.3856 36.3133 45.5074 36.1653 45.548L32.0985 46.522H31.9137ZM33.7623 43.1532L31.7657 45.3447C31.6918 45.4262 31.6918 45.5074 31.7288 45.5883C31.7657 45.6695 31.8397 45.7101 31.9506 45.7101L35.3521 44.8982L33.7623 43.1532V43.1532ZM58.7183 21.0323C58.6444 20.789 58.3855 20.6672 58.1637 20.7484C57.9421 20.8296 57.8311 21.1135 57.9051 21.3574C57.9051 21.3977 57.9421 21.4383 57.9421 21.4788C58.164 21.966 58.09 22.5749 57.7942 23.0212C57.6463 23.2241 57.6832 23.5083 57.8311 23.6707C58.016 23.8331 58.2746 23.7925 58.4225 23.5895C58.9772 22.8182 59.0881 21.8442 58.7183 21.0323V21.0323Z" fill="#FF6C37"/>
</svg>
