<svg width="86" height="83" viewBox="0 0 86 83" fill="none" xmlns="http://www.w3.org/2000/svg">
<path d="M70.5126 26.94C69.6067 26.6005 68.6932 26.286 67.7728 25.9968C67.9274 25.3067 68.0697 24.625 68.1961 23.9553C70.2702 12.9574 68.9143 4.09733 64.2828 1.18016C59.8422 -1.61643 52.58 1.29965 45.2457 8.27187C44.5228 8.96024 43.816 9.66845 43.126 10.3958C42.664 9.91215 42.1939 9.43786 41.7158 8.9732C34.029 1.51829 26.3242 -1.6237 21.6978 1.30183C17.2612 4.10713 15.9474 12.4362 17.8148 22.8592C18.0006 23.8915 18.2103 24.9184 18.4439 25.939C17.3533 26.2775 16.3009 26.6378 15.2937 27.0214C6.28155 30.4535 0.526245 35.8321 0.526245 41.4111C0.526245 47.1731 6.70483 52.9526 16.0914 56.4571C16.8524 56.74 17.6197 57.0022 18.3927 57.2434C18.1416 58.3427 17.9188 59.4494 17.7243 60.5623C15.9441 70.8043 17.3343 78.9366 21.7589 81.7241C26.3289 84.6028 33.9991 81.6442 41.4674 74.5129C42.073 73.9331 42.6653 73.3369 43.2437 72.7249C43.991 73.5125 44.7583 74.2772 45.5446 75.0181C52.7792 81.8178 59.924 84.5635 64.3443 81.7684C68.91 78.8814 70.3939 70.1451 68.4674 59.5163C68.3156 58.6836 68.1454 57.855 67.957 57.0313C68.4957 56.857 69.0243 56.6776 69.5397 56.4909C79.298 52.9595 85.6472 47.2501 85.6472 41.4111C85.6472 35.8117 79.706 30.3969 70.5126 26.94V26.94ZM68.3962 52.7209C67.9307 52.8891 67.4533 53.0514 66.9665 53.2094C65.8892 49.4841 64.4355 45.5232 62.6562 41.4303C64.354 37.4352 65.7518 33.5247 66.7989 29.8238C67.6697 30.0991 68.5146 30.3893 69.3292 30.6954C77.2063 33.6576 82.0109 38.0367 82.0109 41.4111C82.0109 45.0052 76.8219 49.6712 68.3962 52.7209V52.7209ZM64.9003 60.2877C65.7522 64.9874 65.8735 69.2368 65.3093 72.5589C64.8025 75.544 63.7831 77.5339 62.5222 78.3311C59.8399 80.0273 54.1032 77.8227 47.9163 72.0072C47.1849 71.3184 46.4712 70.6074 45.776 69.8753C48.1747 67.01 50.5717 63.6792 52.9112 59.9797C57.0263 59.5809 60.9139 58.9286 64.4394 58.0384C64.6093 58.7841 64.7629 59.5341 64.9003 60.2877V60.2877ZM29.5458 78.038C26.925 79.0488 24.8376 79.0779 23.5757 78.2832C20.8908 76.5918 19.7746 70.062 21.2971 61.3032C21.4781 60.2682 21.6853 59.2389 21.9185 58.2164C25.4052 59.059 29.2645 59.6648 33.3892 60.0302C35.7447 63.6501 38.2109 66.9774 40.6963 69.8909C40.1681 70.4492 39.6274 70.9932 39.0747 71.5224C35.772 74.6756 32.4626 76.9129 29.5458 78.038V78.038ZM17.2678 52.6988C13.1172 51.149 9.68938 49.1351 7.33991 46.9374C5.22851 44.9628 4.16284 43.0019 4.16284 41.4111C4.16284 38.0254 8.78364 33.707 16.4907 30.7721C17.4261 30.4161 18.405 30.0802 19.4208 29.7649C20.4861 33.5494 21.8833 37.5064 23.5694 41.5077C21.8613 45.5682 20.4442 49.5884 19.3686 53.4175C18.663 53.1968 17.9626 52.9571 17.2678 52.6988V52.6988ZM21.3835 22.0961C19.7839 13.1663 20.8462 6.43012 23.5199 4.73945C26.3674 2.93874 32.6644 5.50615 39.3015 11.9434C39.7343 12.3641 40.1601 12.7934 40.5786 13.2309C38.1055 16.1317 35.6619 19.4343 33.3274 23.0328C29.3241 23.4381 25.492 24.0889 21.9687 24.961C21.7517 24.0117 21.5565 23.0565 21.3835 22.0965V22.0961ZM58.1009 31.9997C57.2687 30.4295 56.4057 28.8792 55.5124 27.3497C58.2283 27.7249 60.8304 28.2228 63.274 28.8315C62.5405 31.4 61.6261 34.0851 60.5498 36.8381C59.7631 35.2077 58.9466 33.5945 58.1009 31.9997V31.9997ZM43.1276 16.0696C44.8048 18.0545 46.4846 20.2703 48.1368 22.6747C44.7851 22.5018 41.4279 22.501 38.0762 22.6725C39.7301 20.2903 41.4242 18.0774 43.1276 16.0696ZM28.0582 32.0269C27.2231 33.6089 26.4219 35.212 25.6552 36.8348C24.5965 34.0916 23.6904 31.3942 22.9506 28.7894C25.3792 28.1959 27.9691 27.7107 30.6677 27.3424C29.7644 28.8813 28.8944 30.4431 28.0582 32.0265V32.0269ZM30.7452 55.7623C27.9571 55.4224 25.3284 54.9622 22.9004 54.3847C23.6519 51.7334 24.5779 48.9786 25.6595 46.1765C26.4292 47.8006 27.2338 49.4047 28.0725 50.9874C28.935 52.6145 29.8281 54.2082 30.7452 55.7623ZM43.228 67.0322C41.5043 65.0012 39.7853 62.7541 38.1065 60.3375C39.7364 60.4072 41.3979 60.4428 43.0867 60.4428C44.8217 60.4428 46.5368 60.4003 48.2249 60.3182C46.5674 62.7785 44.8939 65.0288 43.228 67.0322ZM60.5841 46.0334C61.7219 48.8664 62.6808 51.6066 63.4423 54.2126C60.9744 54.8278 58.3097 55.3232 55.5021 55.6911C56.4018 54.1332 57.273 52.5559 58.1152 50.9602C58.9715 49.3381 59.7947 47.6955 60.5841 46.0334V46.0334ZM54.9654 48.9757C53.676 51.4223 52.3141 53.8224 50.8819 56.1724C48.2876 56.3731 45.6876 56.4728 43.0867 56.4713C40.4377 56.4713 37.8611 56.3812 35.3799 56.2054C33.9104 53.8609 32.5225 51.4566 31.2193 48.9975H31.2197C29.9226 46.5514 28.7111 44.0524 27.5877 41.5059C28.7082 38.9588 29.9161 36.4586 31.2087 34.0107L31.2084 34.011C32.5005 31.5625 33.8772 29.1684 35.3357 26.834C37.8671 26.6248 40.4629 26.5158 43.0864 26.5158H43.0867C45.7221 26.5158 48.3213 26.6258 50.852 26.8365C52.2958 29.1674 53.6638 31.5533 54.9534 33.9896C56.2503 36.4321 57.4742 38.9201 58.623 41.4496C57.486 44.0049 56.266 46.5152 54.9654 48.9757V48.9757ZM62.4667 4.62105C65.3169 6.41668 66.4255 13.6577 64.6346 23.1534C64.5202 23.7592 64.3919 24.3762 64.2522 25.002C60.7204 24.1115 56.8856 23.4494 52.8706 23.0379C50.5318 19.3998 48.1082 16.0921 45.6753 13.2287C46.3129 12.5574 46.9657 11.9034 47.633 11.2675C53.9174 5.29405 59.7907 2.93547 62.4667 4.62105V4.62105ZM43.0867 33.1085C47.2846 33.1085 50.6878 36.8258 50.6878 41.4111C50.6878 45.9964 47.2846 49.7137 43.0867 49.7137C38.8889 49.7137 35.4857 45.9964 35.4857 41.4111C35.4857 36.8258 38.8889 33.1085 43.0867 33.1085V33.1085Z" fill="#00D8FF"/>
</svg>
