<svg width="102" height="83" viewBox="0 0 102 83" fill="none" xmlns="http://www.w3.org/2000/svg">
<path d="M87.7146 47.5546C84.161 47.5745 81.0722 48.5013 78.4862 49.8714C77.5369 47.8363 76.5881 46.0233 76.4209 44.6934C76.2345 43.1422 76.0115 42.1951 76.2345 40.3415C76.458 38.4879 77.4627 35.8483 77.444 35.6469C77.4256 35.4456 77.2205 34.4985 75.174 34.4786C73.1274 34.4583 71.3598 34.9016 71.1551 35.4858C70.9504 36.0699 70.5597 37.3999 70.2992 38.7696C69.9457 40.7848 66.2061 47.9772 64.0666 51.7449C63.3779 50.2746 62.7825 48.9848 62.652 47.9573C62.4661 46.4061 62.2427 45.459 62.4661 43.6054C62.6895 41.7518 63.6943 39.1126 63.6755 38.9109C63.6568 38.7095 63.4521 37.7624 61.4055 37.7425C59.3586 37.7222 57.5909 38.1655 57.3866 38.7497C57.1819 39.3343 56.9585 40.704 56.5307 42.0339C56.1026 43.3639 51.1348 55.3722 49.8325 58.4746C49.3061 59.7302 48.754 60.9731 48.1765 62.2021C48.1765 62.2021 48.1578 62.2626 48.1019 62.3633C47.9205 62.7486 47.7345 63.1315 47.5441 63.5117V63.5316C47.2648 64.076 46.9671 64.5794 46.8183 64.5794C46.7066 64.5794 46.5019 63.1289 46.8554 61.1543C47.5996 56.9839 49.3672 50.4962 49.3488 50.2746C49.3488 50.1536 49.6836 49.0254 48.1953 48.4408C46.7437 47.8566 46.223 48.8236 46.0925 48.8236C45.9624 48.8236 45.869 49.1663 45.869 49.1663C45.869 49.1663 47.4882 41.8728 42.7806 41.8728C39.8411 41.8728 35.7847 45.3584 33.7753 48.5013C31.4909 49.8474 29.2086 51.1974 26.9281 52.5512C25.8308 53.2161 24.6956 53.8811 23.6351 54.5055C23.5604 54.4251 23.4862 54.324 23.4116 54.2436C17.718 47.6553 7.18722 43.0009 7.63372 34.1563C7.8013 30.9325 8.82438 22.4702 27.8586 12.195C43.5248 3.83337 55.9913 6.15018 58.1495 11.288C61.2379 18.6221 51.47 32.2422 35.2823 34.2163C29.1052 34.9621 25.8676 32.383 25.0492 31.416C24.1933 30.4084 24.0628 30.3479 23.7464 30.5497C23.2257 30.8522 23.5604 31.7587 23.7464 32.2823C24.2304 33.652 26.2211 36.0699 29.5888 37.259C32.5658 38.3064 39.8036 38.891 48.5672 35.2239C58.3726 31.1136 66.0385 19.6898 63.7872 10.1197C61.5356 0.408273 46.6507 -2.79516 32.5658 2.62441C24.1933 5.84858 15.1133 10.9255 8.58258 17.5342C0.82371 25.3915 -0.404461 32.2218 0.0979004 35.0831C1.90305 45.2374 14.8344 51.846 20.0068 56.7419C19.7462 56.9031 19.504 57.0444 19.2997 57.1654C16.7133 58.5554 6.85204 64.1361 4.3961 70.0396C1.60538 76.7286 4.843 81.5243 6.98252 82.1685C13.6249 84.1634 20.4533 80.5771 24.1187 74.6533C27.784 68.73 27.3375 61.0333 25.6445 57.5076C25.6257 57.4674 25.6074 57.4268 25.5699 57.3866C26.2398 56.9636 26.9281 56.5203 27.5981 56.0973C28.8294 55.309 30.0763 54.5498 31.3381 53.8202C30.7052 55.6941 30.24 57.9306 30.0169 61.1543C29.7376 64.9423 31.1701 69.8581 33.0494 71.7921C33.887 72.639 34.8729 72.6589 35.5058 72.6589C37.7012 72.6589 38.6875 70.6842 39.7852 68.3471C41.1247 65.4863 42.3341 62.1619 42.3341 62.1619C42.3341 62.1619 40.8271 71.1479 44.9206 71.1479C46.4089 71.1479 47.916 69.0523 48.5859 67.9846V68.0045C48.5859 68.0045 48.623 67.944 48.6977 67.8031C48.8465 67.5413 48.9395 67.3797 48.9395 67.3797V67.34C49.5348 66.2114 50.8747 63.6526 52.8654 59.4014C55.433 53.9213 57.9077 47.0711 57.9077 47.0711C57.9077 47.0711 58.1312 48.7433 58.8937 51.5237C59.3406 53.1557 60.2703 54.9488 61.0149 56.6814C60.4195 57.5884 60.0473 58.0917 60.0473 58.0917L60.066 58.112C59.582 58.7969 59.0613 59.5422 58.4843 60.2681C56.4561 62.8869 54.0377 65.8895 53.7025 66.7553C53.3115 67.7828 53.4048 68.5286 54.1494 69.1331C54.6889 69.5764 55.6561 69.6365 56.6425 69.5764C58.466 69.4351 59.7496 68.9516 60.382 68.6496C61.3684 68.2668 62.522 67.6822 63.6009 66.8158C65.592 65.2241 66.801 62.9474 66.6897 59.9458C66.6338 58.2935 66.1315 56.6412 65.5174 55.0896C65.7037 54.8079 65.8709 54.5258 66.0572 54.2436C69.2015 49.2669 71.6391 43.8068 71.6391 43.8068C71.6391 43.8068 71.8625 45.4789 72.6251 48.2598C72.9973 49.6701 73.7602 51.2014 74.4298 52.692C71.4715 55.2914 69.648 58.3134 68.9968 60.288C67.8249 63.955 68.7362 65.6069 70.4668 65.9897C71.248 66.1712 72.3645 65.7681 73.1833 65.3852C74.2251 65.0227 75.4533 64.3984 76.6256 63.4711C78.6167 61.8798 80.5327 59.6632 80.421 56.6615C80.3652 55.2914 80.0304 53.9412 79.5651 52.6315C82.0769 51.5038 85.3146 50.879 89.4448 51.4027C98.3017 52.5309 100.051 58.5147 99.7154 61.0338C99.3807 63.5519 97.5201 64.922 96.9064 65.345C96.2919 65.7685 96.0876 65.9093 96.1435 66.2114C96.2177 66.6547 96.5153 66.6348 97.0365 66.554C97.7623 66.4131 101.688 64.5189 101.855 59.8849C102.135 53.9615 96.9247 47.4941 87.7146 47.5546V47.5546ZM19.3927 72.4977C16.4528 75.963 12.3597 77.2726 10.592 76.1647C8.6943 74.9757 9.43847 69.8581 13.048 66.1915C15.2434 63.955 18.0716 61.8793 19.9509 60.6103C20.3787 60.3282 21.0115 59.9255 21.7744 59.4217C21.9045 59.3409 21.9791 59.3007 21.9791 59.3007L22.4256 58.9982C23.7464 64.2368 22.4815 68.8509 19.3927 72.4977V72.4977ZM40.79 56.7419C39.7665 59.442 37.627 66.3527 36.3246 65.9698C35.2081 65.6475 34.5194 60.409 36.1011 55.2309C36.9011 52.6315 38.5942 49.5288 39.5805 48.3203C41.1806 46.3858 42.9482 45.7407 43.376 46.5271C43.9158 47.5546 41.4224 55.0495 40.79 56.7419V56.7419ZM58.4472 65.889C58.0191 66.131 57.6101 66.2922 57.4237 66.1712C57.2937 66.0904 57.6101 65.7681 57.6101 65.7681C57.6101 65.7681 59.8242 63.1894 60.6985 62.0206C61.2012 61.3358 61.7962 60.53 62.429 59.623V59.8849C62.429 62.9677 59.675 65.043 58.4468 65.889H58.4472ZM72.0668 62.5244C71.7504 62.2825 71.8063 61.4766 72.8669 58.958C73.2762 57.9707 74.2435 56.3189 75.8998 54.7271C76.0857 55.3718 76.2162 55.9966 76.1974 56.5807C76.1787 60.4695 73.6114 61.92 72.0668 62.5244Z" fill="#CD6799"/>
</svg>
