<svg width="1983" height="145" viewBox="0 0 1983 145" fill="none" xmlns="http://www.w3.org/2000/svg">
<path d="M27.6 139.4L27.2208 140.325L27.2208 140.325L27.6 139.4ZM8 124.6L7.19405 125.192L7.20196 125.203L8 124.6ZM0.400001 101V100H-0.629405L-0.59958 101.029L0.400001 101ZM36.8 101L37.7948 100.898L37.7027 100H36.8V101ZM42.2 113L41.5257 113.738L41.5347 113.747L41.5438 113.755L42.2 113ZM66.2 113.6L66.8115 114.391L66.8225 114.383L66.8332 114.374L66.2 113.6ZM67 95.2L66.2929 95.9071L66.303 95.9172L66.3134 95.927L67 95.2ZM58.4 89.6L57.9973 90.5153L58.0038 90.5182L58.0104 90.521L58.4 89.6ZM44 84.6L43.7049 85.5555L43.7145 85.5584L44 84.6ZM21.8 76.2L21.3612 77.0986L21.8 76.2ZM7 63.8L7.79766 63.1969L7.79766 63.1969L7 63.8ZM15 11.8L15.6124 12.5906L15.6193 12.5852L15 11.8ZM89.4 11.8L88.7807 12.5852L88.7876 12.5905L89.4 11.8ZM104.6 42.6V43.6H105.652L105.599 42.5496L104.6 42.6ZM67.6 42.6L66.6017 42.6587L66.6571 43.6H67.6V42.6ZM62.6 32L61.9438 32.7546L61.9534 32.7629L61.9631 32.771L62.6 32ZM40.8 31.4L41.4441 32.1649L41.4556 32.1552L41.4668 32.1452L40.8 31.4ZM43.4 51.4L43.9105 50.5401L43.9105 50.5401L43.4 51.4ZM63.4 59.6L63.7204 58.6526L63.7078 58.6486L63.4 59.6ZM85.4 68.4L84.9528 69.2945L84.9612 69.2986L85.4 68.4ZM100.2 80.6L99.4096 81.2126L99.4096 81.2126L100.2 80.6ZM100.2 123L99.3549 122.465L99.351 122.472L99.3472 122.478L100.2 123ZM82.6 138.6L82.1528 137.706L82.1528 137.706L82.6 138.6ZM55.2 143.4C45.0419 143.4 35.9738 141.751 27.9792 138.475L27.2208 140.325C35.4929 143.716 44.8248 145.4 55.2 145.4V143.4ZM27.9792 138.475C19.9992 135.204 13.6153 130.377 8.79804 123.997L7.20196 125.203C12.2514 131.89 18.9341 136.929 27.2208 140.325L27.9792 138.475ZM8.80588 124.008C4.14195 117.66 1.66119 109.996 1.39958 100.971L-0.59958 101.029C-0.327853 110.404 2.25805 118.474 7.19412 125.192L8.80588 124.008ZM0.400001 102H36.8V100H0.400001V102ZM35.8052 101.102C36.3569 106.481 38.2343 110.733 41.5257 113.738L42.8743 112.262C40.0323 109.667 38.3098 105.919 37.7948 100.898L35.8052 101.102ZM41.5438 113.755C44.8294 116.612 49.0794 118 54.2 118V116C49.4539 116 45.7039 114.722 42.8562 112.245L41.5438 113.755ZM54.2 118C59.4078 118 63.6487 116.835 66.8115 114.391L65.5886 112.809C62.8847 114.898 59.1256 116 54.2 116V118ZM66.8332 114.374C70.0216 111.765 71.6 108.202 71.6 103.8H69.6C69.6 107.664 68.245 110.635 65.5668 112.826L66.8332 114.374ZM71.6 103.8C71.6 100.074 70.2976 96.9389 67.6866 94.473L66.3134 95.927C68.5024 97.9944 69.6 100.593 69.6 103.8H71.6ZM67.7071 94.4929C65.335 92.1208 62.3546 90.1873 58.7896 88.679L58.0104 90.521C61.3788 91.9461 64.1317 93.7459 66.2929 95.9071L67.7071 94.4929ZM58.8027 88.6847C55.4126 87.193 50.5661 85.5124 44.2855 83.6416L43.7145 85.5584C49.9673 87.4209 54.7208 89.0736 57.9973 90.5153L58.8027 88.6847ZM44.2951 83.6445C35.2564 80.8532 27.9093 78.0707 22.2388 75.3014L21.3612 77.0986C27.1573 79.9293 34.6103 82.7468 43.7049 85.5555L44.2951 83.6445ZM22.2388 75.3014C16.657 72.5754 11.8434 68.5478 7.79766 63.1969L6.20234 64.4031C10.4232 69.9856 15.4763 74.2246 21.3612 77.0986L22.2388 75.3014ZM7.79766 63.1969C3.82878 57.9477 1.8 51.0446 1.8 42.4H-0.199999C-0.199999 51.3554 1.90455 58.7189 6.20234 64.4031L7.79766 63.1969ZM1.8 42.4C1.8 29.6102 6.41477 19.7155 15.6124 12.5905L14.3876 11.0094C4.65189 18.5512 -0.199999 29.0565 -0.199999 42.4H1.8ZM15.6193 12.5852C24.8678 5.29057 36.965 1.6 52 1.6V-0.400002C36.635 -0.400002 24.0655 3.37609 14.3807 11.0148L15.6193 12.5852ZM52 1.6C67.3063 1.6 79.5351 5.29285 88.7807 12.5852L90.0193 11.0148C80.3316 3.37381 67.627 -0.400002 52 -0.400002V1.6ZM88.7876 12.5905C97.9981 19.7255 102.948 29.7077 103.601 42.6504L105.599 42.5496C104.919 29.0923 99.7352 18.5412 90.0124 11.0094L88.7876 12.5905ZM104.6 41.6H67.6V43.6H104.6V41.6ZM68.5983 42.5413C68.3178 37.7738 66.5489 33.9651 63.2369 31.229L61.9631 32.771C64.7844 35.1016 66.3488 38.3595 66.6017 42.6587L68.5983 42.5413ZM63.2562 31.2454C59.9756 28.3927 55.7951 27 50.8 27V29C55.4049 29 59.0911 30.274 61.9438 32.7546L63.2562 31.2454ZM50.8 27C46.4763 27 42.8875 28.1903 40.1332 30.6548L41.4668 32.1452C43.7791 30.0763 46.857 29 50.8 29V27ZM40.1559 30.6351C37.3424 33.0043 36 36.4512 36 40.8L38 40.8C38 36.8821 39.1909 34.0624 41.4441 32.1649L40.1559 30.6351ZM36 40.8C36 45.7248 38.354 49.5669 42.8895 52.2598L43.9105 50.5401C39.9127 48.1664 38 44.9419 38 40.8L36 40.8ZM42.8895 52.2598C47.2543 54.8515 54.0068 57.6121 63.0922 60.5514L63.7078 58.6486C54.6598 55.7213 48.079 53.0152 43.9105 50.5401L42.8895 52.2598ZM63.0796 60.5473C72.123 63.6061 79.4092 66.5226 84.9528 69.2944L85.8472 67.5056C80.1908 64.6774 72.8104 61.7273 63.7204 58.6527L63.0796 60.5473ZM84.9612 69.2986C90.5491 72.0275 95.3645 75.9931 99.4096 81.2126L100.99 79.9874C96.7689 74.5402 91.7176 70.3724 85.8388 67.5014L84.9612 69.2986ZM99.4096 81.2126C103.377 86.3313 105.4 92.9664 105.4 101.2H107.4C107.4 92.6336 105.29 85.5353 100.99 79.9874L99.4096 81.2126ZM105.4 101.2C105.4 109.018 103.383 116.098 99.3549 122.465L101.045 123.535C105.283 116.836 107.4 109.382 107.4 101.2H105.4ZM99.3472 122.478C95.457 128.832 89.7409 133.912 82.1528 137.706L83.0472 139.494C90.9258 135.555 96.943 130.235 101.053 123.522L99.3472 122.478ZM82.1528 137.706C74.5854 141.489 65.6115 143.4 55.2 143.4V145.4C65.8552 145.4 75.148 143.444 83.0472 139.494L82.1528 137.706ZM161.647 30V29H160.647V30H161.647ZM161.647 58.4H160.647V59.4H161.647V58.4ZM207.447 58.4H208.447V57.4H207.447V58.4ZM207.447 84.8V85.8H208.447V84.8H207.447ZM161.647 84.8V83.8H160.647V84.8H161.647ZM161.647 115.6H160.647V116.6H161.647V115.6ZM213.447 115.6H214.447V114.6H213.447V115.6ZM213.447 143V144H214.447V143H213.447ZM127.447 143H126.447V144H127.447V143ZM127.447 2.6V1.6H126.447V2.6H127.447ZM213.447 2.6H214.447V1.6H213.447V2.6ZM213.447 30V31H214.447V30H213.447ZM160.647 30V58.4H162.647V30H160.647ZM161.647 59.4H207.447V57.4H161.647V59.4ZM206.447 58.4V84.8H208.447V58.4H206.447ZM207.447 83.8H161.647V85.8H207.447V83.8ZM160.647 84.8V115.6H162.647V84.8H160.647ZM161.647 116.6H213.447V114.6H161.647V116.6ZM212.447 115.6V143H214.447V115.6H212.447ZM213.447 142H127.447V144H213.447V142ZM128.447 143L128.447 2.6H126.447L126.447 143H128.447ZM127.447 3.6L213.447 3.6V1.6L127.447 1.6V3.6ZM212.447 2.6L212.447 30L214.447 30L214.447 2.6L212.447 2.6ZM213.447 29L161.647 29V31L213.447 31V29ZM307.25 143L306.374 143.483L306.659 144H307.25V143ZM278.05 90L278.926 89.5174L278.641 89H278.05V90ZM269.85 90V89H268.85V90H269.85ZM269.85 143V144H270.85V143H269.85ZM235.65 143H234.65V144H235.65V143ZM235.65 2.6V1.6H234.65V2.6H235.65ZM321.25 8.39999L320.803 9.29444L320.809 9.29744L321.25 8.39999ZM338.85 24.4L337.981 24.8943L337.985 24.9017L338.85 24.4ZM336.65 71.8L335.841 71.2118L335.834 71.2216L336.65 71.8ZM313.45 87.4L313.164 86.4418L311.946 86.8055L312.586 87.9035L313.45 87.4ZM345.85 143V144H347.59L346.714 142.497L345.85 143ZM269.85 65.8H268.85V66.8H269.85V65.8ZM305.05 61.2L304.358 60.478L304.35 60.4854L304.343 60.4929L305.05 61.2ZM305.05 35.6L304.343 36.3071L304.35 36.3146L304.358 36.322L305.05 35.6ZM269.85 31V30H268.85V31H269.85ZM308.126 142.517L278.926 89.5174L277.174 90.4825L306.374 143.483L308.126 142.517ZM278.05 89H269.85V91H278.05V89ZM268.85 90L268.85 143H270.85L270.85 90H268.85ZM269.85 142L235.65 142V144L269.85 144V142ZM236.65 143L236.65 2.6H234.65L234.65 143H236.65ZM235.65 3.6H293.05V1.6H235.65V3.6ZM293.05 3.6C304.004 3.6 313.242 5.51385 320.803 9.29442L321.697 7.50557C313.792 3.55281 304.23 1.6 293.05 1.6V3.6ZM320.809 9.29744C328.518 13.0867 334.225 18.2892 337.981 24.8943L339.719 23.9057C335.742 16.9108 329.715 11.4466 321.691 7.50254L320.809 9.29744ZM337.985 24.9017C341.757 31.4049 343.65 38.6963 343.65 46.8H345.65C345.65 38.3704 343.677 30.7284 339.715 23.8983L337.985 24.9017ZM343.65 46.8C343.65 55.9286 341.046 64.0547 335.841 71.2118L337.459 72.3882C342.92 64.8786 345.65 56.338 345.65 46.8H343.65ZM335.834 71.2216C330.787 78.3396 323.259 83.4264 313.164 86.4418L313.736 88.3582C324.174 85.2403 332.113 79.9271 337.466 72.3784L335.834 71.2216ZM312.586 87.9035L344.986 143.503L346.714 142.497L314.314 86.8965L312.586 87.9035ZM345.85 142H307.25V144H345.85V142ZM269.85 66.8H291.05V64.8H269.85V66.8ZM291.05 66.8C297.464 66.8 302.433 65.231 305.757 61.9071L304.343 60.4929C301.534 63.3023 297.17 64.8 291.05 64.8V66.8ZM305.742 61.922C309.188 58.6198 310.85 53.9965 310.85 48.2H308.85C308.85 53.6035 307.312 57.6468 304.358 60.478L305.742 61.922ZM310.85 48.2C310.85 42.6537 309.178 38.1709 305.742 34.878L304.358 36.322C307.322 39.1624 308.85 43.0796 308.85 48.2H310.85ZM305.757 34.8929C302.433 31.569 297.464 30 291.05 30V32C297.17 32 301.534 33.4977 304.343 36.3071L305.757 34.8929ZM291.05 30H269.85V32H291.05V30ZM268.85 31V65.8H270.85V31H268.85ZM497.919 2.6L498.861 2.93429L499.334 1.6H497.919V2.6ZM448.119 143V144H448.825L449.061 143.334L448.119 143ZM405.319 143L404.376 143.334L404.612 144H405.319V143ZM355.519 2.6V1.6H354.103L354.576 2.93429L355.519 2.6ZM391.919 2.6L392.869 2.28807L392.643 1.6H391.919V2.6ZM426.719 108.6L425.769 108.912L426.716 111.798L427.668 108.914L426.719 108.6ZM461.719 2.6V1.6H460.996L460.769 2.28646L461.719 2.6ZM496.976 2.2657L447.176 142.666L449.061 143.334L498.861 2.93429L496.976 2.2657ZM448.119 142L405.319 142V144L448.119 144V142ZM406.261 142.666L356.461 2.2657L354.576 2.93429L404.376 143.334L406.261 142.666ZM355.519 3.6L391.919 3.6V1.6L355.519 1.6V3.6ZM390.969 2.91192L425.769 108.912L427.669 108.288L392.869 2.28807L390.969 2.91192ZM427.668 108.914L462.668 2.91353L460.769 2.28646L425.769 108.286L427.668 108.914ZM461.719 3.6L497.919 3.6V1.6L461.719 1.6V3.6ZM546.413 2.6H547.413V1.6H546.413V2.6ZM546.413 143V144H547.413V143H546.413ZM512.213 143H511.213V144H512.213V143ZM512.213 2.6V1.6H511.213V2.6H512.213ZM545.413 2.6V143H547.413V2.6H545.413ZM546.413 142H512.213V144H546.413V142ZM513.213 143V2.6H511.213V143H513.213ZM512.213 3.6H546.413V1.6H512.213V3.6ZM574.397 35.6L575.271 36.0856L575.274 36.0811L574.397 35.6ZM599.397 10.2L599.887 11.0716L599.891 11.0696L599.397 10.2ZM678.797 14.2L679.393 13.3968L679.393 13.3968L678.797 14.2ZM702.597 50.2V51.2H703.894L703.564 49.9455L702.597 50.2ZM664.997 50.2L664.094 50.6307L664.366 51.2H664.997V50.2ZM652.997 36.8L652.479 37.6556L652.489 37.6614L652.997 36.8ZM609.997 43.2L610.744 43.8652L610.744 43.8652L609.997 43.2ZM609.997 102L609.25 102.665L609.997 102ZM652.997 108.4L652.489 107.539L652.479 107.544L652.997 108.4ZM664.997 95V94H664.366L664.094 94.5693L664.997 95ZM702.597 95L703.564 95.2545L703.894 94H702.597V95ZM678.797 131L679.387 131.808L679.393 131.803L678.797 131ZM599.397 135L598.898 135.867L598.905 135.871L598.911 135.874L599.397 135ZM574.397 109.6L575.271 109.114L575.271 109.114L574.397 109.6ZM566.397 72.6C566.397 58.8821 569.363 46.7196 575.271 36.0856L573.523 35.1144C567.43 46.0804 564.397 58.5846 564.397 72.6H566.397ZM575.274 36.0811C581.186 25.3081 589.386 16.9782 599.887 11.0716L598.907 9.32842C588.074 15.4218 579.608 24.0252 573.52 35.1189L575.274 36.0811ZM599.891 11.0696C610.526 5.02969 622.553 1.99999 635.997 1.99999V-7.62939e-06C622.241 -7.62939e-06 609.868 3.10363 598.903 9.33043L599.891 11.0696ZM635.997 1.99999C652.478 1.99999 666.529 6.34714 678.201 15.0032L679.393 13.3968C667.332 4.45284 652.849 -7.62939e-06 635.997 -7.62939e-06V1.99999ZM678.201 15.0032C689.873 23.6588 697.684 35.4592 701.63 50.4545L703.564 49.9455C699.51 34.5408 691.454 22.3412 679.393 13.3968L678.201 15.0032ZM702.597 49.2H664.997V51.2H702.597V49.2ZM665.899 49.7693C663.021 43.7375 658.89 39.1142 653.505 35.9386L652.489 37.6614C657.504 40.6191 661.373 44.9292 664.094 50.6307L665.899 49.7693ZM653.515 35.9445C648.276 32.7737 642.293 31.2 635.597 31.2V33.2C641.967 33.2 647.584 34.6929 652.479 37.6555L653.515 35.9445ZM635.597 31.2C624.802 31.2 615.988 34.9717 609.25 42.5348L610.744 43.8652C617.072 36.7617 625.325 33.2 635.597 33.2V31.2ZM609.25 42.5348C602.516 50.0937 599.197 60.1514 599.197 72.6H601.197C601.197 60.5152 604.411 50.973 610.744 43.8652L609.25 42.5348ZM599.197 72.6C599.197 85.0485 602.516 95.1063 609.25 102.665L610.744 101.335C604.411 94.227 601.197 84.6848 601.197 72.6H599.197ZM609.25 102.665C615.988 110.228 624.802 114 635.597 114V112C625.325 112 617.072 108.438 610.744 101.335L609.25 102.665ZM635.597 114C642.293 114 648.276 112.426 653.515 109.255L652.479 107.544C647.584 110.507 641.967 112 635.597 112V114ZM653.505 109.261C658.89 106.086 663.021 101.463 665.899 95.4307L664.094 94.5693C661.373 100.271 657.504 104.581 652.489 107.539L653.505 109.261ZM664.997 96H702.597V94H664.997V96ZM701.63 94.7455C697.684 109.741 689.873 121.541 678.201 130.197L679.393 131.803C691.454 122.859 699.51 110.659 703.564 95.2545L701.63 94.7455ZM678.207 130.192C666.534 138.718 652.481 143 635.997 143V145C652.846 145 667.326 140.616 679.387 131.808L678.207 130.192ZM635.997 143C622.549 143 610.519 140.035 599.883 134.126L598.911 135.874C609.874 141.965 622.244 145 635.997 145V143ZM599.895 134.133C589.387 128.091 581.183 119.756 575.271 109.114L573.523 110.086C579.611 121.044 588.074 129.643 598.898 135.867L599.895 134.133ZM575.271 109.114C569.363 98.4804 566.397 86.3179 566.397 72.6H564.397C564.397 86.6154 567.43 99.1196 573.523 110.086L575.271 109.114ZM757.741 30V29H756.741V30H757.741ZM757.741 58.4H756.741V59.4H757.741V58.4ZM803.541 58.4H804.541V57.4H803.541V58.4ZM803.541 84.8V85.8H804.541V84.8H803.541ZM757.741 84.8V83.8H756.741V84.8H757.741ZM757.741 115.6H756.741V116.6H757.741V115.6ZM809.541 115.6H810.541V114.6H809.541V115.6ZM809.541 143V144H810.541V143H809.541ZM723.541 143H722.541V144H723.541V143ZM723.541 2.6V1.6H722.541V2.6H723.541ZM809.541 2.6H810.541V1.6H809.541V2.6ZM809.541 30V31H810.541V30H809.541ZM756.741 30V58.4H758.741V30H756.741ZM757.741 59.4L803.541 59.4V57.4L757.741 57.4V59.4ZM802.541 58.4V84.8H804.541V58.4H802.541ZM803.541 83.8L757.741 83.8V85.8L803.541 85.8V83.8ZM756.741 84.8V115.6H758.741V84.8H756.741ZM757.741 116.6L809.541 116.6V114.6L757.741 114.6V116.6ZM808.541 115.6V143H810.541V115.6H808.541ZM809.541 142L723.541 142V144L809.541 144V142ZM724.541 143V2.6H722.541V143H724.541ZM723.541 3.6L809.541 3.6V1.6L723.541 1.6V3.6ZM808.541 2.6V30H810.541V2.6H808.541ZM809.541 29H757.741V31H809.541V29ZM854.944 139.4L854.565 140.325L854.565 140.325L854.944 139.4ZM835.344 124.6L834.538 125.192L834.546 125.203L835.344 124.6ZM827.744 101V100H826.714L826.744 101.029L827.744 101ZM864.144 101L865.139 100.898L865.046 100H864.144V101ZM869.544 113L868.869 113.738L868.878 113.747L868.888 113.755L869.544 113ZM893.544 113.6L894.155 114.391L894.166 114.383L894.177 114.374L893.544 113.6ZM894.344 95.2L893.637 95.9071L893.647 95.9172L893.657 95.927L894.344 95.2ZM885.744 89.6L885.341 90.5153L885.348 90.5182L885.354 90.521L885.744 89.6ZM871.344 84.6L871.049 85.5555L871.058 85.5584L871.344 84.6ZM849.144 76.2L848.705 77.0986L849.144 76.2ZM834.344 63.8L835.141 63.1969L835.141 63.1969L834.344 63.8ZM842.344 11.8L842.956 12.5906L842.963 12.5852L842.344 11.8ZM916.744 11.8L916.124 12.5852L916.131 12.5905L916.744 11.8ZM931.944 42.6V43.6H932.996L932.942 42.5496L931.944 42.6ZM894.944 42.6L893.945 42.6587L894.001 43.6H894.944V42.6ZM889.944 32L889.288 32.7546L889.297 32.7629L889.307 32.771L889.944 32ZM868.144 31.4L868.788 32.1649L868.799 32.1552L868.811 32.1452L868.144 31.4ZM870.744 51.4L871.254 50.5401L871.254 50.5401L870.744 51.4ZM890.744 59.6L891.064 58.6526L891.052 58.6486L890.744 59.6ZM912.744 68.4L912.297 69.2945L912.305 69.2986L912.744 68.4ZM927.544 80.6L926.753 81.2126L926.753 81.2126L927.544 80.6ZM927.544 123L926.699 122.465L926.695 122.472L926.691 122.478L927.544 123ZM909.944 138.6L909.497 137.706L909.497 137.706L909.944 138.6ZM882.544 143.4C872.386 143.4 863.318 141.751 855.323 138.475L854.565 140.325C862.837 143.716 872.169 145.4 882.544 145.4V143.4ZM855.323 138.475C847.343 135.204 840.959 130.377 836.142 123.997L834.546 125.203C839.595 131.89 846.278 136.929 854.565 140.325L855.323 138.475ZM836.15 124.008C831.486 117.66 829.005 109.996 828.743 100.971L826.744 101.029C827.016 110.404 829.602 118.474 834.538 125.192L836.15 124.008ZM827.744 102H864.144V100H827.744V102ZM863.149 101.102C863.701 106.481 865.578 110.733 868.869 113.738L870.218 112.262C867.376 109.667 865.654 105.919 865.139 100.898L863.149 101.102ZM868.888 113.755C872.173 116.612 876.423 118 881.544 118V116C876.798 116 873.048 114.722 870.2 112.245L868.888 113.755ZM881.544 118C886.752 118 890.992 116.835 894.155 114.391L892.932 112.809C890.228 114.898 886.469 116 881.544 116V118ZM894.177 114.374C897.365 111.765 898.944 108.202 898.944 103.8H896.944C896.944 107.664 895.589 110.635 892.911 112.826L894.177 114.374ZM898.944 103.8C898.944 100.074 897.641 96.9389 895.03 94.473L893.657 95.927C895.846 97.9944 896.944 100.593 896.944 103.8H898.944ZM895.051 94.4929C892.679 92.1208 889.698 90.1873 886.133 88.679L885.354 90.521C888.723 91.9461 891.475 93.7459 893.637 95.9071L895.051 94.4929ZM886.146 88.6847C882.756 87.193 877.91 85.5124 871.629 83.6416L871.058 85.5584C877.311 87.4209 882.065 89.0736 885.341 90.5153L886.146 88.6847ZM871.639 83.6445C862.6 80.8532 855.253 78.0707 849.583 75.3014L848.705 77.0986C854.501 79.9293 861.954 82.7468 871.049 85.5555L871.639 83.6445ZM849.583 75.3014C844.001 72.5754 839.187 68.5478 835.141 63.1969L833.546 64.4031C837.767 69.9856 842.82 74.2246 848.705 77.0986L849.583 75.3014ZM835.141 63.1969C831.173 57.9477 829.144 51.0446 829.144 42.4H827.144C827.144 51.3554 829.248 58.7189 833.546 64.4031L835.141 63.1969ZM829.144 42.4C829.144 29.6102 833.759 19.7155 842.956 12.5905L841.731 11.0094C831.996 18.5512 827.144 29.0565 827.144 42.4H829.144ZM842.963 12.5852C852.212 5.29057 864.309 1.6 879.344 1.6V-0.400002C863.979 -0.400002 851.409 3.37609 841.724 11.0148L842.963 12.5852ZM879.344 1.6C894.65 1.6 906.879 5.29285 916.124 12.5852L917.363 11.0148C907.675 3.37381 894.971 -0.400002 879.344 -0.400002V1.6ZM916.131 12.5905C925.342 19.7255 930.291 29.7077 930.945 42.6504L932.942 42.5496C932.263 29.0923 927.079 18.5412 917.356 11.0094L916.131 12.5905ZM931.944 41.6L894.944 41.6V43.6L931.944 43.6V41.6ZM895.942 42.5413C895.662 37.7738 893.893 33.9651 890.581 31.229L889.307 32.771C892.128 35.1016 893.693 38.3595 893.945 42.6587L895.942 42.5413ZM890.6 31.2454C887.319 28.3927 883.139 27 878.144 27V29C882.749 29 886.435 30.274 889.288 32.7546L890.6 31.2454ZM878.144 27C873.82 27 870.231 28.1903 867.477 30.6548L868.811 32.1452C871.123 30.0763 874.201 29 878.144 29V27ZM867.5 30.6351C864.686 33.0043 863.344 36.4512 863.344 40.8H865.344C865.344 36.8821 866.535 34.0624 868.788 32.1649L867.5 30.6351ZM863.344 40.8C863.344 45.7248 865.698 49.5669 870.233 52.2598L871.254 50.5401C867.256 48.1664 865.344 44.9419 865.344 40.8H863.344ZM870.233 52.2598C874.598 54.8515 881.351 57.6121 890.436 60.5514L891.052 58.6486C882.004 55.7213 875.423 53.0152 871.254 50.5401L870.233 52.2598ZM890.423 60.5473C899.467 63.6061 906.753 66.5226 912.297 69.2944L913.191 67.5056C907.535 64.6774 900.154 61.7273 891.064 58.6527L890.423 60.5473ZM912.305 69.2986C917.893 72.0275 922.708 75.9931 926.753 81.2126L928.334 79.9874C924.113 74.5402 919.061 70.3724 913.183 67.5014L912.305 69.2986ZM926.753 81.2126C930.72 86.3313 932.744 92.9664 932.744 101.2H934.744C934.744 92.6336 932.634 85.5353 928.334 79.9874L926.753 81.2126ZM932.744 101.2C932.744 109.018 930.727 116.098 926.699 122.465L928.389 123.535C932.627 116.836 934.744 109.382 934.744 101.2H932.744ZM926.691 122.478C922.801 128.832 917.085 133.912 909.497 137.706L910.391 139.494C918.27 135.555 924.287 130.235 928.397 123.522L926.691 122.478ZM909.497 137.706C901.929 141.489 892.955 143.4 882.544 143.4V145.4C893.199 145.4 902.492 143.444 910.391 139.494L909.497 137.706ZM955.991 139.4L955.296 140.12L955.31 140.132L955.323 140.145L955.991 139.4ZM955.991 112.8L955.309 112.068L955.303 112.074L955.296 112.08L955.991 112.8ZM985.191 112.8L984.496 113.52L984.503 113.526L984.509 113.532L985.191 112.8ZM985.191 139.4L985.871 140.133L985.872 140.132L985.191 139.4ZM970.791 143.6C964.996 143.6 960.313 141.932 956.658 138.655L955.323 140.145C959.401 143.801 964.585 145.6 970.791 145.6V143.6ZM956.685 138.68C953.147 135.269 951.391 131.129 951.391 126.2H949.391C949.391 131.671 951.367 136.331 955.296 140.12L956.685 138.68ZM951.391 126.2C951.391 121.13 953.153 116.925 956.685 113.52L955.296 112.08C951.362 115.875 949.391 120.604 949.391 126.2H951.391ZM956.672 113.532C960.328 110.128 965.007 108.4 970.791 108.4V106.4C964.575 106.4 959.386 108.272 955.309 112.068L956.672 113.532ZM970.791 108.4C976.435 108.4 980.974 110.124 984.496 113.52L985.885 112.08C981.94 108.276 976.879 106.4 970.791 106.4V108.4ZM984.509 113.532C988.171 116.941 989.991 121.141 989.991 126.2H991.991C991.991 120.592 989.944 115.859 985.872 112.068L984.509 113.532ZM989.991 126.2C989.991 131.117 988.176 135.254 984.509 138.668L985.872 140.132C989.938 136.346 991.991 131.683 991.991 126.2H989.991ZM984.51 138.667C980.99 141.936 976.446 143.6 970.791 143.6V145.6C976.869 145.6 981.925 143.797 985.871 140.133L984.51 138.667ZM1076.82 139.4L1076.44 140.325L1076.44 140.325L1076.82 139.4ZM1057.22 124.6L1056.41 125.192L1056.42 125.203L1057.22 124.6ZM1049.62 101V100H1048.59L1048.62 101.029L1049.62 101ZM1086.02 101L1087.01 100.898L1086.92 100H1086.02V101ZM1091.42 113L1090.74 113.738L1090.75 113.747L1090.76 113.755L1091.42 113ZM1115.42 113.6L1116.03 114.391L1116.04 114.383L1116.05 114.374L1115.42 113.6ZM1116.22 95.2L1115.51 95.9071L1115.52 95.9172L1115.53 95.927L1116.22 95.2ZM1107.62 89.6L1107.22 90.5153L1107.22 90.5182L1107.23 90.521L1107.62 89.6ZM1093.22 84.6L1092.92 85.5555L1092.93 85.5584L1093.22 84.6ZM1071.02 76.2L1070.58 77.0986L1071.02 76.2ZM1056.22 63.8L1057.02 63.1969L1057.02 63.1969L1056.22 63.8ZM1064.22 11.8L1064.83 12.5906L1064.84 12.5852L1064.22 11.8ZM1138.62 11.8L1138 12.5852L1138.01 12.5905L1138.62 11.8ZM1153.82 42.6V43.6H1154.87L1154.82 42.5496L1153.82 42.6ZM1116.82 42.6L1115.82 42.6587L1115.88 43.6H1116.82V42.6ZM1111.82 32L1111.16 32.7546L1111.17 32.7629L1111.18 32.771L1111.82 32ZM1090.02 31.4L1090.66 32.1649L1090.67 32.1552L1090.69 32.1452L1090.02 31.4ZM1092.62 51.4L1093.13 50.5401L1093.13 50.5401L1092.62 51.4ZM1112.62 59.6L1112.94 58.6526L1112.93 58.6486L1112.62 59.6ZM1134.62 68.4L1134.17 69.2945L1134.18 69.2986L1134.62 68.4ZM1149.42 80.6L1148.63 81.2126L1148.63 81.2126L1149.42 80.6ZM1149.42 123L1148.57 122.465L1148.57 122.472L1148.57 122.478L1149.42 123ZM1131.82 138.6L1131.37 137.706L1131.37 137.706L1131.82 138.6ZM1104.42 143.4C1094.26 143.4 1085.19 141.751 1077.2 138.475L1076.44 140.325C1084.71 143.716 1094.04 145.4 1104.42 145.4V143.4ZM1077.2 138.475C1069.22 135.204 1062.83 130.377 1058.02 123.997L1056.42 125.203C1061.47 131.89 1068.15 136.929 1076.44 140.325L1077.2 138.475ZM1058.02 124.008C1053.36 117.66 1050.88 109.996 1050.62 100.971L1048.62 101.029C1048.89 110.404 1051.48 118.474 1056.41 125.192L1058.02 124.008ZM1049.62 102H1086.02V100H1049.62V102ZM1085.02 101.102C1085.58 106.481 1087.45 110.733 1090.74 113.738L1092.09 112.262C1089.25 109.667 1087.53 105.919 1087.01 100.898L1085.02 101.102ZM1090.76 113.755C1094.05 116.612 1098.3 118 1103.42 118V116C1098.67 116 1094.92 114.722 1092.07 112.245L1090.76 113.755ZM1103.42 118C1108.63 118 1112.87 116.835 1116.03 114.391L1114.81 112.809C1112.1 114.898 1108.34 116 1103.42 116V118ZM1116.05 114.374C1119.24 111.765 1120.82 108.202 1120.82 103.8H1118.82C1118.82 107.664 1117.46 110.635 1114.79 112.826L1116.05 114.374ZM1120.82 103.8C1120.82 100.074 1119.52 96.9389 1116.91 94.473L1115.53 95.927C1117.72 97.9944 1118.82 100.593 1118.82 103.8H1120.82ZM1116.93 94.4929C1114.55 92.1208 1111.57 90.1873 1108.01 88.679L1107.23 90.521C1110.6 91.9461 1113.35 93.7459 1115.51 95.9071L1116.93 94.4929ZM1108.02 88.6847C1104.63 87.193 1099.78 85.5124 1093.5 83.6416L1092.93 85.5584C1099.19 87.4209 1103.94 89.0736 1107.22 90.5153L1108.02 88.6847ZM1093.51 83.6445C1084.48 80.8532 1077.13 78.0707 1071.46 75.3014L1070.58 77.0986C1076.38 79.9293 1083.83 82.7468 1092.92 85.5555L1093.51 83.6445ZM1071.46 75.3014C1065.88 72.5754 1061.06 68.5478 1057.02 63.1969L1055.42 64.4031C1059.64 69.9856 1064.7 74.2246 1070.58 77.0986L1071.46 75.3014ZM1057.02 63.1969C1053.05 57.9477 1051.02 51.0446 1051.02 42.4H1049.02C1049.02 51.3554 1051.12 58.7189 1055.42 64.4031L1057.02 63.1969ZM1051.02 42.4C1051.02 29.6102 1055.63 19.7155 1064.83 12.5905L1063.61 11.0094C1053.87 18.5512 1049.02 29.0565 1049.02 42.4H1051.02ZM1064.84 12.5852C1074.09 5.29057 1086.18 1.6 1101.22 1.6V-0.400002C1085.85 -0.400002 1073.28 3.37609 1063.6 11.0148L1064.84 12.5852ZM1101.22 1.6C1116.53 1.6 1128.75 5.29285 1138 12.5852L1139.24 11.0148C1129.55 3.37381 1116.85 -0.400002 1101.22 -0.400002V1.6ZM1138.01 12.5905C1147.22 19.7255 1152.17 29.7077 1152.82 42.6504L1154.82 42.5496C1154.14 29.0923 1148.95 18.5412 1139.23 11.0094L1138.01 12.5905ZM1153.82 41.6H1116.82V43.6H1153.82V41.6ZM1117.82 42.5413C1117.54 37.7738 1115.77 33.9651 1112.46 31.229L1111.18 32.771C1114 35.1016 1115.57 38.3595 1115.82 42.6587L1117.82 42.5413ZM1112.47 31.2454C1109.19 28.3927 1105.01 27 1100.02 27V29C1104.62 29 1108.31 30.274 1111.16 32.7546L1112.47 31.2454ZM1100.02 27C1095.7 27 1092.11 28.1903 1089.35 30.6548L1090.69 32.1452C1093 30.0763 1096.08 29 1100.02 29V27ZM1089.37 30.6351C1086.56 33.0043 1085.22 36.4512 1085.22 40.8H1087.22C1087.22 36.8821 1088.41 34.0624 1090.66 32.1649L1089.37 30.6351ZM1085.22 40.8C1085.22 45.7248 1087.57 49.5669 1092.11 52.2598L1093.13 50.5401C1089.13 48.1664 1087.22 44.9419 1087.22 40.8H1085.22ZM1092.11 52.2598C1096.47 54.8515 1103.23 57.6121 1112.31 60.5514L1112.93 58.6486C1103.88 55.7213 1097.3 53.0152 1093.13 50.5401L1092.11 52.2598ZM1112.3 60.5473C1121.34 63.6061 1128.63 66.5226 1134.17 69.2944L1135.07 67.5056C1129.41 64.6774 1122.03 61.7273 1112.94 58.6527L1112.3 60.5473ZM1134.18 69.2986C1139.77 72.0275 1144.58 75.9931 1148.63 81.2126L1150.21 79.9874C1145.99 74.5402 1140.94 70.3724 1135.06 67.5014L1134.18 69.2986ZM1148.63 81.2126C1152.6 86.3313 1154.62 92.9664 1154.62 101.2H1156.62C1156.62 92.6336 1154.51 85.5353 1150.21 79.9874L1148.63 81.2126ZM1154.62 101.2C1154.62 109.018 1152.6 116.098 1148.57 122.465L1150.26 123.535C1154.5 116.836 1156.62 109.382 1156.62 101.2H1154.62ZM1148.57 122.478C1144.68 128.832 1138.96 133.912 1131.37 137.706L1132.27 139.494C1140.14 135.555 1146.16 130.235 1150.27 123.522L1148.57 122.478ZM1131.37 137.706C1123.8 141.489 1114.83 143.4 1104.42 143.4V145.4C1115.07 145.4 1124.37 143.444 1132.27 139.494L1131.37 137.706ZM1210.87 30V29H1209.87V30H1210.87ZM1210.87 58.4H1209.87V59.4H1210.87V58.4ZM1256.67 58.4H1257.67V57.4H1256.67V58.4ZM1256.67 84.8V85.8H1257.67V84.8H1256.67ZM1210.87 84.8V83.8H1209.87V84.8H1210.87ZM1210.87 115.6H1209.87V116.6H1210.87V115.6ZM1262.67 115.6H1263.67V114.6H1262.67V115.6ZM1262.67 143V144H1263.67V143H1262.67ZM1176.67 143H1175.67V144H1176.67V143ZM1176.67 2.6V1.6H1175.67V2.6H1176.67ZM1262.67 2.6H1263.67V1.6H1262.67V2.6ZM1262.67 30V31H1263.67V30H1262.67ZM1209.87 30V58.4H1211.87V30H1209.87ZM1210.87 59.4H1256.67V57.4H1210.87V59.4ZM1255.67 58.4V84.8H1257.67V58.4H1255.67ZM1256.67 83.8H1210.87V85.8H1256.67V83.8ZM1209.87 84.8V115.6H1211.87V84.8H1209.87ZM1210.87 116.6H1262.67V114.6H1210.87V116.6ZM1261.67 115.6V143H1263.67V115.6H1261.67ZM1262.67 142H1176.67V144H1262.67V142ZM1177.67 143V2.6H1175.67V143H1177.67ZM1176.67 3.6L1262.67 3.6V1.6L1176.67 1.6V3.6ZM1261.67 2.6V30H1263.67V2.6H1261.67ZM1262.67 29H1210.87V31H1262.67V29ZM1356.47 143L1355.59 143.483L1355.88 144H1356.47V143ZM1327.27 90L1328.14 89.5174L1327.86 89H1327.27V90ZM1319.07 90V89H1318.07V90H1319.07ZM1319.07 143V144H1320.07V143H1319.07ZM1284.87 143H1283.87V144H1284.87V143ZM1284.87 2.6V1.6H1283.87V2.6H1284.87ZM1370.47 8.39999L1370.02 9.29444L1370.03 9.29744L1370.47 8.39999ZM1388.07 24.4L1387.2 24.8943L1387.2 24.9017L1388.07 24.4ZM1385.87 71.8L1385.06 71.2118L1385.05 71.2216L1385.87 71.8ZM1362.67 87.4L1362.38 86.4418L1361.16 86.8055L1361.8 87.9035L1362.67 87.4ZM1395.07 143V144H1396.81L1395.93 142.497L1395.07 143ZM1319.07 65.8H1318.07V66.8H1319.07V65.8ZM1354.27 61.2L1353.58 60.478L1353.57 60.4854L1353.56 60.4929L1354.27 61.2ZM1354.27 35.6L1353.56 36.3071L1353.57 36.3146L1353.58 36.322L1354.27 35.6ZM1319.07 31V30H1318.07V31H1319.07ZM1357.34 142.517L1328.14 89.5174L1326.39 90.4825L1355.59 143.483L1357.34 142.517ZM1327.27 89H1319.07V91H1327.27V89ZM1318.07 90V143H1320.07V90H1318.07ZM1319.07 142L1284.87 142V144L1319.07 144V142ZM1285.87 143V2.6H1283.87V143H1285.87ZM1284.87 3.6H1342.27V1.6H1284.87V3.6ZM1342.27 3.6C1353.22 3.6 1362.46 5.51385 1370.02 9.29442L1370.92 7.50557C1363.01 3.55281 1353.45 1.6 1342.27 1.6V3.6ZM1370.03 9.29744C1377.74 13.0867 1383.44 18.2892 1387.2 24.8943L1388.94 23.9057C1384.96 16.9108 1378.93 11.4466 1370.91 7.50254L1370.03 9.29744ZM1387.2 24.9017C1390.98 31.4049 1392.87 38.6963 1392.87 46.8H1394.87C1394.87 38.3704 1392.9 30.7284 1388.93 23.8983L1387.2 24.9017ZM1392.87 46.8C1392.87 55.9286 1390.27 64.0547 1385.06 71.2118L1386.68 72.3882C1392.14 64.8786 1394.87 56.338 1394.87 46.8H1392.87ZM1385.05 71.2216C1380.01 78.3396 1372.48 83.4264 1362.38 86.4418L1362.95 88.3582C1373.39 85.2403 1381.33 79.9271 1386.68 72.3784L1385.05 71.2216ZM1361.8 87.9035L1394.2 143.503L1395.93 142.497L1363.53 86.8965L1361.8 87.9035ZM1395.07 142H1356.47V144H1395.07V142ZM1319.07 66.8H1340.27V64.8H1319.07V66.8ZM1340.27 66.8C1346.68 66.8 1351.65 65.231 1354.98 61.9071L1353.56 60.4929C1350.75 63.3023 1346.39 64.8 1340.27 64.8V66.8ZM1354.96 61.922C1358.41 58.6198 1360.07 53.9965 1360.07 48.2H1358.07C1358.07 53.6035 1356.53 57.6468 1353.58 60.478L1354.96 61.922ZM1360.07 48.2C1360.07 42.6537 1358.4 38.1709 1354.96 34.878L1353.58 36.322C1356.54 39.1624 1358.07 43.0796 1358.07 48.2H1360.07ZM1354.98 34.8929C1351.65 31.569 1346.68 30 1340.27 30V32C1346.39 32 1350.75 33.4977 1353.56 36.3071L1354.98 34.8929ZM1340.27 30H1319.07V32H1340.27V30ZM1318.07 31V65.8H1320.07V31H1318.07ZM1547.14 2.6L1548.08 2.93429L1548.55 1.6H1547.14V2.6ZM1497.34 143V144H1498.04L1498.28 143.334L1497.34 143ZM1454.54 143L1453.6 143.334L1453.83 144H1454.54V143ZM1404.74 2.6V1.6H1403.32L1403.8 2.93429L1404.74 2.6ZM1441.14 2.6L1442.09 2.28807L1441.86 1.6H1441.14V2.6ZM1475.94 108.6L1474.99 108.912L1475.93 111.798L1476.89 108.914L1475.94 108.6ZM1510.94 2.6V1.6H1510.21L1509.99 2.28646L1510.94 2.6ZM1546.2 2.2657L1496.4 142.666L1498.28 143.334L1548.08 2.93429L1546.2 2.2657ZM1497.34 142L1454.54 142V144L1497.34 144V142ZM1455.48 142.666L1405.68 2.2657L1403.8 2.93429L1453.6 143.334L1455.48 142.666ZM1404.74 3.6H1441.14V1.6H1404.74V3.6ZM1440.19 2.91192L1474.99 108.912L1476.89 108.288L1442.09 2.28807L1440.19 2.91192ZM1476.89 108.914L1511.89 2.91353L1509.99 2.28646L1474.99 108.286L1476.89 108.914ZM1510.94 3.6L1547.14 3.6V1.6L1510.94 1.6V3.6ZM1595.63 2.6H1596.63V1.6H1595.63V2.6ZM1595.63 143V144H1596.63V143H1595.63ZM1561.43 143H1560.43V144H1561.43V143ZM1561.43 2.6V1.6H1560.43V2.6H1561.43ZM1594.63 2.6V143H1596.63V2.6H1594.63ZM1595.63 142H1561.43V144H1595.63V142ZM1562.43 143V2.6H1560.43V143H1562.43ZM1561.43 3.6H1595.63V1.6H1561.43V3.6ZM1623.62 35.6L1624.49 36.0856L1624.49 36.0811L1623.62 35.6ZM1648.62 10.2L1649.11 11.0716L1649.11 11.0696L1648.62 10.2ZM1728.02 14.2L1728.61 13.3968L1728.61 13.3968L1728.02 14.2ZM1751.82 50.2V51.2H1753.11L1752.78 49.9455L1751.82 50.2ZM1714.22 50.2L1713.31 50.6307L1713.58 51.2H1714.22V50.2ZM1702.22 36.8L1701.7 37.6556L1701.71 37.6614L1702.22 36.8ZM1659.22 43.2L1659.96 43.8652L1659.96 43.8652L1659.22 43.2ZM1659.22 102L1658.47 102.665L1659.22 102ZM1702.22 108.4L1701.71 107.539L1701.7 107.544L1702.22 108.4ZM1714.22 95V94H1713.58L1713.31 94.5693L1714.22 95ZM1751.82 95L1752.78 95.2545L1753.11 94H1751.82V95ZM1728.02 131L1728.61 131.808L1728.61 131.803L1728.02 131ZM1648.62 135L1648.12 135.867L1648.12 135.871L1648.13 135.874L1648.62 135ZM1623.62 109.6L1624.49 109.114L1624.49 109.114L1623.62 109.6ZM1615.62 72.6C1615.62 58.8821 1618.58 46.7196 1624.49 36.0856L1622.74 35.1144C1616.65 46.0804 1613.62 58.5846 1613.62 72.6H1615.62ZM1624.49 36.0811C1630.4 25.3081 1638.61 16.9782 1649.11 11.0716L1648.13 9.32842C1637.29 15.4218 1628.83 24.0252 1622.74 35.1189L1624.49 36.0811ZM1649.11 11.0696C1659.74 5.02969 1671.77 1.99999 1685.22 1.99999V-7.62939e-06C1671.46 -7.62939e-06 1659.09 3.10363 1648.12 9.33043L1649.11 11.0696ZM1685.22 1.99999C1701.7 1.99999 1715.75 6.34714 1727.42 15.0032L1728.61 13.3968C1716.55 4.45284 1702.07 -7.62939e-06 1685.22 -7.62939e-06V1.99999ZM1727.42 15.0032C1739.09 23.6588 1746.9 35.4592 1750.85 50.4545L1752.78 49.9455C1748.73 34.5408 1740.67 22.3412 1728.61 13.3968L1727.42 15.0032ZM1751.82 49.2L1714.22 49.2V51.2H1751.82V49.2ZM1715.12 49.7693C1712.24 43.7375 1708.11 39.1142 1702.72 35.9386L1701.71 37.6614C1706.72 40.6191 1710.59 44.9292 1713.31 50.6307L1715.12 49.7693ZM1702.73 35.9445C1697.49 32.7737 1691.51 31.2 1684.82 31.2V33.2C1691.19 33.2 1696.8 34.6929 1701.7 37.6555L1702.73 35.9445ZM1684.82 31.2C1674.02 31.2 1665.21 34.9717 1658.47 42.5348L1659.96 43.8652C1666.29 36.7617 1674.54 33.2 1684.82 33.2V31.2ZM1658.47 42.5348C1651.73 50.0937 1648.42 60.1514 1648.42 72.6H1650.42C1650.42 60.5152 1653.63 50.973 1659.96 43.8652L1658.47 42.5348ZM1648.42 72.6C1648.42 85.0485 1651.73 95.1063 1658.47 102.665L1659.96 101.335C1653.63 94.227 1650.42 84.6848 1650.42 72.6H1648.42ZM1658.47 102.665C1665.21 110.228 1674.02 114 1684.82 114V112C1674.54 112 1666.29 108.438 1659.96 101.335L1658.47 102.665ZM1684.82 114C1691.51 114 1697.49 112.426 1702.73 109.255L1701.7 107.544C1696.8 110.507 1691.19 112 1684.82 112V114ZM1702.72 109.261C1708.11 106.086 1712.24 101.463 1715.12 95.4307L1713.31 94.5693C1710.59 100.271 1706.72 104.581 1701.71 107.539L1702.72 109.261ZM1714.22 96H1751.82V94H1714.22V96ZM1750.85 94.7455C1746.9 109.741 1739.09 121.541 1727.42 130.197L1728.61 131.803C1740.67 122.859 1748.73 110.659 1752.78 95.2545L1750.85 94.7455ZM1727.43 130.192C1715.75 138.718 1701.7 143 1685.22 143V145C1702.06 145 1716.55 140.616 1728.61 131.808L1727.43 130.192ZM1685.22 143C1671.77 143 1659.74 140.035 1649.1 134.126L1648.13 135.874C1659.09 141.965 1671.46 145 1685.22 145V143ZM1649.11 134.133C1638.61 128.091 1630.4 119.756 1624.49 109.114L1622.74 110.086C1628.83 121.044 1637.29 129.643 1648.12 135.867L1649.11 134.133ZM1624.49 109.114C1618.58 98.4804 1615.62 86.3179 1615.62 72.6H1613.62C1613.62 86.6154 1616.65 99.1196 1622.74 110.086L1624.49 109.114ZM1806.96 30V29H1805.96V30H1806.96ZM1806.96 58.4H1805.96V59.4H1806.96V58.4ZM1852.76 58.4H1853.76V57.4H1852.76V58.4ZM1852.76 84.8V85.8H1853.76V84.8H1852.76ZM1806.96 84.8V83.8H1805.96V84.8H1806.96ZM1806.96 115.6H1805.96V116.6H1806.96V115.6ZM1858.76 115.6H1859.76V114.6H1858.76V115.6ZM1858.76 143V144H1859.76V143H1858.76ZM1772.76 143H1771.76V144H1772.76V143ZM1772.76 2.6V1.6H1771.76V2.6H1772.76ZM1858.76 2.6H1859.76V1.6H1858.76V2.6ZM1858.76 30V31H1859.76V30H1858.76ZM1805.96 30V58.4H1807.96V30H1805.96ZM1806.96 59.4L1852.76 59.4V57.4L1806.96 57.4V59.4ZM1851.76 58.4V84.8H1853.76V58.4H1851.76ZM1852.76 83.8L1806.96 83.8V85.8L1852.76 85.8V83.8ZM1805.96 84.8V115.6H1807.96V84.8H1805.96ZM1806.96 116.6L1858.76 116.6V114.6L1806.96 114.6V116.6ZM1857.76 115.6V143H1859.76V115.6H1857.76ZM1858.76 142L1772.76 142V144L1858.76 144V142ZM1773.76 143V2.6H1771.76V143H1773.76ZM1772.76 3.6L1858.76 3.6V1.6L1772.76 1.6V3.6ZM1857.76 2.6V30H1859.76V2.6H1857.76ZM1858.76 29H1806.96V31H1858.76V29ZM1904.16 139.4L1903.78 140.325L1903.78 140.325L1904.16 139.4ZM1884.56 124.6L1883.76 125.192L1883.76 125.203L1884.56 124.6ZM1876.96 101V100H1875.93L1875.96 101.029L1876.96 101ZM1913.36 101L1914.36 100.898L1914.27 100H1913.36V101ZM1918.76 113L1918.09 113.738L1918.1 113.747L1918.11 113.755L1918.76 113ZM1942.76 113.6L1943.37 114.391L1943.38 114.383L1943.4 114.374L1942.76 113.6ZM1943.56 95.2L1942.86 95.9071L1942.87 95.9172L1942.88 95.927L1943.56 95.2ZM1934.96 89.6L1934.56 90.5153L1934.57 90.5182L1934.57 90.521L1934.96 89.6ZM1920.56 84.6L1920.27 85.5555L1920.28 85.5584L1920.56 84.6ZM1898.36 76.2L1897.92 77.0986L1898.36 76.2ZM1883.56 63.8L1884.36 63.1969L1884.36 63.1969L1883.56 63.8ZM1891.56 11.8L1892.17 12.5906L1892.18 12.5852L1891.56 11.8ZM1965.96 11.8L1965.34 12.5852L1965.35 12.5905L1965.96 11.8ZM1981.16 42.6V43.6H1982.21L1982.16 42.5496L1981.16 42.6ZM1944.16 42.6L1943.16 42.6587L1943.22 43.6H1944.16V42.6ZM1939.16 32L1938.51 32.7546L1938.52 32.7629L1938.53 32.771L1939.16 32ZM1917.36 31.4L1918.01 32.1649L1918.02 32.1552L1918.03 32.1452L1917.36 31.4ZM1919.96 51.4L1920.47 50.5401L1920.47 50.5401L1919.96 51.4ZM1939.96 59.6L1940.28 58.6526L1940.27 58.6486L1939.96 59.6ZM1961.96 68.4L1961.52 69.2945L1961.52 69.2986L1961.96 68.4ZM1976.76 80.6L1975.97 81.2126L1975.97 81.2126L1976.76 80.6ZM1976.76 123L1975.92 122.465L1975.91 122.472L1975.91 122.478L1976.76 123ZM1959.16 138.6L1958.72 137.706L1958.72 137.706L1959.16 138.6ZM1931.76 143.4C1921.6 143.4 1912.54 141.751 1904.54 138.475L1903.78 140.325C1912.06 143.716 1921.39 145.4 1931.76 145.4V143.4ZM1904.54 138.475C1896.56 135.204 1890.18 130.377 1885.36 123.997L1883.76 125.203C1888.81 131.89 1895.5 136.929 1903.78 140.325L1904.54 138.475ZM1885.37 124.008C1880.7 117.66 1878.22 109.996 1877.96 100.971L1875.96 101.029C1876.23 110.404 1878.82 118.474 1883.76 125.192L1885.37 124.008ZM1876.96 102H1913.36V100H1876.96V102ZM1912.37 101.102C1912.92 106.481 1914.8 110.733 1918.09 113.738L1919.44 112.262C1916.59 109.667 1914.87 105.919 1914.36 100.898L1912.37 101.102ZM1918.11 113.755C1921.39 116.612 1925.64 118 1930.76 118V116C1926.02 116 1922.27 114.722 1919.42 112.245L1918.11 113.755ZM1930.76 118C1935.97 118 1940.21 116.835 1943.37 114.391L1942.15 112.809C1939.45 114.898 1935.69 116 1930.76 116V118ZM1943.4 114.374C1946.58 111.765 1948.16 108.202 1948.16 103.8H1946.16C1946.16 107.664 1944.81 110.635 1942.13 112.826L1943.4 114.374ZM1948.16 103.8C1948.16 100.074 1946.86 96.9389 1944.25 94.473L1942.88 95.927C1945.06 97.9944 1946.16 100.593 1946.16 103.8H1948.16ZM1944.27 94.4929C1941.9 92.1208 1938.92 90.1873 1935.35 88.679L1934.57 90.521C1937.94 91.9461 1940.69 93.7459 1942.86 95.9071L1944.27 94.4929ZM1935.37 88.6847C1931.98 87.193 1927.13 85.5124 1920.85 83.6416L1920.28 85.5584C1926.53 87.4209 1931.28 89.0736 1934.56 90.5153L1935.37 88.6847ZM1920.86 83.6445C1911.82 80.8532 1904.47 78.0707 1898.8 75.3014L1897.92 77.0986C1903.72 79.9293 1911.17 82.7468 1920.27 85.5555L1920.86 83.6445ZM1898.8 75.3014C1893.22 72.5754 1888.41 68.5478 1884.36 63.1969L1882.76 64.4031C1886.99 69.9856 1892.04 74.2246 1897.92 77.0986L1898.8 75.3014ZM1884.36 63.1969C1880.39 57.9477 1878.36 51.0446 1878.36 42.4H1876.36C1876.36 51.3554 1878.47 58.7189 1882.76 64.4031L1884.36 63.1969ZM1878.36 42.4C1878.36 29.6102 1882.98 19.7155 1892.17 12.5905L1890.95 11.0094C1881.21 18.5512 1876.36 29.0565 1876.36 42.4H1878.36ZM1892.18 12.5852C1901.43 5.29057 1913.53 1.6 1928.56 1.6V-0.400002C1913.2 -0.400002 1900.63 3.37609 1890.94 11.0148L1892.18 12.5852ZM1928.56 1.6C1943.87 1.6 1956.1 5.29285 1965.34 12.5852L1966.58 11.0148C1956.89 3.37381 1944.19 -0.400002 1928.56 -0.400002V1.6ZM1965.35 12.5905C1974.56 19.7255 1979.51 29.7077 1980.16 42.6504L1982.16 42.5496C1981.48 29.0923 1976.3 18.5412 1966.57 11.0094L1965.35 12.5905ZM1981.16 41.6L1944.16 41.6V43.6L1981.16 43.6V41.6ZM1945.16 42.5413C1944.88 37.7738 1943.11 33.9651 1939.8 31.229L1938.53 32.771C1941.35 35.1016 1942.91 38.3595 1943.16 42.6587L1945.16 42.5413ZM1939.82 31.2454C1936.54 28.3927 1932.36 27 1927.36 27V29C1931.97 29 1935.65 30.274 1938.51 32.7546L1939.82 31.2454ZM1927.36 27C1923.04 27 1919.45 28.1903 1916.7 30.6548L1918.03 32.1452C1920.34 30.0763 1923.42 29 1927.36 29V27ZM1916.72 30.6351C1913.9 33.0043 1912.56 36.4512 1912.56 40.8H1914.56C1914.56 36.8821 1915.75 34.0624 1918.01 32.1649L1916.72 30.6351ZM1912.56 40.8C1912.56 45.7248 1914.92 49.5669 1919.45 52.2598L1920.47 50.5401C1916.48 48.1664 1914.56 44.9419 1914.56 40.8H1912.56ZM1919.45 52.2598C1923.82 54.8515 1930.57 57.6121 1939.65 60.5514L1940.27 58.6486C1931.22 55.7213 1924.64 53.0152 1920.47 50.5401L1919.45 52.2598ZM1939.64 60.5473C1948.69 63.6061 1955.97 66.5226 1961.52 69.2944L1962.41 67.5056C1956.75 64.6774 1949.37 61.7273 1940.28 58.6527L1939.64 60.5473ZM1961.52 69.2986C1967.11 72.0275 1971.93 75.9931 1975.97 81.2126L1977.55 79.9874C1973.33 74.5402 1968.28 70.3724 1962.4 67.5014L1961.52 69.2986ZM1975.97 81.2126C1979.94 86.3313 1981.96 92.9664 1981.96 101.2H1983.96C1983.96 92.6336 1981.85 85.5353 1977.55 79.9874L1975.97 81.2126ZM1981.96 101.2C1981.96 109.018 1979.95 116.098 1975.92 122.465L1977.61 123.535C1981.85 116.836 1983.96 109.382 1983.96 101.2H1981.96ZM1975.91 122.478C1972.02 128.832 1966.3 133.912 1958.72 137.706L1959.61 139.494C1967.49 135.555 1973.51 130.235 1977.62 123.522L1975.91 122.478ZM1958.72 137.706C1951.15 141.489 1942.17 143.4 1931.76 143.4V145.4C1942.42 145.4 1951.71 143.444 1959.61 139.494L1958.72 137.706Z" fill="#274546" fill-opacity="0.2"/>
</svg>
