<svg width="676" height="145" viewBox="0 0 676 145" fill="none" xmlns="http://www.w3.org/2000/svg">
<path d="M27.6 139.4L27.2208 140.325L27.2208 140.325L27.6 139.4ZM8 124.6L7.19405 125.192L7.20196 125.203L8 124.6ZM0.400001 101V100H-0.629405L-0.59958 101.029L0.400001 101ZM36.8 101L37.7948 100.898L37.7027 100H36.8V101ZM42.2 113L41.5257 113.738L41.5347 113.747L41.5438 113.755L42.2 113ZM66.2 113.6L66.8115 114.391L66.8225 114.383L66.8332 114.374L66.2 113.6ZM67 95.2L66.2929 95.9071L66.303 95.9172L66.3134 95.927L67 95.2ZM58.4 89.6L57.9973 90.5153L58.0038 90.5182L58.0104 90.521L58.4 89.6ZM44 84.6L43.7049 85.5555L43.7145 85.5584L44 84.6ZM21.8 76.2L21.3612 77.0986L21.8 76.2ZM7 63.8L7.79766 63.1969L7.79766 63.1969L7 63.8ZM15 11.8L15.6124 12.5906L15.6193 12.5852L15 11.8ZM89.4 11.8L88.7807 12.5852L88.7876 12.5905L89.4 11.8ZM104.6 42.6V43.6H105.652L105.599 42.5496L104.6 42.6ZM67.6 42.6L66.6017 42.6587L66.6571 43.6H67.6V42.6ZM62.6 32L61.9438 32.7546L61.9534 32.7629L61.9631 32.771L62.6 32ZM40.8 31.4L41.4441 32.1649L41.4556 32.1552L41.4668 32.1452L40.8 31.4ZM43.4 51.4L43.9105 50.5401L43.9105 50.5401L43.4 51.4ZM63.4 59.6L63.7204 58.6526L63.7078 58.6486L63.4 59.6ZM85.4 68.4L84.9528 69.2945L84.9612 69.2986L85.4 68.4ZM100.2 80.6L99.4096 81.2126L99.4096 81.2126L100.2 80.6ZM100.2 123L99.3549 122.465L99.351 122.472L99.3472 122.478L100.2 123ZM82.6 138.6L82.1528 137.706L82.1528 137.706L82.6 138.6ZM55.2 143.4C45.0419 143.4 35.9738 141.751 27.9792 138.475L27.2208 140.325C35.4929 143.716 44.8248 145.4 55.2 145.4V143.4ZM27.9792 138.475C19.9992 135.204 13.6153 130.377 8.79804 123.997L7.20196 125.203C12.2514 131.89 18.9341 136.929 27.2208 140.325L27.9792 138.475ZM8.80588 124.008C4.14195 117.66 1.66119 109.996 1.39958 100.971L-0.59958 101.029C-0.327853 110.404 2.25805 118.474 7.19412 125.192L8.80588 124.008ZM0.400001 102H36.8V100H0.400001V102ZM35.8052 101.102C36.3569 106.481 38.2343 110.733 41.5257 113.738L42.8743 112.262C40.0323 109.667 38.3098 105.919 37.7948 100.898L35.8052 101.102ZM41.5438 113.755C44.8294 116.612 49.0794 118 54.2 118V116C49.4539 116 45.7039 114.722 42.8562 112.245L41.5438 113.755ZM54.2 118C59.4078 118 63.6487 116.835 66.8115 114.391L65.5886 112.809C62.8847 114.898 59.1256 116 54.2 116V118ZM66.8332 114.374C70.0216 111.765 71.6 108.202 71.6 103.8H69.6C69.6 107.664 68.245 110.635 65.5668 112.826L66.8332 114.374ZM71.6 103.8C71.6 100.074 70.2976 96.9389 67.6866 94.473L66.3134 95.927C68.5024 97.9944 69.6 100.593 69.6 103.8H71.6ZM67.7071 94.4929C65.335 92.1208 62.3546 90.1873 58.7896 88.679L58.0104 90.521C61.3788 91.9461 64.1317 93.7459 66.2929 95.9071L67.7071 94.4929ZM58.8027 88.6847C55.4126 87.193 50.5661 85.5124 44.2855 83.6416L43.7145 85.5584C49.9673 87.4209 54.7208 89.0736 57.9973 90.5153L58.8027 88.6847ZM44.2951 83.6445C35.2564 80.8532 27.9093 78.0707 22.2388 75.3014L21.3612 77.0986C27.1573 79.9293 34.6103 82.7468 43.7049 85.5555L44.2951 83.6445ZM22.2388 75.3014C16.657 72.5754 11.8434 68.5478 7.79766 63.1969L6.20234 64.4031C10.4232 69.9856 15.4763 74.2246 21.3612 77.0986L22.2388 75.3014ZM7.79766 63.1969C3.82878 57.9477 1.8 51.0446 1.8 42.4H-0.199999C-0.199999 51.3554 1.90455 58.7189 6.20234 64.4031L7.79766 63.1969ZM1.8 42.4C1.8 29.6102 6.41477 19.7155 15.6124 12.5905L14.3876 11.0094C4.65189 18.5512 -0.199999 29.0565 -0.199999 42.4H1.8ZM15.6193 12.5852C24.8678 5.29057 36.965 1.6 52 1.6V-0.400002C36.635 -0.400002 24.0655 3.37609 14.3807 11.0148L15.6193 12.5852ZM52 1.6C67.3063 1.6 79.5351 5.29285 88.7807 12.5852L90.0193 11.0148C80.3316 3.37381 67.627 -0.400002 52 -0.400002V1.6ZM88.7876 12.5905C97.9981 19.7255 102.948 29.7077 103.601 42.6504L105.599 42.5496C104.919 29.0923 99.7352 18.5412 90.0124 11.0094L88.7876 12.5905ZM104.6 41.6H67.6V43.6H104.6V41.6ZM68.5983 42.5413C68.3178 37.7738 66.5489 33.9651 63.2369 31.229L61.9631 32.771C64.7844 35.1016 66.3488 38.3595 66.6017 42.6587L68.5983 42.5413ZM63.2562 31.2454C59.9756 28.3927 55.7951 27 50.8 27V29C55.4049 29 59.0911 30.274 61.9438 32.7546L63.2562 31.2454ZM50.8 27C46.4763 27 42.8875 28.1903 40.1332 30.6548L41.4668 32.1452C43.7791 30.0763 46.857 29 50.8 29V27ZM40.1559 30.6351C37.3424 33.0043 36 36.4512 36 40.8L38 40.8C38 36.8821 39.1909 34.0624 41.4441 32.1649L40.1559 30.6351ZM36 40.8C36 45.7248 38.354 49.5669 42.8895 52.2598L43.9105 50.5401C39.9127 48.1664 38 44.9419 38 40.8L36 40.8ZM42.8895 52.2598C47.2543 54.8515 54.0068 57.6121 63.0922 60.5514L63.7078 58.6486C54.6598 55.7213 48.079 53.0152 43.9105 50.5401L42.8895 52.2598ZM63.0796 60.5473C72.123 63.6061 79.4092 66.5226 84.9528 69.2944L85.8472 67.5056C80.1908 64.6774 72.8104 61.7273 63.7204 58.6527L63.0796 60.5473ZM84.9612 69.2986C90.5491 72.0275 95.3645 75.9931 99.4096 81.2126L100.99 79.9874C96.7689 74.5402 91.7176 70.3724 85.8388 67.5014L84.9612 69.2986ZM99.4096 81.2126C103.377 86.3313 105.4 92.9664 105.4 101.2H107.4C107.4 92.6336 105.29 85.5353 100.99 79.9874L99.4096 81.2126ZM105.4 101.2C105.4 109.018 103.383 116.098 99.3549 122.465L101.045 123.535C105.283 116.836 107.4 109.382 107.4 101.2H105.4ZM99.3472 122.478C95.457 128.832 89.7409 133.912 82.1528 137.706L83.0472 139.494C90.9258 135.555 96.943 130.235 101.053 123.522L99.3472 122.478ZM82.1528 137.706C74.5854 141.489 65.6115 143.4 55.2 143.4V145.4C65.8552 145.4 75.148 143.444 83.0472 139.494L82.1528 137.706ZM208.847 143L208.051 143.606L208.351 144H208.847V143ZM161.647 81L162.443 80.3943L160.647 78.0356V81H161.647ZM161.647 143V144H162.647V143H161.647ZM127.447 143H126.447V144H127.447V143ZM127.447 2.6V1.6H126.447V2.6H127.447ZM161.647 2.6H162.647V1.6H161.647V2.6ZM161.647 64.2H160.647V67.1693L162.443 64.8049L161.647 64.2ZM208.447 2.6V1.6H207.951L207.651 1.99504L208.447 2.6ZM248.647 2.6L249.431 3.22023L250.712 1.6H248.647V2.6ZM194.247 71.4L193.462 70.7798L192.973 71.3988L193.461 72.0188L194.247 71.4ZM250.647 143V144H252.708L251.432 142.381L250.647 143ZM209.643 142.394L162.443 80.3943L160.851 81.6057L208.051 143.606L209.643 142.394ZM160.647 81V143H162.647V81H160.647ZM161.647 142H127.447V144H161.647V142ZM128.447 143L128.447 2.6H126.447L126.447 143H128.447ZM127.447 3.6H161.647V1.6H127.447V3.6ZM160.647 2.6L160.647 64.2H162.647L162.647 2.6H160.647ZM162.443 64.8049L209.243 3.20495L207.651 1.99504L160.851 63.595L162.443 64.8049ZM208.447 3.6L248.647 3.6V1.6L208.447 1.6V3.6ZM247.862 1.97976L193.462 70.7798L195.031 72.0202L249.431 3.22023L247.862 1.97976ZM193.461 72.0188L249.861 143.619L251.432 142.381L195.032 70.7812L193.461 72.0188ZM250.647 142H208.847V144H250.647V142ZM301.1 2.6L302.1 2.6V1.6L301.1 1.6V2.6ZM301.1 143V144H302.1V143H301.1ZM266.9 143H265.9V144H266.9V143ZM266.9 2.6V1.6H265.9V2.6H266.9ZM300.1 2.6L300.1 143H302.1L302.1 2.6L300.1 2.6ZM301.1 142H266.9V144H301.1V142ZM267.9 143L267.9 2.6H265.9L265.9 143H267.9ZM266.9 3.6H301.1V1.6H266.9V3.6ZM360.084 116.6H359.084V117.6H360.084V116.6ZM404.884 116.6H405.884V115.6H404.884V116.6ZM404.884 143V144H405.884V143H404.884ZM325.884 143H324.884V144H325.884V143ZM325.884 2.6V1.6H324.884V2.6H325.884ZM360.084 2.6H361.084V1.6H360.084V2.6ZM360.084 117.6H404.884V115.6H360.084V117.6ZM403.884 116.6V143H405.884V116.6H403.884ZM404.884 142H325.884V144H404.884V142ZM326.884 143L326.884 2.6H324.884L324.884 143H326.884ZM325.884 3.6H360.084V1.6H325.884V3.6ZM359.084 2.6L359.084 116.6H361.084L361.084 2.6H359.084ZM455.397 116.6H454.397V117.6H455.397V116.6ZM500.197 116.6H501.197V115.6H500.197V116.6ZM500.197 143V144H501.197V143H500.197ZM421.197 143H420.197V144H421.197V143ZM421.197 2.6V1.6H420.197V2.6H421.197ZM455.397 2.6H456.397V1.6H455.397V2.6ZM455.397 117.6H500.197V115.6H455.397V117.6ZM499.197 116.6V143H501.197V116.6H499.197ZM500.197 142L421.197 142V144L500.197 144V142ZM422.197 143L422.197 2.6H420.197L420.197 143H422.197ZM421.197 3.6H455.397V1.6H421.197V3.6ZM454.397 2.6L454.397 116.6H456.397L456.397 2.6H454.397ZM539.709 139.4L539.33 140.325L539.33 140.325L539.709 139.4ZM520.109 124.6L519.303 125.192L519.311 125.203L520.109 124.6ZM512.509 101V100H511.48L511.51 101.029L512.509 101ZM548.909 101L549.904 100.898L549.812 100H548.909V101ZM554.309 113L553.635 113.738L553.644 113.747L553.653 113.755L554.309 113ZM578.309 113.6L578.921 114.391L578.932 114.383L578.943 114.374L578.309 113.6ZM579.109 95.2L578.402 95.9071L578.412 95.9172L578.423 95.927L579.109 95.2ZM570.509 89.6L570.107 90.5153L570.113 90.5182L570.12 90.521L570.509 89.6ZM556.109 84.6L555.814 85.5555L555.824 85.5584L556.109 84.6ZM533.909 76.2L533.471 77.0986L533.909 76.2ZM519.109 63.8L519.907 63.1969L519.907 63.1969L519.109 63.8ZM527.109 11.8L527.722 12.5906L527.729 12.5852L527.109 11.8ZM601.509 11.8L600.89 12.5852L600.897 12.5905L601.509 11.8ZM616.709 42.6V43.6H617.761L617.708 42.5496L616.709 42.6ZM579.709 42.6L578.711 42.6587L578.766 43.6H579.709V42.6ZM574.709 32L574.053 32.7546L574.063 32.7629L574.072 32.771L574.709 32ZM552.909 31.4L553.554 32.1649L553.565 32.1552L553.576 32.1452L552.909 31.4ZM555.509 51.4L556.02 50.5401L556.02 50.5401L555.509 51.4ZM575.509 59.6L575.83 58.6526L575.817 58.6486L575.509 59.6ZM597.509 68.4L597.062 69.2945L597.071 69.2986L597.509 68.4ZM612.309 80.6L611.519 81.2126L611.519 81.2126L612.309 80.6ZM612.309 123L611.464 122.465L611.46 122.472L611.457 122.478L612.309 123ZM594.709 138.6L594.262 137.706L594.262 137.706L594.709 138.6ZM567.309 143.4C557.151 143.4 548.083 141.751 540.089 138.475L539.33 140.325C547.602 143.716 556.934 145.4 567.309 145.4V143.4ZM540.089 138.475C532.109 135.204 525.725 130.377 520.907 123.997L519.311 125.203C524.361 131.89 531.043 136.929 539.33 140.325L540.089 138.475ZM520.915 124.008C516.251 117.66 513.771 109.996 513.509 100.971L511.51 101.029C511.782 110.404 514.367 118.474 519.303 125.192L520.915 124.008ZM512.509 102H548.909V100H512.509V102ZM547.915 101.102C548.466 106.481 550.344 110.733 553.635 113.738L554.984 112.262C552.142 109.667 550.419 105.919 549.904 100.898L547.915 101.102ZM553.653 113.755C556.939 116.612 561.189 118 566.309 118V116C561.563 116 557.813 114.722 554.966 112.245L553.653 113.755ZM566.309 118C571.517 118 575.758 116.835 578.921 114.391L577.698 112.809C574.994 114.898 571.235 116 566.309 116V118ZM578.943 114.374C582.131 111.765 583.709 108.202 583.709 103.8H581.709C581.709 107.664 580.354 110.635 577.676 112.826L578.943 114.374ZM583.709 103.8C583.709 100.074 582.407 96.9389 579.796 94.473L578.423 95.927C580.612 97.9944 581.709 100.593 581.709 103.8H583.709ZM579.816 94.4929C577.444 92.1208 574.464 90.1873 570.899 88.679L570.12 90.521C573.488 91.9461 576.241 93.7459 578.402 95.9071L579.816 94.4929ZM570.912 88.6847C567.522 87.193 562.675 85.5124 556.395 83.6416L555.824 85.5584C562.077 87.4209 566.83 89.0736 570.107 90.5153L570.912 88.6847ZM556.404 83.6445C547.366 80.8532 540.019 78.0707 534.348 75.3014L533.471 77.0986C539.267 79.9293 546.72 82.7468 555.814 85.5555L556.404 83.6445ZM534.348 75.3014C528.766 72.5754 523.953 68.5478 519.907 63.1969L518.312 64.4031C522.533 69.9856 527.586 74.2246 533.471 77.0986L534.348 75.3014ZM519.907 63.1969C515.938 57.9477 513.909 51.0446 513.909 42.4H511.909C511.909 51.3554 514.014 58.7189 518.312 64.4031L519.907 63.1969ZM513.909 42.4C513.909 29.6102 518.524 19.7155 527.722 12.5905L526.497 11.0094C516.761 18.5512 511.909 29.0565 511.909 42.4H513.909ZM527.729 12.5852C536.977 5.29057 549.074 1.6 564.109 1.6V-0.400002C548.744 -0.400002 536.175 3.37609 526.49 11.0148L527.729 12.5852ZM564.109 1.6C579.416 1.6 591.644 5.29285 600.89 12.5852L602.129 11.0148C592.441 3.37381 579.736 -0.400002 564.109 -0.400002V1.6ZM600.897 12.5905C610.108 19.7255 615.057 29.7077 615.711 42.6504L617.708 42.5496C617.028 29.0923 611.845 18.5412 602.122 11.0094L600.897 12.5905ZM616.709 41.6H579.709V43.6H616.709V41.6ZM580.708 42.5413C580.427 37.7738 578.658 33.9651 575.346 31.229L574.072 32.771C576.894 35.1016 578.458 38.3595 578.711 42.6587L580.708 42.5413ZM575.366 31.2454C572.085 28.3927 567.905 27 562.909 27V29C567.514 29 571.2 30.274 574.053 32.7546L575.366 31.2454ZM562.909 27C558.586 27 554.997 28.1903 552.243 30.6548L553.576 32.1452C555.889 30.0763 558.966 29 562.909 29V27ZM552.265 30.6351C549.452 33.0043 548.109 36.4512 548.109 40.8H550.109C550.109 36.8821 551.3 34.0624 553.554 32.1649L552.265 30.6351ZM548.109 40.8C548.109 45.7248 550.463 49.5669 554.999 52.2598L556.02 50.5401C552.022 48.1664 550.109 44.9419 550.109 40.8H548.109ZM554.999 52.2598C559.364 54.8515 566.116 57.6121 575.202 60.5514L575.817 58.6486C566.769 55.7213 560.188 53.0152 556.02 50.5401L554.999 52.2598ZM575.189 60.5473C584.232 63.6061 591.519 66.5226 597.062 69.2944L597.957 67.5056C592.3 64.6774 584.92 61.7273 575.83 58.6527L575.189 60.5473ZM597.071 69.2986C602.658 72.0275 607.474 75.9931 611.519 81.2126L613.1 79.9874C608.878 74.5402 603.827 70.3724 597.948 67.5014L597.071 69.2986ZM611.519 81.2126C615.486 86.3313 617.509 92.9664 617.509 101.2H619.509C619.509 92.6336 617.399 85.5353 613.1 79.9874L611.519 81.2126ZM617.509 101.2C617.509 109.018 615.493 116.098 611.464 122.465L613.154 123.535C617.393 116.836 619.509 109.382 619.509 101.2H617.509ZM611.457 122.478C607.566 128.832 601.85 133.912 594.262 137.706L595.157 139.494C603.035 135.555 609.052 130.235 613.162 123.522L611.457 122.478ZM594.262 137.706C586.695 141.489 577.721 143.4 567.309 143.4V145.4C577.965 145.4 587.257 143.444 595.157 139.494L594.262 137.706ZM640.756 139.4L640.062 140.12L640.075 140.132L640.089 140.145L640.756 139.4ZM640.756 112.8L640.075 112.068L640.068 112.074L640.062 112.08L640.756 112.8ZM669.956 112.8L669.262 113.52L669.268 113.526L669.275 113.532L669.956 112.8ZM669.956 139.4L670.637 140.133L670.638 140.132L669.956 139.4ZM655.556 143.6C649.762 143.6 645.079 141.932 641.424 138.655L640.089 140.145C644.167 143.801 649.351 145.6 655.556 145.6V143.6ZM641.45 138.68C637.913 135.269 636.156 131.129 636.156 126.2H634.156C634.156 131.671 636.133 136.331 640.062 140.12L641.45 138.68ZM636.156 126.2C636.156 121.13 637.919 116.925 641.45 113.52L640.062 112.08C636.127 115.875 634.156 120.604 634.156 126.2H636.156ZM641.438 113.532C645.094 110.128 649.772 108.4 655.556 108.4V106.4C649.34 106.4 644.152 108.272 640.075 112.068L641.438 113.532ZM655.556 108.4C661.201 108.4 665.74 110.124 669.262 113.52L670.65 112.08C666.706 108.276 661.645 106.4 655.556 106.4V108.4ZM669.275 113.532C672.936 116.941 674.756 121.141 674.756 126.2H676.756C676.756 120.592 674.71 115.859 670.638 112.068L669.275 113.532ZM674.756 126.2C674.756 131.117 672.942 135.254 669.275 138.668L670.638 140.132C674.704 136.346 676.756 131.683 676.756 126.2H674.756ZM669.276 138.667C665.755 141.936 661.212 143.6 655.556 143.6V145.6C661.634 145.6 666.69 143.797 670.637 140.133L669.276 138.667Z" fill="#274546" fill-opacity="0.2"/>
</svg>
