<svg width="88" height="59" viewBox="0 0 88 59" fill="none" xmlns="http://www.w3.org/2000/svg">
<path d="M44.219 0.106445C32.6836 0.106445 25.4737 6.57466 22.5899 19.5107C26.9157 13.0425 31.9624 10.617 37.7303 12.2341C41.0209 13.1566 43.3731 15.8341 45.9767 18.7974C50.218 23.6254 55.1265 29.2128 65.8481 29.2128C77.3835 29.2128 84.5934 22.7446 87.4772 9.80857C83.1514 16.2768 78.1047 18.7023 72.3368 17.0852C69.0462 16.1627 66.694 13.4851 64.0904 10.5218C59.8491 5.69389 54.9406 0.106445 44.219 0.106445ZM22.5899 29.2128C11.0545 29.2128 3.84458 35.681 0.960815 48.6171C5.28663 42.1489 10.3333 39.7233 16.1012 41.3405C19.3918 42.2629 21.744 44.9405 24.3476 47.9038C28.5889 52.7318 33.4974 58.3192 44.219 58.3192C55.7544 58.3192 62.9643 51.851 65.8481 38.915C61.5223 45.3832 56.4756 47.8087 50.7077 46.1915C47.4171 45.2691 45.0649 42.5915 42.4613 39.6282C38.22 34.8003 33.3115 29.2128 22.5899 29.2128Z" fill="url(#paint0_linear_217_834)"/>
<defs>
<linearGradient id="paint0_linear_217_834" x1="-1.44261" y1="18.7345" x2="77.3026" y2="59.2217" gradientUnits="userSpaceOnUse">
<stop stop-color="#2298BD"/>
<stop offset="1" stop-color="#0ED7B5"/>
</linearGradient>
</defs>
</svg>
