<svg width="18" height="20" viewBox="0 0 16 18" fill="none" xmlns="http://www.w3.org/2000/svg">
<path d="M2.06763 4.84615C2.06763 3.56087 2.58138 2.32824 3.49587 1.41941C4.41036 0.510575 5.65068 0 6.94396 0C8.23724 0 9.47756 0.510575 10.392 1.41941C11.3065 2.32824 11.8203 3.56087 11.8203 4.84615C11.8203 4.93796 11.7836 5.02601 11.7183 5.09092C11.653 5.15584 11.5644 5.19231 11.472 5.19231C11.3796 5.19231 11.291 5.15584 11.2257 5.09092C11.1604 5.02601 11.1237 4.93796 11.1237 4.84615C11.1237 3.74449 10.6833 2.68794 9.89946 1.90894C9.11561 1.12994 8.05249 0.692308 6.94396 0.692308C5.83543 0.692308 4.7723 1.12994 3.98846 1.90894C3.20461 2.68794 2.76425 3.74449 2.76425 4.84615C2.76425 4.93796 2.72755 5.02601 2.66223 5.09092C2.59691 5.15584 2.50832 5.19231 2.41594 5.19231C2.32356 5.19231 2.23497 5.15584 2.16965 5.09092C2.10433 5.02601 2.06763 4.93796 2.06763 4.84615ZM13.9101 9C13.3929 8.99938 12.894 9.19037 12.5108 9.53567C12.4811 9.14934 12.3432 8.77896 12.1128 8.46641C11.8824 8.15386 11.5686 7.91161 11.2069 7.76702C10.8452 7.62244 10.45 7.5813 10.0659 7.64824C9.68193 7.71519 9.32441 7.88756 9.03381 8.14587V4.84615C9.03381 4.29532 8.81363 3.76705 8.42171 3.37755C8.02979 2.98805 7.49822 2.76923 6.94396 2.76923C6.38969 2.76923 5.85813 2.98805 5.46621 3.37755C5.07428 3.76705 4.8541 4.29532 4.8541 4.84615V12.9808L3.87361 11.4179C3.58913 10.9548 3.13357 10.6207 2.60439 10.4871C2.07522 10.3535 1.51445 10.431 1.04205 10.703C0.569645 10.9751 0.223133 11.4201 0.0766369 11.9428C-0.0698591 12.4655 -0.00470472 13.0244 0.258162 13.5L2.81127 17.8269C2.86103 17.8987 2.93617 17.9491 3.02171 17.9682C3.10725 17.9873 3.19689 17.9736 3.27274 17.9299C3.34858 17.8862 3.40506 17.8157 3.43089 17.7325C3.45673 17.6492 3.45002 17.5593 3.4121 17.4808L0.859866 13.1538C0.675112 12.8357 0.625078 12.4577 0.720773 12.103C0.816468 11.7482 1.05005 11.4457 1.37014 11.2621C1.69023 11.0785 2.0706 11.0288 2.42758 11.1239C2.78455 11.219 3.08889 11.4511 3.27365 11.7692L3.27975 11.7796L4.90635 14.3758C4.9463 14.4398 5.0062 14.4892 5.07695 14.5163C5.1477 14.5435 5.22543 14.5469 5.29834 14.5262C5.37125 14.5054 5.43535 14.4616 5.4809 14.4013C5.52645 14.3411 5.55097 14.2677 5.55072 14.1923V4.84615C5.55072 4.47893 5.69751 4.12675 5.95879 3.86708C6.22007 3.60742 6.57445 3.46154 6.94396 3.46154C7.31347 3.46154 7.66784 3.60742 7.92913 3.86708C8.19041 4.12675 8.3372 4.47893 8.3372 4.84615V10.7308C8.3372 10.8226 8.37389 10.9106 8.43921 10.9755C8.50453 11.0405 8.59313 11.0769 8.68551 11.0769C8.77788 11.0769 8.86648 11.0405 8.9318 10.9755C8.99712 10.9106 9.03381 10.8226 9.03381 10.7308V9.69231C9.03381 9.32509 9.1806 8.9729 9.44188 8.71324C9.70317 8.45357 10.0575 8.30769 10.4271 8.30769C10.7966 8.30769 11.1509 8.45357 11.4122 8.71324C11.6735 8.9729 11.8203 9.32509 11.8203 9.69231V11.4231C11.8203 11.5149 11.857 11.6029 11.9223 11.6678C11.9876 11.7328 12.0762 11.7692 12.1686 11.7692C12.261 11.7692 12.3496 11.7328 12.4149 11.6678C12.4802 11.6029 12.5169 11.5149 12.5169 11.4231V11.0769C12.5169 10.7097 12.6637 10.3575 12.925 10.0979C13.1863 9.83819 13.5406 9.69231 13.9101 9.69231C14.2797 9.69231 14.634 9.83819 14.8953 10.0979C15.1566 10.3575 15.3034 10.7097 15.3034 11.0769V14.1923C15.3034 16.1533 14.6494 17.486 14.6433 17.4989C14.6228 17.5396 14.6106 17.5839 14.6073 17.6293C14.6041 17.6747 14.6099 17.7202 14.6243 17.7634C14.6388 17.8066 14.6617 17.8465 14.6917 17.8808C14.7217 17.9152 14.7582 17.9433 14.7992 17.9637C14.8477 17.9875 14.901 17.9999 14.9551 18C15.0198 18 15.0832 17.9822 15.1383 17.9484C15.1933 17.9146 15.2379 17.8663 15.2668 17.8087C15.2964 17.749 16 16.3263 16 14.1923V11.0769C16 10.5261 15.7798 9.99782 15.3879 9.60832C14.996 9.21882 14.4644 9 13.9101 9Z" fill="#274546"/>
</svg>
