<svg width="1488" height="145" viewBox="0 0 1488 145" fill="none" xmlns="http://www.w3.org/2000/svg">
<path d="M109.4 2.6H110.4V1.6H109.4V2.6ZM109.4 30V31H110.4V30H109.4ZM72.2 30V29H71.2V30H72.2ZM72.2 143L72.2 144H73.2L73.2 143H72.2ZM38 143H37V144H38V143ZM38 30H39V29H38V30ZM0.8 30H-0.2V31H0.8L0.8 30ZM0.8 2.6V1.6H-0.2L-0.2 2.6H0.8ZM108.4 2.6V30H110.4V2.6H108.4ZM109.4 29H72.2V31H109.4V29ZM71.2 30L71.2 143H73.2L73.2 30H71.2ZM72.2 142H38V144H72.2L72.2 142ZM39 143L39 30H37L37 143H39ZM38 29H0.8L0.8 31H38V29ZM1.8 30L1.8 2.6H-0.2L-0.2 30H1.8ZM0.8 3.6L109.4 3.6V1.6L0.8 1.6L0.8 3.6ZM160.764 30V29H159.764V30H160.764ZM160.764 58.4H159.764V59.4H160.764V58.4ZM206.564 58.4H207.564V57.4H206.564V58.4ZM206.564 84.8V85.8H207.564V84.8H206.564ZM160.764 84.8V83.8H159.764V84.8H160.764ZM160.764 115.6H159.764V116.6H160.764V115.6ZM212.564 115.6H213.564V114.6H212.564V115.6ZM212.564 143V144H213.564V143H212.564ZM126.564 143H125.564V144H126.564V143ZM126.564 2.6V1.6H125.564V2.6H126.564ZM212.564 2.6H213.564V1.6H212.564V2.6ZM212.564 30V31H213.564V30H212.564ZM159.764 30V58.4H161.764V30H159.764ZM160.764 59.4H206.564V57.4H160.764V59.4ZM205.564 58.4V84.8H207.564V58.4H205.564ZM206.564 83.8H160.764V85.8H206.564V83.8ZM159.764 84.8V115.6H161.764V84.8H159.764ZM160.764 116.6H212.564V114.6H160.764V116.6ZM211.564 115.6V143H213.564V115.6H211.564ZM212.564 142H126.564V144H212.564V142ZM127.564 143L127.564 2.6H125.564L125.564 143H127.564ZM126.564 3.6L212.564 3.6V1.6L126.564 1.6V3.6ZM211.564 2.6L211.564 30H213.564L213.564 2.6H211.564ZM212.564 29H160.764V31H212.564V29ZM257.967 139.4L257.588 140.325L257.588 140.325L257.967 139.4ZM238.367 124.6L237.561 125.192L237.569 125.203L238.367 124.6ZM230.767 101V100H229.738L229.768 101.029L230.767 101ZM267.167 101L268.162 100.898L268.07 100H267.167V101ZM272.567 113L271.893 113.738L271.902 113.747L271.911 113.755L272.567 113ZM296.567 113.6L297.179 114.391L297.19 114.383L297.2 114.374L296.567 113.6ZM297.367 95.2L296.66 95.9071L296.67 95.9172L296.681 95.927L297.367 95.2ZM288.767 89.6L288.364 90.5153L288.371 90.5182L288.378 90.521L288.767 89.6ZM274.367 84.6L274.072 85.5555L274.082 85.5584L274.367 84.6ZM252.167 76.2L251.728 77.0986L252.167 76.2ZM237.367 63.8L238.165 63.1969L238.165 63.1969L237.367 63.8ZM245.367 11.8L245.98 12.5906L245.986 12.5852L245.367 11.8ZM319.767 11.8L319.148 12.5852L319.155 12.5905L319.767 11.8ZM334.967 42.6V43.6H336.019L335.966 42.5496L334.967 42.6ZM297.967 42.6L296.969 42.6587L297.024 43.6H297.967V42.6ZM292.967 32L292.311 32.7546L292.321 32.7629L292.33 32.771L292.967 32ZM271.167 31.4L271.811 32.1649L271.823 32.1552L271.834 32.1452L271.167 31.4ZM273.767 51.4L274.278 50.5401L274.278 50.5401L273.767 51.4ZM293.767 59.6L294.088 58.6526L294.075 58.6486L293.767 59.6ZM315.767 68.4L315.32 69.2945L315.328 69.2986L315.767 68.4ZM330.567 80.6L329.777 81.2126L329.777 81.2126L330.567 80.6ZM330.567 123L329.722 122.465L329.718 122.472L329.714 122.478L330.567 123ZM312.967 138.6L312.52 137.706L312.52 137.706L312.967 138.6ZM285.567 143.4C275.409 143.4 266.341 141.751 258.346 138.475L257.588 140.325C265.86 143.716 275.192 145.4 285.567 145.4V143.4ZM258.346 138.475C250.366 135.204 243.982 130.377 239.165 123.997L237.569 125.203C242.619 131.89 249.301 136.929 257.588 140.325L258.346 138.475ZM239.173 124.008C234.509 117.66 232.028 109.996 231.767 100.971L229.768 101.029C230.039 110.404 232.625 118.474 237.561 125.192L239.173 124.008ZM230.767 102L267.167 102V100L230.767 100V102ZM266.172 101.102C266.724 106.481 268.602 110.733 271.893 113.738L273.241 112.262C270.4 109.667 268.677 105.919 268.162 100.898L266.172 101.102ZM271.911 113.755C275.197 116.612 279.447 118 284.567 118V116C279.821 116 276.071 114.722 273.223 112.245L271.911 113.755ZM284.567 118C289.775 118 294.016 116.835 297.179 114.391L295.956 112.809C293.252 114.898 289.493 116 284.567 116V118ZM297.2 114.374C300.389 111.765 301.967 108.202 301.967 103.8H299.967C299.967 107.664 298.612 110.635 295.934 112.826L297.2 114.374ZM301.967 103.8C301.967 100.074 300.665 96.9389 298.054 94.473L296.681 95.927C298.87 97.9944 299.967 100.593 299.967 103.8H301.967ZM298.074 94.4929C295.702 92.1208 292.722 90.1873 289.157 88.679L288.378 90.521C291.746 91.9461 294.499 93.7459 296.66 95.9071L298.074 94.4929ZM289.17 88.6847C285.78 87.193 280.933 85.5124 274.653 83.6416L274.082 85.5584C280.334 87.4209 285.088 89.0736 288.364 90.5153L289.17 88.6847ZM274.662 83.6445C265.624 80.8532 258.277 78.0707 252.606 75.3014L251.728 77.0986C257.525 79.9293 264.977 82.7468 274.072 85.5555L274.662 83.6445ZM252.606 75.3014C247.024 72.5754 242.211 68.5478 238.165 63.1969L236.57 64.4031C240.79 69.9856 245.844 74.2246 251.728 77.0986L252.606 75.3014ZM238.165 63.1969C234.196 57.9477 232.167 51.0446 232.167 42.4H230.167C230.167 51.3554 232.272 58.7189 236.57 64.4031L238.165 63.1969ZM232.167 42.4C232.167 29.6102 236.782 19.7155 245.98 12.5905L244.755 11.0094C235.019 18.5512 230.167 29.0565 230.167 42.4H232.167ZM245.986 12.5852C255.235 5.29057 267.332 1.6 282.367 1.6V-0.400002C267.002 -0.400002 254.433 3.37609 244.748 11.0148L245.986 12.5852ZM282.367 1.6C297.674 1.6 309.902 5.29285 319.148 12.5852L320.386 11.0148C310.699 3.37381 297.994 -0.400002 282.367 -0.400002V1.6ZM319.155 12.5905C328.365 19.7255 333.315 29.7077 333.968 42.6504L335.966 42.5496C335.286 29.0923 330.102 18.5412 320.38 11.0094L319.155 12.5905ZM334.967 41.6L297.967 41.6V43.6L334.967 43.6V41.6ZM298.965 42.5413C298.685 37.7738 296.916 33.9651 293.604 31.229L292.33 32.771C295.152 35.1016 296.716 38.3595 296.969 42.6587L298.965 42.5413ZM293.623 31.2454C290.343 28.3927 286.162 27 281.167 27V29C285.772 29 289.458 30.274 292.311 32.7546L293.623 31.2454ZM281.167 27C276.844 27 273.255 28.1903 270.5 30.6548L271.834 32.1452C274.146 30.0763 277.224 29 281.167 29V27ZM270.523 30.6351C267.71 33.0043 266.367 36.4512 266.367 40.8H268.367C268.367 36.8821 269.558 34.0624 271.811 32.1649L270.523 30.6351ZM266.367 40.8C266.367 45.7248 268.721 49.5669 273.257 52.2598L274.278 50.5401C270.28 48.1664 268.367 44.9419 268.367 40.8H266.367ZM273.257 52.2598C277.622 54.8515 284.374 57.6121 293.459 60.5514L294.075 58.6486C285.027 55.7213 278.446 53.0152 274.278 50.5401L273.257 52.2598ZM293.447 60.5473C302.49 63.6061 309.776 66.5226 315.32 69.2944L316.214 67.5056C310.558 64.6774 303.178 61.7273 294.088 58.6527L293.447 60.5473ZM315.328 69.2986C320.916 72.0275 325.732 75.9931 329.777 81.2126L331.358 79.9874C327.136 74.5402 322.085 70.3724 316.206 67.5014L315.328 69.2986ZM329.777 81.2126C333.744 86.3313 335.767 92.9664 335.767 101.2H337.767C337.767 92.6336 335.657 85.5353 331.358 79.9874L329.777 81.2126ZM335.767 101.2C335.767 109.018 333.751 116.098 329.722 122.465L331.412 123.535C335.65 116.836 337.767 109.382 337.767 101.2H335.767ZM329.714 122.478C325.824 128.832 320.108 133.912 312.52 137.706L313.414 139.494C321.293 135.555 327.31 130.235 331.42 123.522L329.714 122.478ZM312.52 137.706C304.953 141.489 295.979 143.4 285.567 143.4V145.4C296.222 145.4 305.515 143.444 313.414 139.494L312.52 137.706ZM458.814 2.6H459.814V1.6H458.814V2.6ZM458.814 30V31H459.814V30H458.814ZM421.614 30V29H420.614V30H421.614ZM421.614 143V144H422.614V143H421.614ZM387.414 143H386.414V144H387.414V143ZM387.414 30H388.414V29H387.414V30ZM350.214 30H349.214V31H350.214V30ZM350.214 2.6V1.6H349.214V2.6H350.214ZM457.814 2.6V30H459.814V2.6H457.814ZM458.814 29H421.614V31H458.814V29ZM420.614 30L420.614 143H422.614L422.614 30H420.614ZM421.614 142H387.414V144H421.614V142ZM388.414 143L388.414 30H386.414L386.414 143H388.414ZM387.414 29H350.214V31H387.414V29ZM351.214 30V2.6H349.214V30H351.214ZM350.214 3.6L458.814 3.6V1.6L350.214 1.6V3.6ZM510.178 2.6H511.178V1.6H510.178V2.6ZM510.178 143V144H511.178V143H510.178ZM475.978 143H474.978V144H475.978V143ZM475.978 2.6V1.6H474.978V2.6H475.978ZM509.178 2.6V143H511.178V2.6H509.178ZM510.178 142H475.978V144H510.178V142ZM476.978 143L476.978 2.6H474.978L474.978 143H476.978ZM475.978 3.6L510.178 3.6V1.6L475.978 1.6V3.6ZM693.963 2.6H694.963V1.6H693.963V2.6ZM693.963 143V144H694.963V143H693.963ZM659.763 143H658.763V144H659.763V143ZM659.763 58.8H660.763L658.826 58.4506L659.763 58.8ZM628.363 143V144H629.057L629.299 143.349L628.363 143ZM600.763 143L599.826 143.351L600.069 144H600.763V143ZM569.163 58.6L570.099 58.2494L568.163 58.6H569.163ZM569.163 143V144H570.163V143H569.163ZM534.963 143H533.963V144H534.963V143ZM534.963 2.6V1.6H533.963V2.6H534.963ZM575.362 2.6L576.289 2.22433L576.036 1.6H575.362V2.6ZM614.763 99.8L613.836 100.176L614.767 102.474L615.691 100.172L614.763 99.8ZM653.763 2.6V1.6H653.086L652.834 2.22762L653.763 2.6ZM692.963 2.6V143H694.963V2.6H692.963ZM693.963 142H659.763V144H693.963V142ZM660.763 143V58.8H658.763V143H660.763ZM658.826 58.4506L627.426 142.651L629.299 143.349L660.699 59.1494L658.826 58.4506ZM628.363 142L600.763 142V144L628.363 144V142ZM601.699 142.649L570.099 58.2494L568.226 58.9506L599.826 143.351L601.699 142.649ZM568.163 58.6V143H570.163V58.6H568.163ZM569.163 142H534.963V144H569.163V142ZM535.963 143V2.6H533.963V143H535.963ZM534.963 3.6L575.362 3.6V1.6L534.963 1.6V3.6ZM574.436 2.97566L613.836 100.176L615.689 99.4243L576.289 2.22433L574.436 2.97566ZM615.691 100.172L654.691 2.97237L652.834 2.22762L613.834 99.4276L615.691 100.172ZM653.763 3.6L693.963 3.6V1.6L653.763 1.6V3.6ZM748.556 135.2L748.067 136.072L748.072 136.075L748.556 135.2ZM722.356 109.6L721.491 110.101L721.494 110.107L721.498 110.113L722.356 109.6ZM722.356 35.4L721.498 34.887L721.493 34.8948L722.356 35.4ZM748.556 9.8L748.071 8.92533L748.067 8.92786L748.556 9.8ZM821.156 9.8L820.667 10.6722L820.672 10.6747L821.156 9.8ZM847.156 35.4L846.289 35.8973L846.293 35.9052L847.156 35.4ZM847.156 109.6L848.019 110.105L848.022 110.101L847.156 109.6ZM821.156 135.2L821.646 136.072L821.646 136.072L821.156 135.2ZM811.756 102L811.017 101.327L811.01 101.334L811.756 102ZM811.756 42.8L811.01 43.466L811.017 43.473L811.023 43.4799L811.756 42.8ZM757.756 42.6L757.023 41.92L757.016 41.9273L757.756 42.6ZM757.756 102.2L757.01 102.866L757.017 102.873L757.023 102.88L757.756 102.2ZM784.956 143.4C771.918 143.4 759.953 140.373 749.041 134.325L748.072 136.075C759.293 142.294 771.594 145.4 784.956 145.4V143.4ZM749.046 134.328C738.267 128.281 729.66 119.873 723.215 109.087L721.498 110.113C728.119 121.194 736.979 129.852 748.067 136.072L749.046 134.328ZM723.222 109.099C716.916 98.1961 713.756 85.971 713.756 72.4H711.756C711.756 86.2956 714.996 98.8705 721.491 110.101L723.222 109.099ZM713.756 72.4C713.756 58.8288 716.916 46.6725 723.219 35.9052L721.493 34.8948C714.996 45.9942 711.756 58.5045 711.756 72.4H713.756ZM723.215 35.9129C729.66 25.127 738.267 16.7186 749.046 10.6721L748.067 8.92786C736.979 15.1481 728.119 23.8063 721.498 34.887L723.215 35.9129ZM749.041 10.6747C759.953 4.62715 771.918 1.6 784.956 1.6V-0.400002C771.594 -0.400002 759.293 2.70618 748.072 8.92534L749.041 10.6747ZM784.956 1.6C797.994 1.6 809.891 4.62712 820.667 10.6721L821.646 8.92786C810.555 2.7062 798.318 -0.400002 784.956 -0.400002V1.6ZM820.672 10.6747C831.579 16.7199 840.113 25.123 846.289 35.8973L848.024 34.9027C841.666 23.8103 832.867 15.1468 821.641 8.92534L820.672 10.6747ZM846.293 35.9052C852.596 46.6725 855.756 58.8288 855.756 72.4H857.756C857.756 58.5045 854.516 45.9942 848.019 34.8948L846.293 35.9052ZM855.756 72.4C855.756 85.971 852.596 98.1961 846.291 109.099L848.022 110.101C854.516 98.8705 857.756 86.2956 857.756 72.4H855.756ZM846.293 109.095C839.982 119.877 831.444 128.282 820.667 134.328L821.646 136.072C832.736 129.851 841.53 121.19 848.019 110.105L846.293 109.095ZM820.667 134.328C809.891 140.373 797.994 143.4 784.956 143.4V145.4C798.318 145.4 810.555 142.294 821.646 136.072L820.667 134.328ZM784.956 114.2C796.403 114.2 805.622 110.372 812.502 102.666L811.01 101.334C804.557 108.562 795.909 112.2 784.956 112.2V114.2ZM812.496 102.673C819.498 94.9848 822.956 84.8595 822.956 72.4H820.956C820.956 84.4738 817.615 94.0819 811.017 101.327L812.496 102.673ZM822.956 72.4C822.956 59.8112 819.5 49.68 812.49 42.1201L811.023 43.4799C817.613 50.5866 820.956 60.1888 820.956 72.4H822.956ZM812.502 42.134C805.622 34.4282 796.403 30.6 784.956 30.6V32.6C795.909 32.6 804.557 36.2384 811.01 43.466L812.502 42.134ZM784.956 30.6C773.385 30.6 764.038 34.3545 757.023 41.9201L758.49 43.2799C765.074 36.1788 773.86 32.6 784.956 32.6V30.6ZM757.016 41.9273C750.141 49.4897 746.756 59.6862 746.756 72.4H748.756C748.756 60.0471 752.038 50.377 758.496 43.2727L757.016 41.9273ZM746.756 72.4C746.756 84.9846 750.143 95.1751 757.01 102.866L758.502 101.534C752.036 94.2915 748.756 84.6154 748.756 72.4H746.756ZM757.023 102.88C764.038 110.446 773.385 114.2 784.956 114.2V112.2C773.86 112.2 765.074 108.621 758.49 101.52L757.023 102.88ZM1001.38 143V144H1002.38V143H1001.38ZM967.183 143L966.348 143.551L966.645 144H967.183V143ZM909.983 56.4L910.817 55.8489L908.983 53.0716V56.4H909.983ZM909.983 143V144H910.983V143H909.983ZM875.783 143H874.783V144H875.783V143ZM875.783 2.6V1.6H874.783V2.6H875.783ZM909.983 2.6L910.818 2.05063L910.522 1.6H909.983V2.6ZM967.183 89.6L966.347 90.1494L968.183 92.9412V89.6L967.183 89.6ZM967.183 2.6V1.6H966.183V2.6H967.183ZM1001.38 2.6H1002.38V1.6H1001.38V2.6ZM1001.38 142L967.183 142V144L1001.38 144V142ZM968.017 142.449L910.817 55.8489L909.148 56.9511L966.348 143.551L968.017 142.449ZM908.983 56.4V143H910.983V56.4H908.983ZM909.983 142H875.783V144H909.983V142ZM876.783 143V2.6H874.783V143H876.783ZM875.783 3.6H909.983V1.6H875.783V3.6ZM909.147 3.14937L966.347 90.1494L968.018 89.0506L910.818 2.05063L909.147 3.14937ZM968.183 89.6V2.6H966.183V89.6L968.183 89.6ZM967.183 3.6H1001.38V1.6H967.183V3.6ZM1000.38 2.6V143H1002.38V2.6H1000.38ZM1060.37 2.6H1061.37V1.6H1060.37V2.6ZM1060.37 143V144H1061.37V143H1060.37ZM1026.17 143H1025.17V144H1026.17V143ZM1026.17 2.6V1.6H1025.17V2.6H1026.17ZM1059.37 2.6V143H1061.37V2.6H1059.37ZM1060.37 142H1026.17V144H1060.37V142ZM1027.17 143V2.6H1025.17V143H1027.17ZM1026.17 3.6H1060.37V1.6H1026.17V3.6ZM1172.56 118.2L1173.5 117.879L1173.27 117.2H1172.56V118.2ZM1120.16 118.2V117.2H1119.44L1119.21 117.879L1120.16 118.2ZM1111.76 143V144H1112.47L1112.7 143.321L1111.76 143ZM1075.96 143L1075.02 142.66L1074.53 144H1075.96V143ZM1126.76 2.6V1.6H1126.06L1125.82 2.25976L1126.76 2.6ZM1166.36 2.6L1167.3 2.25976L1167.06 1.6H1166.36V2.6ZM1217.16 143V144H1218.58L1218.1 142.66L1217.16 143ZM1180.96 143L1180.01 143.321L1180.24 144H1180.96V143ZM1163.76 91.8V92.8H1165.15L1164.71 91.4794L1163.76 91.8ZM1146.36 40.4L1147.31 40.0794L1146.35 37.2651L1145.41 40.0827L1146.36 40.4ZM1129.16 91.8L1128.21 91.4827L1127.77 92.8H1129.16V91.8ZM1172.56 117.2L1120.16 117.2V119.2L1172.56 119.2V117.2ZM1119.21 117.879L1110.81 142.679L1112.7 143.321L1121.1 118.521L1119.21 117.879ZM1111.76 142H1075.96V144H1111.76V142ZM1076.9 143.34L1127.7 2.94023L1125.82 2.25976L1075.02 142.66L1076.9 143.34ZM1126.76 3.6H1166.36V1.6H1126.76V3.6ZM1165.42 2.94023L1216.22 143.34L1218.1 142.66L1167.3 2.25976L1165.42 2.94023ZM1217.16 142H1180.96V144H1217.16V142ZM1181.9 142.679L1173.5 117.879L1171.61 118.521L1180.01 143.321L1181.9 142.679ZM1164.71 91.4794L1147.31 40.0794L1145.41 40.7206L1162.81 92.1206L1164.71 91.4794ZM1145.41 40.0827L1128.21 91.4827L1130.11 92.1173L1147.31 40.7173L1145.41 40.0827ZM1129.16 92.8L1163.76 92.8V90.8L1129.16 90.8V92.8ZM1266.82 116.6H1265.82V117.6H1266.82V116.6ZM1311.62 116.6H1312.62V115.6H1311.62V116.6ZM1311.62 143V144H1312.62V143H1311.62ZM1232.62 143H1231.62V144H1232.62V143ZM1232.62 2.6V1.6H1231.62V2.6H1232.62ZM1266.82 2.6H1267.82V1.6H1266.82V2.6ZM1266.82 117.6H1311.62V115.6H1266.82V117.6ZM1310.62 116.6V143H1312.62V116.6H1310.62ZM1311.62 142H1232.62V144H1311.62V142ZM1233.62 143V2.6H1231.62V143H1233.62ZM1232.62 3.6H1266.82V1.6H1232.62V3.6ZM1265.82 2.6V116.6H1267.82V2.6H1265.82ZM1351.13 139.4L1350.75 140.325L1350.75 140.325L1351.13 139.4ZM1331.53 124.6L1330.73 125.192L1330.73 125.203L1331.53 124.6ZM1323.93 101V100H1322.9L1322.93 101.029L1323.93 101ZM1360.33 101L1361.33 100.898L1361.23 100H1360.33V101ZM1365.73 113L1365.06 113.738L1365.07 113.747L1365.08 113.755L1365.73 113ZM1389.73 113.6L1390.34 114.391L1390.35 114.383L1390.36 114.374L1389.73 113.6ZM1390.53 95.2L1389.82 95.9071L1389.83 95.9172L1389.84 95.927L1390.53 95.2ZM1381.93 89.6L1381.53 90.5153L1381.54 90.5182L1381.54 90.521L1381.93 89.6ZM1367.53 84.6L1367.24 85.5555L1367.25 85.5584L1367.53 84.6ZM1345.33 76.2L1344.89 77.0986L1345.33 76.2ZM1330.53 63.8L1331.33 63.1969L1331.33 63.1969L1330.53 63.8ZM1338.53 11.8L1339.14 12.5906L1339.15 12.5852L1338.53 11.8ZM1412.93 11.8L1412.31 12.5852L1412.32 12.5905L1412.93 11.8ZM1428.13 42.6V43.6H1429.18L1429.13 42.5496L1428.13 42.6ZM1391.13 42.6L1390.13 42.6587L1390.19 43.6H1391.13V42.6ZM1386.13 32L1385.48 32.7546L1385.48 32.7629L1385.49 32.771L1386.13 32ZM1364.33 31.4L1364.98 32.1649L1364.99 32.1552L1365 32.1452L1364.33 31.4ZM1366.93 51.4L1367.44 50.5401L1367.44 50.5401L1366.93 51.4ZM1386.93 59.6L1387.25 58.6526L1387.24 58.6486L1386.93 59.6ZM1408.93 68.4L1408.48 69.2945L1408.49 69.2986L1408.93 68.4ZM1423.73 80.6L1422.94 81.2126L1422.94 81.2126L1423.73 80.6ZM1423.73 123L1422.89 122.465L1422.88 122.472L1422.88 122.478L1423.73 123ZM1406.13 138.6L1405.68 137.706L1405.68 137.706L1406.13 138.6ZM1378.73 143.4C1368.57 143.4 1359.51 141.751 1351.51 138.475L1350.75 140.325C1359.02 143.716 1368.36 145.4 1378.73 145.4V143.4ZM1351.51 138.475C1343.53 135.204 1337.15 130.377 1332.33 123.997L1330.73 125.203C1335.78 131.89 1342.47 136.929 1350.75 140.325L1351.51 138.475ZM1332.34 124.008C1327.67 117.66 1325.19 109.996 1324.93 100.971L1322.93 101.029C1323.2 110.404 1325.79 118.474 1330.73 125.192L1332.34 124.008ZM1323.93 102H1360.33V100H1323.93V102ZM1359.34 101.102C1359.89 106.481 1361.77 110.733 1365.06 113.738L1366.41 112.262C1363.56 109.667 1361.84 105.919 1361.33 100.898L1359.34 101.102ZM1365.08 113.755C1368.36 116.612 1372.61 118 1377.73 118V116C1372.99 116 1369.24 114.722 1366.39 112.245L1365.08 113.755ZM1377.73 118C1382.94 118 1387.18 116.835 1390.34 114.391L1389.12 112.809C1386.42 114.898 1382.66 116 1377.73 116V118ZM1390.36 114.374C1393.55 111.765 1395.13 108.202 1395.13 103.8H1393.13C1393.13 107.664 1391.78 110.635 1389.1 112.826L1390.36 114.374ZM1395.13 103.8C1395.13 100.074 1393.83 96.9389 1391.22 94.473L1389.84 95.927C1392.03 97.9944 1393.13 100.593 1393.13 103.8H1395.13ZM1391.24 94.4929C1388.87 92.1208 1385.89 90.1873 1382.32 88.679L1381.54 90.521C1384.91 91.9461 1387.66 93.7459 1389.82 95.9071L1391.24 94.4929ZM1382.33 88.6847C1378.94 87.193 1374.1 85.5124 1367.82 83.6416L1367.25 85.5584C1373.5 87.4209 1378.25 89.0736 1381.53 90.5153L1382.33 88.6847ZM1367.83 83.6445C1358.79 80.8532 1351.44 78.0707 1345.77 75.3014L1344.89 77.0986C1350.69 79.9293 1358.14 82.7468 1367.24 85.5555L1367.83 83.6445ZM1345.77 75.3014C1340.19 72.5754 1335.37 68.5478 1331.33 63.1969L1329.73 64.4031C1333.95 69.9856 1339.01 74.2246 1344.89 77.0986L1345.77 75.3014ZM1331.33 63.1969C1327.36 57.9477 1325.33 51.0446 1325.33 42.4H1323.33C1323.33 51.3554 1325.44 58.7189 1329.73 64.4031L1331.33 63.1969ZM1325.33 42.4C1325.33 29.6102 1329.95 19.7155 1339.14 12.5905L1337.92 11.0094C1328.18 18.5512 1323.33 29.0565 1323.33 42.4H1325.33ZM1339.15 12.5852C1348.4 5.29057 1360.5 1.6 1375.53 1.6V-0.400002C1360.17 -0.400002 1347.6 3.37609 1337.91 11.0148L1339.15 12.5852ZM1375.53 1.6C1390.84 1.6 1403.07 5.29285 1412.31 12.5852L1413.55 11.0148C1403.86 3.37381 1391.16 -0.400002 1375.53 -0.400002V1.6ZM1412.32 12.5905C1421.53 19.7255 1426.48 29.7077 1427.13 42.6504L1429.13 42.5496C1428.45 29.0923 1423.27 18.5412 1413.54 11.0094L1412.32 12.5905ZM1428.13 41.6H1391.13V43.6H1428.13V41.6ZM1392.13 42.5413C1391.85 37.7738 1390.08 33.9651 1386.77 31.229L1385.49 32.771C1388.32 35.1016 1389.88 38.3595 1390.13 42.6587L1392.13 42.5413ZM1386.79 31.2454C1383.51 28.3927 1379.33 27 1374.33 27V29C1378.94 29 1382.62 30.274 1385.48 32.7546L1386.79 31.2454ZM1374.33 27C1370.01 27 1366.42 28.1903 1363.66 30.6548L1365 32.1452C1367.31 30.0763 1370.39 29 1374.33 29V27ZM1363.69 30.6351C1360.87 33.0043 1359.53 36.4512 1359.53 40.8H1361.53C1361.53 36.8821 1362.72 34.0624 1364.98 32.1649L1363.69 30.6351ZM1359.53 40.8C1359.53 45.7248 1361.89 49.5669 1366.42 52.2598L1367.44 50.5401C1363.44 48.1664 1361.53 44.9419 1361.53 40.8H1359.53ZM1366.42 52.2598C1370.79 54.8515 1377.54 57.6121 1386.62 60.5514L1387.24 58.6486C1378.19 55.7213 1371.61 53.0152 1367.44 50.5401L1366.42 52.2598ZM1386.61 60.5473C1395.65 63.6061 1402.94 66.5226 1408.48 69.2944L1409.38 67.5056C1403.72 64.6774 1396.34 61.7273 1387.25 58.6527L1386.61 60.5473ZM1408.49 69.2986C1414.08 72.0275 1418.9 75.9931 1422.94 81.2126L1424.52 79.9874C1420.3 74.5402 1415.25 70.3724 1409.37 67.5014L1408.49 69.2986ZM1422.94 81.2126C1426.91 86.3313 1428.93 92.9664 1428.93 101.2H1430.93C1430.93 92.6336 1428.82 85.5353 1424.52 79.9874L1422.94 81.2126ZM1428.93 101.2C1428.93 109.018 1426.91 116.098 1422.89 122.465L1424.58 123.535C1428.81 116.836 1430.93 109.382 1430.93 101.2H1428.93ZM1422.88 122.478C1418.99 128.832 1413.27 133.912 1405.68 137.706L1406.58 139.494C1414.46 135.555 1420.47 130.235 1424.58 123.522L1422.88 122.478ZM1405.68 137.706C1398.12 141.489 1389.14 143.4 1378.73 143.4V145.4C1389.39 145.4 1398.68 143.444 1406.58 139.494L1405.68 137.706ZM1452.18 139.4L1451.48 140.12L1451.5 140.132L1451.51 140.145L1452.18 139.4ZM1452.18 112.8L1451.5 112.068L1451.49 112.074L1451.48 112.08L1452.18 112.8ZM1481.38 112.8L1480.68 113.52L1480.69 113.526L1480.7 113.532L1481.38 112.8ZM1481.38 139.4L1482.06 140.133L1482.06 140.132L1481.38 139.4ZM1466.98 143.6C1461.18 143.6 1456.5 141.932 1452.85 138.655L1451.51 140.145C1455.59 143.801 1460.77 145.6 1466.98 145.6V143.6ZM1452.87 138.68C1449.33 135.269 1447.58 131.129 1447.58 126.2H1445.58C1445.58 131.671 1447.55 136.331 1451.48 140.12L1452.87 138.68ZM1447.58 126.2C1447.58 121.13 1449.34 116.925 1452.87 113.52L1451.48 112.08C1447.55 115.875 1445.58 120.604 1445.58 126.2H1447.58ZM1452.86 113.532C1456.52 110.128 1461.19 108.4 1466.98 108.4V106.4C1460.76 106.4 1455.57 108.272 1451.5 112.068L1452.86 113.532ZM1466.98 108.4C1472.62 108.4 1477.16 110.124 1480.68 113.52L1482.07 112.08C1478.13 108.276 1473.07 106.4 1466.98 106.4V108.4ZM1480.7 113.532C1484.36 116.941 1486.18 121.141 1486.18 126.2H1488.18C1488.18 120.592 1486.13 115.859 1482.06 112.068L1480.7 113.532ZM1486.18 126.2C1486.18 131.117 1484.36 135.254 1480.7 138.668L1482.06 140.132C1486.13 136.346 1488.18 131.683 1488.18 126.2H1486.18ZM1480.7 138.667C1477.18 141.936 1472.63 143.6 1466.98 143.6V145.6C1473.06 145.6 1478.11 143.797 1482.06 140.133L1480.7 138.667Z" fill="#274546" fill-opacity="0.2"/>
</svg>
