<svg width="25" height="26" viewBox="0 0 25 26" fill="none" xmlns="http://www.w3.org/2000/svg">
<path d="M19.4587 9.22997C18.9766 9.44357 18.4588 9.5879 17.9144 9.65313C18.4761 9.31702 18.8964 8.78802 19.0967 8.16484C18.569 8.47831 17.9914 8.69896 17.389 8.81719C16.984 8.38471 16.4475 8.09806 15.8628 8.00173C15.2782 7.90541 14.6781 8.0048 14.1557 8.28448C13.6333 8.56417 13.2179 9.00849 12.9739 9.54847C12.7299 10.0884 12.671 10.6939 12.8064 11.2707C11.737 11.2171 10.6909 10.9391 9.73592 10.455C8.78093 9.9708 7.93842 9.29126 7.26306 8.46042C7.03214 8.85876 6.89936 9.3206 6.89936 9.81247C6.8991 10.2553 7.00814 10.6913 7.21681 11.0818C7.42548 11.4724 7.72731 11.8054 8.09554 12.0513C7.66849 12.0377 7.25087 11.9223 6.87742 11.7147V11.7493C6.87738 12.3704 7.0922 12.9723 7.48543 13.453C7.87867 13.9336 8.42609 14.2635 9.03482 14.3865C8.63866 14.4937 8.22332 14.5095 7.82017 14.4327C7.99191 14.967 8.32646 15.4343 8.77698 15.7691C9.22749 16.1039 9.77142 16.2894 10.3326 16.2997C9.37995 17.0475 8.20343 17.4532 6.99231 17.4514C6.77777 17.4515 6.56341 17.4389 6.35034 17.4139C7.5797 18.2043 9.01077 18.6238 10.4723 18.6222C15.4198 18.6222 18.1245 14.5245 18.1245 10.9705C18.1245 10.8551 18.1216 10.7385 18.1164 10.623C18.6425 10.2425 19.0967 9.77142 19.4575 9.2317L19.4587 9.22997Z" fill="#274546"/>
<circle cx="12.4121" cy="12.873" r="11.9121" stroke="#274546"/>
</svg>
